%TF.GenerationSoftware,KiCad,Pcbnew,7.0.9-7.0.9~ubuntu22.04.1*%
%TF.CreationDate,2023-12-08T17:36:02+03:00*%
%TF.ProjectId,Keeb,4b656562-2e6b-4696-9361-645f70636258,rev?*%
%TF.SameCoordinates,Original*%
%TF.FileFunction,Drillmap*%
%TF.FilePolarity,Positive*%
%FSLAX45Y45*%
G04 Gerber Fmt 4.5, Leading zero omitted, Abs format (unit mm)*
G04 Created by KiCad (PCBNEW 7.0.9-7.0.9~ubuntu22.04.1) date 2023-12-08 17:36:02*
%MOMM*%
%LPD*%
G01*
G04 APERTURE LIST*
%ADD10C,0.050000*%
%ADD11C,0.200000*%
%ADD12C,0.100000*%
%ADD13C,0.101600*%
G04 APERTURE END LIST*
D10*
X10260000Y-3752044D02*
X10260000Y-11848294D01*
X19880250Y-10229044D02*
X19880250Y-3752044D01*
X14832000Y-13134169D02*
X18213375Y-13134169D01*
X10641000Y-3371044D02*
G75*
G03*
X10260000Y-3752044I0J-381000D01*
G01*
X19499250Y-3371044D02*
X10641000Y-3371044D01*
X12927000Y-12229294D02*
X14832000Y-13134169D01*
X19880246Y-3752044D02*
G75*
G03*
X19499250Y-3371044I-380996J4D01*
G01*
X10641000Y-12229294D02*
X12927000Y-12229294D01*
X10259996Y-11848294D02*
G75*
G03*
X10641000Y-12229294I381004J4D01*
G01*
X18213375Y-13134169D02*
X19880250Y-10229044D01*
D11*
D12*
X12864000Y-3574000D02*
X12924000Y-3634000D01*
X12924000Y-3574000D02*
X12864000Y-3634000D01*
X12924000Y-3644000D02*
X12924000Y-3564000D01*
X12924000Y-3564000D02*
G75*
G03*
X12864000Y-3564000I-30000J0D01*
G01*
X12864000Y-3564000D02*
X12864000Y-3644000D01*
X12864000Y-3644000D02*
G75*
G03*
X12924000Y-3644000I30000J0D01*
G01*
X12864000Y-3991000D02*
X12924000Y-4051000D01*
X12924000Y-3991000D02*
X12864000Y-4051000D01*
X12924000Y-4076000D02*
X12924000Y-3966000D01*
X12924000Y-3966000D02*
G75*
G03*
X12864000Y-3966000I-30000J0D01*
G01*
X12864000Y-3966000D02*
X12864000Y-4076000D01*
X12864000Y-4076000D02*
G75*
G03*
X12924000Y-4076000I30000J0D01*
G01*
X13729000Y-3574000D02*
X13789000Y-3634000D01*
X13789000Y-3574000D02*
X13729000Y-3634000D01*
X13789000Y-3644000D02*
X13789000Y-3564000D01*
X13789000Y-3564000D02*
G75*
G03*
X13729000Y-3564000I-30000J0D01*
G01*
X13729000Y-3564000D02*
X13729000Y-3644000D01*
X13729000Y-3644000D02*
G75*
G03*
X13789000Y-3644000I30000J0D01*
G01*
X13729000Y-3991000D02*
X13789000Y-4051000D01*
X13789000Y-3991000D02*
X13729000Y-4051000D01*
X13789000Y-4076000D02*
X13789000Y-3966000D01*
X13789000Y-3966000D02*
G75*
G03*
X13729000Y-3966000I-30000J0D01*
G01*
X13729000Y-3966000D02*
X13729000Y-4076000D01*
X13729000Y-4076000D02*
G75*
G03*
X13789000Y-4076000I30000J0D01*
G01*
D13*
X10737800Y-3837294D02*
G75*
G03*
X10737800Y-3837294I-50800J0D01*
G01*
X10991800Y-3837294D02*
G75*
G03*
X10991800Y-3837294I-50800J0D01*
G01*
X11245800Y-3837294D02*
G75*
G03*
X11245800Y-3837294I-50800J0D01*
G01*
X11499800Y-3837294D02*
G75*
G03*
X11499800Y-3837294I-50800J0D01*
G01*
X11753800Y-3837294D02*
G75*
G03*
X11753800Y-3837294I-50800J0D01*
G01*
D11*
X10518277Y-13448153D02*
X10518277Y-13248153D01*
X10518277Y-13248153D02*
X10565896Y-13248153D01*
X10565896Y-13248153D02*
X10594467Y-13257677D01*
X10594467Y-13257677D02*
X10613515Y-13276725D01*
X10613515Y-13276725D02*
X10623039Y-13295772D01*
X10623039Y-13295772D02*
X10632563Y-13333867D01*
X10632563Y-13333867D02*
X10632563Y-13362439D01*
X10632563Y-13362439D02*
X10623039Y-13400534D01*
X10623039Y-13400534D02*
X10613515Y-13419582D01*
X10613515Y-13419582D02*
X10594467Y-13438629D01*
X10594467Y-13438629D02*
X10565896Y-13448153D01*
X10565896Y-13448153D02*
X10518277Y-13448153D01*
X10718277Y-13448153D02*
X10718277Y-13314820D01*
X10718277Y-13352915D02*
X10727801Y-13333867D01*
X10727801Y-13333867D02*
X10737324Y-13324344D01*
X10737324Y-13324344D02*
X10756372Y-13314820D01*
X10756372Y-13314820D02*
X10775420Y-13314820D01*
X10842086Y-13448153D02*
X10842086Y-13314820D01*
X10842086Y-13248153D02*
X10832563Y-13257677D01*
X10832563Y-13257677D02*
X10842086Y-13267201D01*
X10842086Y-13267201D02*
X10851610Y-13257677D01*
X10851610Y-13257677D02*
X10842086Y-13248153D01*
X10842086Y-13248153D02*
X10842086Y-13267201D01*
X10965896Y-13448153D02*
X10946848Y-13438629D01*
X10946848Y-13438629D02*
X10937324Y-13419582D01*
X10937324Y-13419582D02*
X10937324Y-13248153D01*
X11070658Y-13448153D02*
X11051610Y-13438629D01*
X11051610Y-13438629D02*
X11042086Y-13419582D01*
X11042086Y-13419582D02*
X11042086Y-13248153D01*
X11299229Y-13448153D02*
X11299229Y-13248153D01*
X11299229Y-13248153D02*
X11365896Y-13391010D01*
X11365896Y-13391010D02*
X11432562Y-13248153D01*
X11432562Y-13248153D02*
X11432562Y-13448153D01*
X11613515Y-13448153D02*
X11613515Y-13343391D01*
X11613515Y-13343391D02*
X11603991Y-13324344D01*
X11603991Y-13324344D02*
X11584943Y-13314820D01*
X11584943Y-13314820D02*
X11546848Y-13314820D01*
X11546848Y-13314820D02*
X11527801Y-13324344D01*
X11613515Y-13438629D02*
X11594467Y-13448153D01*
X11594467Y-13448153D02*
X11546848Y-13448153D01*
X11546848Y-13448153D02*
X11527801Y-13438629D01*
X11527801Y-13438629D02*
X11518277Y-13419582D01*
X11518277Y-13419582D02*
X11518277Y-13400534D01*
X11518277Y-13400534D02*
X11527801Y-13381486D01*
X11527801Y-13381486D02*
X11546848Y-13371963D01*
X11546848Y-13371963D02*
X11594467Y-13371963D01*
X11594467Y-13371963D02*
X11613515Y-13362439D01*
X11708753Y-13314820D02*
X11708753Y-13514820D01*
X11708753Y-13324344D02*
X11727801Y-13314820D01*
X11727801Y-13314820D02*
X11765896Y-13314820D01*
X11765896Y-13314820D02*
X11784943Y-13324344D01*
X11784943Y-13324344D02*
X11794467Y-13333867D01*
X11794467Y-13333867D02*
X11803991Y-13352915D01*
X11803991Y-13352915D02*
X11803991Y-13410058D01*
X11803991Y-13410058D02*
X11794467Y-13429105D01*
X11794467Y-13429105D02*
X11784943Y-13438629D01*
X11784943Y-13438629D02*
X11765896Y-13448153D01*
X11765896Y-13448153D02*
X11727801Y-13448153D01*
X11727801Y-13448153D02*
X11708753Y-13438629D01*
X11889705Y-13429105D02*
X11899229Y-13438629D01*
X11899229Y-13438629D02*
X11889705Y-13448153D01*
X11889705Y-13448153D02*
X11880182Y-13438629D01*
X11880182Y-13438629D02*
X11889705Y-13429105D01*
X11889705Y-13429105D02*
X11889705Y-13448153D01*
X11889705Y-13324344D02*
X11899229Y-13333867D01*
X11899229Y-13333867D02*
X11889705Y-13343391D01*
X11889705Y-13343391D02*
X11880182Y-13333867D01*
X11880182Y-13333867D02*
X11889705Y-13324344D01*
X11889705Y-13324344D02*
X11889705Y-13343391D01*
D12*
X10197500Y-13746669D02*
X10257500Y-13806669D01*
X10257500Y-13746669D02*
X10197500Y-13806669D01*
D11*
X10556372Y-13668153D02*
X10575420Y-13668153D01*
X10575420Y-13668153D02*
X10594467Y-13677677D01*
X10594467Y-13677677D02*
X10603991Y-13687201D01*
X10603991Y-13687201D02*
X10613515Y-13706248D01*
X10613515Y-13706248D02*
X10623039Y-13744344D01*
X10623039Y-13744344D02*
X10623039Y-13791963D01*
X10623039Y-13791963D02*
X10613515Y-13830058D01*
X10613515Y-13830058D02*
X10603991Y-13849105D01*
X10603991Y-13849105D02*
X10594467Y-13858629D01*
X10594467Y-13858629D02*
X10575420Y-13868153D01*
X10575420Y-13868153D02*
X10556372Y-13868153D01*
X10556372Y-13868153D02*
X10537324Y-13858629D01*
X10537324Y-13858629D02*
X10527801Y-13849105D01*
X10527801Y-13849105D02*
X10518277Y-13830058D01*
X10518277Y-13830058D02*
X10508753Y-13791963D01*
X10508753Y-13791963D02*
X10508753Y-13744344D01*
X10508753Y-13744344D02*
X10518277Y-13706248D01*
X10518277Y-13706248D02*
X10527801Y-13687201D01*
X10527801Y-13687201D02*
X10537324Y-13677677D01*
X10537324Y-13677677D02*
X10556372Y-13668153D01*
X10708753Y-13849105D02*
X10718277Y-13858629D01*
X10718277Y-13858629D02*
X10708753Y-13868153D01*
X10708753Y-13868153D02*
X10699229Y-13858629D01*
X10699229Y-13858629D02*
X10708753Y-13849105D01*
X10708753Y-13849105D02*
X10708753Y-13868153D01*
X10889705Y-13668153D02*
X10851610Y-13668153D01*
X10851610Y-13668153D02*
X10832563Y-13677677D01*
X10832563Y-13677677D02*
X10823039Y-13687201D01*
X10823039Y-13687201D02*
X10803991Y-13715772D01*
X10803991Y-13715772D02*
X10794467Y-13753867D01*
X10794467Y-13753867D02*
X10794467Y-13830058D01*
X10794467Y-13830058D02*
X10803991Y-13849105D01*
X10803991Y-13849105D02*
X10813515Y-13858629D01*
X10813515Y-13858629D02*
X10832563Y-13868153D01*
X10832563Y-13868153D02*
X10870658Y-13868153D01*
X10870658Y-13868153D02*
X10889705Y-13858629D01*
X10889705Y-13858629D02*
X10899229Y-13849105D01*
X10899229Y-13849105D02*
X10908753Y-13830058D01*
X10908753Y-13830058D02*
X10908753Y-13782439D01*
X10908753Y-13782439D02*
X10899229Y-13763391D01*
X10899229Y-13763391D02*
X10889705Y-13753867D01*
X10889705Y-13753867D02*
X10870658Y-13744344D01*
X10870658Y-13744344D02*
X10832563Y-13744344D01*
X10832563Y-13744344D02*
X10813515Y-13753867D01*
X10813515Y-13753867D02*
X10803991Y-13763391D01*
X10803991Y-13763391D02*
X10794467Y-13782439D01*
X11032563Y-13668153D02*
X11051610Y-13668153D01*
X11051610Y-13668153D02*
X11070658Y-13677677D01*
X11070658Y-13677677D02*
X11080182Y-13687201D01*
X11080182Y-13687201D02*
X11089705Y-13706248D01*
X11089705Y-13706248D02*
X11099229Y-13744344D01*
X11099229Y-13744344D02*
X11099229Y-13791963D01*
X11099229Y-13791963D02*
X11089705Y-13830058D01*
X11089705Y-13830058D02*
X11080182Y-13849105D01*
X11080182Y-13849105D02*
X11070658Y-13858629D01*
X11070658Y-13858629D02*
X11051610Y-13868153D01*
X11051610Y-13868153D02*
X11032563Y-13868153D01*
X11032563Y-13868153D02*
X11013515Y-13858629D01*
X11013515Y-13858629D02*
X11003991Y-13849105D01*
X11003991Y-13849105D02*
X10994467Y-13830058D01*
X10994467Y-13830058D02*
X10984944Y-13791963D01*
X10984944Y-13791963D02*
X10984944Y-13744344D01*
X10984944Y-13744344D02*
X10994467Y-13706248D01*
X10994467Y-13706248D02*
X11003991Y-13687201D01*
X11003991Y-13687201D02*
X11013515Y-13677677D01*
X11013515Y-13677677D02*
X11032563Y-13668153D01*
X11223039Y-13668153D02*
X11242086Y-13668153D01*
X11242086Y-13668153D02*
X11261134Y-13677677D01*
X11261134Y-13677677D02*
X11270658Y-13687201D01*
X11270658Y-13687201D02*
X11280182Y-13706248D01*
X11280182Y-13706248D02*
X11289705Y-13744344D01*
X11289705Y-13744344D02*
X11289705Y-13791963D01*
X11289705Y-13791963D02*
X11280182Y-13830058D01*
X11280182Y-13830058D02*
X11270658Y-13849105D01*
X11270658Y-13849105D02*
X11261134Y-13858629D01*
X11261134Y-13858629D02*
X11242086Y-13868153D01*
X11242086Y-13868153D02*
X11223039Y-13868153D01*
X11223039Y-13868153D02*
X11203991Y-13858629D01*
X11203991Y-13858629D02*
X11194467Y-13849105D01*
X11194467Y-13849105D02*
X11184943Y-13830058D01*
X11184943Y-13830058D02*
X11175420Y-13791963D01*
X11175420Y-13791963D02*
X11175420Y-13744344D01*
X11175420Y-13744344D02*
X11184943Y-13706248D01*
X11184943Y-13706248D02*
X11194467Y-13687201D01*
X11194467Y-13687201D02*
X11203991Y-13677677D01*
X11203991Y-13677677D02*
X11223039Y-13668153D01*
X11375420Y-13868153D02*
X11375420Y-13734820D01*
X11375420Y-13753867D02*
X11384943Y-13744344D01*
X11384943Y-13744344D02*
X11403991Y-13734820D01*
X11403991Y-13734820D02*
X11432563Y-13734820D01*
X11432563Y-13734820D02*
X11451610Y-13744344D01*
X11451610Y-13744344D02*
X11461134Y-13763391D01*
X11461134Y-13763391D02*
X11461134Y-13868153D01*
X11461134Y-13763391D02*
X11470658Y-13744344D01*
X11470658Y-13744344D02*
X11489705Y-13734820D01*
X11489705Y-13734820D02*
X11518277Y-13734820D01*
X11518277Y-13734820D02*
X11537324Y-13744344D01*
X11537324Y-13744344D02*
X11546848Y-13763391D01*
X11546848Y-13763391D02*
X11546848Y-13868153D01*
X11642086Y-13868153D02*
X11642086Y-13734820D01*
X11642086Y-13753867D02*
X11651610Y-13744344D01*
X11651610Y-13744344D02*
X11670658Y-13734820D01*
X11670658Y-13734820D02*
X11699229Y-13734820D01*
X11699229Y-13734820D02*
X11718277Y-13744344D01*
X11718277Y-13744344D02*
X11727801Y-13763391D01*
X11727801Y-13763391D02*
X11727801Y-13868153D01*
X11727801Y-13763391D02*
X11737324Y-13744344D01*
X11737324Y-13744344D02*
X11756372Y-13734820D01*
X11756372Y-13734820D02*
X11784943Y-13734820D01*
X11784943Y-13734820D02*
X11803991Y-13744344D01*
X11803991Y-13744344D02*
X11813515Y-13763391D01*
X11813515Y-13763391D02*
X11813515Y-13868153D01*
X12203991Y-13658629D02*
X12032563Y-13915772D01*
X12461134Y-13668153D02*
X12480182Y-13668153D01*
X12480182Y-13668153D02*
X12499229Y-13677677D01*
X12499229Y-13677677D02*
X12508753Y-13687201D01*
X12508753Y-13687201D02*
X12518277Y-13706248D01*
X12518277Y-13706248D02*
X12527801Y-13744344D01*
X12527801Y-13744344D02*
X12527801Y-13791963D01*
X12527801Y-13791963D02*
X12518277Y-13830058D01*
X12518277Y-13830058D02*
X12508753Y-13849105D01*
X12508753Y-13849105D02*
X12499229Y-13858629D01*
X12499229Y-13858629D02*
X12480182Y-13868153D01*
X12480182Y-13868153D02*
X12461134Y-13868153D01*
X12461134Y-13868153D02*
X12442086Y-13858629D01*
X12442086Y-13858629D02*
X12432563Y-13849105D01*
X12432563Y-13849105D02*
X12423039Y-13830058D01*
X12423039Y-13830058D02*
X12413515Y-13791963D01*
X12413515Y-13791963D02*
X12413515Y-13744344D01*
X12413515Y-13744344D02*
X12423039Y-13706248D01*
X12423039Y-13706248D02*
X12432563Y-13687201D01*
X12432563Y-13687201D02*
X12442086Y-13677677D01*
X12442086Y-13677677D02*
X12461134Y-13668153D01*
X12613515Y-13849105D02*
X12623039Y-13858629D01*
X12623039Y-13858629D02*
X12613515Y-13868153D01*
X12613515Y-13868153D02*
X12603991Y-13858629D01*
X12603991Y-13858629D02*
X12613515Y-13849105D01*
X12613515Y-13849105D02*
X12613515Y-13868153D01*
X12746848Y-13668153D02*
X12765896Y-13668153D01*
X12765896Y-13668153D02*
X12784944Y-13677677D01*
X12784944Y-13677677D02*
X12794467Y-13687201D01*
X12794467Y-13687201D02*
X12803991Y-13706248D01*
X12803991Y-13706248D02*
X12813515Y-13744344D01*
X12813515Y-13744344D02*
X12813515Y-13791963D01*
X12813515Y-13791963D02*
X12803991Y-13830058D01*
X12803991Y-13830058D02*
X12794467Y-13849105D01*
X12794467Y-13849105D02*
X12784944Y-13858629D01*
X12784944Y-13858629D02*
X12765896Y-13868153D01*
X12765896Y-13868153D02*
X12746848Y-13868153D01*
X12746848Y-13868153D02*
X12727801Y-13858629D01*
X12727801Y-13858629D02*
X12718277Y-13849105D01*
X12718277Y-13849105D02*
X12708753Y-13830058D01*
X12708753Y-13830058D02*
X12699229Y-13791963D01*
X12699229Y-13791963D02*
X12699229Y-13744344D01*
X12699229Y-13744344D02*
X12708753Y-13706248D01*
X12708753Y-13706248D02*
X12718277Y-13687201D01*
X12718277Y-13687201D02*
X12727801Y-13677677D01*
X12727801Y-13677677D02*
X12746848Y-13668153D01*
X12889706Y-13687201D02*
X12899229Y-13677677D01*
X12899229Y-13677677D02*
X12918277Y-13668153D01*
X12918277Y-13668153D02*
X12965896Y-13668153D01*
X12965896Y-13668153D02*
X12984944Y-13677677D01*
X12984944Y-13677677D02*
X12994467Y-13687201D01*
X12994467Y-13687201D02*
X13003991Y-13706248D01*
X13003991Y-13706248D02*
X13003991Y-13725296D01*
X13003991Y-13725296D02*
X12994467Y-13753867D01*
X12994467Y-13753867D02*
X12880182Y-13868153D01*
X12880182Y-13868153D02*
X13003991Y-13868153D01*
X13070658Y-13668153D02*
X13194467Y-13668153D01*
X13194467Y-13668153D02*
X13127801Y-13744344D01*
X13127801Y-13744344D02*
X13156372Y-13744344D01*
X13156372Y-13744344D02*
X13175420Y-13753867D01*
X13175420Y-13753867D02*
X13184944Y-13763391D01*
X13184944Y-13763391D02*
X13194467Y-13782439D01*
X13194467Y-13782439D02*
X13194467Y-13830058D01*
X13194467Y-13830058D02*
X13184944Y-13849105D01*
X13184944Y-13849105D02*
X13175420Y-13858629D01*
X13175420Y-13858629D02*
X13156372Y-13868153D01*
X13156372Y-13868153D02*
X13099229Y-13868153D01*
X13099229Y-13868153D02*
X13080182Y-13858629D01*
X13080182Y-13858629D02*
X13070658Y-13849105D01*
X13365896Y-13668153D02*
X13327801Y-13668153D01*
X13327801Y-13668153D02*
X13308753Y-13677677D01*
X13308753Y-13677677D02*
X13299229Y-13687201D01*
X13299229Y-13687201D02*
X13280182Y-13715772D01*
X13280182Y-13715772D02*
X13270658Y-13753867D01*
X13270658Y-13753867D02*
X13270658Y-13830058D01*
X13270658Y-13830058D02*
X13280182Y-13849105D01*
X13280182Y-13849105D02*
X13289706Y-13858629D01*
X13289706Y-13858629D02*
X13308753Y-13868153D01*
X13308753Y-13868153D02*
X13346848Y-13868153D01*
X13346848Y-13868153D02*
X13365896Y-13858629D01*
X13365896Y-13858629D02*
X13375420Y-13849105D01*
X13375420Y-13849105D02*
X13384944Y-13830058D01*
X13384944Y-13830058D02*
X13384944Y-13782439D01*
X13384944Y-13782439D02*
X13375420Y-13763391D01*
X13375420Y-13763391D02*
X13365896Y-13753867D01*
X13365896Y-13753867D02*
X13346848Y-13744344D01*
X13346848Y-13744344D02*
X13308753Y-13744344D01*
X13308753Y-13744344D02*
X13289706Y-13753867D01*
X13289706Y-13753867D02*
X13280182Y-13763391D01*
X13280182Y-13763391D02*
X13270658Y-13782439D01*
X13461134Y-13668153D02*
X13461134Y-13706248D01*
X13537325Y-13668153D02*
X13537325Y-13706248D01*
X13832563Y-13944344D02*
X13823039Y-13934820D01*
X13823039Y-13934820D02*
X13803991Y-13906248D01*
X13803991Y-13906248D02*
X13794468Y-13887201D01*
X13794468Y-13887201D02*
X13784944Y-13858629D01*
X13784944Y-13858629D02*
X13775420Y-13811010D01*
X13775420Y-13811010D02*
X13775420Y-13772915D01*
X13775420Y-13772915D02*
X13784944Y-13725296D01*
X13784944Y-13725296D02*
X13794468Y-13696725D01*
X13794468Y-13696725D02*
X13803991Y-13677677D01*
X13803991Y-13677677D02*
X13823039Y-13649105D01*
X13823039Y-13649105D02*
X13832563Y-13639582D01*
X13946848Y-13668153D02*
X13965896Y-13668153D01*
X13965896Y-13668153D02*
X13984944Y-13677677D01*
X13984944Y-13677677D02*
X13994468Y-13687201D01*
X13994468Y-13687201D02*
X14003991Y-13706248D01*
X14003991Y-13706248D02*
X14013515Y-13744344D01*
X14013515Y-13744344D02*
X14013515Y-13791963D01*
X14013515Y-13791963D02*
X14003991Y-13830058D01*
X14003991Y-13830058D02*
X13994468Y-13849105D01*
X13994468Y-13849105D02*
X13984944Y-13858629D01*
X13984944Y-13858629D02*
X13965896Y-13868153D01*
X13965896Y-13868153D02*
X13946848Y-13868153D01*
X13946848Y-13868153D02*
X13927801Y-13858629D01*
X13927801Y-13858629D02*
X13918277Y-13849105D01*
X13918277Y-13849105D02*
X13908753Y-13830058D01*
X13908753Y-13830058D02*
X13899229Y-13791963D01*
X13899229Y-13791963D02*
X13899229Y-13744344D01*
X13899229Y-13744344D02*
X13908753Y-13706248D01*
X13908753Y-13706248D02*
X13918277Y-13687201D01*
X13918277Y-13687201D02*
X13927801Y-13677677D01*
X13927801Y-13677677D02*
X13946848Y-13668153D01*
X14251610Y-13868153D02*
X14251610Y-13668153D01*
X14337325Y-13868153D02*
X14337325Y-13763391D01*
X14337325Y-13763391D02*
X14327801Y-13744344D01*
X14327801Y-13744344D02*
X14308753Y-13734820D01*
X14308753Y-13734820D02*
X14280182Y-13734820D01*
X14280182Y-13734820D02*
X14261134Y-13744344D01*
X14261134Y-13744344D02*
X14251610Y-13753867D01*
X14461134Y-13868153D02*
X14442087Y-13858629D01*
X14442087Y-13858629D02*
X14432563Y-13849105D01*
X14432563Y-13849105D02*
X14423039Y-13830058D01*
X14423039Y-13830058D02*
X14423039Y-13772915D01*
X14423039Y-13772915D02*
X14432563Y-13753867D01*
X14432563Y-13753867D02*
X14442087Y-13744344D01*
X14442087Y-13744344D02*
X14461134Y-13734820D01*
X14461134Y-13734820D02*
X14489706Y-13734820D01*
X14489706Y-13734820D02*
X14508753Y-13744344D01*
X14508753Y-13744344D02*
X14518277Y-13753867D01*
X14518277Y-13753867D02*
X14527801Y-13772915D01*
X14527801Y-13772915D02*
X14527801Y-13830058D01*
X14527801Y-13830058D02*
X14518277Y-13849105D01*
X14518277Y-13849105D02*
X14508753Y-13858629D01*
X14508753Y-13858629D02*
X14489706Y-13868153D01*
X14489706Y-13868153D02*
X14461134Y-13868153D01*
X14642087Y-13868153D02*
X14623039Y-13858629D01*
X14623039Y-13858629D02*
X14613515Y-13839582D01*
X14613515Y-13839582D02*
X14613515Y-13668153D01*
X14794468Y-13858629D02*
X14775420Y-13868153D01*
X14775420Y-13868153D02*
X14737325Y-13868153D01*
X14737325Y-13868153D02*
X14718277Y-13858629D01*
X14718277Y-13858629D02*
X14708753Y-13839582D01*
X14708753Y-13839582D02*
X14708753Y-13763391D01*
X14708753Y-13763391D02*
X14718277Y-13744344D01*
X14718277Y-13744344D02*
X14737325Y-13734820D01*
X14737325Y-13734820D02*
X14775420Y-13734820D01*
X14775420Y-13734820D02*
X14794468Y-13744344D01*
X14794468Y-13744344D02*
X14803991Y-13763391D01*
X14803991Y-13763391D02*
X14803991Y-13782439D01*
X14803991Y-13782439D02*
X14708753Y-13801486D01*
X14880182Y-13858629D02*
X14899230Y-13868153D01*
X14899230Y-13868153D02*
X14937325Y-13868153D01*
X14937325Y-13868153D02*
X14956372Y-13858629D01*
X14956372Y-13858629D02*
X14965896Y-13839582D01*
X14965896Y-13839582D02*
X14965896Y-13830058D01*
X14965896Y-13830058D02*
X14956372Y-13811010D01*
X14956372Y-13811010D02*
X14937325Y-13801486D01*
X14937325Y-13801486D02*
X14908753Y-13801486D01*
X14908753Y-13801486D02*
X14889706Y-13791963D01*
X14889706Y-13791963D02*
X14880182Y-13772915D01*
X14880182Y-13772915D02*
X14880182Y-13763391D01*
X14880182Y-13763391D02*
X14889706Y-13744344D01*
X14889706Y-13744344D02*
X14908753Y-13734820D01*
X14908753Y-13734820D02*
X14937325Y-13734820D01*
X14937325Y-13734820D02*
X14956372Y-13744344D01*
X15203992Y-13791963D02*
X15356373Y-13791963D01*
X15280182Y-13868153D02*
X15280182Y-13715772D01*
X15689706Y-13734820D02*
X15689706Y-13868153D01*
X15642087Y-13658629D02*
X15594468Y-13801486D01*
X15594468Y-13801486D02*
X15718277Y-13801486D01*
X15937325Y-13858629D02*
X15956373Y-13868153D01*
X15956373Y-13868153D02*
X15994468Y-13868153D01*
X15994468Y-13868153D02*
X16013515Y-13858629D01*
X16013515Y-13858629D02*
X16023039Y-13839582D01*
X16023039Y-13839582D02*
X16023039Y-13830058D01*
X16023039Y-13830058D02*
X16013515Y-13811010D01*
X16013515Y-13811010D02*
X15994468Y-13801486D01*
X15994468Y-13801486D02*
X15965896Y-13801486D01*
X15965896Y-13801486D02*
X15946849Y-13791963D01*
X15946849Y-13791963D02*
X15937325Y-13772915D01*
X15937325Y-13772915D02*
X15937325Y-13763391D01*
X15937325Y-13763391D02*
X15946849Y-13744344D01*
X15946849Y-13744344D02*
X15965896Y-13734820D01*
X15965896Y-13734820D02*
X15994468Y-13734820D01*
X15994468Y-13734820D02*
X16013515Y-13744344D01*
X16137325Y-13868153D02*
X16118277Y-13858629D01*
X16118277Y-13858629D02*
X16108754Y-13839582D01*
X16108754Y-13839582D02*
X16108754Y-13668153D01*
X16242087Y-13868153D02*
X16223039Y-13858629D01*
X16223039Y-13858629D02*
X16213515Y-13849105D01*
X16213515Y-13849105D02*
X16203992Y-13830058D01*
X16203992Y-13830058D02*
X16203992Y-13772915D01*
X16203992Y-13772915D02*
X16213515Y-13753867D01*
X16213515Y-13753867D02*
X16223039Y-13744344D01*
X16223039Y-13744344D02*
X16242087Y-13734820D01*
X16242087Y-13734820D02*
X16270658Y-13734820D01*
X16270658Y-13734820D02*
X16289706Y-13744344D01*
X16289706Y-13744344D02*
X16299230Y-13753867D01*
X16299230Y-13753867D02*
X16308754Y-13772915D01*
X16308754Y-13772915D02*
X16308754Y-13830058D01*
X16308754Y-13830058D02*
X16299230Y-13849105D01*
X16299230Y-13849105D02*
X16289706Y-13858629D01*
X16289706Y-13858629D02*
X16270658Y-13868153D01*
X16270658Y-13868153D02*
X16242087Y-13868153D01*
X16365896Y-13734820D02*
X16442087Y-13734820D01*
X16394468Y-13668153D02*
X16394468Y-13839582D01*
X16394468Y-13839582D02*
X16403992Y-13858629D01*
X16403992Y-13858629D02*
X16423039Y-13868153D01*
X16423039Y-13868153D02*
X16442087Y-13868153D01*
X16499230Y-13858629D02*
X16518277Y-13868153D01*
X16518277Y-13868153D02*
X16556373Y-13868153D01*
X16556373Y-13868153D02*
X16575420Y-13858629D01*
X16575420Y-13858629D02*
X16584944Y-13839582D01*
X16584944Y-13839582D02*
X16584944Y-13830058D01*
X16584944Y-13830058D02*
X16575420Y-13811010D01*
X16575420Y-13811010D02*
X16556373Y-13801486D01*
X16556373Y-13801486D02*
X16527801Y-13801486D01*
X16527801Y-13801486D02*
X16508754Y-13791963D01*
X16508754Y-13791963D02*
X16499230Y-13772915D01*
X16499230Y-13772915D02*
X16499230Y-13763391D01*
X16499230Y-13763391D02*
X16508754Y-13744344D01*
X16508754Y-13744344D02*
X16527801Y-13734820D01*
X16527801Y-13734820D02*
X16556373Y-13734820D01*
X16556373Y-13734820D02*
X16575420Y-13744344D01*
X16651611Y-13944344D02*
X16661135Y-13934820D01*
X16661135Y-13934820D02*
X16680182Y-13906248D01*
X16680182Y-13906248D02*
X16689706Y-13887201D01*
X16689706Y-13887201D02*
X16699230Y-13858629D01*
X16699230Y-13858629D02*
X16708754Y-13811010D01*
X16708754Y-13811010D02*
X16708754Y-13772915D01*
X16708754Y-13772915D02*
X16699230Y-13725296D01*
X16699230Y-13725296D02*
X16689706Y-13696725D01*
X16689706Y-13696725D02*
X16680182Y-13677677D01*
X16680182Y-13677677D02*
X16661135Y-13649105D01*
X16661135Y-13649105D02*
X16651611Y-13639582D01*
D13*
X10257500Y-14040669D02*
G75*
G03*
X10257500Y-14040669I-50800J0D01*
G01*
D11*
X10623039Y-14132153D02*
X10508753Y-14132153D01*
X10565896Y-14132153D02*
X10565896Y-13932153D01*
X10565896Y-13932153D02*
X10546848Y-13960725D01*
X10546848Y-13960725D02*
X10527801Y-13979772D01*
X10527801Y-13979772D02*
X10508753Y-13989296D01*
X10708753Y-14113105D02*
X10718277Y-14122629D01*
X10718277Y-14122629D02*
X10708753Y-14132153D01*
X10708753Y-14132153D02*
X10699229Y-14122629D01*
X10699229Y-14122629D02*
X10708753Y-14113105D01*
X10708753Y-14113105D02*
X10708753Y-14132153D01*
X10842086Y-13932153D02*
X10861134Y-13932153D01*
X10861134Y-13932153D02*
X10880182Y-13941677D01*
X10880182Y-13941677D02*
X10889705Y-13951201D01*
X10889705Y-13951201D02*
X10899229Y-13970248D01*
X10899229Y-13970248D02*
X10908753Y-14008344D01*
X10908753Y-14008344D02*
X10908753Y-14055963D01*
X10908753Y-14055963D02*
X10899229Y-14094058D01*
X10899229Y-14094058D02*
X10889705Y-14113105D01*
X10889705Y-14113105D02*
X10880182Y-14122629D01*
X10880182Y-14122629D02*
X10861134Y-14132153D01*
X10861134Y-14132153D02*
X10842086Y-14132153D01*
X10842086Y-14132153D02*
X10823039Y-14122629D01*
X10823039Y-14122629D02*
X10813515Y-14113105D01*
X10813515Y-14113105D02*
X10803991Y-14094058D01*
X10803991Y-14094058D02*
X10794467Y-14055963D01*
X10794467Y-14055963D02*
X10794467Y-14008344D01*
X10794467Y-14008344D02*
X10803991Y-13970248D01*
X10803991Y-13970248D02*
X10813515Y-13951201D01*
X10813515Y-13951201D02*
X10823039Y-13941677D01*
X10823039Y-13941677D02*
X10842086Y-13932153D01*
X11099229Y-14132153D02*
X10984944Y-14132153D01*
X11042086Y-14132153D02*
X11042086Y-13932153D01*
X11042086Y-13932153D02*
X11023039Y-13960725D01*
X11023039Y-13960725D02*
X11003991Y-13979772D01*
X11003991Y-13979772D02*
X10984944Y-13989296D01*
X11270658Y-13932153D02*
X11232562Y-13932153D01*
X11232562Y-13932153D02*
X11213515Y-13941677D01*
X11213515Y-13941677D02*
X11203991Y-13951201D01*
X11203991Y-13951201D02*
X11184943Y-13979772D01*
X11184943Y-13979772D02*
X11175420Y-14017867D01*
X11175420Y-14017867D02*
X11175420Y-14094058D01*
X11175420Y-14094058D02*
X11184943Y-14113105D01*
X11184943Y-14113105D02*
X11194467Y-14122629D01*
X11194467Y-14122629D02*
X11213515Y-14132153D01*
X11213515Y-14132153D02*
X11251610Y-14132153D01*
X11251610Y-14132153D02*
X11270658Y-14122629D01*
X11270658Y-14122629D02*
X11280182Y-14113105D01*
X11280182Y-14113105D02*
X11289705Y-14094058D01*
X11289705Y-14094058D02*
X11289705Y-14046439D01*
X11289705Y-14046439D02*
X11280182Y-14027391D01*
X11280182Y-14027391D02*
X11270658Y-14017867D01*
X11270658Y-14017867D02*
X11251610Y-14008344D01*
X11251610Y-14008344D02*
X11213515Y-14008344D01*
X11213515Y-14008344D02*
X11194467Y-14017867D01*
X11194467Y-14017867D02*
X11184943Y-14027391D01*
X11184943Y-14027391D02*
X11175420Y-14046439D01*
X11375420Y-14132153D02*
X11375420Y-13998820D01*
X11375420Y-14017867D02*
X11384943Y-14008344D01*
X11384943Y-14008344D02*
X11403991Y-13998820D01*
X11403991Y-13998820D02*
X11432563Y-13998820D01*
X11432563Y-13998820D02*
X11451610Y-14008344D01*
X11451610Y-14008344D02*
X11461134Y-14027391D01*
X11461134Y-14027391D02*
X11461134Y-14132153D01*
X11461134Y-14027391D02*
X11470658Y-14008344D01*
X11470658Y-14008344D02*
X11489705Y-13998820D01*
X11489705Y-13998820D02*
X11518277Y-13998820D01*
X11518277Y-13998820D02*
X11537324Y-14008344D01*
X11537324Y-14008344D02*
X11546848Y-14027391D01*
X11546848Y-14027391D02*
X11546848Y-14132153D01*
X11642086Y-14132153D02*
X11642086Y-13998820D01*
X11642086Y-14017867D02*
X11651610Y-14008344D01*
X11651610Y-14008344D02*
X11670658Y-13998820D01*
X11670658Y-13998820D02*
X11699229Y-13998820D01*
X11699229Y-13998820D02*
X11718277Y-14008344D01*
X11718277Y-14008344D02*
X11727801Y-14027391D01*
X11727801Y-14027391D02*
X11727801Y-14132153D01*
X11727801Y-14027391D02*
X11737324Y-14008344D01*
X11737324Y-14008344D02*
X11756372Y-13998820D01*
X11756372Y-13998820D02*
X11784943Y-13998820D01*
X11784943Y-13998820D02*
X11803991Y-14008344D01*
X11803991Y-14008344D02*
X11813515Y-14027391D01*
X11813515Y-14027391D02*
X11813515Y-14132153D01*
X12203991Y-13922629D02*
X12032563Y-14179772D01*
X12461134Y-13932153D02*
X12480182Y-13932153D01*
X12480182Y-13932153D02*
X12499229Y-13941677D01*
X12499229Y-13941677D02*
X12508753Y-13951201D01*
X12508753Y-13951201D02*
X12518277Y-13970248D01*
X12518277Y-13970248D02*
X12527801Y-14008344D01*
X12527801Y-14008344D02*
X12527801Y-14055963D01*
X12527801Y-14055963D02*
X12518277Y-14094058D01*
X12518277Y-14094058D02*
X12508753Y-14113105D01*
X12508753Y-14113105D02*
X12499229Y-14122629D01*
X12499229Y-14122629D02*
X12480182Y-14132153D01*
X12480182Y-14132153D02*
X12461134Y-14132153D01*
X12461134Y-14132153D02*
X12442086Y-14122629D01*
X12442086Y-14122629D02*
X12432563Y-14113105D01*
X12432563Y-14113105D02*
X12423039Y-14094058D01*
X12423039Y-14094058D02*
X12413515Y-14055963D01*
X12413515Y-14055963D02*
X12413515Y-14008344D01*
X12413515Y-14008344D02*
X12423039Y-13970248D01*
X12423039Y-13970248D02*
X12432563Y-13951201D01*
X12432563Y-13951201D02*
X12442086Y-13941677D01*
X12442086Y-13941677D02*
X12461134Y-13932153D01*
X12613515Y-14113105D02*
X12623039Y-14122629D01*
X12623039Y-14122629D02*
X12613515Y-14132153D01*
X12613515Y-14132153D02*
X12603991Y-14122629D01*
X12603991Y-14122629D02*
X12613515Y-14113105D01*
X12613515Y-14113105D02*
X12613515Y-14132153D01*
X12746848Y-13932153D02*
X12765896Y-13932153D01*
X12765896Y-13932153D02*
X12784944Y-13941677D01*
X12784944Y-13941677D02*
X12794467Y-13951201D01*
X12794467Y-13951201D02*
X12803991Y-13970248D01*
X12803991Y-13970248D02*
X12813515Y-14008344D01*
X12813515Y-14008344D02*
X12813515Y-14055963D01*
X12813515Y-14055963D02*
X12803991Y-14094058D01*
X12803991Y-14094058D02*
X12794467Y-14113105D01*
X12794467Y-14113105D02*
X12784944Y-14122629D01*
X12784944Y-14122629D02*
X12765896Y-14132153D01*
X12765896Y-14132153D02*
X12746848Y-14132153D01*
X12746848Y-14132153D02*
X12727801Y-14122629D01*
X12727801Y-14122629D02*
X12718277Y-14113105D01*
X12718277Y-14113105D02*
X12708753Y-14094058D01*
X12708753Y-14094058D02*
X12699229Y-14055963D01*
X12699229Y-14055963D02*
X12699229Y-14008344D01*
X12699229Y-14008344D02*
X12708753Y-13970248D01*
X12708753Y-13970248D02*
X12718277Y-13951201D01*
X12718277Y-13951201D02*
X12727801Y-13941677D01*
X12727801Y-13941677D02*
X12746848Y-13932153D01*
X12984944Y-13998820D02*
X12984944Y-14132153D01*
X12937325Y-13922629D02*
X12889706Y-14065486D01*
X12889706Y-14065486D02*
X13013515Y-14065486D01*
X13127801Y-13932153D02*
X13146848Y-13932153D01*
X13146848Y-13932153D02*
X13165896Y-13941677D01*
X13165896Y-13941677D02*
X13175420Y-13951201D01*
X13175420Y-13951201D02*
X13184944Y-13970248D01*
X13184944Y-13970248D02*
X13194467Y-14008344D01*
X13194467Y-14008344D02*
X13194467Y-14055963D01*
X13194467Y-14055963D02*
X13184944Y-14094058D01*
X13184944Y-14094058D02*
X13175420Y-14113105D01*
X13175420Y-14113105D02*
X13165896Y-14122629D01*
X13165896Y-14122629D02*
X13146848Y-14132153D01*
X13146848Y-14132153D02*
X13127801Y-14132153D01*
X13127801Y-14132153D02*
X13108753Y-14122629D01*
X13108753Y-14122629D02*
X13099229Y-14113105D01*
X13099229Y-14113105D02*
X13089706Y-14094058D01*
X13089706Y-14094058D02*
X13080182Y-14055963D01*
X13080182Y-14055963D02*
X13080182Y-14008344D01*
X13080182Y-14008344D02*
X13089706Y-13970248D01*
X13089706Y-13970248D02*
X13099229Y-13951201D01*
X13099229Y-13951201D02*
X13108753Y-13941677D01*
X13108753Y-13941677D02*
X13127801Y-13932153D01*
X13318277Y-13932153D02*
X13337325Y-13932153D01*
X13337325Y-13932153D02*
X13356372Y-13941677D01*
X13356372Y-13941677D02*
X13365896Y-13951201D01*
X13365896Y-13951201D02*
X13375420Y-13970248D01*
X13375420Y-13970248D02*
X13384944Y-14008344D01*
X13384944Y-14008344D02*
X13384944Y-14055963D01*
X13384944Y-14055963D02*
X13375420Y-14094058D01*
X13375420Y-14094058D02*
X13365896Y-14113105D01*
X13365896Y-14113105D02*
X13356372Y-14122629D01*
X13356372Y-14122629D02*
X13337325Y-14132153D01*
X13337325Y-14132153D02*
X13318277Y-14132153D01*
X13318277Y-14132153D02*
X13299229Y-14122629D01*
X13299229Y-14122629D02*
X13289706Y-14113105D01*
X13289706Y-14113105D02*
X13280182Y-14094058D01*
X13280182Y-14094058D02*
X13270658Y-14055963D01*
X13270658Y-14055963D02*
X13270658Y-14008344D01*
X13270658Y-14008344D02*
X13280182Y-13970248D01*
X13280182Y-13970248D02*
X13289706Y-13951201D01*
X13289706Y-13951201D02*
X13299229Y-13941677D01*
X13299229Y-13941677D02*
X13318277Y-13932153D01*
X13461134Y-13932153D02*
X13461134Y-13970248D01*
X13537325Y-13932153D02*
X13537325Y-13970248D01*
X13832563Y-14208344D02*
X13823039Y-14198820D01*
X13823039Y-14198820D02*
X13803991Y-14170248D01*
X13803991Y-14170248D02*
X13794468Y-14151201D01*
X13794468Y-14151201D02*
X13784944Y-14122629D01*
X13784944Y-14122629D02*
X13775420Y-14075010D01*
X13775420Y-14075010D02*
X13775420Y-14036915D01*
X13775420Y-14036915D02*
X13784944Y-13989296D01*
X13784944Y-13989296D02*
X13794468Y-13960725D01*
X13794468Y-13960725D02*
X13803991Y-13941677D01*
X13803991Y-13941677D02*
X13823039Y-13913105D01*
X13823039Y-13913105D02*
X13832563Y-13903582D01*
X14003991Y-13932153D02*
X13908753Y-13932153D01*
X13908753Y-13932153D02*
X13899229Y-14027391D01*
X13899229Y-14027391D02*
X13908753Y-14017867D01*
X13908753Y-14017867D02*
X13927801Y-14008344D01*
X13927801Y-14008344D02*
X13975420Y-14008344D01*
X13975420Y-14008344D02*
X13994468Y-14017867D01*
X13994468Y-14017867D02*
X14003991Y-14027391D01*
X14003991Y-14027391D02*
X14013515Y-14046439D01*
X14013515Y-14046439D02*
X14013515Y-14094058D01*
X14013515Y-14094058D02*
X14003991Y-14113105D01*
X14003991Y-14113105D02*
X13994468Y-14122629D01*
X13994468Y-14122629D02*
X13975420Y-14132153D01*
X13975420Y-14132153D02*
X13927801Y-14132153D01*
X13927801Y-14132153D02*
X13908753Y-14122629D01*
X13908753Y-14122629D02*
X13899229Y-14113105D01*
X14251610Y-14132153D02*
X14251610Y-13932153D01*
X14337325Y-14132153D02*
X14337325Y-14027391D01*
X14337325Y-14027391D02*
X14327801Y-14008344D01*
X14327801Y-14008344D02*
X14308753Y-13998820D01*
X14308753Y-13998820D02*
X14280182Y-13998820D01*
X14280182Y-13998820D02*
X14261134Y-14008344D01*
X14261134Y-14008344D02*
X14251610Y-14017867D01*
X14461134Y-14132153D02*
X14442087Y-14122629D01*
X14442087Y-14122629D02*
X14432563Y-14113105D01*
X14432563Y-14113105D02*
X14423039Y-14094058D01*
X14423039Y-14094058D02*
X14423039Y-14036915D01*
X14423039Y-14036915D02*
X14432563Y-14017867D01*
X14432563Y-14017867D02*
X14442087Y-14008344D01*
X14442087Y-14008344D02*
X14461134Y-13998820D01*
X14461134Y-13998820D02*
X14489706Y-13998820D01*
X14489706Y-13998820D02*
X14508753Y-14008344D01*
X14508753Y-14008344D02*
X14518277Y-14017867D01*
X14518277Y-14017867D02*
X14527801Y-14036915D01*
X14527801Y-14036915D02*
X14527801Y-14094058D01*
X14527801Y-14094058D02*
X14518277Y-14113105D01*
X14518277Y-14113105D02*
X14508753Y-14122629D01*
X14508753Y-14122629D02*
X14489706Y-14132153D01*
X14489706Y-14132153D02*
X14461134Y-14132153D01*
X14642087Y-14132153D02*
X14623039Y-14122629D01*
X14623039Y-14122629D02*
X14613515Y-14103582D01*
X14613515Y-14103582D02*
X14613515Y-13932153D01*
X14794468Y-14122629D02*
X14775420Y-14132153D01*
X14775420Y-14132153D02*
X14737325Y-14132153D01*
X14737325Y-14132153D02*
X14718277Y-14122629D01*
X14718277Y-14122629D02*
X14708753Y-14103582D01*
X14708753Y-14103582D02*
X14708753Y-14027391D01*
X14708753Y-14027391D02*
X14718277Y-14008344D01*
X14718277Y-14008344D02*
X14737325Y-13998820D01*
X14737325Y-13998820D02*
X14775420Y-13998820D01*
X14775420Y-13998820D02*
X14794468Y-14008344D01*
X14794468Y-14008344D02*
X14803991Y-14027391D01*
X14803991Y-14027391D02*
X14803991Y-14046439D01*
X14803991Y-14046439D02*
X14708753Y-14065486D01*
X14880182Y-14122629D02*
X14899230Y-14132153D01*
X14899230Y-14132153D02*
X14937325Y-14132153D01*
X14937325Y-14132153D02*
X14956372Y-14122629D01*
X14956372Y-14122629D02*
X14965896Y-14103582D01*
X14965896Y-14103582D02*
X14965896Y-14094058D01*
X14965896Y-14094058D02*
X14956372Y-14075010D01*
X14956372Y-14075010D02*
X14937325Y-14065486D01*
X14937325Y-14065486D02*
X14908753Y-14065486D01*
X14908753Y-14065486D02*
X14889706Y-14055963D01*
X14889706Y-14055963D02*
X14880182Y-14036915D01*
X14880182Y-14036915D02*
X14880182Y-14027391D01*
X14880182Y-14027391D02*
X14889706Y-14008344D01*
X14889706Y-14008344D02*
X14908753Y-13998820D01*
X14908753Y-13998820D02*
X14937325Y-13998820D01*
X14937325Y-13998820D02*
X14956372Y-14008344D01*
X15032563Y-14208344D02*
X15042087Y-14198820D01*
X15042087Y-14198820D02*
X15061134Y-14170248D01*
X15061134Y-14170248D02*
X15070658Y-14151201D01*
X15070658Y-14151201D02*
X15080182Y-14122629D01*
X15080182Y-14122629D02*
X15089706Y-14075010D01*
X15089706Y-14075010D02*
X15089706Y-14036915D01*
X15089706Y-14036915D02*
X15080182Y-13989296D01*
X15080182Y-13989296D02*
X15070658Y-13960725D01*
X15070658Y-13960725D02*
X15061134Y-13941677D01*
X15061134Y-13941677D02*
X15042087Y-13913105D01*
X15042087Y-13913105D02*
X15032563Y-13903582D01*
M02*
