%TF.GenerationSoftware,KiCad,Pcbnew,7.0.9-7.0.9~ubuntu22.04.1*%
%TF.CreationDate,2023-12-08T17:36:05+03:00*%
%TF.ProjectId,Keeb,4b656562-2e6b-4696-9361-645f70636258,rev?*%
%TF.SameCoordinates,Original*%
%TF.FileFunction,Soldermask,Top*%
%TF.FilePolarity,Negative*%
%FSLAX46Y46*%
G04 Gerber Fmt 4.6, Leading zero omitted, Abs format (unit mm)*
G04 Created by KiCad (PCBNEW 7.0.9-7.0.9~ubuntu22.04.1) date 2023-12-08 17:36:05*
%MOMM*%
%LPD*%
G01*
G04 APERTURE LIST*
G04 Aperture macros list*
%AMRoundRect*
0 Rectangle with rounded corners*
0 $1 Rounding radius*
0 $2 $3 $4 $5 $6 $7 $8 $9 X,Y pos of 4 corners*
0 Add a 4 corners polygon primitive as box body*
4,1,4,$2,$3,$4,$5,$6,$7,$8,$9,$2,$3,0*
0 Add four circle primitives for the rounded corners*
1,1,$1+$1,$2,$3*
1,1,$1+$1,$4,$5*
1,1,$1+$1,$6,$7*
1,1,$1+$1,$8,$9*
0 Add four rect primitives between the rounded corners*
20,1,$1+$1,$2,$3,$4,$5,0*
20,1,$1+$1,$4,$5,$6,$7,0*
20,1,$1+$1,$6,$7,$8,$9,0*
20,1,$1+$1,$8,$9,$2,$3,0*%
%AMHorizOval*
0 Thick line with rounded ends*
0 $1 width*
0 $2 $3 position (X,Y) of the first rounded end (center of the circle)*
0 $4 $5 position (X,Y) of the second rounded end (center of the circle)*
0 Add line between two ends*
20,1,$1,$2,$3,$4,$5,0*
0 Add two circle primitives to create the rounded ends*
1,1,$1,$2,$3*
1,1,$1,$4,$5*%
%AMRotRect*
0 Rectangle, with rotation*
0 The origin of the aperture is its center*
0 $1 length*
0 $2 width*
0 $3 Rotation angle, in degrees counterclockwise*
0 Add horizontal line*
21,1,$1,$2,0,0,$3*%
G04 Aperture macros list end*
%ADD10C,0.010000*%
%ADD11HorizOval,1.800000X0.000000X0.000000X0.000000X0.000000X0*%
%ADD12HorizOval,1.500000X0.000000X0.000000X0.000000X0.000000X0*%
%ADD13RotRect,3.500000X1.700000X240.000000*%
%ADD14C,3.200000*%
%ADD15C,2.134400*%
%ADD16RoundRect,0.102000X0.965200X0.965200X-0.965200X0.965200X-0.965200X-0.965200X0.965200X-0.965200X0*%
%ADD17C,0.600000*%
%ADD18O,1.104000X2.204000*%
%ADD19O,1.104000X1.904000*%
%ADD20C,1.750000*%
%ADD21C,3.050000*%
%ADD22C,4.000000*%
%ADD23RoundRect,0.250000X1.025000X1.000000X-1.025000X1.000000X-1.025000X-1.000000X1.025000X-1.000000X0*%
%ADD24RoundRect,0.250000X-1.025000X-1.000000X1.025000X-1.000000X1.025000X1.000000X-1.025000X1.000000X0*%
G04 APERTURE END LIST*
%TO.C,J1*%
D10*
X136815000Y-41410000D02*
X136115000Y-41410000D01*
X136115000Y-40170000D01*
X136815000Y-40170000D01*
X136815000Y-41410000D01*
G36*
X136815000Y-41410000D02*
G01*
X136115000Y-41410000D01*
X136115000Y-40170000D01*
X136815000Y-40170000D01*
X136815000Y-41410000D01*
G37*
X136015000Y-41410000D02*
X135315000Y-41410000D01*
X135315000Y-40170000D01*
X136015000Y-40170000D01*
X136015000Y-41410000D01*
G36*
X136015000Y-41410000D02*
G01*
X135315000Y-41410000D01*
X135315000Y-40170000D01*
X136015000Y-40170000D01*
X136015000Y-41410000D01*
G37*
X135215000Y-41410000D02*
X134815000Y-41410000D01*
X134815000Y-40170000D01*
X135215000Y-40170000D01*
X135215000Y-41410000D01*
G36*
X135215000Y-41410000D02*
G01*
X134815000Y-41410000D01*
X134815000Y-40170000D01*
X135215000Y-40170000D01*
X135215000Y-41410000D01*
G37*
X134715000Y-41410000D02*
X134315000Y-41410000D01*
X134315000Y-40170000D01*
X134715000Y-40170000D01*
X134715000Y-41410000D01*
G36*
X134715000Y-41410000D02*
G01*
X134315000Y-41410000D01*
X134315000Y-40170000D01*
X134715000Y-40170000D01*
X134715000Y-41410000D01*
G37*
X134215000Y-41410000D02*
X133815000Y-41410000D01*
X133815000Y-40170000D01*
X134215000Y-40170000D01*
X134215000Y-41410000D01*
G36*
X134215000Y-41410000D02*
G01*
X133815000Y-41410000D01*
X133815000Y-40170000D01*
X134215000Y-40170000D01*
X134215000Y-41410000D01*
G37*
X133715000Y-41410000D02*
X133315000Y-41410000D01*
X133315000Y-40170000D01*
X133715000Y-40170000D01*
X133715000Y-41410000D01*
G36*
X133715000Y-41410000D02*
G01*
X133315000Y-41410000D01*
X133315000Y-40170000D01*
X133715000Y-40170000D01*
X133715000Y-41410000D01*
G37*
X133215000Y-41410000D02*
X132815000Y-41410000D01*
X132815000Y-40170000D01*
X133215000Y-40170000D01*
X133215000Y-41410000D01*
G36*
X133215000Y-41410000D02*
G01*
X132815000Y-41410000D01*
X132815000Y-40170000D01*
X133215000Y-40170000D01*
X133215000Y-41410000D01*
G37*
X132715000Y-41410000D02*
X132315000Y-41410000D01*
X132315000Y-40170000D01*
X132715000Y-40170000D01*
X132715000Y-41410000D01*
G36*
X132715000Y-41410000D02*
G01*
X132315000Y-41410000D01*
X132315000Y-40170000D01*
X132715000Y-40170000D01*
X132715000Y-41410000D01*
G37*
X132215000Y-41410000D02*
X131815000Y-41410000D01*
X131815000Y-40170000D01*
X132215000Y-40170000D01*
X132215000Y-41410000D01*
G36*
X132215000Y-41410000D02*
G01*
X131815000Y-41410000D01*
X131815000Y-40170000D01*
X132215000Y-40170000D01*
X132215000Y-41410000D01*
G37*
X131715000Y-41410000D02*
X131315000Y-41410000D01*
X131315000Y-40170000D01*
X131715000Y-40170000D01*
X131715000Y-41410000D01*
G36*
X131715000Y-41410000D02*
G01*
X131315000Y-41410000D01*
X131315000Y-40170000D01*
X131715000Y-40170000D01*
X131715000Y-41410000D01*
G37*
X131215000Y-41410000D02*
X130515000Y-41410000D01*
X130515000Y-40170000D01*
X131215000Y-40170000D01*
X131215000Y-41410000D01*
G36*
X131215000Y-41410000D02*
G01*
X130515000Y-41410000D01*
X130515000Y-40170000D01*
X131215000Y-40170000D01*
X131215000Y-41410000D01*
G37*
X130415000Y-41410000D02*
X129715000Y-41410000D01*
X129715000Y-40170000D01*
X130415000Y-40170000D01*
X130415000Y-41410000D01*
G36*
X130415000Y-41410000D02*
G01*
X129715000Y-41410000D01*
X129715000Y-40170000D01*
X130415000Y-40170000D01*
X130415000Y-41410000D01*
G37*
%TD*%
D11*
%TO.C,U1*%
X187069057Y-118174969D03*
D12*
X184295000Y-116919776D03*
X181870000Y-121120000D03*
D11*
X184344057Y-122894807D03*
D13*
X190714140Y-112121499D03*
X188514435Y-110851499D03*
X186314731Y-109581499D03*
X184115026Y-108311499D03*
X181915322Y-107041499D03*
X179715617Y-105771499D03*
X177515913Y-104501499D03*
X175316208Y-103231499D03*
X173116504Y-101961499D03*
X170916799Y-100691499D03*
X168717095Y-99421499D03*
X166517390Y-98151499D03*
X164317686Y-96881499D03*
X162117981Y-95611499D03*
X159918277Y-94341499D03*
X157718572Y-93071499D03*
X155518868Y-91801499D03*
X153319163Y-90531499D03*
X151119459Y-89261499D03*
X148919754Y-87991499D03*
X139129754Y-104948277D03*
X141329459Y-106218277D03*
X143529163Y-107488277D03*
X145728868Y-108758277D03*
X147928572Y-110028277D03*
X150128277Y-111298277D03*
X152327981Y-112568277D03*
X154527686Y-113838277D03*
X156727390Y-115108277D03*
X158927095Y-116378277D03*
X161126799Y-117648277D03*
X163326504Y-118918277D03*
X165526208Y-120188277D03*
X167725913Y-121458277D03*
X169925617Y-122728277D03*
X172125322Y-123998277D03*
X174325026Y-125268277D03*
X176524731Y-126538277D03*
X178724435Y-127808277D03*
X180924140Y-129078277D03*
%TD*%
D14*
%TO.C,H9*%
X140700000Y-122292944D03*
%TD*%
%TO.C,H7*%
X121650000Y-84192944D03*
%TD*%
%TO.C,H4*%
X178800000Y-58092944D03*
%TD*%
%TO.C,H2*%
X159750000Y-70092944D03*
%TD*%
%TO.C,H8*%
X178800000Y-96192944D03*
%TD*%
%TO.C,H3*%
X159750000Y-51042944D03*
%TD*%
%TO.C,H1*%
X121650000Y-46092944D03*
%TD*%
%TO.C,H5*%
X121650000Y-103242944D03*
%TD*%
D15*
%TO.C,U2*%
X117030000Y-38372944D03*
X114490000Y-38372944D03*
D16*
X106870000Y-38372944D03*
D15*
X111950000Y-38372944D03*
X109410000Y-38372944D03*
%TD*%
D17*
%TO.C,J1*%
X136155000Y-39720000D03*
X130375000Y-39720000D03*
D18*
X137590000Y-40210000D03*
X128940000Y-40210000D03*
D19*
X137590000Y-36040000D03*
X128940000Y-36040000D03*
%TD*%
D20*
%TO.C,SW3*%
X193405000Y-55617944D03*
D21*
X192135000Y-53077944D03*
D22*
X188325000Y-55617944D03*
D21*
X185785000Y-50537944D03*
D20*
X183245000Y-55617944D03*
D23*
X195410000Y-53077944D03*
X182483000Y-50537944D03*
%TD*%
D20*
%TO.C,SW4*%
X193405000Y-74667944D03*
D21*
X192135000Y-72127944D03*
D22*
X188325000Y-74667944D03*
D21*
X185785000Y-69587944D03*
D20*
X183245000Y-74667944D03*
D23*
X195410000Y-72127944D03*
X182483000Y-69587944D03*
%TD*%
D20*
%TO.C,SW5*%
X193405000Y-93717944D03*
D21*
X192135000Y-91177944D03*
D22*
X188325000Y-93717944D03*
D21*
X185785000Y-88637944D03*
D20*
X183245000Y-93717944D03*
D23*
X195410000Y-91177944D03*
X182483000Y-88637944D03*
%TD*%
D20*
%TO.C,SW6*%
X174355000Y-48567944D03*
D21*
X173085000Y-46027944D03*
D22*
X169275000Y-48567944D03*
D21*
X166735000Y-43487944D03*
D20*
X164195000Y-48567944D03*
D23*
X176360000Y-46027944D03*
X163433000Y-43487944D03*
%TD*%
D20*
%TO.C,SW7*%
X174355000Y-67617944D03*
D21*
X173085000Y-65077944D03*
D22*
X169275000Y-67617944D03*
D21*
X166735000Y-62537944D03*
D20*
X164195000Y-67617944D03*
D23*
X176360000Y-65077944D03*
X163433000Y-62537944D03*
%TD*%
D20*
%TO.C,SW8*%
X174355000Y-86667944D03*
D21*
X173085000Y-84127944D03*
D22*
X169275000Y-86667944D03*
D21*
X166735000Y-81587944D03*
D20*
X164195000Y-86667944D03*
D23*
X176360000Y-84127944D03*
X163433000Y-81587944D03*
%TD*%
D20*
%TO.C,SW9*%
X155305000Y-41517944D03*
D21*
X154035000Y-38977944D03*
D22*
X150225000Y-41517944D03*
D21*
X147685000Y-36437944D03*
D20*
X145145000Y-41517944D03*
D23*
X157310000Y-38977944D03*
X144383000Y-36437944D03*
%TD*%
D20*
%TO.C,SW10*%
X155305000Y-60567944D03*
D21*
X154035000Y-58027944D03*
D22*
X150225000Y-60567944D03*
D21*
X147685000Y-55487944D03*
D20*
X145145000Y-60567944D03*
D23*
X157310000Y-58027944D03*
X144383000Y-55487944D03*
%TD*%
D20*
%TO.C,SW11*%
X155305000Y-79617944D03*
D21*
X154035000Y-77077944D03*
D22*
X150225000Y-79617944D03*
D21*
X147685000Y-74537944D03*
D20*
X145145000Y-79617944D03*
D23*
X157310000Y-77077944D03*
X144383000Y-74537944D03*
%TD*%
D20*
%TO.C,SW13*%
X136255000Y-55617944D03*
D21*
X134985000Y-53077944D03*
D22*
X131175000Y-55617944D03*
D21*
X128635000Y-50537944D03*
D20*
X126095000Y-55617944D03*
D23*
X138260000Y-53077944D03*
X125333000Y-50537944D03*
%TD*%
D20*
%TO.C,SW14*%
X136255000Y-74667944D03*
D21*
X134985000Y-72127944D03*
D22*
X131175000Y-74667944D03*
D21*
X128635000Y-69587944D03*
D20*
X126095000Y-74667944D03*
D23*
X138260000Y-72127944D03*
X125333000Y-69587944D03*
%TD*%
D20*
%TO.C,SW15*%
X136255000Y-93717944D03*
D21*
X134985000Y-91177944D03*
D22*
X131175000Y-93717944D03*
D21*
X128635000Y-88637944D03*
D20*
X126095000Y-93717944D03*
D23*
X138260000Y-91177944D03*
X125333000Y-88637944D03*
%TD*%
D20*
%TO.C,SW16*%
X136255000Y-112767944D03*
D21*
X134985000Y-110227944D03*
D22*
X131175000Y-112767944D03*
D21*
X128635000Y-107687944D03*
D20*
X126095000Y-112767944D03*
D23*
X138260000Y-110227944D03*
X125333000Y-107687944D03*
%TD*%
D20*
%TO.C,SW17*%
X117205000Y-55617944D03*
D21*
X115935000Y-53077944D03*
D22*
X112125000Y-55617944D03*
D21*
X109585000Y-50537944D03*
D20*
X107045000Y-55617944D03*
D23*
X119210000Y-53077944D03*
X106283000Y-50537944D03*
%TD*%
D20*
%TO.C,SW18*%
X117205000Y-74667944D03*
D21*
X115935000Y-72127944D03*
D22*
X112125000Y-74667944D03*
D21*
X109585000Y-69587944D03*
D20*
X107045000Y-74667944D03*
D23*
X119210000Y-72127944D03*
X106283000Y-69587944D03*
%TD*%
D20*
%TO.C,SW19*%
X117205000Y-93717944D03*
D21*
X115935000Y-91177944D03*
D22*
X112125000Y-93717944D03*
D21*
X109585000Y-88637944D03*
D20*
X107045000Y-93717944D03*
D23*
X119210000Y-91177944D03*
X106283000Y-88637944D03*
%TD*%
D20*
%TO.C,SW20*%
X117205000Y-112767944D03*
D21*
X115935000Y-110227944D03*
D22*
X112125000Y-112767944D03*
D21*
X109585000Y-107687944D03*
D20*
X107045000Y-112767944D03*
D23*
X119210000Y-110227944D03*
X106283000Y-107687944D03*
%TD*%
D20*
%TO.C,SW2*%
X183245000Y-36567944D03*
D21*
X184515000Y-39107944D03*
D22*
X188325000Y-36567944D03*
D21*
X190865000Y-41647944D03*
D20*
X193405000Y-36567944D03*
D24*
X181240000Y-39107944D03*
X194167000Y-41647944D03*
%TD*%
D20*
%TO.C,SW1*%
X155380000Y-125172944D03*
D21*
X154110000Y-122632944D03*
D22*
X150300000Y-125172944D03*
D21*
X147760000Y-120092944D03*
D20*
X145220000Y-125172944D03*
D23*
X157385000Y-122632944D03*
X144458000Y-120092944D03*
%TD*%
M02*
