%TF.GenerationSoftware,KiCad,Pcbnew,7.0.9-7.0.9~ubuntu22.04.1*%
%TF.CreationDate,2023-11-28T14:58:53+03:00*%
%TF.ProjectId,Keeb,4b656562-2e6b-4696-9361-645f70636258,rev?*%
%TF.SameCoordinates,Original*%
%TF.FileFunction,Copper,L1,Top*%
%TF.FilePolarity,Positive*%
%FSLAX46Y46*%
G04 Gerber Fmt 4.6, Leading zero omitted, Abs format (unit mm)*
G04 Created by KiCad (PCBNEW 7.0.9-7.0.9~ubuntu22.04.1) date 2023-11-28 14:58:53*
%MOMM*%
%LPD*%
G01*
G04 APERTURE LIST*
G04 Aperture macros list*
%AMRoundRect*
0 Rectangle with rounded corners*
0 $1 Rounding radius*
0 $2 $3 $4 $5 $6 $7 $8 $9 X,Y pos of 4 corners*
0 Add a 4 corners polygon primitive as box body*
4,1,4,$2,$3,$4,$5,$6,$7,$8,$9,$2,$3,0*
0 Add four circle primitives for the rounded corners*
1,1,$1+$1,$2,$3*
1,1,$1+$1,$4,$5*
1,1,$1+$1,$6,$7*
1,1,$1+$1,$8,$9*
0 Add four rect primitives between the rounded corners*
20,1,$1+$1,$2,$3,$4,$5,0*
20,1,$1+$1,$4,$5,$6,$7,0*
20,1,$1+$1,$6,$7,$8,$9,0*
20,1,$1+$1,$8,$9,$2,$3,0*%
%AMRotRect*
0 Rectangle, with rotation*
0 The origin of the aperture is its center*
0 $1 length*
0 $2 width*
0 $3 Rotation angle, in degrees counterclockwise*
0 Add horizontal line*
21,1,$1,$2,0,0,$3*%
G04 Aperture macros list end*
%TA.AperFunction,SMDPad,CuDef*%
%ADD10RotRect,3.500000X1.700000X120.000000*%
%TD*%
%TA.AperFunction,SMDPad,CuDef*%
%ADD11R,0.600000X1.140000*%
%TD*%
%TA.AperFunction,SMDPad,CuDef*%
%ADD12R,0.300000X1.140000*%
%TD*%
%TA.AperFunction,ComponentPad*%
%ADD13O,0.900000X2.000000*%
%TD*%
%TA.AperFunction,ComponentPad*%
%ADD14O,0.900000X1.700000*%
%TD*%
%TA.AperFunction,SMDPad,CuDef*%
%ADD15RoundRect,0.250000X1.025000X1.000000X-1.025000X1.000000X-1.025000X-1.000000X1.025000X-1.000000X0*%
%TD*%
%TA.AperFunction,SMDPad,CuDef*%
%ADD16RoundRect,0.250000X0.387676X1.378525X-1.387676X0.353525X-0.387676X-1.378525X1.387676X-0.353525X0*%
%TD*%
%TA.AperFunction,SMDPad,CuDef*%
%ADD17RoundRect,0.250000X0.835780X1.162797X-1.183076X0.806818X-0.835780X-1.162797X1.183076X-0.806818X0*%
%TD*%
%TA.AperFunction,Conductor*%
%ADD18C,0.250000*%
%TD*%
G04 APERTURE END LIST*
D10*
%TO.P,U1,1,GPIO0*%
%TO.N,0*%
X119005860Y-129078277D03*
%TO.P,U1,2,GPIO1*%
%TO.N,1*%
X121205565Y-127808277D03*
%TO.P,U1,3,GND*%
%TO.N,GND*%
X123405269Y-126538277D03*
%TO.P,U1,4,GPIO2*%
%TO.N,2*%
X125604974Y-125268277D03*
%TO.P,U1,5,GPIO3*%
%TO.N,3*%
X127804678Y-123998277D03*
%TO.P,U1,6,GPIO4*%
%TO.N,4*%
X130004383Y-122728277D03*
%TO.P,U1,7,GPIO5*%
%TO.N,5*%
X132204087Y-121458277D03*
%TO.P,U1,8,GND*%
%TO.N,unconnected-(U1-GND-Pad8)*%
X134403792Y-120188277D03*
%TO.P,U1,9,GPIO6*%
%TO.N,6*%
X136603496Y-118918277D03*
%TO.P,U1,10,GPIO7*%
%TO.N,7*%
X138803201Y-117648277D03*
%TO.P,U1,11,GPIO8*%
%TO.N,8*%
X141002905Y-116378277D03*
%TO.P,U1,12,GPIO9*%
%TO.N,9*%
X143202610Y-115108277D03*
%TO.P,U1,13,GND*%
%TO.N,GND*%
X145402314Y-113838277D03*
%TO.P,U1,14,GPIO10*%
%TO.N,10*%
X147602019Y-112568277D03*
%TO.P,U1,15,GPIO11*%
%TO.N,11*%
X149801723Y-111298277D03*
%TO.P,U1,16,GPIO12*%
%TO.N,12*%
X152001428Y-110028277D03*
%TO.P,U1,17,GPIO13*%
%TO.N,13*%
X154201132Y-108758277D03*
%TO.P,U1,18,GND*%
%TO.N,GND*%
X156400837Y-107488277D03*
%TO.P,U1,19,GPIO14*%
%TO.N,14*%
X158600541Y-106218277D03*
%TO.P,U1,20,GPIO15*%
%TO.N,15*%
X160800246Y-104948277D03*
%TO.P,U1,21,GPIO16*%
%TO.N,16*%
X151010246Y-87991499D03*
%TO.P,U1,22,GPIO17*%
%TO.N,17*%
X148810541Y-89261499D03*
%TO.P,U1,23,GND*%
%TO.N,GND*%
X146610837Y-90531499D03*
%TO.P,U1,24,GPIO18*%
%TO.N,18*%
X144411132Y-91801499D03*
%TO.P,U1,25,GPIO19*%
%TO.N,19*%
X142211428Y-93071499D03*
%TO.P,U1,26,GPIO20*%
%TO.N,20*%
X140011723Y-94341499D03*
%TO.P,U1,27,GPIO21*%
%TO.N,21*%
X137812019Y-95611499D03*
%TO.P,U1,28,GND*%
%TO.N,GND*%
X135612314Y-96881499D03*
%TO.P,U1,29,GPIO22*%
%TO.N,22*%
X133412610Y-98151499D03*
%TO.P,U1,30,RUN*%
%TO.N,unconnected-(U1-RUN-Pad30)*%
X131212905Y-99421499D03*
%TO.P,U1,31,GPIO26_ADC0*%
%TO.N,26*%
X129013201Y-100691499D03*
%TO.P,U1,32,GPIO27_ADC1*%
%TO.N,27*%
X126813496Y-101961499D03*
%TO.P,U1,33,AGND*%
%TO.N,unconnected-(U1-AGND-Pad33)*%
X124613792Y-103231499D03*
%TO.P,U1,34,GPIO28_ADC2*%
%TO.N,28*%
X122414087Y-104501499D03*
%TO.P,U1,35,ADC_VREF*%
%TO.N,unconnected-(U1-ADC_VREF-Pad35)*%
X120214383Y-105771499D03*
%TO.P,U1,36,3V3*%
%TO.N,unconnected-(U1-3V3-Pad36)*%
X118014678Y-107041499D03*
%TO.P,U1,37,3V3_EN*%
%TO.N,unconnected-(U1-3V3_EN-Pad37)*%
X115814974Y-108311499D03*
%TO.P,U1,38,GND*%
%TO.N,GND*%
X113615269Y-109581499D03*
%TO.P,U1,39,VSYS*%
%TO.N,VSYS*%
X111415565Y-110851499D03*
%TO.P,U1,40,VBUS*%
%TO.N,3v3*%
X109215860Y-112121499D03*
%TD*%
D11*
%TO.P,J1,A1_B12,GND*%
%TO.N,GND*%
X169865000Y-40790000D03*
%TO.P,J1,A4_B9,VBUS*%
%TO.N,VSYS*%
X169065000Y-40790000D03*
D12*
%TO.P,J1,A5,CC1*%
%TO.N,0*%
X167915000Y-40790000D03*
%TO.P,J1,A6,DP1*%
%TO.N,1*%
X166915000Y-40790000D03*
%TO.P,J1,A7,DN1*%
X166415000Y-40790000D03*
%TO.P,J1,A8,SBU1*%
%TO.N,0*%
X165415000Y-40790000D03*
D11*
%TO.P,J1,B1_A12,GND*%
%TO.N,GND*%
X163465000Y-40790000D03*
%TO.P,J1,B4_A9,VBUS*%
%TO.N,VSYS*%
X164265000Y-40790000D03*
D12*
%TO.P,J1,B5,CC2*%
%TO.N,3v3*%
X164915000Y-40790000D03*
%TO.P,J1,B6,DP2*%
%TO.N,2*%
X165915000Y-40790000D03*
%TO.P,J1,B7,DN2*%
X167415000Y-40790000D03*
%TO.P,J1,B8,SBU2*%
%TO.N,3v3*%
X168415000Y-40790000D03*
D13*
%TO.P,J1,S1,SHIELD*%
%TO.N,Net-(J1-SHIELD-PadS1)*%
X170990000Y-40210000D03*
%TO.P,J1,S2,SHIELD*%
X162340000Y-40210000D03*
D14*
%TO.P,J1,S3,SHIELD*%
X170990000Y-36040000D03*
%TO.P,J1,S4,SHIELD*%
X162340000Y-36040000D03*
%TD*%
D15*
%TO.P,SW3,1*%
%TO.N,GND*%
X118690000Y-53077944D03*
%TO.P,SW3,2*%
%TO.N,26*%
X105763000Y-50537944D03*
%TD*%
%TO.P,SW4,1*%
%TO.N,GND*%
X118690000Y-72127944D03*
%TO.P,SW4,2*%
%TO.N,27*%
X105763000Y-69587944D03*
%TD*%
%TO.P,SW5,1*%
%TO.N,GND*%
X118690000Y-91177944D03*
%TO.P,SW5,2*%
%TO.N,28*%
X105763000Y-88637944D03*
%TD*%
%TO.P,SW6,1*%
%TO.N,GND*%
X137740000Y-46027944D03*
%TO.P,SW6,2*%
%TO.N,21*%
X124813000Y-43487944D03*
%TD*%
%TO.P,SW7,1*%
%TO.N,GND*%
X137740000Y-65077944D03*
%TO.P,SW7,2*%
%TO.N,20*%
X124813000Y-62537944D03*
%TD*%
%TO.P,SW8,1*%
%TO.N,GND*%
X137740000Y-84127944D03*
%TO.P,SW8,2*%
%TO.N,19*%
X124813000Y-81587944D03*
%TD*%
%TO.P,SW9,1*%
%TO.N,18*%
X156790000Y-38977944D03*
%TO.P,SW9,2*%
%TO.N,GND*%
X143863000Y-36437944D03*
%TD*%
%TO.P,SW10,1*%
%TO.N,17*%
X156790000Y-58027944D03*
%TO.P,SW10,2*%
%TO.N,GND*%
X143863000Y-55487944D03*
%TD*%
%TO.P,SW11,1*%
%TO.N,16*%
X156790000Y-77077944D03*
%TO.P,SW11,2*%
%TO.N,GND*%
X143863000Y-74537944D03*
%TD*%
%TO.P,SW13,1*%
%TO.N,GND*%
X175840000Y-53077944D03*
%TO.P,SW13,2*%
%TO.N,13*%
X162913000Y-50537944D03*
%TD*%
%TO.P,SW14,1*%
%TO.N,GND*%
X175840000Y-72127944D03*
%TO.P,SW14,2*%
%TO.N,12*%
X162913000Y-69587944D03*
%TD*%
%TO.P,SW15,1*%
%TO.N,GND*%
X175840000Y-91177944D03*
%TO.P,SW15,2*%
%TO.N,11*%
X162913000Y-88637944D03*
%TD*%
D16*
%TO.P,SW16,1*%
%TO.N,5*%
X166583433Y-121165306D03*
%TO.P,SW16,2*%
%TO.N,GND*%
X154118323Y-125429102D03*
%TD*%
D15*
%TO.P,SW17,1*%
%TO.N,9*%
X194890000Y-53077944D03*
%TO.P,SW17,2*%
%TO.N,GND*%
X181963000Y-50537944D03*
%TD*%
%TO.P,SW18,1*%
%TO.N,8*%
X194890000Y-72127944D03*
%TO.P,SW18,2*%
%TO.N,GND*%
X181963000Y-69587944D03*
%TD*%
%TO.P,SW19,1*%
%TO.N,7*%
X194890000Y-91177944D03*
%TO.P,SW19,2*%
%TO.N,GND*%
X181963000Y-88637944D03*
%TD*%
D16*
%TO.P,SW20,1*%
%TO.N,6*%
X183081217Y-111640306D03*
%TO.P,SW20,2*%
%TO.N,GND*%
X170616107Y-115904102D03*
%TD*%
D17*
%TO.P,SW1,1*%
%TO.N,4*%
X144669120Y-126736158D03*
%TO.P,SW1,2*%
%TO.N,GND*%
X131497443Y-126479496D03*
%TD*%
D18*
%TO.N,26*%
X117202767Y-94967944D02*
X119407767Y-92762944D01*
X115435000Y-94155000D02*
X115435000Y-94235711D01*
X116167233Y-94967944D02*
X117202767Y-94967944D01*
X115435000Y-94235711D02*
X116167233Y-94967944D01*
X113515000Y-85875000D02*
X113515000Y-92235000D01*
X108920000Y-53694944D02*
X108920000Y-66755938D01*
X113515000Y-92235000D02*
X115435000Y-94155000D01*
X114020000Y-85370000D02*
X113515000Y-85875000D01*
X114020000Y-73730000D02*
X114020000Y-85370000D01*
X113515000Y-73225000D02*
X114020000Y-73730000D01*
X123850000Y-92762944D02*
X129276783Y-98189727D01*
X113515000Y-71350938D02*
X113515000Y-73225000D01*
X108920000Y-66755938D02*
X113515000Y-71350938D01*
X105763000Y-50537944D02*
X108920000Y-53694944D01*
X119407767Y-92762944D02*
X123850000Y-92762944D01*
X129276783Y-98189727D02*
X129276783Y-101284504D01*
X129276783Y-101284504D02*
X129463201Y-101470922D01*
%TO.N,27*%
X111380000Y-90270000D02*
X111380000Y-81290711D01*
X109082944Y-92567056D02*
X111380000Y-90270000D01*
X109082944Y-100082944D02*
X109082944Y-92567056D01*
X105275000Y-75185711D02*
X105275000Y-70075944D01*
X127263496Y-102740922D02*
X127263496Y-102143496D01*
%TO.N,28*%
X105763000Y-88637944D02*
X105763000Y-89887944D01*
%TO.N,27*%
X125202944Y-100082944D02*
X109082944Y-100082944D01*
X127263496Y-102143496D02*
X125202944Y-100082944D01*
%TO.N,28*%
X108632944Y-92757888D02*
X108632944Y-100269340D01*
X105763000Y-89887944D02*
X108632944Y-92757888D01*
X108632944Y-100269340D02*
X109723604Y-101360000D01*
X119940000Y-101360000D02*
X122864087Y-104284087D01*
X109723604Y-101360000D02*
X119940000Y-101360000D01*
X122864087Y-104284087D02*
X122864087Y-105280922D01*
%TO.N,27*%
X111380000Y-81290711D02*
X105275000Y-75185711D01*
X105275000Y-70075944D02*
X105763000Y-69587944D01*
%TO.N,GND*%
X137740000Y-84127944D02*
X136640000Y-83027944D01*
X136640000Y-83027944D02*
X136640000Y-68480711D01*
X136640000Y-68480711D02*
X136985000Y-68135711D01*
X136640000Y-66177944D02*
X137740000Y-65077944D01*
X136985000Y-68135711D02*
X136985000Y-67100177D01*
X136985000Y-67100177D02*
X136640000Y-66755177D01*
X136640000Y-66755177D02*
X136640000Y-66177944D01*
%TO.N,18*%
X156790000Y-38977944D02*
X156790000Y-41280711D01*
X156790000Y-41280711D02*
X144157767Y-53912944D01*
X144157767Y-53912944D02*
X142592900Y-53912944D01*
X142592900Y-53912944D02*
X142263000Y-54242844D01*
X142263000Y-54242844D02*
X142263000Y-56733044D01*
X142263000Y-56733044D02*
X142870000Y-57340044D01*
X142870000Y-57340044D02*
X142870000Y-72685844D01*
X142870000Y-72685844D02*
X142263000Y-73292844D01*
X142263000Y-73292844D02*
X142263000Y-89982790D01*
X142263000Y-89982790D02*
X144861132Y-92580922D01*
%TO.N,GND*%
X118690000Y-53077944D02*
X118310000Y-53457944D01*
X118310000Y-53457944D02*
X118310000Y-71747944D01*
X118310000Y-71747944D02*
X118690000Y-72127944D01*
%TO.N,21*%
X124813000Y-43487944D02*
X124325000Y-43975944D01*
X124325000Y-43975944D02*
X124325000Y-49085711D01*
X124325000Y-49085711D02*
X124890000Y-49650711D01*
X124890000Y-49650711D02*
X124890000Y-59615844D01*
X124890000Y-59615844D02*
X122763000Y-61742844D01*
X122763000Y-61742844D02*
X122763000Y-86260107D01*
X122763000Y-86260107D02*
X127230837Y-90727944D01*
X127230837Y-90727944D02*
X132599041Y-90727944D01*
X132599041Y-90727944D02*
X138262019Y-96390922D01*
%TO.N,20*%
X123560000Y-79995844D02*
X123213000Y-80342844D01*
X123213000Y-82833044D02*
X123542900Y-83162944D01*
X123213000Y-80342844D02*
X123213000Y-82833044D01*
X127417233Y-90277944D02*
X135618745Y-90277944D01*
X135618745Y-90277944D02*
X140461723Y-95120922D01*
X123560000Y-86420711D02*
X127417233Y-90277944D01*
X123542900Y-83162944D02*
X123560000Y-83162944D01*
X123560000Y-63790944D02*
X123560000Y-79995844D01*
X123560000Y-83162944D02*
X123560000Y-86420711D01*
X124813000Y-62537944D02*
X123560000Y-63790944D01*
%TO.N,GND*%
X137740000Y-65077944D02*
X136470000Y-63807944D01*
X136470000Y-63807944D02*
X136470000Y-49600711D01*
X136470000Y-49600711D02*
X137460000Y-48610711D01*
X137460000Y-47382944D02*
X137740000Y-47102944D01*
X137460000Y-48610711D02*
X137460000Y-47382944D01*
X137740000Y-47102944D02*
X137740000Y-46027944D01*
X175840000Y-91177944D02*
X174560000Y-89897944D01*
X175085000Y-74150177D02*
X174840000Y-73905177D01*
X174560000Y-89897944D02*
X174560000Y-75710711D01*
X174560000Y-75710711D02*
X175085000Y-75185711D01*
X175085000Y-75185711D02*
X175085000Y-74150177D01*
X174840000Y-73127944D02*
X175840000Y-72127944D01*
X174840000Y-73905177D02*
X174840000Y-73127944D01*
X181963000Y-69587944D02*
X181475000Y-70075944D01*
X181475000Y-70075944D02*
X181475000Y-75185711D01*
X181475000Y-75185711D02*
X182130000Y-75840711D01*
X182130000Y-75840711D02*
X182130000Y-88470944D01*
X182130000Y-88470944D02*
X181963000Y-88637944D01*
%TO.N,6*%
X183081217Y-111640306D02*
X182166153Y-110725242D01*
X182166153Y-110725242D02*
X173236749Y-110725242D01*
X173236749Y-110725242D02*
X168650714Y-115311277D01*
X142019123Y-119913821D02*
X137928463Y-119913821D01*
X168650714Y-115311277D02*
X168650714Y-115328626D01*
X168650714Y-115328626D02*
X164706396Y-119272944D01*
X164706396Y-119272944D02*
X142660000Y-119272944D01*
X142660000Y-119272944D02*
X142019123Y-119913821D01*
X137928463Y-119913821D02*
X136153496Y-118138854D01*
%TO.N,8*%
X162752727Y-117373821D02*
X184033604Y-96092944D01*
%TO.N,11*%
X166350000Y-101447208D02*
X167110000Y-102207208D01*
%TO.N,9*%
X185430000Y-73684187D02*
X185430000Y-84270000D01*
%TO.N,12*%
X161313000Y-97046604D02*
X166660000Y-102393604D01*
%TO.N,11*%
X162913000Y-88637944D02*
X166350000Y-92074944D01*
%TO.N,9*%
X184047208Y-95442944D02*
X162730152Y-116760000D01*
%TO.N,GND*%
X164019935Y-114833821D02*
X181475000Y-97378756D01*
%TO.N,13*%
X166210000Y-110734568D02*
X166064568Y-110880000D01*
%TO.N,9*%
X194890000Y-64224187D02*
X185430000Y-73684187D01*
%TO.N,7*%
X194890000Y-93480711D02*
X194890000Y-91177944D01*
%TO.N,GND*%
X146727281Y-114833821D02*
X164019935Y-114833821D01*
%TO.N,11*%
X167110000Y-102207208D02*
X167110000Y-111107360D01*
%TO.N,8*%
X142327872Y-117373821D02*
X162752727Y-117373821D01*
X184033604Y-96092944D02*
X190042944Y-96092944D01*
X140552905Y-115598854D02*
X142327872Y-117373821D01*
%TO.N,12*%
X164925000Y-83780844D02*
X161313000Y-87392844D01*
%TO.N,13*%
X166064568Y-110880000D02*
X156652278Y-110880000D01*
%TO.N,8*%
X190042944Y-96092944D02*
X190280000Y-95855888D01*
X190280000Y-95855888D02*
X190280000Y-92670000D01*
%TO.N,12*%
X164925000Y-71599944D02*
X164925000Y-83780844D01*
%TO.N,13*%
X156652278Y-110880000D02*
X153751132Y-107978854D01*
X160830000Y-86820000D02*
X160830000Y-97200000D01*
%TO.N,11*%
X166350000Y-92074944D02*
X166350000Y-101447208D01*
%TO.N,12*%
X161313000Y-87392844D02*
X161313000Y-97046604D01*
%TO.N,13*%
X160830000Y-97200000D02*
X166210000Y-102580000D01*
%TO.N,12*%
X162913000Y-69587944D02*
X164925000Y-71599944D01*
X165420964Y-112160000D02*
X154462574Y-112160000D01*
X154462574Y-112160000D02*
X151551428Y-109248854D01*
%TO.N,13*%
X162913000Y-50537944D02*
X161090000Y-52360944D01*
X166210000Y-102580000D02*
X166210000Y-110734568D01*
%TO.N,12*%
X166660000Y-102393604D02*
X166660000Y-110920964D01*
%TO.N,7*%
X184220000Y-96542944D02*
X191827767Y-96542944D01*
%TO.N,9*%
X162730152Y-116760000D02*
X145183756Y-116760000D01*
%TO.N,13*%
X161090000Y-52360944D02*
X161090000Y-86560000D01*
%TO.N,8*%
X194890000Y-74430711D02*
X194890000Y-72127944D01*
%TO.N,12*%
X166660000Y-110920964D02*
X165420964Y-112160000D01*
%TO.N,13*%
X161090000Y-86560000D02*
X160830000Y-86820000D01*
%TO.N,9*%
X145183756Y-116760000D02*
X142752610Y-114328854D01*
%TO.N,11*%
X152372869Y-113540000D02*
X149351723Y-110518854D01*
X164677360Y-113540000D02*
X152372869Y-113540000D01*
X167110000Y-111107360D02*
X164677360Y-113540000D01*
%TO.N,GND*%
X181475000Y-97378756D02*
X181475000Y-89125944D01*
X144952314Y-113058854D02*
X146727281Y-114833821D01*
%TO.N,9*%
X187660000Y-89700000D02*
X184047208Y-93312792D01*
X184047208Y-93312792D02*
X184047208Y-95442944D01*
%TO.N,8*%
X189490000Y-91880000D02*
X189490000Y-79830711D01*
%TO.N,GND*%
X181475000Y-89125944D02*
X181963000Y-88637944D01*
%TO.N,9*%
X187660000Y-86500000D02*
X187660000Y-89700000D01*
X185430000Y-84270000D02*
X187660000Y-86500000D01*
X194890000Y-53077944D02*
X194890000Y-64224187D01*
%TO.N,8*%
X190280000Y-92670000D02*
X189490000Y-91880000D01*
X189490000Y-79830711D02*
X194890000Y-74430711D01*
%TO.N,7*%
X138353201Y-116868854D02*
X140128168Y-118643821D01*
X140128168Y-118643821D02*
X162119123Y-118643821D01*
X162119123Y-118643821D02*
X184220000Y-96542944D01*
X191827767Y-96542944D02*
X194890000Y-93480711D01*
%TO.N,5*%
X131754087Y-120678854D02*
X133529054Y-122453821D01*
X142846396Y-119722944D02*
X165141071Y-119722944D01*
X140115519Y-122453821D02*
X142846396Y-119722944D01*
X165141071Y-119722944D02*
X166583433Y-121165306D01*
X133529054Y-122453821D02*
X140115519Y-122453821D01*
%TO.N,GND*%
X181963000Y-50537944D02*
X181963000Y-43465944D01*
X181963000Y-43465944D02*
X178171040Y-39673984D01*
X178171040Y-39673984D02*
X172100000Y-39673984D01*
%TO.N,16*%
X156790000Y-80720000D02*
X151460246Y-86049754D01*
X151460246Y-86049754D02*
X151460246Y-88770922D01*
X156790000Y-77077944D02*
X156790000Y-80720000D01*
%TO.N,17*%
X147650000Y-87530000D02*
X149260541Y-89140541D01*
X156790000Y-69174187D02*
X147330000Y-78634187D01*
X147330000Y-78634187D02*
X147330000Y-80601701D01*
X147330000Y-80601701D02*
X147650000Y-80921701D01*
X156790000Y-58027944D02*
X156790000Y-69174187D01*
X149260541Y-89140541D02*
X149260541Y-90040922D01*
X147650000Y-80921701D02*
X147650000Y-87530000D01*
%TO.N,19*%
X130220736Y-89827944D02*
X138638450Y-89827944D01*
X124813000Y-83713000D02*
X127990000Y-86890000D01*
X127990000Y-86890000D02*
X127990000Y-87597208D01*
X127990000Y-87597208D02*
X130220736Y-89827944D01*
X138638450Y-89827944D02*
X142661428Y-93850922D01*
X124813000Y-81587944D02*
X124813000Y-83713000D01*
%TO.N,GND*%
X143863000Y-39904944D02*
X137740000Y-46027944D01*
X131497443Y-126479496D02*
X133110814Y-128092867D01*
X170610000Y-41535000D02*
X171311016Y-41535000D01*
X139532867Y-128092867D02*
X142275734Y-130835734D01*
X169865000Y-40790000D02*
X170610000Y-41535000D01*
X166634819Y-125617511D02*
X170616107Y-121636223D01*
X154118323Y-125429102D02*
X155590566Y-125429102D01*
X193407944Y-48637944D02*
X183863000Y-48637944D01*
X161565000Y-38985000D02*
X161565000Y-41105000D01*
X118690000Y-46765844D02*
X118690000Y-53077944D01*
X143375000Y-75025944D02*
X143375000Y-86855000D01*
X159650000Y-37070000D02*
X161565000Y-38985000D01*
X162720000Y-41535000D02*
X163465000Y-40790000D01*
X179423000Y-53077944D02*
X181963000Y-50537944D01*
X163465000Y-43945000D02*
X163465000Y-40790000D01*
X164040000Y-36510000D02*
X161565000Y-38985000D01*
X128823031Y-113340000D02*
X158390000Y-83773031D01*
X158390000Y-83773031D02*
X158390000Y-49020000D01*
X172100000Y-40746016D02*
X172100000Y-39673984D01*
X142275734Y-130835734D02*
X148711691Y-130835734D01*
X163874899Y-125617511D02*
X166634819Y-125617511D01*
X168936016Y-36510000D02*
X164040000Y-36510000D01*
X179423000Y-91177944D02*
X181963000Y-88637944D01*
X181475000Y-69099944D02*
X181963000Y-69587944D01*
X118690000Y-72127944D02*
X118690000Y-91177944D01*
X171311016Y-41535000D02*
X172100000Y-40746016D01*
X117030000Y-113340000D02*
X128823031Y-113340000D01*
X114065269Y-110360922D02*
X114065269Y-110375269D01*
X133110814Y-128092867D02*
X139532867Y-128092867D01*
X131497443Y-126479496D02*
X130443118Y-127533821D01*
X147060837Y-90540837D02*
X147060837Y-91310922D01*
X133300000Y-41587944D02*
X123867900Y-41587944D01*
X196490000Y-102850000D02*
X196490000Y-51720000D01*
X172088350Y-115904102D02*
X175941759Y-119757511D01*
X175840000Y-53077944D02*
X179423000Y-53077944D01*
X137740000Y-46027944D02*
X133300000Y-41587944D01*
X159183046Y-124260000D02*
X162517388Y-124260000D01*
X143863000Y-36437944D02*
X145763000Y-38337944D01*
X161995000Y-41535000D02*
X162720000Y-41535000D01*
X162517388Y-124260000D02*
X163874899Y-125617511D01*
X170616107Y-115904102D02*
X172088350Y-115904102D01*
X175840000Y-72127944D02*
X175840000Y-53077944D01*
X172100000Y-39673984D02*
X168936016Y-36510000D01*
X157764944Y-125678102D02*
X159183046Y-124260000D01*
X170616107Y-121636223D02*
X170616107Y-115904102D01*
X118690000Y-91177944D02*
X129579336Y-91177944D01*
X181963000Y-50537944D02*
X181475000Y-51025944D01*
X181475000Y-51025944D02*
X181475000Y-69099944D01*
X155839566Y-125678102D02*
X157764944Y-125678102D01*
X143863000Y-36437944D02*
X143863000Y-39904944D01*
X129579336Y-91177944D02*
X136062314Y-97660922D01*
X130443118Y-127533821D02*
X124730236Y-127533821D01*
X143375000Y-74049944D02*
X143863000Y-74537944D01*
X179582489Y-119757511D02*
X196490000Y-102850000D01*
X183863000Y-48637944D02*
X181963000Y-50537944D01*
X143375000Y-86855000D02*
X147060837Y-90540837D01*
X155590566Y-125429102D02*
X155839566Y-125678102D01*
X161565000Y-41105000D02*
X161995000Y-41535000D01*
X145763000Y-38337944D02*
X151462056Y-38337944D01*
X158390000Y-49020000D02*
X163465000Y-43945000D01*
X114065269Y-110375269D02*
X117030000Y-113340000D01*
X143863000Y-74537944D02*
X143375000Y-75025944D01*
X151462056Y-38337944D02*
X152730000Y-37070000D01*
X152730000Y-37070000D02*
X159650000Y-37070000D01*
X124730236Y-127533821D02*
X122955269Y-125758854D01*
X196490000Y-51720000D02*
X193407944Y-48637944D01*
X123867900Y-41587944D02*
X118690000Y-46765844D01*
X148711691Y-130835734D02*
X154118323Y-125429102D01*
X175941759Y-119757511D02*
X179582489Y-119757511D01*
X143863000Y-55487944D02*
X143375000Y-55975944D01*
X143375000Y-55975944D02*
X143375000Y-74049944D01*
X175840000Y-91177944D02*
X179423000Y-91177944D01*
%TO.N,3v3*%
X129195823Y-114240000D02*
X159290000Y-84145823D01*
X111004938Y-114240000D02*
X129195823Y-114240000D01*
X159290000Y-84145823D02*
X159290000Y-49406656D01*
X109665860Y-112900922D02*
X111004938Y-114240000D01*
X164940000Y-38400812D02*
X165820812Y-37520000D01*
X165970812Y-37410000D02*
X167089188Y-37410000D01*
X164915000Y-40790000D02*
X164940000Y-40765000D01*
X167089188Y-37410000D02*
X168390000Y-38710812D01*
X164940000Y-40765000D02*
X164940000Y-38400812D01*
X159290000Y-49406656D02*
X164915000Y-43781656D01*
X168390000Y-40765000D02*
X168415000Y-40790000D01*
X168390000Y-38710812D02*
X168390000Y-40765000D01*
X165820812Y-37520000D02*
X165860812Y-37520000D01*
X165860812Y-37520000D02*
X165970812Y-37410000D01*
X164915000Y-43781656D02*
X164915000Y-40790000D01*
%TO.N,0*%
X165415000Y-40790000D02*
X165415000Y-38602208D01*
X159740000Y-84332219D02*
X159740000Y-49593052D01*
X118555860Y-128298854D02*
X118555860Y-125516359D01*
X166902792Y-37860000D02*
X167915000Y-38872208D01*
X167915000Y-38872208D02*
X167915000Y-40790000D01*
X165415000Y-43918052D02*
X165415000Y-40790000D01*
X166157208Y-37860000D02*
X166902792Y-37860000D01*
X165415000Y-38602208D02*
X166157208Y-37860000D01*
X159740000Y-49593052D02*
X165415000Y-43918052D01*
X118555860Y-125516359D02*
X159740000Y-84332219D01*
%TO.N,1*%
X166415000Y-43554448D02*
X166415000Y-40790000D01*
X160190000Y-84518615D02*
X160190000Y-49779448D01*
X166530000Y-38760000D02*
X166915000Y-39145000D01*
X166915000Y-39145000D02*
X166915000Y-40790000D01*
X166415000Y-40790000D02*
X166415000Y-38875000D01*
X120755565Y-127028854D02*
X120755565Y-123953050D01*
X120755565Y-123953050D02*
X160190000Y-84518615D01*
X160190000Y-49779448D02*
X166415000Y-43554448D01*
X166415000Y-38875000D02*
X166530000Y-38760000D01*
%TO.N,4*%
X131611639Y-124006110D02*
X129554383Y-121948854D01*
X133775877Y-123556110D02*
X133325877Y-124006110D01*
X144669120Y-126736158D02*
X141489072Y-123556110D01*
X133325877Y-124006110D02*
X131611639Y-124006110D01*
X141489072Y-123556110D02*
X133775877Y-123556110D01*
%TO.N,2*%
X160640000Y-49965844D02*
X167415000Y-43190844D01*
X167415000Y-43190844D02*
X167415000Y-40790000D01*
X166716396Y-38310000D02*
X167415000Y-39008604D01*
X125154974Y-120190037D02*
X160640000Y-84705011D01*
X165915000Y-40790000D02*
X165915000Y-38738604D01*
X125154974Y-124488854D02*
X125154974Y-120190037D01*
X160640000Y-84705011D02*
X160640000Y-49965844D01*
X165915000Y-38738604D02*
X166343604Y-38310000D01*
X166343604Y-38310000D02*
X166716396Y-38310000D01*
X167415000Y-39008604D02*
X167415000Y-40790000D01*
%TO.N,VSYS*%
X164265000Y-43795260D02*
X164265000Y-40790000D01*
X158840000Y-83959427D02*
X158840000Y-49220260D01*
X114024643Y-113790000D02*
X129009427Y-113790000D01*
X165744416Y-36960000D02*
X167275584Y-36960000D01*
X164490000Y-38214416D02*
X165744416Y-36960000D01*
X164265000Y-40790000D02*
X164440000Y-40615000D01*
X168840000Y-39845000D02*
X168890000Y-39895000D01*
X158840000Y-49220260D02*
X164265000Y-43795260D01*
X168890000Y-39895000D02*
X168890000Y-40615000D01*
X164440000Y-40615000D02*
X164440000Y-39930000D01*
X167275584Y-36960000D02*
X168840000Y-38524416D01*
X168840000Y-38524416D02*
X168840000Y-39845000D01*
X111865565Y-111630922D02*
X114024643Y-113790000D01*
X164490000Y-39880000D02*
X164490000Y-38214416D01*
X168890000Y-40615000D02*
X169065000Y-40790000D01*
X164440000Y-39930000D02*
X164490000Y-39880000D01*
X129009427Y-113790000D02*
X158840000Y-83959427D01*
%TD*%
M02*
