%TF.GenerationSoftware,KiCad,Pcbnew,7.0.9-7.0.9~ubuntu22.04.1*%
%TF.CreationDate,2023-12-10T17:34:58+03:00*%
%TF.ProjectId,Keeb,4b656562-2e6b-4696-9361-645f70636258,rev?*%
%TF.SameCoordinates,Original*%
%TF.FileFunction,Soldermask,Top*%
%TF.FilePolarity,Negative*%
%FSLAX46Y46*%
G04 Gerber Fmt 4.6, Leading zero omitted, Abs format (unit mm)*
G04 Created by KiCad (PCBNEW 7.0.9-7.0.9~ubuntu22.04.1) date 2023-12-10 17:34:58*
%MOMM*%
%LPD*%
G01*
G04 APERTURE LIST*
G04 Aperture macros list*
%AMRoundRect*
0 Rectangle with rounded corners*
0 $1 Rounding radius*
0 $2 $3 $4 $5 $6 $7 $8 $9 X,Y pos of 4 corners*
0 Add a 4 corners polygon primitive as box body*
4,1,4,$2,$3,$4,$5,$6,$7,$8,$9,$2,$3,0*
0 Add four circle primitives for the rounded corners*
1,1,$1+$1,$2,$3*
1,1,$1+$1,$4,$5*
1,1,$1+$1,$6,$7*
1,1,$1+$1,$8,$9*
0 Add four rect primitives between the rounded corners*
20,1,$1+$1,$2,$3,$4,$5,0*
20,1,$1+$1,$4,$5,$6,$7,0*
20,1,$1+$1,$6,$7,$8,$9,0*
20,1,$1+$1,$8,$9,$2,$3,0*%
%AMHorizOval*
0 Thick line with rounded ends*
0 $1 width*
0 $2 $3 position (X,Y) of the first rounded end (center of the circle)*
0 $4 $5 position (X,Y) of the second rounded end (center of the circle)*
0 Add line between two ends*
20,1,$1,$2,$3,$4,$5,0*
0 Add two circle primitives to create the rounded ends*
1,1,$1,$2,$3*
1,1,$1,$4,$5*%
%AMRotRect*
0 Rectangle, with rotation*
0 The origin of the aperture is its center*
0 $1 length*
0 $2 width*
0 $3 Rotation angle, in degrees counterclockwise*
0 Add horizontal line*
21,1,$1,$2,0,0,$3*%
G04 Aperture macros list end*
%ADD10C,1.750000*%
%ADD11C,4.000000*%
%ADD12C,2.500000*%
%ADD13HorizOval,1.700000X0.000000X0.000000X0.000000X0.000000X0*%
%ADD14RotRect,1.700000X1.700000X60.000000*%
%ADD15RoundRect,0.102000X-0.790000X-0.790000X0.790000X-0.790000X0.790000X0.790000X-0.790000X0.790000X0*%
%ADD16C,1.784000*%
%ADD17C,3.200000*%
%ADD18C,2.134400*%
%ADD19RoundRect,0.102000X-0.965200X-0.965200X0.965200X-0.965200X0.965200X0.965200X-0.965200X0.965200X0*%
%ADD20RoundRect,0.102000X0.787500X-0.787500X0.787500X0.787500X-0.787500X0.787500X-0.787500X-0.787500X0*%
%ADD21C,1.779000*%
%ADD22C,0.600000*%
%ADD23O,1.104000X2.204000*%
%ADD24O,1.104000X1.904000*%
G04 APERTURE END LIST*
D10*
%TO.C,SW3*%
X183245000Y-55617944D03*
D11*
X188325000Y-55617944D03*
D10*
X193405000Y-55617944D03*
D12*
X184515000Y-53077944D03*
X190865000Y-50537944D03*
%TD*%
D10*
%TO.C,SW4*%
X183245000Y-74667944D03*
D11*
X188325000Y-74667944D03*
D10*
X193405000Y-74667944D03*
D12*
X184515000Y-72127944D03*
X190865000Y-69587944D03*
%TD*%
D10*
%TO.C,SW5*%
X183245000Y-93717944D03*
D11*
X188325000Y-93717944D03*
D10*
X193405000Y-93717944D03*
D12*
X184515000Y-91177944D03*
X190865000Y-88637944D03*
%TD*%
D10*
%TO.C,SW6*%
X164195000Y-48567944D03*
D11*
X169275000Y-48567944D03*
D10*
X174355000Y-48567944D03*
D12*
X165465000Y-46027944D03*
X171815000Y-43487944D03*
%TD*%
D10*
%TO.C,SW7*%
X164195000Y-67617944D03*
D11*
X169275000Y-67617944D03*
D10*
X174355000Y-67617944D03*
D12*
X165465000Y-65077944D03*
X171815000Y-62537944D03*
%TD*%
D10*
%TO.C,SW8*%
X164195000Y-86667944D03*
D11*
X169275000Y-86667944D03*
D10*
X174355000Y-86667944D03*
D12*
X165465000Y-84127944D03*
X171815000Y-81587944D03*
%TD*%
D10*
%TO.C,SW9*%
X145145000Y-41517944D03*
D11*
X150225000Y-41517944D03*
D10*
X155305000Y-41517944D03*
D12*
X146415000Y-38977944D03*
X152765000Y-36437944D03*
%TD*%
D10*
%TO.C,SW10*%
X145145000Y-60567944D03*
D11*
X150225000Y-60567944D03*
D10*
X155305000Y-60567944D03*
D12*
X146415000Y-58027944D03*
X152765000Y-55487944D03*
%TD*%
D10*
%TO.C,SW11*%
X145145000Y-79617944D03*
D11*
X150225000Y-79617944D03*
D10*
X155305000Y-79617944D03*
D12*
X146415000Y-77077944D03*
X152765000Y-74537944D03*
%TD*%
D10*
%TO.C,SW13*%
X126095000Y-55617944D03*
D11*
X131175000Y-55617944D03*
D10*
X136255000Y-55617944D03*
D12*
X127365000Y-53077944D03*
X133715000Y-50537944D03*
%TD*%
D10*
%TO.C,SW14*%
X126095000Y-74667944D03*
D11*
X131175000Y-74667944D03*
D10*
X136255000Y-74667944D03*
D12*
X127365000Y-72127944D03*
X133715000Y-69587944D03*
%TD*%
D10*
%TO.C,SW15*%
X126095000Y-93717944D03*
D11*
X131175000Y-93717944D03*
D10*
X136255000Y-93717944D03*
D12*
X127365000Y-91177944D03*
X133715000Y-88637944D03*
%TD*%
D10*
%TO.C,SW16*%
X136255000Y-112767944D03*
D11*
X131175000Y-112767944D03*
D10*
X126095000Y-112767944D03*
D12*
X134985000Y-115307944D03*
X128635000Y-117847944D03*
%TD*%
D10*
%TO.C,SW17*%
X107045000Y-55617944D03*
D11*
X112125000Y-55617944D03*
D10*
X117205000Y-55617944D03*
D12*
X108315000Y-53077944D03*
X114665000Y-50537944D03*
%TD*%
D10*
%TO.C,SW18*%
X107045000Y-74667944D03*
D11*
X112125000Y-74667944D03*
D10*
X117205000Y-74667944D03*
D12*
X108315000Y-72127944D03*
X114665000Y-69587944D03*
%TD*%
D10*
%TO.C,SW19*%
X107045000Y-93717944D03*
D11*
X112125000Y-93717944D03*
D10*
X117205000Y-93717944D03*
D12*
X108315000Y-91177944D03*
X114665000Y-88637944D03*
%TD*%
D10*
%TO.C,SW20*%
X107045000Y-112767944D03*
D11*
X112125000Y-112767944D03*
D10*
X117205000Y-112767944D03*
D12*
X108315000Y-110227944D03*
X114665000Y-107687944D03*
%TD*%
D10*
%TO.C,SW2*%
X193405000Y-36567944D03*
D11*
X188325000Y-36567944D03*
D10*
X183245000Y-36567944D03*
D12*
X192135000Y-39107944D03*
X185785000Y-41647944D03*
%TD*%
D10*
%TO.C,SW1*%
X145220000Y-125172944D03*
D11*
X150300000Y-125172944D03*
D10*
X155380000Y-125172944D03*
D12*
X146490000Y-122632944D03*
X152840000Y-120092944D03*
%TD*%
D13*
%TO.C,U1*%
X181374140Y-128298854D03*
X179174435Y-127028854D03*
D14*
X176974731Y-125758854D03*
D13*
X174775026Y-124488854D03*
X172575322Y-123218854D03*
X170375617Y-121948854D03*
X168175913Y-120678854D03*
D14*
X165976208Y-119408854D03*
D13*
X163776504Y-118138854D03*
X161576799Y-116868854D03*
X159377095Y-115598854D03*
X157177390Y-114328854D03*
D14*
X154977686Y-113058854D03*
D13*
X152777981Y-111788854D03*
X150578277Y-110518854D03*
X148378572Y-109248854D03*
X146178868Y-107978854D03*
D14*
X143979163Y-106708854D03*
D13*
X141779459Y-105438854D03*
X139579754Y-104168854D03*
X148469754Y-88770922D03*
X150669459Y-90040922D03*
D14*
X152869163Y-91310922D03*
D13*
X155068868Y-92580922D03*
X157268572Y-93850922D03*
X159468277Y-95120922D03*
X161667981Y-96390922D03*
D14*
X163867686Y-97660922D03*
D13*
X166067390Y-98930922D03*
X168267095Y-100200922D03*
X170466799Y-101470922D03*
X172666504Y-102740922D03*
D14*
X174866208Y-104010922D03*
D13*
X177065913Y-105280922D03*
X179265617Y-106550922D03*
X181465322Y-107820922D03*
X183665026Y-109090922D03*
D14*
X185864731Y-110360922D03*
D13*
X188064435Y-111630922D03*
X190264140Y-112900922D03*
%TD*%
D15*
%TO.C,S1*%
X162140000Y-122342944D03*
D16*
X162140000Y-129962944D03*
%TD*%
D17*
%TO.C,H9*%
X167846250Y-127531694D03*
%TD*%
%TO.C,H7*%
X121650000Y-84192944D03*
%TD*%
%TO.C,H4*%
X178800000Y-58092944D03*
%TD*%
%TO.C,H2*%
X159750000Y-70092944D03*
%TD*%
%TO.C,H8*%
X178800000Y-96192944D03*
%TD*%
%TO.C,H3*%
X159750000Y-51042944D03*
%TD*%
%TO.C,H1*%
X121650000Y-46092944D03*
%TD*%
%TO.C,H5*%
X121650000Y-103242944D03*
%TD*%
D18*
%TO.C,U2*%
X105600000Y-38372944D03*
X108140000Y-38372944D03*
D19*
X115760000Y-38372944D03*
D18*
X110680000Y-38372944D03*
X113220000Y-38372944D03*
%TD*%
D20*
%TO.C,J2*%
X142145000Y-83862944D03*
D21*
X142145000Y-86362944D03*
%TD*%
D22*
%TO.C,J1*%
X130375000Y-39720000D03*
X136155000Y-39720000D03*
D23*
X128940000Y-40210000D03*
X137590000Y-40210000D03*
D24*
X128940000Y-36040000D03*
X137590000Y-36040000D03*
%TD*%
M02*
