M48
; DRILL file {KiCad 7.0.9-7.0.9~ubuntu22.04.1} date Вс 10 дек 2023 17:10:41
; FORMAT={-:-/ absolute / inch / decimal}
; #@! TF.CreationDate,2023-12-10T17:10:41+03:00
; #@! TF.GenerationSoftware,Kicad,Pcbnew,7.0.9-7.0.9~ubuntu22.04.1
; #@! TF.FileFunction,Plated,1,2,PTH
FMAT,2
INCH
; #@! TA.AperFunction,Plated,PTH,ComponentDrill
T1C0.0236
; #@! TA.AperFunction,Plated,PTH,ComponentDrill
T2C0.0394
; #@! TA.AperFunction,Plated,PTH,ComponentDrill
T3C0.0400
; #@! TA.AperFunction,Plated,PTH,ComponentDrill
T4C0.0402
; #@! TA.AperFunction,Plated,PTH,ComponentDrill
T5C0.0413
; #@! TA.AperFunction,Plated,PTH,ComponentDrill
T6C0.0591
%
G90
G05
T2
X6.3835Y-4.8167
X6.3835Y-5.1167
T3
X4.1575Y-1.5107
X4.2575Y-1.5107
X4.3575Y-1.5107
X4.4575Y-1.5107
X4.5575Y-1.5107
T4
X5.4953Y-4.1011
X5.5819Y-4.1511
X5.6685Y-4.2011
X5.7551Y-4.2511
X5.8417Y-4.3011
X5.8453Y-3.4949
X5.9283Y-4.3511
X5.9319Y-3.5449
X6.0149Y-4.4011
X6.0185Y-3.5949
X6.1015Y-4.4511
X6.1051Y-3.6449
X6.1881Y-4.5011
X6.1917Y-3.6949
X6.2747Y-4.5511
X6.2783Y-3.7449
X6.3613Y-4.6011
X6.3649Y-3.7949
X6.4479Y-4.6511
X6.4515Y-3.8449
X6.5345Y-4.7011
X6.5381Y-3.8949
X6.6211Y-4.7511
X6.6247Y-3.9449
X6.7077Y-4.8011
X6.7113Y-3.9949
X6.7943Y-4.8511
X6.7979Y-4.0449
X6.8809Y-4.9011
X6.8845Y-4.0949
X6.9675Y-4.9511
X6.9711Y-4.1449
X7.0541Y-5.0011
X7.0577Y-4.1949
X7.1407Y-5.0511
X7.1443Y-4.2449
X7.2309Y-4.2949
X7.3175Y-4.3449
X7.4041Y-4.3949
X7.4907Y-4.4449
T5
X5.5963Y-3.3017
X5.5963Y-3.4001
T6
X4.2644Y-2.0897
X4.2644Y-2.8397
X4.2644Y-3.5897
X4.2644Y-4.3397
X4.5144Y-1.9897
X4.5144Y-2.7397
X4.5144Y-3.4897
X4.5144Y-4.2397
X5.0144Y-2.0897
X5.0144Y-2.8397
X5.0144Y-3.5897
X5.0644Y-4.6397
X5.2644Y-1.9897
X5.2644Y-2.7397
X5.2644Y-3.4897
X5.3144Y-4.5397
X5.7644Y-1.5346
X5.7644Y-2.2846
X5.7644Y-3.0346
X5.7673Y-4.8281
X6.0144Y-1.4346
X6.0144Y-2.1846
X6.0144Y-2.9346
X6.0173Y-4.7281
X6.5144Y-1.8121
X6.5144Y-2.5621
X6.5144Y-3.3121
X6.7644Y-1.7121
X6.7644Y-2.4621
X6.7644Y-3.2121
X7.2644Y-2.0897
X7.2644Y-2.8397
X7.2644Y-3.5897
X7.3144Y-1.6397
X7.5144Y-1.9897
X7.5144Y-2.7397
X7.5144Y-3.4897
X7.5644Y-1.5397
T1
G00X5.0764Y-1.4031
M15
G01X5.0764Y-1.4346
M16
G05
G00X5.0764Y-1.5614
M15
G01X5.0764Y-1.6047
M16
G05
G00X5.4169Y-1.4031
M15
G01X5.4169Y-1.4346
M16
G05
G00X5.4169Y-1.5614
M15
G01X5.4169Y-1.6047
M16
G05
T0
M30
