%TF.GenerationSoftware,KiCad,Pcbnew,7.0.9-7.0.9~ubuntu22.04.1*%
%TF.CreationDate,2023-11-28T14:58:53+03:00*%
%TF.ProjectId,Keeb,4b656562-2e6b-4696-9361-645f70636258,rev?*%
%TF.SameCoordinates,Original*%
%TF.FileFunction,Soldermask,Bot*%
%TF.FilePolarity,Negative*%
%FSLAX46Y46*%
G04 Gerber Fmt 4.6, Leading zero omitted, Abs format (unit mm)*
G04 Created by KiCad (PCBNEW 7.0.9-7.0.9~ubuntu22.04.1) date 2023-11-28 14:58:53*
%MOMM*%
%LPD*%
G01*
G04 APERTURE LIST*
G04 Aperture macros list*
%AMHorizOval*
0 Thick line with rounded ends*
0 $1 width*
0 $2 $3 position (X,Y) of the first rounded end (center of the circle)*
0 $4 $5 position (X,Y) of the second rounded end (center of the circle)*
0 Add line between two ends*
20,1,$1,$2,$3,$4,$5,0*
0 Add two circle primitives to create the rounded ends*
1,1,$1,$2,$3*
1,1,$1,$4,$5*%
G04 Aperture macros list end*
%ADD10C,3.200000*%
%ADD11HorizOval,1.800000X0.000000X0.000000X0.000000X0.000000X0*%
%ADD12HorizOval,1.500000X0.000000X0.000000X0.000000X0.000000X0*%
%ADD13C,0.600000*%
%ADD14O,1.104000X2.204000*%
%ADD15O,1.104000X1.904000*%
%ADD16C,1.750000*%
%ADD17C,3.050000*%
%ADD18C,4.000000*%
G04 APERTURE END LIST*
D10*
%TO.C,H5*%
X181701819Y-104371119D03*
%TD*%
%TO.C,H7*%
X178280000Y-84192944D03*
%TD*%
%TO.C,H2*%
X140180000Y-70092944D03*
%TD*%
%TO.C,H8*%
X121130000Y-96192944D03*
%TD*%
%TO.C,H4*%
X121130000Y-58092944D03*
%TD*%
%TO.C,H1*%
X178280000Y-46092944D03*
%TD*%
%TO.C,H3*%
X140180000Y-51042944D03*
%TD*%
%TO.C,H9*%
X148706251Y-123421119D03*
%TD*%
D11*
%TO.C,U1*%
X115585943Y-122894807D03*
D12*
X118060000Y-121120000D03*
X115635000Y-116919776D03*
D11*
X112860943Y-118174969D03*
%TD*%
D13*
%TO.C,J1*%
X169555000Y-39720000D03*
X163775000Y-39720000D03*
D14*
X170990000Y-40210000D03*
X162340000Y-40210000D03*
D15*
X170990000Y-36040000D03*
X162340000Y-36040000D03*
%TD*%
D16*
%TO.C,SW3*%
X116685000Y-55617944D03*
D17*
X115415000Y-53077944D03*
D18*
X111605000Y-55617944D03*
D17*
X109065000Y-50537944D03*
D16*
X106525000Y-55617944D03*
%TD*%
%TO.C,SW4*%
X116685000Y-74667944D03*
D17*
X115415000Y-72127944D03*
D18*
X111605000Y-74667944D03*
D17*
X109065000Y-69587944D03*
D16*
X106525000Y-74667944D03*
%TD*%
%TO.C,SW5*%
X116685000Y-93717944D03*
D17*
X115415000Y-91177944D03*
D18*
X111605000Y-93717944D03*
D17*
X109065000Y-88637944D03*
D16*
X106525000Y-93717944D03*
%TD*%
%TO.C,SW6*%
X135735000Y-48567944D03*
D17*
X134465000Y-46027944D03*
D18*
X130655000Y-48567944D03*
D17*
X128115000Y-43487944D03*
D16*
X125575000Y-48567944D03*
%TD*%
%TO.C,SW7*%
X135735000Y-67617944D03*
D17*
X134465000Y-65077944D03*
D18*
X130655000Y-67617944D03*
D17*
X128115000Y-62537944D03*
D16*
X125575000Y-67617944D03*
%TD*%
%TO.C,SW8*%
X135735000Y-86667944D03*
D17*
X134465000Y-84127944D03*
D18*
X130655000Y-86667944D03*
D17*
X128115000Y-81587944D03*
D16*
X125575000Y-86667944D03*
%TD*%
%TO.C,SW9*%
X154785000Y-41517944D03*
D17*
X153515000Y-38977944D03*
D18*
X149705000Y-41517944D03*
D17*
X147165000Y-36437944D03*
D16*
X144625000Y-41517944D03*
%TD*%
%TO.C,SW10*%
X154785000Y-60567944D03*
D17*
X153515000Y-58027944D03*
D18*
X149705000Y-60567944D03*
D17*
X147165000Y-55487944D03*
D16*
X144625000Y-60567944D03*
%TD*%
%TO.C,SW11*%
X154785000Y-79617944D03*
D17*
X153515000Y-77077944D03*
D18*
X149705000Y-79617944D03*
D17*
X147165000Y-74537944D03*
D16*
X144625000Y-79617944D03*
%TD*%
%TO.C,SW13*%
X173835000Y-55617944D03*
D17*
X172565000Y-53077944D03*
D18*
X168755000Y-55617944D03*
D17*
X166215000Y-50537944D03*
D16*
X163675000Y-55617944D03*
%TD*%
%TO.C,SW14*%
X173835000Y-74667944D03*
D17*
X172565000Y-72127944D03*
D18*
X168755000Y-74667944D03*
D17*
X166215000Y-69587944D03*
D16*
X163675000Y-74667944D03*
%TD*%
%TO.C,SW15*%
X173835000Y-93717944D03*
D17*
X172565000Y-91177944D03*
D18*
X168755000Y-93717944D03*
D17*
X166215000Y-88637944D03*
D16*
X163675000Y-93717944D03*
%TD*%
%TO.C,SW16*%
X166117052Y-124367511D03*
D17*
X163747200Y-122802806D03*
D18*
X161717643Y-126907511D03*
D17*
X156977938Y-123778102D03*
D16*
X157318234Y-129447511D03*
%TD*%
%TO.C,SW17*%
X192885000Y-55617944D03*
D17*
X191615000Y-53077944D03*
D18*
X187805000Y-55617944D03*
D17*
X185265000Y-50537944D03*
D16*
X182725000Y-55617944D03*
%TD*%
%TO.C,SW18*%
X192885000Y-74667944D03*
D17*
X191615000Y-72127944D03*
D18*
X187805000Y-74667944D03*
D17*
X185265000Y-69587944D03*
D16*
X182725000Y-74667944D03*
%TD*%
%TO.C,SW19*%
X192885000Y-93717944D03*
D17*
X191615000Y-91177944D03*
D18*
X187805000Y-93717944D03*
D17*
X185265000Y-88637944D03*
D16*
X182725000Y-93717944D03*
%TD*%
%TO.C,SW20*%
X182614836Y-114842511D03*
D17*
X180244984Y-113277806D03*
D18*
X178215427Y-117382511D03*
D17*
X173475722Y-114253102D03*
D16*
X173816018Y-119922511D03*
%TD*%
%TO.C,SW1*%
X143135646Y-129585734D03*
D17*
X141443874Y-127304856D03*
D18*
X138132823Y-130467867D03*
D17*
X134749279Y-125906110D03*
D16*
X133130000Y-131350000D03*
%TD*%
M02*
