M48
; DRILL file {KiCad 7.0.9-7.0.9~ubuntu22.04.1} date Вт 28 ноя 2023 14:58:50
; FORMAT={-:-/ absolute / inch / decimal}
; #@! TF.CreationDate,2023-11-28T14:58:50+03:00
; #@! TF.GenerationSoftware,Kicad,Pcbnew,7.0.9-7.0.9~ubuntu22.04.1
; #@! TF.FileFunction,NonPlated,1,2,NPTH
FMAT,2
INCH
; #@! TA.AperFunction,NonPlated,NPTH,ComponentDrill
T1C0.0236
; #@! TA.AperFunction,NonPlated,NPTH,ComponentDrill
T2C0.0591
; #@! TA.AperFunction,NonPlated,NPTH,ComponentDrill
T3C0.0689
; #@! TA.AperFunction,NonPlated,NPTH,ComponentDrill
T4C0.0709
; #@! TA.AperFunction,NonPlated,NPTH,ComponentDrill
T5C0.1201
; #@! TA.AperFunction,NonPlated,NPTH,ComponentDrill
T6C0.1260
; #@! TA.AperFunction,NonPlated,NPTH,ComponentDrill
T7C0.1575
%
G90
G05
T1
X6.4478Y-1.5638
X6.6754Y-1.5638
T2
X4.5526Y-4.6031
X4.648Y-4.7685
T3
X4.1939Y-2.1897
X4.1939Y-2.9397
X4.1939Y-3.6897
X4.5939Y-2.1897
X4.5939Y-2.9397
X4.5939Y-3.6897
X4.9439Y-1.9121
X4.9439Y-2.6621
X4.9439Y-3.4121
X5.2413Y-5.1713
X5.3439Y-1.9121
X5.3439Y-2.6621
X5.3439Y-3.4121
X5.6353Y-5.1018
X5.6939Y-1.6346
X5.6939Y-2.3846
X5.6939Y-3.1346
X6.0939Y-1.6346
X6.0939Y-2.3846
X6.0939Y-3.1346
X6.1936Y-5.0964
X6.4439Y-2.1897
X6.4439Y-2.9397
X6.4439Y-3.6897
X6.54Y-4.8964
X6.8432Y-4.7214
X6.8439Y-2.1897
X6.8439Y-2.9397
X6.8439Y-3.6897
X7.1896Y-4.5214
X7.1939Y-2.1897
X7.1939Y-2.9397
X7.1939Y-3.6897
X7.5939Y-2.1897
X7.5939Y-2.9397
X7.5939Y-3.6897
T4
X4.4433Y-4.6526
X4.5506Y-4.8384
T5
X4.2939Y-1.9897
X4.2939Y-2.7397
X4.2939Y-3.4897
X4.5439Y-2.0897
X4.5439Y-2.8397
X4.5439Y-3.5897
X5.0439Y-1.7121
X5.0439Y-2.4621
X5.0439Y-3.2121
X5.2939Y-1.8121
X5.2939Y-2.5621
X5.2939Y-3.3121
X5.3051Y-4.9569
X5.5687Y-5.012
X5.7939Y-1.4346
X5.7939Y-2.1846
X5.7939Y-2.9346
X6.0439Y-1.5346
X6.0439Y-2.2846
X6.0439Y-3.0346
X6.1802Y-4.8732
X6.4467Y-4.8348
X6.5439Y-1.9897
X6.5439Y-2.7397
X6.5439Y-3.4897
X6.7939Y-2.0897
X6.7939Y-2.8397
X6.7939Y-3.5897
X6.8298Y-4.4982
X7.0963Y-4.4598
X7.2939Y-1.9897
X7.2939Y-2.7397
X7.2939Y-3.4897
X7.5439Y-2.0897
X7.5439Y-2.8397
X7.5439Y-3.5897
T6
X4.7689Y-2.2871
X4.7689Y-3.7871
X5.5189Y-2.0096
X5.5189Y-2.7596
X5.8546Y-4.8591
X7.0189Y-1.8147
X7.0189Y-3.3147
X7.1536Y-4.1091
T7
X4.3939Y-2.1897
X4.3939Y-2.9397
X4.3939Y-3.6897
X5.1439Y-1.9121
X5.1439Y-2.6621
X5.1439Y-3.4121
X5.4383Y-5.1365
X5.8939Y-1.6346
X5.8939Y-2.3846
X5.8939Y-3.1346
X6.3668Y-4.9964
X6.6439Y-2.1897
X6.6439Y-2.9397
X6.6439Y-3.6897
X7.0164Y-4.6214
X7.3939Y-2.1897
X7.3939Y-2.9397
X7.3939Y-3.6897
T0
M30
