%TF.GenerationSoftware,KiCad,Pcbnew,7.0.9-7.0.9~ubuntu22.04.1*%
%TF.CreationDate,2023-11-28T14:58:53+03:00*%
%TF.ProjectId,Keeb,4b656562-2e6b-4696-9361-645f70636258,rev?*%
%TF.SameCoordinates,Original*%
%TF.FileFunction,Paste,Top*%
%TF.FilePolarity,Positive*%
%FSLAX46Y46*%
G04 Gerber Fmt 4.6, Leading zero omitted, Abs format (unit mm)*
G04 Created by KiCad (PCBNEW 7.0.9-7.0.9~ubuntu22.04.1) date 2023-11-28 14:58:53*
%MOMM*%
%LPD*%
G01*
G04 APERTURE LIST*
G04 Aperture macros list*
%AMRoundRect*
0 Rectangle with rounded corners*
0 $1 Rounding radius*
0 $2 $3 $4 $5 $6 $7 $8 $9 X,Y pos of 4 corners*
0 Add a 4 corners polygon primitive as box body*
4,1,4,$2,$3,$4,$5,$6,$7,$8,$9,$2,$3,0*
0 Add four circle primitives for the rounded corners*
1,1,$1+$1,$2,$3*
1,1,$1+$1,$4,$5*
1,1,$1+$1,$6,$7*
1,1,$1+$1,$8,$9*
0 Add four rect primitives between the rounded corners*
20,1,$1+$1,$2,$3,$4,$5,0*
20,1,$1+$1,$4,$5,$6,$7,0*
20,1,$1+$1,$6,$7,$8,$9,0*
20,1,$1+$1,$8,$9,$2,$3,0*%
G04 Aperture macros list end*
%ADD10R,0.600000X1.140000*%
%ADD11R,0.300000X1.140000*%
%ADD12RoundRect,0.250000X1.025000X1.000000X-1.025000X1.000000X-1.025000X-1.000000X1.025000X-1.000000X0*%
%ADD13RoundRect,0.250000X0.387676X1.378525X-1.387676X0.353525X-0.387676X-1.378525X1.387676X-0.353525X0*%
%ADD14RoundRect,0.250000X0.835780X1.162797X-1.183076X0.806818X-0.835780X-1.162797X1.183076X-0.806818X0*%
G04 APERTURE END LIST*
D10*
%TO.C,J1*%
X169865000Y-40790000D03*
X169065000Y-40790000D03*
D11*
X167915000Y-40790000D03*
X166915000Y-40790000D03*
X166415000Y-40790000D03*
X165415000Y-40790000D03*
D10*
X163465000Y-40790000D03*
X164265000Y-40790000D03*
D11*
X164915000Y-40790000D03*
X165915000Y-40790000D03*
X167415000Y-40790000D03*
X168415000Y-40790000D03*
%TD*%
D12*
%TO.C,SW3*%
X118690000Y-53077944D03*
X105763000Y-50537944D03*
%TD*%
%TO.C,SW4*%
X118690000Y-72127944D03*
X105763000Y-69587944D03*
%TD*%
%TO.C,SW5*%
X118690000Y-91177944D03*
X105763000Y-88637944D03*
%TD*%
%TO.C,SW6*%
X137740000Y-46027944D03*
X124813000Y-43487944D03*
%TD*%
%TO.C,SW7*%
X137740000Y-65077944D03*
X124813000Y-62537944D03*
%TD*%
%TO.C,SW8*%
X137740000Y-84127944D03*
X124813000Y-81587944D03*
%TD*%
%TO.C,SW9*%
X156790000Y-38977944D03*
X143863000Y-36437944D03*
%TD*%
%TO.C,SW10*%
X156790000Y-58027944D03*
X143863000Y-55487944D03*
%TD*%
%TO.C,SW11*%
X156790000Y-77077944D03*
X143863000Y-74537944D03*
%TD*%
%TO.C,SW13*%
X175840000Y-53077944D03*
X162913000Y-50537944D03*
%TD*%
%TO.C,SW14*%
X175840000Y-72127944D03*
X162913000Y-69587944D03*
%TD*%
%TO.C,SW15*%
X175840000Y-91177944D03*
X162913000Y-88637944D03*
%TD*%
D13*
%TO.C,SW16*%
X166583433Y-121165306D03*
X154118323Y-125429102D03*
%TD*%
D12*
%TO.C,SW17*%
X194890000Y-53077944D03*
X181963000Y-50537944D03*
%TD*%
%TO.C,SW18*%
X194890000Y-72127944D03*
X181963000Y-69587944D03*
%TD*%
%TO.C,SW19*%
X194890000Y-91177944D03*
X181963000Y-88637944D03*
%TD*%
D13*
%TO.C,SW20*%
X183081217Y-111640306D03*
X170616107Y-115904102D03*
%TD*%
D14*
%TO.C,SW1*%
X144669120Y-126736158D03*
X131497443Y-126479496D03*
%TD*%
M02*
