%TF.GenerationSoftware,KiCad,Pcbnew,7.0.9-7.0.9~ubuntu22.04.1*%
%TF.CreationDate,2023-11-28T14:58:50+03:00*%
%TF.ProjectId,Keeb,4b656562-2e6b-4696-9361-645f70636258,rev?*%
%TF.SameCoordinates,Original*%
%TF.FileFunction,Drillmap*%
%TF.FilePolarity,Positive*%
%FSLAX45Y45*%
G04 Gerber Fmt 4.5, Leading zero omitted, Abs format (unit mm)*
G04 Created by KiCad (PCBNEW 7.0.9-7.0.9~ubuntu22.04.1) date 2023-11-28 14:58:50*
%MOMM*%
%LPD*%
G01*
G04 APERTURE LIST*
%ADD10C,0.050000*%
%ADD11C,0.200000*%
%ADD12C,0.100000*%
%ADD13C,0.150000*%
%ADD14C,0.175000*%
%ADD15C,0.180000*%
%ADD16C,0.305000*%
%ADD17C,0.320000*%
%ADD18C,0.400000*%
G04 APERTURE END LIST*
D10*
X17204000Y-3399000D02*
X19810000Y-4587294D01*
X19803000Y-10309294D01*
X18950000Y-11612000D01*
X17071000Y-12678000D01*
X15449000Y-13327000D01*
X11917000Y-13319000D01*
X10188000Y-10328000D01*
X10183000Y-8436000D01*
X10193000Y-4582000D01*
X12093000Y-3886000D01*
X12100000Y-3886000D01*
X14017000Y-3396294D01*
X15917000Y-3396294D01*
X17204000Y-3399000D01*
D11*
D12*
X16347500Y-3942000D02*
X16407500Y-4002000D01*
X16407500Y-3942000D02*
X16347500Y-4002000D01*
X16925500Y-3942000D02*
X16985500Y-4002000D01*
X16985500Y-3942000D02*
X16925500Y-4002000D01*
D13*
X11638500Y-11691978D02*
G75*
G03*
X11638500Y-11691978I-75000J0D01*
G01*
X11881000Y-12112000D02*
G75*
G03*
X11881000Y-12112000I-75000J0D01*
G01*
D14*
X10652500Y-5474294D02*
X10652500Y-5649294D01*
X10565000Y-5561794D02*
X10740000Y-5561794D01*
X10652500Y-7379294D02*
X10652500Y-7554294D01*
X10565000Y-7466794D02*
X10740000Y-7466794D01*
X10652500Y-9284294D02*
X10652500Y-9459294D01*
X10565000Y-9371794D02*
X10740000Y-9371794D01*
X11668500Y-5474294D02*
X11668500Y-5649294D01*
X11581000Y-5561794D02*
X11756000Y-5561794D01*
X11668500Y-7379294D02*
X11668500Y-7554294D01*
X11581000Y-7466794D02*
X11756000Y-7466794D01*
X11668500Y-9284294D02*
X11668500Y-9459294D01*
X11581000Y-9371794D02*
X11756000Y-9371794D01*
X12557500Y-4769294D02*
X12557500Y-4944294D01*
X12470000Y-4856794D02*
X12645000Y-4856794D01*
X12557500Y-6674294D02*
X12557500Y-6849294D01*
X12470000Y-6761794D02*
X12645000Y-6761794D01*
X12557500Y-8579294D02*
X12557500Y-8754294D01*
X12470000Y-8666794D02*
X12645000Y-8666794D01*
X13313000Y-13047500D02*
X13313000Y-13222500D01*
X13225500Y-13135000D02*
X13400500Y-13135000D01*
X13573500Y-4769294D02*
X13573500Y-4944294D01*
X13486000Y-4856794D02*
X13661000Y-4856794D01*
X13573500Y-6674294D02*
X13573500Y-6849294D01*
X13486000Y-6761794D02*
X13661000Y-6761794D01*
X13573500Y-8579294D02*
X13573500Y-8754294D01*
X13486000Y-8666794D02*
X13661000Y-8666794D01*
X14313565Y-12871073D02*
X14313565Y-13046073D01*
X14226065Y-12958573D02*
X14401065Y-12958573D01*
X14462500Y-4064294D02*
X14462500Y-4239294D01*
X14375000Y-4151794D02*
X14550000Y-4151794D01*
X14462500Y-5969294D02*
X14462500Y-6144294D01*
X14375000Y-6056794D02*
X14550000Y-6056794D01*
X14462500Y-7874294D02*
X14462500Y-8049294D01*
X14375000Y-7961794D02*
X14550000Y-7961794D01*
X15478500Y-4064294D02*
X15478500Y-4239294D01*
X15391000Y-4151794D02*
X15566000Y-4151794D01*
X15478500Y-5969294D02*
X15478500Y-6144294D01*
X15391000Y-6056794D02*
X15566000Y-6056794D01*
X15478500Y-7874294D02*
X15478500Y-8049294D01*
X15391000Y-7961794D02*
X15566000Y-7961794D01*
X15731823Y-12857251D02*
X15731823Y-13032251D01*
X15644323Y-12944751D02*
X15819323Y-12944751D01*
X16367500Y-5474294D02*
X16367500Y-5649294D01*
X16280000Y-5561794D02*
X16455000Y-5561794D01*
X16367500Y-7379294D02*
X16367500Y-7554294D01*
X16280000Y-7466794D02*
X16455000Y-7466794D01*
X16367500Y-9284294D02*
X16367500Y-9459294D01*
X16280000Y-9371794D02*
X16455000Y-9371794D01*
X16611705Y-12349251D02*
X16611705Y-12524251D01*
X16524205Y-12436751D02*
X16699205Y-12436751D01*
X17381602Y-11904751D02*
X17381602Y-12079751D01*
X17294102Y-11992251D02*
X17469102Y-11992251D01*
X17383500Y-5474294D02*
X17383500Y-5649294D01*
X17296000Y-5561794D02*
X17471000Y-5561794D01*
X17383500Y-7379294D02*
X17383500Y-7554294D01*
X17296000Y-7466794D02*
X17471000Y-7466794D01*
X17383500Y-9284294D02*
X17383500Y-9459294D01*
X17296000Y-9371794D02*
X17471000Y-9371794D01*
X18261484Y-11396751D02*
X18261484Y-11571751D01*
X18173984Y-11484251D02*
X18348984Y-11484251D01*
X18272500Y-5474294D02*
X18272500Y-5649294D01*
X18185000Y-5561794D02*
X18360000Y-5561794D01*
X18272500Y-7379294D02*
X18272500Y-7554294D01*
X18185000Y-7466794D02*
X18360000Y-7466794D01*
X18272500Y-9284294D02*
X18272500Y-9459294D01*
X18185000Y-9371794D02*
X18360000Y-9371794D01*
X19288500Y-5474294D02*
X19288500Y-5649294D01*
X19201000Y-5561794D02*
X19376000Y-5561794D01*
X19288500Y-7379294D02*
X19288500Y-7554294D01*
X19201000Y-7466794D02*
X19376000Y-7466794D01*
X19288500Y-9284294D02*
X19288500Y-9459294D01*
X19201000Y-9371794D02*
X19376000Y-9371794D01*
D15*
X11349734Y-11881137D02*
X11349734Y-11753857D01*
X11222454Y-11753857D01*
X11222454Y-11881137D01*
X11349734Y-11881137D01*
X11622234Y-12353121D02*
X11622234Y-12225840D01*
X11494954Y-12225840D01*
X11494954Y-12353121D01*
X11622234Y-12353121D01*
D16*
X10906500Y-5206294D02*
X11059000Y-5053794D01*
X10906500Y-4901294D01*
X10754000Y-5053794D01*
X10906500Y-5206294D01*
X10906500Y-7111294D02*
X11059000Y-6958794D01*
X10906500Y-6806294D01*
X10754000Y-6958794D01*
X10906500Y-7111294D01*
X10906500Y-9016294D02*
X11059000Y-8863794D01*
X10906500Y-8711294D01*
X10754000Y-8863794D01*
X10906500Y-9016294D01*
X11541500Y-5460294D02*
X11694000Y-5307794D01*
X11541500Y-5155294D01*
X11389000Y-5307794D01*
X11541500Y-5460294D01*
X11541500Y-7365294D02*
X11694000Y-7212794D01*
X11541500Y-7060294D01*
X11389000Y-7212794D01*
X11541500Y-7365294D01*
X11541500Y-9270294D02*
X11694000Y-9117794D01*
X11541500Y-8965294D01*
X11389000Y-9117794D01*
X11541500Y-9270294D01*
X12811500Y-4501294D02*
X12964000Y-4348794D01*
X12811500Y-4196294D01*
X12659000Y-4348794D01*
X12811500Y-4501294D01*
X12811500Y-6406294D02*
X12964000Y-6253794D01*
X12811500Y-6101294D01*
X12659000Y-6253794D01*
X12811500Y-6406294D01*
X12811500Y-8311294D02*
X12964000Y-8158794D01*
X12811500Y-8006294D01*
X12659000Y-8158794D01*
X12811500Y-8311294D01*
X13446500Y-4755294D02*
X13599000Y-4602794D01*
X13446500Y-4450294D01*
X13294000Y-4602794D01*
X13446500Y-4755294D01*
X13446500Y-6660294D02*
X13599000Y-6507794D01*
X13446500Y-6355294D01*
X13294000Y-6507794D01*
X13446500Y-6660294D01*
X13446500Y-8565294D02*
X13599000Y-8412794D01*
X13446500Y-8260294D01*
X13294000Y-8412794D01*
X13446500Y-8565294D01*
X13474928Y-12743111D02*
X13627428Y-12590611D01*
X13474928Y-12438111D01*
X13322428Y-12590611D01*
X13474928Y-12743111D01*
X14144387Y-12882986D02*
X14296887Y-12730486D01*
X14144387Y-12577986D01*
X13991887Y-12730486D01*
X14144387Y-12882986D01*
X14716500Y-3796294D02*
X14869000Y-3643794D01*
X14716500Y-3491294D01*
X14564000Y-3643794D01*
X14716500Y-3796294D01*
X14716500Y-5701294D02*
X14869000Y-5548794D01*
X14716500Y-5396294D01*
X14564000Y-5548794D01*
X14716500Y-5701294D01*
X14716500Y-7606294D02*
X14869000Y-7453794D01*
X14716500Y-7301294D01*
X14564000Y-7453794D01*
X14716500Y-7606294D01*
X15351500Y-4050294D02*
X15504000Y-3897794D01*
X15351500Y-3745294D01*
X15199000Y-3897794D01*
X15351500Y-4050294D01*
X15351500Y-5955294D02*
X15504000Y-5802794D01*
X15351500Y-5650294D01*
X15199000Y-5802794D01*
X15351500Y-5955294D01*
X15351500Y-7860294D02*
X15504000Y-7707794D01*
X15351500Y-7555294D01*
X15199000Y-7707794D01*
X15351500Y-7860294D01*
X15697794Y-12530310D02*
X15850294Y-12377810D01*
X15697794Y-12225310D01*
X15545294Y-12377810D01*
X15697794Y-12530310D01*
X16374720Y-12432781D02*
X16527220Y-12280281D01*
X16374720Y-12127781D01*
X16222220Y-12280281D01*
X16374720Y-12432781D01*
X16621500Y-5206294D02*
X16774000Y-5053794D01*
X16621500Y-4901294D01*
X16469000Y-5053794D01*
X16621500Y-5206294D01*
X16621500Y-7111294D02*
X16774000Y-6958794D01*
X16621500Y-6806294D01*
X16469000Y-6958794D01*
X16621500Y-7111294D01*
X16621500Y-9016294D02*
X16774000Y-8863794D01*
X16621500Y-8711294D01*
X16469000Y-8863794D01*
X16621500Y-9016294D01*
X17256500Y-5460294D02*
X17409000Y-5307794D01*
X17256500Y-5155294D01*
X17104000Y-5307794D01*
X17256500Y-5460294D01*
X17256500Y-7365294D02*
X17409000Y-7212794D01*
X17256500Y-7060294D01*
X17104000Y-7212794D01*
X17256500Y-7365294D01*
X17256500Y-9270294D02*
X17409000Y-9117794D01*
X17256500Y-8965294D01*
X17104000Y-9117794D01*
X17256500Y-9270294D01*
X17347572Y-11577810D02*
X17500072Y-11425310D01*
X17347572Y-11272810D01*
X17195072Y-11425310D01*
X17347572Y-11577810D01*
X18024498Y-11480281D02*
X18176998Y-11327781D01*
X18024498Y-11175281D01*
X17871998Y-11327781D01*
X18024498Y-11480281D01*
X18526500Y-5206294D02*
X18679000Y-5053794D01*
X18526500Y-4901294D01*
X18374000Y-5053794D01*
X18526500Y-5206294D01*
X18526500Y-7111294D02*
X18679000Y-6958794D01*
X18526500Y-6806294D01*
X18374000Y-6958794D01*
X18526500Y-7111294D01*
X18526500Y-9016294D02*
X18679000Y-8863794D01*
X18526500Y-8711294D01*
X18374000Y-8863794D01*
X18526500Y-9016294D01*
X19161500Y-5460294D02*
X19314000Y-5307794D01*
X19161500Y-5155294D01*
X19009000Y-5307794D01*
X19161500Y-5460294D01*
X19161500Y-7365294D02*
X19314000Y-7212794D01*
X19161500Y-7060294D01*
X19009000Y-7212794D01*
X19161500Y-7365294D01*
X19161500Y-9270294D02*
X19314000Y-9117794D01*
X19161500Y-8965294D01*
X19009000Y-9117794D01*
X19161500Y-9270294D01*
D17*
X11953000Y-5649294D02*
X12273000Y-5969294D01*
X12273000Y-5649294D02*
X11953000Y-5969294D01*
X12273000Y-5809294D02*
G75*
G03*
X12273000Y-5809294I-160000J0D01*
G01*
X11953000Y-9459294D02*
X12273000Y-9779294D01*
X12273000Y-9459294D02*
X11953000Y-9779294D01*
X12273000Y-9619294D02*
G75*
G03*
X12273000Y-9619294I-160000J0D01*
G01*
X13858000Y-4944294D02*
X14178000Y-5264294D01*
X14178000Y-4944294D02*
X13858000Y-5264294D01*
X14178000Y-5104294D02*
G75*
G03*
X14178000Y-5104294I-160000J0D01*
G01*
X13858000Y-6849294D02*
X14178000Y-7169294D01*
X14178000Y-6849294D02*
X13858000Y-7169294D01*
X14178000Y-7009294D02*
G75*
G03*
X14178000Y-7009294I-160000J0D01*
G01*
X14710625Y-12182112D02*
X15030625Y-12502112D01*
X15030625Y-12182112D02*
X14710625Y-12502112D01*
X15030625Y-12342112D02*
G75*
G03*
X15030625Y-12342112I-160000J0D01*
G01*
X17668000Y-4449294D02*
X17988000Y-4769294D01*
X17988000Y-4449294D02*
X17668000Y-4769294D01*
X17988000Y-4609294D02*
G75*
G03*
X17988000Y-4609294I-160000J0D01*
G01*
X17668000Y-8259294D02*
X17988000Y-8579294D01*
X17988000Y-8259294D02*
X17668000Y-8579294D01*
X17988000Y-8419294D02*
G75*
G03*
X17988000Y-8419294I-160000J0D01*
G01*
X18010182Y-10277112D02*
X18330182Y-10597112D01*
X18330182Y-10277112D02*
X18010182Y-10597112D01*
X18330182Y-10437112D02*
G75*
G03*
X18330182Y-10437112I-160000J0D01*
G01*
D18*
X10960500Y-5361794D02*
X11360500Y-5761794D01*
X11360500Y-5361794D02*
X10960500Y-5761794D01*
X11160500Y-5361794D02*
X11160500Y-5761794D01*
X10960500Y-5561794D02*
X11360500Y-5561794D01*
X10960500Y-7266794D02*
X11360500Y-7666794D01*
X11360500Y-7266794D02*
X10960500Y-7666794D01*
X11160500Y-7266794D02*
X11160500Y-7666794D01*
X10960500Y-7466794D02*
X11360500Y-7466794D01*
X10960500Y-9171794D02*
X11360500Y-9571794D01*
X11360500Y-9171794D02*
X10960500Y-9571794D01*
X11160500Y-9171794D02*
X11160500Y-9571794D01*
X10960500Y-9371794D02*
X11360500Y-9371794D01*
X12865500Y-4656794D02*
X13265500Y-5056794D01*
X13265500Y-4656794D02*
X12865500Y-5056794D01*
X13065500Y-4656794D02*
X13065500Y-5056794D01*
X12865500Y-4856794D02*
X13265500Y-4856794D01*
X12865500Y-6561794D02*
X13265500Y-6961794D01*
X13265500Y-6561794D02*
X12865500Y-6961794D01*
X13065500Y-6561794D02*
X13065500Y-6961794D01*
X12865500Y-6761794D02*
X13265500Y-6761794D01*
X12865500Y-8466794D02*
X13265500Y-8866794D01*
X13265500Y-8466794D02*
X12865500Y-8866794D01*
X13065500Y-8466794D02*
X13065500Y-8866794D01*
X12865500Y-8666794D02*
X13265500Y-8666794D01*
X13613282Y-12846787D02*
X14013282Y-13246787D01*
X14013282Y-12846787D02*
X13613282Y-13246787D01*
X13813282Y-12846787D02*
X13813282Y-13246787D01*
X13613282Y-13046787D02*
X14013282Y-13046787D01*
X14770500Y-3951794D02*
X15170500Y-4351794D01*
X15170500Y-3951794D02*
X14770500Y-4351794D01*
X14970500Y-3951794D02*
X14970500Y-4351794D01*
X14770500Y-4151794D02*
X15170500Y-4151794D01*
X14770500Y-5856794D02*
X15170500Y-6256794D01*
X15170500Y-5856794D02*
X14770500Y-6256794D01*
X14970500Y-5856794D02*
X14970500Y-6256794D01*
X14770500Y-6056794D02*
X15170500Y-6056794D01*
X14770500Y-7761794D02*
X15170500Y-8161794D01*
X15170500Y-7761794D02*
X14770500Y-8161794D01*
X14970500Y-7761794D02*
X14970500Y-8161794D01*
X14770500Y-7961794D02*
X15170500Y-7961794D01*
X15971764Y-12490751D02*
X16371764Y-12890751D01*
X16371764Y-12490751D02*
X15971764Y-12890751D01*
X16171764Y-12490751D02*
X16171764Y-12890751D01*
X15971764Y-12690751D02*
X16371764Y-12690751D01*
X16675500Y-5361794D02*
X17075500Y-5761794D01*
X17075500Y-5361794D02*
X16675500Y-5761794D01*
X16875500Y-5361794D02*
X16875500Y-5761794D01*
X16675500Y-5561794D02*
X17075500Y-5561794D01*
X16675500Y-7266794D02*
X17075500Y-7666794D01*
X17075500Y-7266794D02*
X16675500Y-7666794D01*
X16875500Y-7266794D02*
X16875500Y-7666794D01*
X16675500Y-7466794D02*
X17075500Y-7466794D01*
X16675500Y-9171794D02*
X17075500Y-9571794D01*
X17075500Y-9171794D02*
X16675500Y-9571794D01*
X16875500Y-9171794D02*
X16875500Y-9571794D01*
X16675500Y-9371794D02*
X17075500Y-9371794D01*
X17621543Y-11538251D02*
X18021543Y-11938251D01*
X18021543Y-11538251D02*
X17621543Y-11938251D01*
X17821543Y-11538251D02*
X17821543Y-11938251D01*
X17621543Y-11738251D02*
X18021543Y-11738251D01*
X18580500Y-5361794D02*
X18980500Y-5761794D01*
X18980500Y-5361794D02*
X18580500Y-5761794D01*
X18780500Y-5361794D02*
X18780500Y-5761794D01*
X18580500Y-5561794D02*
X18980500Y-5561794D01*
X18580500Y-7266794D02*
X18980500Y-7666794D01*
X18980500Y-7266794D02*
X18580500Y-7666794D01*
X18780500Y-7266794D02*
X18780500Y-7666794D01*
X18580500Y-7466794D02*
X18980500Y-7466794D01*
X18580500Y-9171794D02*
X18980500Y-9571794D01*
X18980500Y-9171794D02*
X18580500Y-9571794D01*
X18780500Y-9171794D02*
X18780500Y-9571794D01*
X18580500Y-9371794D02*
X18980500Y-9371794D01*
D11*
X10441277Y-13640984D02*
X10441277Y-13440984D01*
X10441277Y-13440984D02*
X10488896Y-13440984D01*
X10488896Y-13440984D02*
X10517467Y-13450508D01*
X10517467Y-13450508D02*
X10536515Y-13469555D01*
X10536515Y-13469555D02*
X10546039Y-13488603D01*
X10546039Y-13488603D02*
X10555563Y-13526698D01*
X10555563Y-13526698D02*
X10555563Y-13555269D01*
X10555563Y-13555269D02*
X10546039Y-13593365D01*
X10546039Y-13593365D02*
X10536515Y-13612412D01*
X10536515Y-13612412D02*
X10517467Y-13631460D01*
X10517467Y-13631460D02*
X10488896Y-13640984D01*
X10488896Y-13640984D02*
X10441277Y-13640984D01*
X10641277Y-13640984D02*
X10641277Y-13507650D01*
X10641277Y-13545746D02*
X10650801Y-13526698D01*
X10650801Y-13526698D02*
X10660324Y-13517174D01*
X10660324Y-13517174D02*
X10679372Y-13507650D01*
X10679372Y-13507650D02*
X10698420Y-13507650D01*
X10765086Y-13640984D02*
X10765086Y-13507650D01*
X10765086Y-13440984D02*
X10755563Y-13450508D01*
X10755563Y-13450508D02*
X10765086Y-13460031D01*
X10765086Y-13460031D02*
X10774610Y-13450508D01*
X10774610Y-13450508D02*
X10765086Y-13440984D01*
X10765086Y-13440984D02*
X10765086Y-13460031D01*
X10888896Y-13640984D02*
X10869848Y-13631460D01*
X10869848Y-13631460D02*
X10860324Y-13612412D01*
X10860324Y-13612412D02*
X10860324Y-13440984D01*
X10993658Y-13640984D02*
X10974610Y-13631460D01*
X10974610Y-13631460D02*
X10965086Y-13612412D01*
X10965086Y-13612412D02*
X10965086Y-13440984D01*
X11222229Y-13640984D02*
X11222229Y-13440984D01*
X11222229Y-13440984D02*
X11288896Y-13583841D01*
X11288896Y-13583841D02*
X11355562Y-13440984D01*
X11355562Y-13440984D02*
X11355562Y-13640984D01*
X11536515Y-13640984D02*
X11536515Y-13536222D01*
X11536515Y-13536222D02*
X11526991Y-13517174D01*
X11526991Y-13517174D02*
X11507943Y-13507650D01*
X11507943Y-13507650D02*
X11469848Y-13507650D01*
X11469848Y-13507650D02*
X11450801Y-13517174D01*
X11536515Y-13631460D02*
X11517467Y-13640984D01*
X11517467Y-13640984D02*
X11469848Y-13640984D01*
X11469848Y-13640984D02*
X11450801Y-13631460D01*
X11450801Y-13631460D02*
X11441277Y-13612412D01*
X11441277Y-13612412D02*
X11441277Y-13593365D01*
X11441277Y-13593365D02*
X11450801Y-13574317D01*
X11450801Y-13574317D02*
X11469848Y-13564793D01*
X11469848Y-13564793D02*
X11517467Y-13564793D01*
X11517467Y-13564793D02*
X11536515Y-13555269D01*
X11631753Y-13507650D02*
X11631753Y-13707650D01*
X11631753Y-13517174D02*
X11650801Y-13507650D01*
X11650801Y-13507650D02*
X11688896Y-13507650D01*
X11688896Y-13507650D02*
X11707943Y-13517174D01*
X11707943Y-13517174D02*
X11717467Y-13526698D01*
X11717467Y-13526698D02*
X11726991Y-13545746D01*
X11726991Y-13545746D02*
X11726991Y-13602888D01*
X11726991Y-13602888D02*
X11717467Y-13621936D01*
X11717467Y-13621936D02*
X11707943Y-13631460D01*
X11707943Y-13631460D02*
X11688896Y-13640984D01*
X11688896Y-13640984D02*
X11650801Y-13640984D01*
X11650801Y-13640984D02*
X11631753Y-13631460D01*
X11812705Y-13621936D02*
X11822229Y-13631460D01*
X11822229Y-13631460D02*
X11812705Y-13640984D01*
X11812705Y-13640984D02*
X11803182Y-13631460D01*
X11803182Y-13631460D02*
X11812705Y-13621936D01*
X11812705Y-13621936D02*
X11812705Y-13640984D01*
X11812705Y-13517174D02*
X11822229Y-13526698D01*
X11822229Y-13526698D02*
X11812705Y-13536222D01*
X11812705Y-13536222D02*
X11803182Y-13526698D01*
X11803182Y-13526698D02*
X11812705Y-13517174D01*
X11812705Y-13517174D02*
X11812705Y-13536222D01*
D12*
X10120500Y-13939500D02*
X10180500Y-13999500D01*
X10180500Y-13939500D02*
X10120500Y-13999500D01*
D11*
X10479372Y-13860984D02*
X10498420Y-13860984D01*
X10498420Y-13860984D02*
X10517467Y-13870508D01*
X10517467Y-13870508D02*
X10526991Y-13880031D01*
X10526991Y-13880031D02*
X10536515Y-13899079D01*
X10536515Y-13899079D02*
X10546039Y-13937174D01*
X10546039Y-13937174D02*
X10546039Y-13984793D01*
X10546039Y-13984793D02*
X10536515Y-14022888D01*
X10536515Y-14022888D02*
X10526991Y-14041936D01*
X10526991Y-14041936D02*
X10517467Y-14051460D01*
X10517467Y-14051460D02*
X10498420Y-14060984D01*
X10498420Y-14060984D02*
X10479372Y-14060984D01*
X10479372Y-14060984D02*
X10460324Y-14051460D01*
X10460324Y-14051460D02*
X10450801Y-14041936D01*
X10450801Y-14041936D02*
X10441277Y-14022888D01*
X10441277Y-14022888D02*
X10431753Y-13984793D01*
X10431753Y-13984793D02*
X10431753Y-13937174D01*
X10431753Y-13937174D02*
X10441277Y-13899079D01*
X10441277Y-13899079D02*
X10450801Y-13880031D01*
X10450801Y-13880031D02*
X10460324Y-13870508D01*
X10460324Y-13870508D02*
X10479372Y-13860984D01*
X10631753Y-14041936D02*
X10641277Y-14051460D01*
X10641277Y-14051460D02*
X10631753Y-14060984D01*
X10631753Y-14060984D02*
X10622229Y-14051460D01*
X10622229Y-14051460D02*
X10631753Y-14041936D01*
X10631753Y-14041936D02*
X10631753Y-14060984D01*
X10812705Y-13860984D02*
X10774610Y-13860984D01*
X10774610Y-13860984D02*
X10755563Y-13870508D01*
X10755563Y-13870508D02*
X10746039Y-13880031D01*
X10746039Y-13880031D02*
X10726991Y-13908603D01*
X10726991Y-13908603D02*
X10717467Y-13946698D01*
X10717467Y-13946698D02*
X10717467Y-14022888D01*
X10717467Y-14022888D02*
X10726991Y-14041936D01*
X10726991Y-14041936D02*
X10736515Y-14051460D01*
X10736515Y-14051460D02*
X10755563Y-14060984D01*
X10755563Y-14060984D02*
X10793658Y-14060984D01*
X10793658Y-14060984D02*
X10812705Y-14051460D01*
X10812705Y-14051460D02*
X10822229Y-14041936D01*
X10822229Y-14041936D02*
X10831753Y-14022888D01*
X10831753Y-14022888D02*
X10831753Y-13975269D01*
X10831753Y-13975269D02*
X10822229Y-13956222D01*
X10822229Y-13956222D02*
X10812705Y-13946698D01*
X10812705Y-13946698D02*
X10793658Y-13937174D01*
X10793658Y-13937174D02*
X10755563Y-13937174D01*
X10755563Y-13937174D02*
X10736515Y-13946698D01*
X10736515Y-13946698D02*
X10726991Y-13956222D01*
X10726991Y-13956222D02*
X10717467Y-13975269D01*
X10955563Y-13860984D02*
X10974610Y-13860984D01*
X10974610Y-13860984D02*
X10993658Y-13870508D01*
X10993658Y-13870508D02*
X11003182Y-13880031D01*
X11003182Y-13880031D02*
X11012705Y-13899079D01*
X11012705Y-13899079D02*
X11022229Y-13937174D01*
X11022229Y-13937174D02*
X11022229Y-13984793D01*
X11022229Y-13984793D02*
X11012705Y-14022888D01*
X11012705Y-14022888D02*
X11003182Y-14041936D01*
X11003182Y-14041936D02*
X10993658Y-14051460D01*
X10993658Y-14051460D02*
X10974610Y-14060984D01*
X10974610Y-14060984D02*
X10955563Y-14060984D01*
X10955563Y-14060984D02*
X10936515Y-14051460D01*
X10936515Y-14051460D02*
X10926991Y-14041936D01*
X10926991Y-14041936D02*
X10917467Y-14022888D01*
X10917467Y-14022888D02*
X10907944Y-13984793D01*
X10907944Y-13984793D02*
X10907944Y-13937174D01*
X10907944Y-13937174D02*
X10917467Y-13899079D01*
X10917467Y-13899079D02*
X10926991Y-13880031D01*
X10926991Y-13880031D02*
X10936515Y-13870508D01*
X10936515Y-13870508D02*
X10955563Y-13860984D01*
X11146039Y-13860984D02*
X11165086Y-13860984D01*
X11165086Y-13860984D02*
X11184134Y-13870508D01*
X11184134Y-13870508D02*
X11193658Y-13880031D01*
X11193658Y-13880031D02*
X11203182Y-13899079D01*
X11203182Y-13899079D02*
X11212705Y-13937174D01*
X11212705Y-13937174D02*
X11212705Y-13984793D01*
X11212705Y-13984793D02*
X11203182Y-14022888D01*
X11203182Y-14022888D02*
X11193658Y-14041936D01*
X11193658Y-14041936D02*
X11184134Y-14051460D01*
X11184134Y-14051460D02*
X11165086Y-14060984D01*
X11165086Y-14060984D02*
X11146039Y-14060984D01*
X11146039Y-14060984D02*
X11126991Y-14051460D01*
X11126991Y-14051460D02*
X11117467Y-14041936D01*
X11117467Y-14041936D02*
X11107944Y-14022888D01*
X11107944Y-14022888D02*
X11098420Y-13984793D01*
X11098420Y-13984793D02*
X11098420Y-13937174D01*
X11098420Y-13937174D02*
X11107944Y-13899079D01*
X11107944Y-13899079D02*
X11117467Y-13880031D01*
X11117467Y-13880031D02*
X11126991Y-13870508D01*
X11126991Y-13870508D02*
X11146039Y-13860984D01*
X11298420Y-14060984D02*
X11298420Y-13927650D01*
X11298420Y-13946698D02*
X11307943Y-13937174D01*
X11307943Y-13937174D02*
X11326991Y-13927650D01*
X11326991Y-13927650D02*
X11355563Y-13927650D01*
X11355563Y-13927650D02*
X11374610Y-13937174D01*
X11374610Y-13937174D02*
X11384134Y-13956222D01*
X11384134Y-13956222D02*
X11384134Y-14060984D01*
X11384134Y-13956222D02*
X11393658Y-13937174D01*
X11393658Y-13937174D02*
X11412705Y-13927650D01*
X11412705Y-13927650D02*
X11441277Y-13927650D01*
X11441277Y-13927650D02*
X11460324Y-13937174D01*
X11460324Y-13937174D02*
X11469848Y-13956222D01*
X11469848Y-13956222D02*
X11469848Y-14060984D01*
X11565086Y-14060984D02*
X11565086Y-13927650D01*
X11565086Y-13946698D02*
X11574610Y-13937174D01*
X11574610Y-13937174D02*
X11593658Y-13927650D01*
X11593658Y-13927650D02*
X11622229Y-13927650D01*
X11622229Y-13927650D02*
X11641277Y-13937174D01*
X11641277Y-13937174D02*
X11650801Y-13956222D01*
X11650801Y-13956222D02*
X11650801Y-14060984D01*
X11650801Y-13956222D02*
X11660324Y-13937174D01*
X11660324Y-13937174D02*
X11679372Y-13927650D01*
X11679372Y-13927650D02*
X11707943Y-13927650D01*
X11707943Y-13927650D02*
X11726991Y-13937174D01*
X11726991Y-13937174D02*
X11736515Y-13956222D01*
X11736515Y-13956222D02*
X11736515Y-14060984D01*
X12126991Y-13851460D02*
X11955563Y-14108603D01*
X12384134Y-13860984D02*
X12403182Y-13860984D01*
X12403182Y-13860984D02*
X12422229Y-13870508D01*
X12422229Y-13870508D02*
X12431753Y-13880031D01*
X12431753Y-13880031D02*
X12441277Y-13899079D01*
X12441277Y-13899079D02*
X12450801Y-13937174D01*
X12450801Y-13937174D02*
X12450801Y-13984793D01*
X12450801Y-13984793D02*
X12441277Y-14022888D01*
X12441277Y-14022888D02*
X12431753Y-14041936D01*
X12431753Y-14041936D02*
X12422229Y-14051460D01*
X12422229Y-14051460D02*
X12403182Y-14060984D01*
X12403182Y-14060984D02*
X12384134Y-14060984D01*
X12384134Y-14060984D02*
X12365086Y-14051460D01*
X12365086Y-14051460D02*
X12355563Y-14041936D01*
X12355563Y-14041936D02*
X12346039Y-14022888D01*
X12346039Y-14022888D02*
X12336515Y-13984793D01*
X12336515Y-13984793D02*
X12336515Y-13937174D01*
X12336515Y-13937174D02*
X12346039Y-13899079D01*
X12346039Y-13899079D02*
X12355563Y-13880031D01*
X12355563Y-13880031D02*
X12365086Y-13870508D01*
X12365086Y-13870508D02*
X12384134Y-13860984D01*
X12536515Y-14041936D02*
X12546039Y-14051460D01*
X12546039Y-14051460D02*
X12536515Y-14060984D01*
X12536515Y-14060984D02*
X12526991Y-14051460D01*
X12526991Y-14051460D02*
X12536515Y-14041936D01*
X12536515Y-14041936D02*
X12536515Y-14060984D01*
X12669848Y-13860984D02*
X12688896Y-13860984D01*
X12688896Y-13860984D02*
X12707944Y-13870508D01*
X12707944Y-13870508D02*
X12717467Y-13880031D01*
X12717467Y-13880031D02*
X12726991Y-13899079D01*
X12726991Y-13899079D02*
X12736515Y-13937174D01*
X12736515Y-13937174D02*
X12736515Y-13984793D01*
X12736515Y-13984793D02*
X12726991Y-14022888D01*
X12726991Y-14022888D02*
X12717467Y-14041936D01*
X12717467Y-14041936D02*
X12707944Y-14051460D01*
X12707944Y-14051460D02*
X12688896Y-14060984D01*
X12688896Y-14060984D02*
X12669848Y-14060984D01*
X12669848Y-14060984D02*
X12650801Y-14051460D01*
X12650801Y-14051460D02*
X12641277Y-14041936D01*
X12641277Y-14041936D02*
X12631753Y-14022888D01*
X12631753Y-14022888D02*
X12622229Y-13984793D01*
X12622229Y-13984793D02*
X12622229Y-13937174D01*
X12622229Y-13937174D02*
X12631753Y-13899079D01*
X12631753Y-13899079D02*
X12641277Y-13880031D01*
X12641277Y-13880031D02*
X12650801Y-13870508D01*
X12650801Y-13870508D02*
X12669848Y-13860984D01*
X12812706Y-13880031D02*
X12822229Y-13870508D01*
X12822229Y-13870508D02*
X12841277Y-13860984D01*
X12841277Y-13860984D02*
X12888896Y-13860984D01*
X12888896Y-13860984D02*
X12907944Y-13870508D01*
X12907944Y-13870508D02*
X12917467Y-13880031D01*
X12917467Y-13880031D02*
X12926991Y-13899079D01*
X12926991Y-13899079D02*
X12926991Y-13918127D01*
X12926991Y-13918127D02*
X12917467Y-13946698D01*
X12917467Y-13946698D02*
X12803182Y-14060984D01*
X12803182Y-14060984D02*
X12926991Y-14060984D01*
X12993658Y-13860984D02*
X13117467Y-13860984D01*
X13117467Y-13860984D02*
X13050801Y-13937174D01*
X13050801Y-13937174D02*
X13079372Y-13937174D01*
X13079372Y-13937174D02*
X13098420Y-13946698D01*
X13098420Y-13946698D02*
X13107944Y-13956222D01*
X13107944Y-13956222D02*
X13117467Y-13975269D01*
X13117467Y-13975269D02*
X13117467Y-14022888D01*
X13117467Y-14022888D02*
X13107944Y-14041936D01*
X13107944Y-14041936D02*
X13098420Y-14051460D01*
X13098420Y-14051460D02*
X13079372Y-14060984D01*
X13079372Y-14060984D02*
X13022229Y-14060984D01*
X13022229Y-14060984D02*
X13003182Y-14051460D01*
X13003182Y-14051460D02*
X12993658Y-14041936D01*
X13288896Y-13860984D02*
X13250801Y-13860984D01*
X13250801Y-13860984D02*
X13231753Y-13870508D01*
X13231753Y-13870508D02*
X13222229Y-13880031D01*
X13222229Y-13880031D02*
X13203182Y-13908603D01*
X13203182Y-13908603D02*
X13193658Y-13946698D01*
X13193658Y-13946698D02*
X13193658Y-14022888D01*
X13193658Y-14022888D02*
X13203182Y-14041936D01*
X13203182Y-14041936D02*
X13212706Y-14051460D01*
X13212706Y-14051460D02*
X13231753Y-14060984D01*
X13231753Y-14060984D02*
X13269848Y-14060984D01*
X13269848Y-14060984D02*
X13288896Y-14051460D01*
X13288896Y-14051460D02*
X13298420Y-14041936D01*
X13298420Y-14041936D02*
X13307944Y-14022888D01*
X13307944Y-14022888D02*
X13307944Y-13975269D01*
X13307944Y-13975269D02*
X13298420Y-13956222D01*
X13298420Y-13956222D02*
X13288896Y-13946698D01*
X13288896Y-13946698D02*
X13269848Y-13937174D01*
X13269848Y-13937174D02*
X13231753Y-13937174D01*
X13231753Y-13937174D02*
X13212706Y-13946698D01*
X13212706Y-13946698D02*
X13203182Y-13956222D01*
X13203182Y-13956222D02*
X13193658Y-13975269D01*
X13384134Y-13860984D02*
X13384134Y-13899079D01*
X13460325Y-13860984D02*
X13460325Y-13899079D01*
X13755563Y-14137174D02*
X13746039Y-14127650D01*
X13746039Y-14127650D02*
X13726991Y-14099079D01*
X13726991Y-14099079D02*
X13717468Y-14080031D01*
X13717468Y-14080031D02*
X13707944Y-14051460D01*
X13707944Y-14051460D02*
X13698420Y-14003841D01*
X13698420Y-14003841D02*
X13698420Y-13965746D01*
X13698420Y-13965746D02*
X13707944Y-13918127D01*
X13707944Y-13918127D02*
X13717468Y-13889555D01*
X13717468Y-13889555D02*
X13726991Y-13870508D01*
X13726991Y-13870508D02*
X13746039Y-13841936D01*
X13746039Y-13841936D02*
X13755563Y-13832412D01*
X13822229Y-13880031D02*
X13831753Y-13870508D01*
X13831753Y-13870508D02*
X13850801Y-13860984D01*
X13850801Y-13860984D02*
X13898420Y-13860984D01*
X13898420Y-13860984D02*
X13917468Y-13870508D01*
X13917468Y-13870508D02*
X13926991Y-13880031D01*
X13926991Y-13880031D02*
X13936515Y-13899079D01*
X13936515Y-13899079D02*
X13936515Y-13918127D01*
X13936515Y-13918127D02*
X13926991Y-13946698D01*
X13926991Y-13946698D02*
X13812706Y-14060984D01*
X13812706Y-14060984D02*
X13936515Y-14060984D01*
X14174610Y-14060984D02*
X14174610Y-13860984D01*
X14260325Y-14060984D02*
X14260325Y-13956222D01*
X14260325Y-13956222D02*
X14250801Y-13937174D01*
X14250801Y-13937174D02*
X14231753Y-13927650D01*
X14231753Y-13927650D02*
X14203182Y-13927650D01*
X14203182Y-13927650D02*
X14184134Y-13937174D01*
X14184134Y-13937174D02*
X14174610Y-13946698D01*
X14384134Y-14060984D02*
X14365087Y-14051460D01*
X14365087Y-14051460D02*
X14355563Y-14041936D01*
X14355563Y-14041936D02*
X14346039Y-14022888D01*
X14346039Y-14022888D02*
X14346039Y-13965746D01*
X14346039Y-13965746D02*
X14355563Y-13946698D01*
X14355563Y-13946698D02*
X14365087Y-13937174D01*
X14365087Y-13937174D02*
X14384134Y-13927650D01*
X14384134Y-13927650D02*
X14412706Y-13927650D01*
X14412706Y-13927650D02*
X14431753Y-13937174D01*
X14431753Y-13937174D02*
X14441277Y-13946698D01*
X14441277Y-13946698D02*
X14450801Y-13965746D01*
X14450801Y-13965746D02*
X14450801Y-14022888D01*
X14450801Y-14022888D02*
X14441277Y-14041936D01*
X14441277Y-14041936D02*
X14431753Y-14051460D01*
X14431753Y-14051460D02*
X14412706Y-14060984D01*
X14412706Y-14060984D02*
X14384134Y-14060984D01*
X14565087Y-14060984D02*
X14546039Y-14051460D01*
X14546039Y-14051460D02*
X14536515Y-14032412D01*
X14536515Y-14032412D02*
X14536515Y-13860984D01*
X14717468Y-14051460D02*
X14698420Y-14060984D01*
X14698420Y-14060984D02*
X14660325Y-14060984D01*
X14660325Y-14060984D02*
X14641277Y-14051460D01*
X14641277Y-14051460D02*
X14631753Y-14032412D01*
X14631753Y-14032412D02*
X14631753Y-13956222D01*
X14631753Y-13956222D02*
X14641277Y-13937174D01*
X14641277Y-13937174D02*
X14660325Y-13927650D01*
X14660325Y-13927650D02*
X14698420Y-13927650D01*
X14698420Y-13927650D02*
X14717468Y-13937174D01*
X14717468Y-13937174D02*
X14726991Y-13956222D01*
X14726991Y-13956222D02*
X14726991Y-13975269D01*
X14726991Y-13975269D02*
X14631753Y-13994317D01*
X14803182Y-14051460D02*
X14822230Y-14060984D01*
X14822230Y-14060984D02*
X14860325Y-14060984D01*
X14860325Y-14060984D02*
X14879372Y-14051460D01*
X14879372Y-14051460D02*
X14888896Y-14032412D01*
X14888896Y-14032412D02*
X14888896Y-14022888D01*
X14888896Y-14022888D02*
X14879372Y-14003841D01*
X14879372Y-14003841D02*
X14860325Y-13994317D01*
X14860325Y-13994317D02*
X14831753Y-13994317D01*
X14831753Y-13994317D02*
X14812706Y-13984793D01*
X14812706Y-13984793D02*
X14803182Y-13965746D01*
X14803182Y-13965746D02*
X14803182Y-13956222D01*
X14803182Y-13956222D02*
X14812706Y-13937174D01*
X14812706Y-13937174D02*
X14831753Y-13927650D01*
X14831753Y-13927650D02*
X14860325Y-13927650D01*
X14860325Y-13927650D02*
X14879372Y-13937174D01*
X14955563Y-14137174D02*
X14965087Y-14127650D01*
X14965087Y-14127650D02*
X14984134Y-14099079D01*
X14984134Y-14099079D02*
X14993658Y-14080031D01*
X14993658Y-14080031D02*
X15003182Y-14051460D01*
X15003182Y-14051460D02*
X15012706Y-14003841D01*
X15012706Y-14003841D02*
X15012706Y-13965746D01*
X15012706Y-13965746D02*
X15003182Y-13918127D01*
X15003182Y-13918127D02*
X14993658Y-13889555D01*
X14993658Y-13889555D02*
X14984134Y-13870508D01*
X14984134Y-13870508D02*
X14965087Y-13841936D01*
X14965087Y-13841936D02*
X14955563Y-13832412D01*
X15317468Y-14137174D02*
X15307944Y-14127650D01*
X15307944Y-14127650D02*
X15288896Y-14099079D01*
X15288896Y-14099079D02*
X15279372Y-14080031D01*
X15279372Y-14080031D02*
X15269849Y-14051460D01*
X15269849Y-14051460D02*
X15260325Y-14003841D01*
X15260325Y-14003841D02*
X15260325Y-13965746D01*
X15260325Y-13965746D02*
X15269849Y-13918127D01*
X15269849Y-13918127D02*
X15279372Y-13889555D01*
X15279372Y-13889555D02*
X15288896Y-13870508D01*
X15288896Y-13870508D02*
X15307944Y-13841936D01*
X15307944Y-13841936D02*
X15317468Y-13832412D01*
X15393658Y-13927650D02*
X15393658Y-14060984D01*
X15393658Y-13946698D02*
X15403182Y-13937174D01*
X15403182Y-13937174D02*
X15422230Y-13927650D01*
X15422230Y-13927650D02*
X15450801Y-13927650D01*
X15450801Y-13927650D02*
X15469849Y-13937174D01*
X15469849Y-13937174D02*
X15479372Y-13956222D01*
X15479372Y-13956222D02*
X15479372Y-14060984D01*
X15603182Y-14060984D02*
X15584134Y-14051460D01*
X15584134Y-14051460D02*
X15574611Y-14041936D01*
X15574611Y-14041936D02*
X15565087Y-14022888D01*
X15565087Y-14022888D02*
X15565087Y-13965746D01*
X15565087Y-13965746D02*
X15574611Y-13946698D01*
X15574611Y-13946698D02*
X15584134Y-13937174D01*
X15584134Y-13937174D02*
X15603182Y-13927650D01*
X15603182Y-13927650D02*
X15631753Y-13927650D01*
X15631753Y-13927650D02*
X15650801Y-13937174D01*
X15650801Y-13937174D02*
X15660325Y-13946698D01*
X15660325Y-13946698D02*
X15669849Y-13965746D01*
X15669849Y-13965746D02*
X15669849Y-14022888D01*
X15669849Y-14022888D02*
X15660325Y-14041936D01*
X15660325Y-14041936D02*
X15650801Y-14051460D01*
X15650801Y-14051460D02*
X15631753Y-14060984D01*
X15631753Y-14060984D02*
X15603182Y-14060984D01*
X15726992Y-13927650D02*
X15803182Y-13927650D01*
X15755563Y-13860984D02*
X15755563Y-14032412D01*
X15755563Y-14032412D02*
X15765087Y-14051460D01*
X15765087Y-14051460D02*
X15784134Y-14060984D01*
X15784134Y-14060984D02*
X15803182Y-14060984D01*
X16022230Y-13927650D02*
X16022230Y-14127650D01*
X16022230Y-13937174D02*
X16041277Y-13927650D01*
X16041277Y-13927650D02*
X16079373Y-13927650D01*
X16079373Y-13927650D02*
X16098420Y-13937174D01*
X16098420Y-13937174D02*
X16107944Y-13946698D01*
X16107944Y-13946698D02*
X16117468Y-13965746D01*
X16117468Y-13965746D02*
X16117468Y-14022888D01*
X16117468Y-14022888D02*
X16107944Y-14041936D01*
X16107944Y-14041936D02*
X16098420Y-14051460D01*
X16098420Y-14051460D02*
X16079373Y-14060984D01*
X16079373Y-14060984D02*
X16041277Y-14060984D01*
X16041277Y-14060984D02*
X16022230Y-14051460D01*
X16231753Y-14060984D02*
X16212706Y-14051460D01*
X16212706Y-14051460D02*
X16203182Y-14032412D01*
X16203182Y-14032412D02*
X16203182Y-13860984D01*
X16393658Y-14060984D02*
X16393658Y-13956222D01*
X16393658Y-13956222D02*
X16384134Y-13937174D01*
X16384134Y-13937174D02*
X16365087Y-13927650D01*
X16365087Y-13927650D02*
X16326992Y-13927650D01*
X16326992Y-13927650D02*
X16307944Y-13937174D01*
X16393658Y-14051460D02*
X16374611Y-14060984D01*
X16374611Y-14060984D02*
X16326992Y-14060984D01*
X16326992Y-14060984D02*
X16307944Y-14051460D01*
X16307944Y-14051460D02*
X16298420Y-14032412D01*
X16298420Y-14032412D02*
X16298420Y-14013365D01*
X16298420Y-14013365D02*
X16307944Y-13994317D01*
X16307944Y-13994317D02*
X16326992Y-13984793D01*
X16326992Y-13984793D02*
X16374611Y-13984793D01*
X16374611Y-13984793D02*
X16393658Y-13975269D01*
X16460325Y-13927650D02*
X16536515Y-13927650D01*
X16488896Y-13860984D02*
X16488896Y-14032412D01*
X16488896Y-14032412D02*
X16498420Y-14051460D01*
X16498420Y-14051460D02*
X16517468Y-14060984D01*
X16517468Y-14060984D02*
X16536515Y-14060984D01*
X16679373Y-14051460D02*
X16660325Y-14060984D01*
X16660325Y-14060984D02*
X16622230Y-14060984D01*
X16622230Y-14060984D02*
X16603182Y-14051460D01*
X16603182Y-14051460D02*
X16593658Y-14032412D01*
X16593658Y-14032412D02*
X16593658Y-13956222D01*
X16593658Y-13956222D02*
X16603182Y-13937174D01*
X16603182Y-13937174D02*
X16622230Y-13927650D01*
X16622230Y-13927650D02*
X16660325Y-13927650D01*
X16660325Y-13927650D02*
X16679373Y-13937174D01*
X16679373Y-13937174D02*
X16688896Y-13956222D01*
X16688896Y-13956222D02*
X16688896Y-13975269D01*
X16688896Y-13975269D02*
X16593658Y-13994317D01*
X16860325Y-14060984D02*
X16860325Y-13860984D01*
X16860325Y-14051460D02*
X16841277Y-14060984D01*
X16841277Y-14060984D02*
X16803182Y-14060984D01*
X16803182Y-14060984D02*
X16784135Y-14051460D01*
X16784135Y-14051460D02*
X16774611Y-14041936D01*
X16774611Y-14041936D02*
X16765087Y-14022888D01*
X16765087Y-14022888D02*
X16765087Y-13965746D01*
X16765087Y-13965746D02*
X16774611Y-13946698D01*
X16774611Y-13946698D02*
X16784135Y-13937174D01*
X16784135Y-13937174D02*
X16803182Y-13927650D01*
X16803182Y-13927650D02*
X16841277Y-13927650D01*
X16841277Y-13927650D02*
X16860325Y-13937174D01*
X16936516Y-14137174D02*
X16946039Y-14127650D01*
X16946039Y-14127650D02*
X16965087Y-14099079D01*
X16965087Y-14099079D02*
X16974611Y-14080031D01*
X16974611Y-14080031D02*
X16984135Y-14051460D01*
X16984135Y-14051460D02*
X16993658Y-14003841D01*
X16993658Y-14003841D02*
X16993658Y-13965746D01*
X16993658Y-13965746D02*
X16984135Y-13918127D01*
X16984135Y-13918127D02*
X16974611Y-13889555D01*
X16974611Y-13889555D02*
X16965087Y-13870508D01*
X16965087Y-13870508D02*
X16946039Y-13841936D01*
X16946039Y-13841936D02*
X16936516Y-13832412D01*
D13*
X10180500Y-14233500D02*
G75*
G03*
X10180500Y-14233500I-75000J0D01*
G01*
D11*
X10546039Y-14324984D02*
X10431753Y-14324984D01*
X10488896Y-14324984D02*
X10488896Y-14124984D01*
X10488896Y-14124984D02*
X10469848Y-14153555D01*
X10469848Y-14153555D02*
X10450801Y-14172603D01*
X10450801Y-14172603D02*
X10431753Y-14182127D01*
X10631753Y-14305936D02*
X10641277Y-14315460D01*
X10641277Y-14315460D02*
X10631753Y-14324984D01*
X10631753Y-14324984D02*
X10622229Y-14315460D01*
X10622229Y-14315460D02*
X10631753Y-14305936D01*
X10631753Y-14305936D02*
X10631753Y-14324984D01*
X10822229Y-14124984D02*
X10726991Y-14124984D01*
X10726991Y-14124984D02*
X10717467Y-14220222D01*
X10717467Y-14220222D02*
X10726991Y-14210698D01*
X10726991Y-14210698D02*
X10746039Y-14201174D01*
X10746039Y-14201174D02*
X10793658Y-14201174D01*
X10793658Y-14201174D02*
X10812705Y-14210698D01*
X10812705Y-14210698D02*
X10822229Y-14220222D01*
X10822229Y-14220222D02*
X10831753Y-14239269D01*
X10831753Y-14239269D02*
X10831753Y-14286888D01*
X10831753Y-14286888D02*
X10822229Y-14305936D01*
X10822229Y-14305936D02*
X10812705Y-14315460D01*
X10812705Y-14315460D02*
X10793658Y-14324984D01*
X10793658Y-14324984D02*
X10746039Y-14324984D01*
X10746039Y-14324984D02*
X10726991Y-14315460D01*
X10726991Y-14315460D02*
X10717467Y-14305936D01*
X10955563Y-14124984D02*
X10974610Y-14124984D01*
X10974610Y-14124984D02*
X10993658Y-14134508D01*
X10993658Y-14134508D02*
X11003182Y-14144031D01*
X11003182Y-14144031D02*
X11012705Y-14163079D01*
X11012705Y-14163079D02*
X11022229Y-14201174D01*
X11022229Y-14201174D02*
X11022229Y-14248793D01*
X11022229Y-14248793D02*
X11012705Y-14286888D01*
X11012705Y-14286888D02*
X11003182Y-14305936D01*
X11003182Y-14305936D02*
X10993658Y-14315460D01*
X10993658Y-14315460D02*
X10974610Y-14324984D01*
X10974610Y-14324984D02*
X10955563Y-14324984D01*
X10955563Y-14324984D02*
X10936515Y-14315460D01*
X10936515Y-14315460D02*
X10926991Y-14305936D01*
X10926991Y-14305936D02*
X10917467Y-14286888D01*
X10917467Y-14286888D02*
X10907944Y-14248793D01*
X10907944Y-14248793D02*
X10907944Y-14201174D01*
X10907944Y-14201174D02*
X10917467Y-14163079D01*
X10917467Y-14163079D02*
X10926991Y-14144031D01*
X10926991Y-14144031D02*
X10936515Y-14134508D01*
X10936515Y-14134508D02*
X10955563Y-14124984D01*
X11146039Y-14124984D02*
X11165086Y-14124984D01*
X11165086Y-14124984D02*
X11184134Y-14134508D01*
X11184134Y-14134508D02*
X11193658Y-14144031D01*
X11193658Y-14144031D02*
X11203182Y-14163079D01*
X11203182Y-14163079D02*
X11212705Y-14201174D01*
X11212705Y-14201174D02*
X11212705Y-14248793D01*
X11212705Y-14248793D02*
X11203182Y-14286888D01*
X11203182Y-14286888D02*
X11193658Y-14305936D01*
X11193658Y-14305936D02*
X11184134Y-14315460D01*
X11184134Y-14315460D02*
X11165086Y-14324984D01*
X11165086Y-14324984D02*
X11146039Y-14324984D01*
X11146039Y-14324984D02*
X11126991Y-14315460D01*
X11126991Y-14315460D02*
X11117467Y-14305936D01*
X11117467Y-14305936D02*
X11107944Y-14286888D01*
X11107944Y-14286888D02*
X11098420Y-14248793D01*
X11098420Y-14248793D02*
X11098420Y-14201174D01*
X11098420Y-14201174D02*
X11107944Y-14163079D01*
X11107944Y-14163079D02*
X11117467Y-14144031D01*
X11117467Y-14144031D02*
X11126991Y-14134508D01*
X11126991Y-14134508D02*
X11146039Y-14124984D01*
X11298420Y-14324984D02*
X11298420Y-14191650D01*
X11298420Y-14210698D02*
X11307943Y-14201174D01*
X11307943Y-14201174D02*
X11326991Y-14191650D01*
X11326991Y-14191650D02*
X11355563Y-14191650D01*
X11355563Y-14191650D02*
X11374610Y-14201174D01*
X11374610Y-14201174D02*
X11384134Y-14220222D01*
X11384134Y-14220222D02*
X11384134Y-14324984D01*
X11384134Y-14220222D02*
X11393658Y-14201174D01*
X11393658Y-14201174D02*
X11412705Y-14191650D01*
X11412705Y-14191650D02*
X11441277Y-14191650D01*
X11441277Y-14191650D02*
X11460324Y-14201174D01*
X11460324Y-14201174D02*
X11469848Y-14220222D01*
X11469848Y-14220222D02*
X11469848Y-14324984D01*
X11565086Y-14324984D02*
X11565086Y-14191650D01*
X11565086Y-14210698D02*
X11574610Y-14201174D01*
X11574610Y-14201174D02*
X11593658Y-14191650D01*
X11593658Y-14191650D02*
X11622229Y-14191650D01*
X11622229Y-14191650D02*
X11641277Y-14201174D01*
X11641277Y-14201174D02*
X11650801Y-14220222D01*
X11650801Y-14220222D02*
X11650801Y-14324984D01*
X11650801Y-14220222D02*
X11660324Y-14201174D01*
X11660324Y-14201174D02*
X11679372Y-14191650D01*
X11679372Y-14191650D02*
X11707943Y-14191650D01*
X11707943Y-14191650D02*
X11726991Y-14201174D01*
X11726991Y-14201174D02*
X11736515Y-14220222D01*
X11736515Y-14220222D02*
X11736515Y-14324984D01*
X12126991Y-14115460D02*
X11955563Y-14372603D01*
X12384134Y-14124984D02*
X12403182Y-14124984D01*
X12403182Y-14124984D02*
X12422229Y-14134508D01*
X12422229Y-14134508D02*
X12431753Y-14144031D01*
X12431753Y-14144031D02*
X12441277Y-14163079D01*
X12441277Y-14163079D02*
X12450801Y-14201174D01*
X12450801Y-14201174D02*
X12450801Y-14248793D01*
X12450801Y-14248793D02*
X12441277Y-14286888D01*
X12441277Y-14286888D02*
X12431753Y-14305936D01*
X12431753Y-14305936D02*
X12422229Y-14315460D01*
X12422229Y-14315460D02*
X12403182Y-14324984D01*
X12403182Y-14324984D02*
X12384134Y-14324984D01*
X12384134Y-14324984D02*
X12365086Y-14315460D01*
X12365086Y-14315460D02*
X12355563Y-14305936D01*
X12355563Y-14305936D02*
X12346039Y-14286888D01*
X12346039Y-14286888D02*
X12336515Y-14248793D01*
X12336515Y-14248793D02*
X12336515Y-14201174D01*
X12336515Y-14201174D02*
X12346039Y-14163079D01*
X12346039Y-14163079D02*
X12355563Y-14144031D01*
X12355563Y-14144031D02*
X12365086Y-14134508D01*
X12365086Y-14134508D02*
X12384134Y-14124984D01*
X12536515Y-14305936D02*
X12546039Y-14315460D01*
X12546039Y-14315460D02*
X12536515Y-14324984D01*
X12536515Y-14324984D02*
X12526991Y-14315460D01*
X12526991Y-14315460D02*
X12536515Y-14305936D01*
X12536515Y-14305936D02*
X12536515Y-14324984D01*
X12669848Y-14124984D02*
X12688896Y-14124984D01*
X12688896Y-14124984D02*
X12707944Y-14134508D01*
X12707944Y-14134508D02*
X12717467Y-14144031D01*
X12717467Y-14144031D02*
X12726991Y-14163079D01*
X12726991Y-14163079D02*
X12736515Y-14201174D01*
X12736515Y-14201174D02*
X12736515Y-14248793D01*
X12736515Y-14248793D02*
X12726991Y-14286888D01*
X12726991Y-14286888D02*
X12717467Y-14305936D01*
X12717467Y-14305936D02*
X12707944Y-14315460D01*
X12707944Y-14315460D02*
X12688896Y-14324984D01*
X12688896Y-14324984D02*
X12669848Y-14324984D01*
X12669848Y-14324984D02*
X12650801Y-14315460D01*
X12650801Y-14315460D02*
X12641277Y-14305936D01*
X12641277Y-14305936D02*
X12631753Y-14286888D01*
X12631753Y-14286888D02*
X12622229Y-14248793D01*
X12622229Y-14248793D02*
X12622229Y-14201174D01*
X12622229Y-14201174D02*
X12631753Y-14163079D01*
X12631753Y-14163079D02*
X12641277Y-14144031D01*
X12641277Y-14144031D02*
X12650801Y-14134508D01*
X12650801Y-14134508D02*
X12669848Y-14124984D01*
X12917467Y-14124984D02*
X12822229Y-14124984D01*
X12822229Y-14124984D02*
X12812706Y-14220222D01*
X12812706Y-14220222D02*
X12822229Y-14210698D01*
X12822229Y-14210698D02*
X12841277Y-14201174D01*
X12841277Y-14201174D02*
X12888896Y-14201174D01*
X12888896Y-14201174D02*
X12907944Y-14210698D01*
X12907944Y-14210698D02*
X12917467Y-14220222D01*
X12917467Y-14220222D02*
X12926991Y-14239269D01*
X12926991Y-14239269D02*
X12926991Y-14286888D01*
X12926991Y-14286888D02*
X12917467Y-14305936D01*
X12917467Y-14305936D02*
X12907944Y-14315460D01*
X12907944Y-14315460D02*
X12888896Y-14324984D01*
X12888896Y-14324984D02*
X12841277Y-14324984D01*
X12841277Y-14324984D02*
X12822229Y-14315460D01*
X12822229Y-14315460D02*
X12812706Y-14305936D01*
X13022229Y-14324984D02*
X13060325Y-14324984D01*
X13060325Y-14324984D02*
X13079372Y-14315460D01*
X13079372Y-14315460D02*
X13088896Y-14305936D01*
X13088896Y-14305936D02*
X13107944Y-14277365D01*
X13107944Y-14277365D02*
X13117467Y-14239269D01*
X13117467Y-14239269D02*
X13117467Y-14163079D01*
X13117467Y-14163079D02*
X13107944Y-14144031D01*
X13107944Y-14144031D02*
X13098420Y-14134508D01*
X13098420Y-14134508D02*
X13079372Y-14124984D01*
X13079372Y-14124984D02*
X13041277Y-14124984D01*
X13041277Y-14124984D02*
X13022229Y-14134508D01*
X13022229Y-14134508D02*
X13012706Y-14144031D01*
X13012706Y-14144031D02*
X13003182Y-14163079D01*
X13003182Y-14163079D02*
X13003182Y-14210698D01*
X13003182Y-14210698D02*
X13012706Y-14229746D01*
X13012706Y-14229746D02*
X13022229Y-14239269D01*
X13022229Y-14239269D02*
X13041277Y-14248793D01*
X13041277Y-14248793D02*
X13079372Y-14248793D01*
X13079372Y-14248793D02*
X13098420Y-14239269D01*
X13098420Y-14239269D02*
X13107944Y-14229746D01*
X13107944Y-14229746D02*
X13117467Y-14210698D01*
X13307944Y-14324984D02*
X13193658Y-14324984D01*
X13250801Y-14324984D02*
X13250801Y-14124984D01*
X13250801Y-14124984D02*
X13231753Y-14153555D01*
X13231753Y-14153555D02*
X13212706Y-14172603D01*
X13212706Y-14172603D02*
X13193658Y-14182127D01*
X13384134Y-14124984D02*
X13384134Y-14163079D01*
X13460325Y-14124984D02*
X13460325Y-14163079D01*
X13755563Y-14401174D02*
X13746039Y-14391650D01*
X13746039Y-14391650D02*
X13726991Y-14363079D01*
X13726991Y-14363079D02*
X13717468Y-14344031D01*
X13717468Y-14344031D02*
X13707944Y-14315460D01*
X13707944Y-14315460D02*
X13698420Y-14267841D01*
X13698420Y-14267841D02*
X13698420Y-14229746D01*
X13698420Y-14229746D02*
X13707944Y-14182127D01*
X13707944Y-14182127D02*
X13717468Y-14153555D01*
X13717468Y-14153555D02*
X13726991Y-14134508D01*
X13726991Y-14134508D02*
X13746039Y-14105936D01*
X13746039Y-14105936D02*
X13755563Y-14096412D01*
X13822229Y-14144031D02*
X13831753Y-14134508D01*
X13831753Y-14134508D02*
X13850801Y-14124984D01*
X13850801Y-14124984D02*
X13898420Y-14124984D01*
X13898420Y-14124984D02*
X13917468Y-14134508D01*
X13917468Y-14134508D02*
X13926991Y-14144031D01*
X13926991Y-14144031D02*
X13936515Y-14163079D01*
X13936515Y-14163079D02*
X13936515Y-14182127D01*
X13936515Y-14182127D02*
X13926991Y-14210698D01*
X13926991Y-14210698D02*
X13812706Y-14324984D01*
X13812706Y-14324984D02*
X13936515Y-14324984D01*
X14174610Y-14324984D02*
X14174610Y-14124984D01*
X14260325Y-14324984D02*
X14260325Y-14220222D01*
X14260325Y-14220222D02*
X14250801Y-14201174D01*
X14250801Y-14201174D02*
X14231753Y-14191650D01*
X14231753Y-14191650D02*
X14203182Y-14191650D01*
X14203182Y-14191650D02*
X14184134Y-14201174D01*
X14184134Y-14201174D02*
X14174610Y-14210698D01*
X14384134Y-14324984D02*
X14365087Y-14315460D01*
X14365087Y-14315460D02*
X14355563Y-14305936D01*
X14355563Y-14305936D02*
X14346039Y-14286888D01*
X14346039Y-14286888D02*
X14346039Y-14229746D01*
X14346039Y-14229746D02*
X14355563Y-14210698D01*
X14355563Y-14210698D02*
X14365087Y-14201174D01*
X14365087Y-14201174D02*
X14384134Y-14191650D01*
X14384134Y-14191650D02*
X14412706Y-14191650D01*
X14412706Y-14191650D02*
X14431753Y-14201174D01*
X14431753Y-14201174D02*
X14441277Y-14210698D01*
X14441277Y-14210698D02*
X14450801Y-14229746D01*
X14450801Y-14229746D02*
X14450801Y-14286888D01*
X14450801Y-14286888D02*
X14441277Y-14305936D01*
X14441277Y-14305936D02*
X14431753Y-14315460D01*
X14431753Y-14315460D02*
X14412706Y-14324984D01*
X14412706Y-14324984D02*
X14384134Y-14324984D01*
X14565087Y-14324984D02*
X14546039Y-14315460D01*
X14546039Y-14315460D02*
X14536515Y-14296412D01*
X14536515Y-14296412D02*
X14536515Y-14124984D01*
X14717468Y-14315460D02*
X14698420Y-14324984D01*
X14698420Y-14324984D02*
X14660325Y-14324984D01*
X14660325Y-14324984D02*
X14641277Y-14315460D01*
X14641277Y-14315460D02*
X14631753Y-14296412D01*
X14631753Y-14296412D02*
X14631753Y-14220222D01*
X14631753Y-14220222D02*
X14641277Y-14201174D01*
X14641277Y-14201174D02*
X14660325Y-14191650D01*
X14660325Y-14191650D02*
X14698420Y-14191650D01*
X14698420Y-14191650D02*
X14717468Y-14201174D01*
X14717468Y-14201174D02*
X14726991Y-14220222D01*
X14726991Y-14220222D02*
X14726991Y-14239269D01*
X14726991Y-14239269D02*
X14631753Y-14258317D01*
X14803182Y-14315460D02*
X14822230Y-14324984D01*
X14822230Y-14324984D02*
X14860325Y-14324984D01*
X14860325Y-14324984D02*
X14879372Y-14315460D01*
X14879372Y-14315460D02*
X14888896Y-14296412D01*
X14888896Y-14296412D02*
X14888896Y-14286888D01*
X14888896Y-14286888D02*
X14879372Y-14267841D01*
X14879372Y-14267841D02*
X14860325Y-14258317D01*
X14860325Y-14258317D02*
X14831753Y-14258317D01*
X14831753Y-14258317D02*
X14812706Y-14248793D01*
X14812706Y-14248793D02*
X14803182Y-14229746D01*
X14803182Y-14229746D02*
X14803182Y-14220222D01*
X14803182Y-14220222D02*
X14812706Y-14201174D01*
X14812706Y-14201174D02*
X14831753Y-14191650D01*
X14831753Y-14191650D02*
X14860325Y-14191650D01*
X14860325Y-14191650D02*
X14879372Y-14201174D01*
X14955563Y-14401174D02*
X14965087Y-14391650D01*
X14965087Y-14391650D02*
X14984134Y-14363079D01*
X14984134Y-14363079D02*
X14993658Y-14344031D01*
X14993658Y-14344031D02*
X15003182Y-14315460D01*
X15003182Y-14315460D02*
X15012706Y-14267841D01*
X15012706Y-14267841D02*
X15012706Y-14229746D01*
X15012706Y-14229746D02*
X15003182Y-14182127D01*
X15003182Y-14182127D02*
X14993658Y-14153555D01*
X14993658Y-14153555D02*
X14984134Y-14134508D01*
X14984134Y-14134508D02*
X14965087Y-14105936D01*
X14965087Y-14105936D02*
X14955563Y-14096412D01*
X15317468Y-14401174D02*
X15307944Y-14391650D01*
X15307944Y-14391650D02*
X15288896Y-14363079D01*
X15288896Y-14363079D02*
X15279372Y-14344031D01*
X15279372Y-14344031D02*
X15269849Y-14315460D01*
X15269849Y-14315460D02*
X15260325Y-14267841D01*
X15260325Y-14267841D02*
X15260325Y-14229746D01*
X15260325Y-14229746D02*
X15269849Y-14182127D01*
X15269849Y-14182127D02*
X15279372Y-14153555D01*
X15279372Y-14153555D02*
X15288896Y-14134508D01*
X15288896Y-14134508D02*
X15307944Y-14105936D01*
X15307944Y-14105936D02*
X15317468Y-14096412D01*
X15393658Y-14191650D02*
X15393658Y-14324984D01*
X15393658Y-14210698D02*
X15403182Y-14201174D01*
X15403182Y-14201174D02*
X15422230Y-14191650D01*
X15422230Y-14191650D02*
X15450801Y-14191650D01*
X15450801Y-14191650D02*
X15469849Y-14201174D01*
X15469849Y-14201174D02*
X15479372Y-14220222D01*
X15479372Y-14220222D02*
X15479372Y-14324984D01*
X15603182Y-14324984D02*
X15584134Y-14315460D01*
X15584134Y-14315460D02*
X15574611Y-14305936D01*
X15574611Y-14305936D02*
X15565087Y-14286888D01*
X15565087Y-14286888D02*
X15565087Y-14229746D01*
X15565087Y-14229746D02*
X15574611Y-14210698D01*
X15574611Y-14210698D02*
X15584134Y-14201174D01*
X15584134Y-14201174D02*
X15603182Y-14191650D01*
X15603182Y-14191650D02*
X15631753Y-14191650D01*
X15631753Y-14191650D02*
X15650801Y-14201174D01*
X15650801Y-14201174D02*
X15660325Y-14210698D01*
X15660325Y-14210698D02*
X15669849Y-14229746D01*
X15669849Y-14229746D02*
X15669849Y-14286888D01*
X15669849Y-14286888D02*
X15660325Y-14305936D01*
X15660325Y-14305936D02*
X15650801Y-14315460D01*
X15650801Y-14315460D02*
X15631753Y-14324984D01*
X15631753Y-14324984D02*
X15603182Y-14324984D01*
X15726992Y-14191650D02*
X15803182Y-14191650D01*
X15755563Y-14124984D02*
X15755563Y-14296412D01*
X15755563Y-14296412D02*
X15765087Y-14315460D01*
X15765087Y-14315460D02*
X15784134Y-14324984D01*
X15784134Y-14324984D02*
X15803182Y-14324984D01*
X16022230Y-14191650D02*
X16022230Y-14391650D01*
X16022230Y-14201174D02*
X16041277Y-14191650D01*
X16041277Y-14191650D02*
X16079373Y-14191650D01*
X16079373Y-14191650D02*
X16098420Y-14201174D01*
X16098420Y-14201174D02*
X16107944Y-14210698D01*
X16107944Y-14210698D02*
X16117468Y-14229746D01*
X16117468Y-14229746D02*
X16117468Y-14286888D01*
X16117468Y-14286888D02*
X16107944Y-14305936D01*
X16107944Y-14305936D02*
X16098420Y-14315460D01*
X16098420Y-14315460D02*
X16079373Y-14324984D01*
X16079373Y-14324984D02*
X16041277Y-14324984D01*
X16041277Y-14324984D02*
X16022230Y-14315460D01*
X16231753Y-14324984D02*
X16212706Y-14315460D01*
X16212706Y-14315460D02*
X16203182Y-14296412D01*
X16203182Y-14296412D02*
X16203182Y-14124984D01*
X16393658Y-14324984D02*
X16393658Y-14220222D01*
X16393658Y-14220222D02*
X16384134Y-14201174D01*
X16384134Y-14201174D02*
X16365087Y-14191650D01*
X16365087Y-14191650D02*
X16326992Y-14191650D01*
X16326992Y-14191650D02*
X16307944Y-14201174D01*
X16393658Y-14315460D02*
X16374611Y-14324984D01*
X16374611Y-14324984D02*
X16326992Y-14324984D01*
X16326992Y-14324984D02*
X16307944Y-14315460D01*
X16307944Y-14315460D02*
X16298420Y-14296412D01*
X16298420Y-14296412D02*
X16298420Y-14277365D01*
X16298420Y-14277365D02*
X16307944Y-14258317D01*
X16307944Y-14258317D02*
X16326992Y-14248793D01*
X16326992Y-14248793D02*
X16374611Y-14248793D01*
X16374611Y-14248793D02*
X16393658Y-14239269D01*
X16460325Y-14191650D02*
X16536515Y-14191650D01*
X16488896Y-14124984D02*
X16488896Y-14296412D01*
X16488896Y-14296412D02*
X16498420Y-14315460D01*
X16498420Y-14315460D02*
X16517468Y-14324984D01*
X16517468Y-14324984D02*
X16536515Y-14324984D01*
X16679373Y-14315460D02*
X16660325Y-14324984D01*
X16660325Y-14324984D02*
X16622230Y-14324984D01*
X16622230Y-14324984D02*
X16603182Y-14315460D01*
X16603182Y-14315460D02*
X16593658Y-14296412D01*
X16593658Y-14296412D02*
X16593658Y-14220222D01*
X16593658Y-14220222D02*
X16603182Y-14201174D01*
X16603182Y-14201174D02*
X16622230Y-14191650D01*
X16622230Y-14191650D02*
X16660325Y-14191650D01*
X16660325Y-14191650D02*
X16679373Y-14201174D01*
X16679373Y-14201174D02*
X16688896Y-14220222D01*
X16688896Y-14220222D02*
X16688896Y-14239269D01*
X16688896Y-14239269D02*
X16593658Y-14258317D01*
X16860325Y-14324984D02*
X16860325Y-14124984D01*
X16860325Y-14315460D02*
X16841277Y-14324984D01*
X16841277Y-14324984D02*
X16803182Y-14324984D01*
X16803182Y-14324984D02*
X16784135Y-14315460D01*
X16784135Y-14315460D02*
X16774611Y-14305936D01*
X16774611Y-14305936D02*
X16765087Y-14286888D01*
X16765087Y-14286888D02*
X16765087Y-14229746D01*
X16765087Y-14229746D02*
X16774611Y-14210698D01*
X16774611Y-14210698D02*
X16784135Y-14201174D01*
X16784135Y-14201174D02*
X16803182Y-14191650D01*
X16803182Y-14191650D02*
X16841277Y-14191650D01*
X16841277Y-14191650D02*
X16860325Y-14201174D01*
X16936516Y-14401174D02*
X16946039Y-14391650D01*
X16946039Y-14391650D02*
X16965087Y-14363079D01*
X16965087Y-14363079D02*
X16974611Y-14344031D01*
X16974611Y-14344031D02*
X16984135Y-14315460D01*
X16984135Y-14315460D02*
X16993658Y-14267841D01*
X16993658Y-14267841D02*
X16993658Y-14229746D01*
X16993658Y-14229746D02*
X16984135Y-14182127D01*
X16984135Y-14182127D02*
X16974611Y-14153555D01*
X16974611Y-14153555D02*
X16965087Y-14134508D01*
X16965087Y-14134508D02*
X16946039Y-14105936D01*
X16946039Y-14105936D02*
X16936516Y-14096412D01*
D14*
X10093000Y-14416000D02*
X10093000Y-14591000D01*
X10005500Y-14503500D02*
X10180500Y-14503500D01*
D11*
X10546039Y-14594984D02*
X10431753Y-14594984D01*
X10488896Y-14594984D02*
X10488896Y-14394984D01*
X10488896Y-14394984D02*
X10469848Y-14423555D01*
X10469848Y-14423555D02*
X10450801Y-14442603D01*
X10450801Y-14442603D02*
X10431753Y-14452127D01*
X10631753Y-14575936D02*
X10641277Y-14585460D01*
X10641277Y-14585460D02*
X10631753Y-14594984D01*
X10631753Y-14594984D02*
X10622229Y-14585460D01*
X10622229Y-14585460D02*
X10631753Y-14575936D01*
X10631753Y-14575936D02*
X10631753Y-14594984D01*
X10707944Y-14394984D02*
X10841277Y-14394984D01*
X10841277Y-14394984D02*
X10755563Y-14594984D01*
X11012705Y-14394984D02*
X10917467Y-14394984D01*
X10917467Y-14394984D02*
X10907944Y-14490222D01*
X10907944Y-14490222D02*
X10917467Y-14480698D01*
X10917467Y-14480698D02*
X10936515Y-14471174D01*
X10936515Y-14471174D02*
X10984134Y-14471174D01*
X10984134Y-14471174D02*
X11003182Y-14480698D01*
X11003182Y-14480698D02*
X11012705Y-14490222D01*
X11012705Y-14490222D02*
X11022229Y-14509269D01*
X11022229Y-14509269D02*
X11022229Y-14556888D01*
X11022229Y-14556888D02*
X11012705Y-14575936D01*
X11012705Y-14575936D02*
X11003182Y-14585460D01*
X11003182Y-14585460D02*
X10984134Y-14594984D01*
X10984134Y-14594984D02*
X10936515Y-14594984D01*
X10936515Y-14594984D02*
X10917467Y-14585460D01*
X10917467Y-14585460D02*
X10907944Y-14575936D01*
X11146039Y-14394984D02*
X11165086Y-14394984D01*
X11165086Y-14394984D02*
X11184134Y-14404508D01*
X11184134Y-14404508D02*
X11193658Y-14414031D01*
X11193658Y-14414031D02*
X11203182Y-14433079D01*
X11203182Y-14433079D02*
X11212705Y-14471174D01*
X11212705Y-14471174D02*
X11212705Y-14518793D01*
X11212705Y-14518793D02*
X11203182Y-14556888D01*
X11203182Y-14556888D02*
X11193658Y-14575936D01*
X11193658Y-14575936D02*
X11184134Y-14585460D01*
X11184134Y-14585460D02*
X11165086Y-14594984D01*
X11165086Y-14594984D02*
X11146039Y-14594984D01*
X11146039Y-14594984D02*
X11126991Y-14585460D01*
X11126991Y-14585460D02*
X11117467Y-14575936D01*
X11117467Y-14575936D02*
X11107944Y-14556888D01*
X11107944Y-14556888D02*
X11098420Y-14518793D01*
X11098420Y-14518793D02*
X11098420Y-14471174D01*
X11098420Y-14471174D02*
X11107944Y-14433079D01*
X11107944Y-14433079D02*
X11117467Y-14414031D01*
X11117467Y-14414031D02*
X11126991Y-14404508D01*
X11126991Y-14404508D02*
X11146039Y-14394984D01*
X11298420Y-14594984D02*
X11298420Y-14461650D01*
X11298420Y-14480698D02*
X11307943Y-14471174D01*
X11307943Y-14471174D02*
X11326991Y-14461650D01*
X11326991Y-14461650D02*
X11355563Y-14461650D01*
X11355563Y-14461650D02*
X11374610Y-14471174D01*
X11374610Y-14471174D02*
X11384134Y-14490222D01*
X11384134Y-14490222D02*
X11384134Y-14594984D01*
X11384134Y-14490222D02*
X11393658Y-14471174D01*
X11393658Y-14471174D02*
X11412705Y-14461650D01*
X11412705Y-14461650D02*
X11441277Y-14461650D01*
X11441277Y-14461650D02*
X11460324Y-14471174D01*
X11460324Y-14471174D02*
X11469848Y-14490222D01*
X11469848Y-14490222D02*
X11469848Y-14594984D01*
X11565086Y-14594984D02*
X11565086Y-14461650D01*
X11565086Y-14480698D02*
X11574610Y-14471174D01*
X11574610Y-14471174D02*
X11593658Y-14461650D01*
X11593658Y-14461650D02*
X11622229Y-14461650D01*
X11622229Y-14461650D02*
X11641277Y-14471174D01*
X11641277Y-14471174D02*
X11650801Y-14490222D01*
X11650801Y-14490222D02*
X11650801Y-14594984D01*
X11650801Y-14490222D02*
X11660324Y-14471174D01*
X11660324Y-14471174D02*
X11679372Y-14461650D01*
X11679372Y-14461650D02*
X11707943Y-14461650D01*
X11707943Y-14461650D02*
X11726991Y-14471174D01*
X11726991Y-14471174D02*
X11736515Y-14490222D01*
X11736515Y-14490222D02*
X11736515Y-14594984D01*
X12126991Y-14385460D02*
X11955563Y-14642603D01*
X12384134Y-14394984D02*
X12403182Y-14394984D01*
X12403182Y-14394984D02*
X12422229Y-14404508D01*
X12422229Y-14404508D02*
X12431753Y-14414031D01*
X12431753Y-14414031D02*
X12441277Y-14433079D01*
X12441277Y-14433079D02*
X12450801Y-14471174D01*
X12450801Y-14471174D02*
X12450801Y-14518793D01*
X12450801Y-14518793D02*
X12441277Y-14556888D01*
X12441277Y-14556888D02*
X12431753Y-14575936D01*
X12431753Y-14575936D02*
X12422229Y-14585460D01*
X12422229Y-14585460D02*
X12403182Y-14594984D01*
X12403182Y-14594984D02*
X12384134Y-14594984D01*
X12384134Y-14594984D02*
X12365086Y-14585460D01*
X12365086Y-14585460D02*
X12355563Y-14575936D01*
X12355563Y-14575936D02*
X12346039Y-14556888D01*
X12346039Y-14556888D02*
X12336515Y-14518793D01*
X12336515Y-14518793D02*
X12336515Y-14471174D01*
X12336515Y-14471174D02*
X12346039Y-14433079D01*
X12346039Y-14433079D02*
X12355563Y-14414031D01*
X12355563Y-14414031D02*
X12365086Y-14404508D01*
X12365086Y-14404508D02*
X12384134Y-14394984D01*
X12536515Y-14575936D02*
X12546039Y-14585460D01*
X12546039Y-14585460D02*
X12536515Y-14594984D01*
X12536515Y-14594984D02*
X12526991Y-14585460D01*
X12526991Y-14585460D02*
X12536515Y-14575936D01*
X12536515Y-14575936D02*
X12536515Y-14594984D01*
X12669848Y-14394984D02*
X12688896Y-14394984D01*
X12688896Y-14394984D02*
X12707944Y-14404508D01*
X12707944Y-14404508D02*
X12717467Y-14414031D01*
X12717467Y-14414031D02*
X12726991Y-14433079D01*
X12726991Y-14433079D02*
X12736515Y-14471174D01*
X12736515Y-14471174D02*
X12736515Y-14518793D01*
X12736515Y-14518793D02*
X12726991Y-14556888D01*
X12726991Y-14556888D02*
X12717467Y-14575936D01*
X12717467Y-14575936D02*
X12707944Y-14585460D01*
X12707944Y-14585460D02*
X12688896Y-14594984D01*
X12688896Y-14594984D02*
X12669848Y-14594984D01*
X12669848Y-14594984D02*
X12650801Y-14585460D01*
X12650801Y-14585460D02*
X12641277Y-14575936D01*
X12641277Y-14575936D02*
X12631753Y-14556888D01*
X12631753Y-14556888D02*
X12622229Y-14518793D01*
X12622229Y-14518793D02*
X12622229Y-14471174D01*
X12622229Y-14471174D02*
X12631753Y-14433079D01*
X12631753Y-14433079D02*
X12641277Y-14414031D01*
X12641277Y-14414031D02*
X12650801Y-14404508D01*
X12650801Y-14404508D02*
X12669848Y-14394984D01*
X12907944Y-14394984D02*
X12869848Y-14394984D01*
X12869848Y-14394984D02*
X12850801Y-14404508D01*
X12850801Y-14404508D02*
X12841277Y-14414031D01*
X12841277Y-14414031D02*
X12822229Y-14442603D01*
X12822229Y-14442603D02*
X12812706Y-14480698D01*
X12812706Y-14480698D02*
X12812706Y-14556888D01*
X12812706Y-14556888D02*
X12822229Y-14575936D01*
X12822229Y-14575936D02*
X12831753Y-14585460D01*
X12831753Y-14585460D02*
X12850801Y-14594984D01*
X12850801Y-14594984D02*
X12888896Y-14594984D01*
X12888896Y-14594984D02*
X12907944Y-14585460D01*
X12907944Y-14585460D02*
X12917467Y-14575936D01*
X12917467Y-14575936D02*
X12926991Y-14556888D01*
X12926991Y-14556888D02*
X12926991Y-14509269D01*
X12926991Y-14509269D02*
X12917467Y-14490222D01*
X12917467Y-14490222D02*
X12907944Y-14480698D01*
X12907944Y-14480698D02*
X12888896Y-14471174D01*
X12888896Y-14471174D02*
X12850801Y-14471174D01*
X12850801Y-14471174D02*
X12831753Y-14480698D01*
X12831753Y-14480698D02*
X12822229Y-14490222D01*
X12822229Y-14490222D02*
X12812706Y-14509269D01*
X13041277Y-14480698D02*
X13022229Y-14471174D01*
X13022229Y-14471174D02*
X13012706Y-14461650D01*
X13012706Y-14461650D02*
X13003182Y-14442603D01*
X13003182Y-14442603D02*
X13003182Y-14433079D01*
X13003182Y-14433079D02*
X13012706Y-14414031D01*
X13012706Y-14414031D02*
X13022229Y-14404508D01*
X13022229Y-14404508D02*
X13041277Y-14394984D01*
X13041277Y-14394984D02*
X13079372Y-14394984D01*
X13079372Y-14394984D02*
X13098420Y-14404508D01*
X13098420Y-14404508D02*
X13107944Y-14414031D01*
X13107944Y-14414031D02*
X13117467Y-14433079D01*
X13117467Y-14433079D02*
X13117467Y-14442603D01*
X13117467Y-14442603D02*
X13107944Y-14461650D01*
X13107944Y-14461650D02*
X13098420Y-14471174D01*
X13098420Y-14471174D02*
X13079372Y-14480698D01*
X13079372Y-14480698D02*
X13041277Y-14480698D01*
X13041277Y-14480698D02*
X13022229Y-14490222D01*
X13022229Y-14490222D02*
X13012706Y-14499746D01*
X13012706Y-14499746D02*
X13003182Y-14518793D01*
X13003182Y-14518793D02*
X13003182Y-14556888D01*
X13003182Y-14556888D02*
X13012706Y-14575936D01*
X13012706Y-14575936D02*
X13022229Y-14585460D01*
X13022229Y-14585460D02*
X13041277Y-14594984D01*
X13041277Y-14594984D02*
X13079372Y-14594984D01*
X13079372Y-14594984D02*
X13098420Y-14585460D01*
X13098420Y-14585460D02*
X13107944Y-14575936D01*
X13107944Y-14575936D02*
X13117467Y-14556888D01*
X13117467Y-14556888D02*
X13117467Y-14518793D01*
X13117467Y-14518793D02*
X13107944Y-14499746D01*
X13107944Y-14499746D02*
X13098420Y-14490222D01*
X13098420Y-14490222D02*
X13079372Y-14480698D01*
X13212706Y-14594984D02*
X13250801Y-14594984D01*
X13250801Y-14594984D02*
X13269848Y-14585460D01*
X13269848Y-14585460D02*
X13279372Y-14575936D01*
X13279372Y-14575936D02*
X13298420Y-14547365D01*
X13298420Y-14547365D02*
X13307944Y-14509269D01*
X13307944Y-14509269D02*
X13307944Y-14433079D01*
X13307944Y-14433079D02*
X13298420Y-14414031D01*
X13298420Y-14414031D02*
X13288896Y-14404508D01*
X13288896Y-14404508D02*
X13269848Y-14394984D01*
X13269848Y-14394984D02*
X13231753Y-14394984D01*
X13231753Y-14394984D02*
X13212706Y-14404508D01*
X13212706Y-14404508D02*
X13203182Y-14414031D01*
X13203182Y-14414031D02*
X13193658Y-14433079D01*
X13193658Y-14433079D02*
X13193658Y-14480698D01*
X13193658Y-14480698D02*
X13203182Y-14499746D01*
X13203182Y-14499746D02*
X13212706Y-14509269D01*
X13212706Y-14509269D02*
X13231753Y-14518793D01*
X13231753Y-14518793D02*
X13269848Y-14518793D01*
X13269848Y-14518793D02*
X13288896Y-14509269D01*
X13288896Y-14509269D02*
X13298420Y-14499746D01*
X13298420Y-14499746D02*
X13307944Y-14480698D01*
X13384134Y-14394984D02*
X13384134Y-14433079D01*
X13460325Y-14394984D02*
X13460325Y-14433079D01*
X13755563Y-14671174D02*
X13746039Y-14661650D01*
X13746039Y-14661650D02*
X13726991Y-14633079D01*
X13726991Y-14633079D02*
X13717468Y-14614031D01*
X13717468Y-14614031D02*
X13707944Y-14585460D01*
X13707944Y-14585460D02*
X13698420Y-14537841D01*
X13698420Y-14537841D02*
X13698420Y-14499746D01*
X13698420Y-14499746D02*
X13707944Y-14452127D01*
X13707944Y-14452127D02*
X13717468Y-14423555D01*
X13717468Y-14423555D02*
X13726991Y-14404508D01*
X13726991Y-14404508D02*
X13746039Y-14375936D01*
X13746039Y-14375936D02*
X13755563Y-14366412D01*
X13812706Y-14394984D02*
X13936515Y-14394984D01*
X13936515Y-14394984D02*
X13869848Y-14471174D01*
X13869848Y-14471174D02*
X13898420Y-14471174D01*
X13898420Y-14471174D02*
X13917468Y-14480698D01*
X13917468Y-14480698D02*
X13926991Y-14490222D01*
X13926991Y-14490222D02*
X13936515Y-14509269D01*
X13936515Y-14509269D02*
X13936515Y-14556888D01*
X13936515Y-14556888D02*
X13926991Y-14575936D01*
X13926991Y-14575936D02*
X13917468Y-14585460D01*
X13917468Y-14585460D02*
X13898420Y-14594984D01*
X13898420Y-14594984D02*
X13841277Y-14594984D01*
X13841277Y-14594984D02*
X13822229Y-14585460D01*
X13822229Y-14585460D02*
X13812706Y-14575936D01*
X14107944Y-14394984D02*
X14069848Y-14394984D01*
X14069848Y-14394984D02*
X14050801Y-14404508D01*
X14050801Y-14404508D02*
X14041277Y-14414031D01*
X14041277Y-14414031D02*
X14022229Y-14442603D01*
X14022229Y-14442603D02*
X14012706Y-14480698D01*
X14012706Y-14480698D02*
X14012706Y-14556888D01*
X14012706Y-14556888D02*
X14022229Y-14575936D01*
X14022229Y-14575936D02*
X14031753Y-14585460D01*
X14031753Y-14585460D02*
X14050801Y-14594984D01*
X14050801Y-14594984D02*
X14088896Y-14594984D01*
X14088896Y-14594984D02*
X14107944Y-14585460D01*
X14107944Y-14585460D02*
X14117468Y-14575936D01*
X14117468Y-14575936D02*
X14126991Y-14556888D01*
X14126991Y-14556888D02*
X14126991Y-14509269D01*
X14126991Y-14509269D02*
X14117468Y-14490222D01*
X14117468Y-14490222D02*
X14107944Y-14480698D01*
X14107944Y-14480698D02*
X14088896Y-14471174D01*
X14088896Y-14471174D02*
X14050801Y-14471174D01*
X14050801Y-14471174D02*
X14031753Y-14480698D01*
X14031753Y-14480698D02*
X14022229Y-14490222D01*
X14022229Y-14490222D02*
X14012706Y-14509269D01*
X14365087Y-14594984D02*
X14365087Y-14394984D01*
X14450801Y-14594984D02*
X14450801Y-14490222D01*
X14450801Y-14490222D02*
X14441277Y-14471174D01*
X14441277Y-14471174D02*
X14422230Y-14461650D01*
X14422230Y-14461650D02*
X14393658Y-14461650D01*
X14393658Y-14461650D02*
X14374610Y-14471174D01*
X14374610Y-14471174D02*
X14365087Y-14480698D01*
X14574610Y-14594984D02*
X14555563Y-14585460D01*
X14555563Y-14585460D02*
X14546039Y-14575936D01*
X14546039Y-14575936D02*
X14536515Y-14556888D01*
X14536515Y-14556888D02*
X14536515Y-14499746D01*
X14536515Y-14499746D02*
X14546039Y-14480698D01*
X14546039Y-14480698D02*
X14555563Y-14471174D01*
X14555563Y-14471174D02*
X14574610Y-14461650D01*
X14574610Y-14461650D02*
X14603182Y-14461650D01*
X14603182Y-14461650D02*
X14622230Y-14471174D01*
X14622230Y-14471174D02*
X14631753Y-14480698D01*
X14631753Y-14480698D02*
X14641277Y-14499746D01*
X14641277Y-14499746D02*
X14641277Y-14556888D01*
X14641277Y-14556888D02*
X14631753Y-14575936D01*
X14631753Y-14575936D02*
X14622230Y-14585460D01*
X14622230Y-14585460D02*
X14603182Y-14594984D01*
X14603182Y-14594984D02*
X14574610Y-14594984D01*
X14755563Y-14594984D02*
X14736515Y-14585460D01*
X14736515Y-14585460D02*
X14726991Y-14566412D01*
X14726991Y-14566412D02*
X14726991Y-14394984D01*
X14907944Y-14585460D02*
X14888896Y-14594984D01*
X14888896Y-14594984D02*
X14850801Y-14594984D01*
X14850801Y-14594984D02*
X14831753Y-14585460D01*
X14831753Y-14585460D02*
X14822230Y-14566412D01*
X14822230Y-14566412D02*
X14822230Y-14490222D01*
X14822230Y-14490222D02*
X14831753Y-14471174D01*
X14831753Y-14471174D02*
X14850801Y-14461650D01*
X14850801Y-14461650D02*
X14888896Y-14461650D01*
X14888896Y-14461650D02*
X14907944Y-14471174D01*
X14907944Y-14471174D02*
X14917468Y-14490222D01*
X14917468Y-14490222D02*
X14917468Y-14509269D01*
X14917468Y-14509269D02*
X14822230Y-14528317D01*
X14993658Y-14585460D02*
X15012706Y-14594984D01*
X15012706Y-14594984D02*
X15050801Y-14594984D01*
X15050801Y-14594984D02*
X15069849Y-14585460D01*
X15069849Y-14585460D02*
X15079372Y-14566412D01*
X15079372Y-14566412D02*
X15079372Y-14556888D01*
X15079372Y-14556888D02*
X15069849Y-14537841D01*
X15069849Y-14537841D02*
X15050801Y-14528317D01*
X15050801Y-14528317D02*
X15022230Y-14528317D01*
X15022230Y-14528317D02*
X15003182Y-14518793D01*
X15003182Y-14518793D02*
X14993658Y-14499746D01*
X14993658Y-14499746D02*
X14993658Y-14490222D01*
X14993658Y-14490222D02*
X15003182Y-14471174D01*
X15003182Y-14471174D02*
X15022230Y-14461650D01*
X15022230Y-14461650D02*
X15050801Y-14461650D01*
X15050801Y-14461650D02*
X15069849Y-14471174D01*
X15146039Y-14671174D02*
X15155563Y-14661650D01*
X15155563Y-14661650D02*
X15174611Y-14633079D01*
X15174611Y-14633079D02*
X15184134Y-14614031D01*
X15184134Y-14614031D02*
X15193658Y-14585460D01*
X15193658Y-14585460D02*
X15203182Y-14537841D01*
X15203182Y-14537841D02*
X15203182Y-14499746D01*
X15203182Y-14499746D02*
X15193658Y-14452127D01*
X15193658Y-14452127D02*
X15184134Y-14423555D01*
X15184134Y-14423555D02*
X15174611Y-14404508D01*
X15174611Y-14404508D02*
X15155563Y-14375936D01*
X15155563Y-14375936D02*
X15146039Y-14366412D01*
X15507944Y-14671174D02*
X15498420Y-14661650D01*
X15498420Y-14661650D02*
X15479372Y-14633079D01*
X15479372Y-14633079D02*
X15469849Y-14614031D01*
X15469849Y-14614031D02*
X15460325Y-14585460D01*
X15460325Y-14585460D02*
X15450801Y-14537841D01*
X15450801Y-14537841D02*
X15450801Y-14499746D01*
X15450801Y-14499746D02*
X15460325Y-14452127D01*
X15460325Y-14452127D02*
X15469849Y-14423555D01*
X15469849Y-14423555D02*
X15479372Y-14404508D01*
X15479372Y-14404508D02*
X15498420Y-14375936D01*
X15498420Y-14375936D02*
X15507944Y-14366412D01*
X15584134Y-14461650D02*
X15584134Y-14594984D01*
X15584134Y-14480698D02*
X15593658Y-14471174D01*
X15593658Y-14471174D02*
X15612706Y-14461650D01*
X15612706Y-14461650D02*
X15641277Y-14461650D01*
X15641277Y-14461650D02*
X15660325Y-14471174D01*
X15660325Y-14471174D02*
X15669849Y-14490222D01*
X15669849Y-14490222D02*
X15669849Y-14594984D01*
X15793658Y-14594984D02*
X15774611Y-14585460D01*
X15774611Y-14585460D02*
X15765087Y-14575936D01*
X15765087Y-14575936D02*
X15755563Y-14556888D01*
X15755563Y-14556888D02*
X15755563Y-14499746D01*
X15755563Y-14499746D02*
X15765087Y-14480698D01*
X15765087Y-14480698D02*
X15774611Y-14471174D01*
X15774611Y-14471174D02*
X15793658Y-14461650D01*
X15793658Y-14461650D02*
X15822230Y-14461650D01*
X15822230Y-14461650D02*
X15841277Y-14471174D01*
X15841277Y-14471174D02*
X15850801Y-14480698D01*
X15850801Y-14480698D02*
X15860325Y-14499746D01*
X15860325Y-14499746D02*
X15860325Y-14556888D01*
X15860325Y-14556888D02*
X15850801Y-14575936D01*
X15850801Y-14575936D02*
X15841277Y-14585460D01*
X15841277Y-14585460D02*
X15822230Y-14594984D01*
X15822230Y-14594984D02*
X15793658Y-14594984D01*
X15917468Y-14461650D02*
X15993658Y-14461650D01*
X15946039Y-14394984D02*
X15946039Y-14566412D01*
X15946039Y-14566412D02*
X15955563Y-14585460D01*
X15955563Y-14585460D02*
X15974611Y-14594984D01*
X15974611Y-14594984D02*
X15993658Y-14594984D01*
X16212706Y-14461650D02*
X16212706Y-14661650D01*
X16212706Y-14471174D02*
X16231753Y-14461650D01*
X16231753Y-14461650D02*
X16269849Y-14461650D01*
X16269849Y-14461650D02*
X16288896Y-14471174D01*
X16288896Y-14471174D02*
X16298420Y-14480698D01*
X16298420Y-14480698D02*
X16307944Y-14499746D01*
X16307944Y-14499746D02*
X16307944Y-14556888D01*
X16307944Y-14556888D02*
X16298420Y-14575936D01*
X16298420Y-14575936D02*
X16288896Y-14585460D01*
X16288896Y-14585460D02*
X16269849Y-14594984D01*
X16269849Y-14594984D02*
X16231753Y-14594984D01*
X16231753Y-14594984D02*
X16212706Y-14585460D01*
X16422230Y-14594984D02*
X16403182Y-14585460D01*
X16403182Y-14585460D02*
X16393658Y-14566412D01*
X16393658Y-14566412D02*
X16393658Y-14394984D01*
X16584134Y-14594984D02*
X16584134Y-14490222D01*
X16584134Y-14490222D02*
X16574611Y-14471174D01*
X16574611Y-14471174D02*
X16555563Y-14461650D01*
X16555563Y-14461650D02*
X16517468Y-14461650D01*
X16517468Y-14461650D02*
X16498420Y-14471174D01*
X16584134Y-14585460D02*
X16565087Y-14594984D01*
X16565087Y-14594984D02*
X16517468Y-14594984D01*
X16517468Y-14594984D02*
X16498420Y-14585460D01*
X16498420Y-14585460D02*
X16488896Y-14566412D01*
X16488896Y-14566412D02*
X16488896Y-14547365D01*
X16488896Y-14547365D02*
X16498420Y-14528317D01*
X16498420Y-14528317D02*
X16517468Y-14518793D01*
X16517468Y-14518793D02*
X16565087Y-14518793D01*
X16565087Y-14518793D02*
X16584134Y-14509269D01*
X16650801Y-14461650D02*
X16726992Y-14461650D01*
X16679373Y-14394984D02*
X16679373Y-14566412D01*
X16679373Y-14566412D02*
X16688896Y-14585460D01*
X16688896Y-14585460D02*
X16707944Y-14594984D01*
X16707944Y-14594984D02*
X16726992Y-14594984D01*
X16869849Y-14585460D02*
X16850801Y-14594984D01*
X16850801Y-14594984D02*
X16812706Y-14594984D01*
X16812706Y-14594984D02*
X16793658Y-14585460D01*
X16793658Y-14585460D02*
X16784135Y-14566412D01*
X16784135Y-14566412D02*
X16784135Y-14490222D01*
X16784135Y-14490222D02*
X16793658Y-14471174D01*
X16793658Y-14471174D02*
X16812706Y-14461650D01*
X16812706Y-14461650D02*
X16850801Y-14461650D01*
X16850801Y-14461650D02*
X16869849Y-14471174D01*
X16869849Y-14471174D02*
X16879373Y-14490222D01*
X16879373Y-14490222D02*
X16879373Y-14509269D01*
X16879373Y-14509269D02*
X16784135Y-14528317D01*
X17050801Y-14594984D02*
X17050801Y-14394984D01*
X17050801Y-14585460D02*
X17031754Y-14594984D01*
X17031754Y-14594984D02*
X16993658Y-14594984D01*
X16993658Y-14594984D02*
X16974611Y-14585460D01*
X16974611Y-14585460D02*
X16965087Y-14575936D01*
X16965087Y-14575936D02*
X16955563Y-14556888D01*
X16955563Y-14556888D02*
X16955563Y-14499746D01*
X16955563Y-14499746D02*
X16965087Y-14480698D01*
X16965087Y-14480698D02*
X16974611Y-14471174D01*
X16974611Y-14471174D02*
X16993658Y-14461650D01*
X16993658Y-14461650D02*
X17031754Y-14461650D01*
X17031754Y-14461650D02*
X17050801Y-14471174D01*
X17126992Y-14671174D02*
X17136516Y-14661650D01*
X17136516Y-14661650D02*
X17155563Y-14633079D01*
X17155563Y-14633079D02*
X17165087Y-14614031D01*
X17165087Y-14614031D02*
X17174611Y-14585460D01*
X17174611Y-14585460D02*
X17184135Y-14537841D01*
X17184135Y-14537841D02*
X17184135Y-14499746D01*
X17184135Y-14499746D02*
X17174611Y-14452127D01*
X17174611Y-14452127D02*
X17165087Y-14423555D01*
X17165087Y-14423555D02*
X17155563Y-14404508D01*
X17155563Y-14404508D02*
X17136516Y-14375936D01*
X17136516Y-14375936D02*
X17126992Y-14366412D01*
D15*
X10154140Y-14862140D02*
X10154140Y-14734860D01*
X10026860Y-14734860D01*
X10026860Y-14862140D01*
X10154140Y-14862140D01*
D11*
X10546039Y-14889984D02*
X10431753Y-14889984D01*
X10488896Y-14889984D02*
X10488896Y-14689984D01*
X10488896Y-14689984D02*
X10469848Y-14718555D01*
X10469848Y-14718555D02*
X10450801Y-14737603D01*
X10450801Y-14737603D02*
X10431753Y-14747127D01*
X10631753Y-14870936D02*
X10641277Y-14880460D01*
X10641277Y-14880460D02*
X10631753Y-14889984D01*
X10631753Y-14889984D02*
X10622229Y-14880460D01*
X10622229Y-14880460D02*
X10631753Y-14870936D01*
X10631753Y-14870936D02*
X10631753Y-14889984D01*
X10755563Y-14775698D02*
X10736515Y-14766174D01*
X10736515Y-14766174D02*
X10726991Y-14756650D01*
X10726991Y-14756650D02*
X10717467Y-14737603D01*
X10717467Y-14737603D02*
X10717467Y-14728079D01*
X10717467Y-14728079D02*
X10726991Y-14709031D01*
X10726991Y-14709031D02*
X10736515Y-14699508D01*
X10736515Y-14699508D02*
X10755563Y-14689984D01*
X10755563Y-14689984D02*
X10793658Y-14689984D01*
X10793658Y-14689984D02*
X10812705Y-14699508D01*
X10812705Y-14699508D02*
X10822229Y-14709031D01*
X10822229Y-14709031D02*
X10831753Y-14728079D01*
X10831753Y-14728079D02*
X10831753Y-14737603D01*
X10831753Y-14737603D02*
X10822229Y-14756650D01*
X10822229Y-14756650D02*
X10812705Y-14766174D01*
X10812705Y-14766174D02*
X10793658Y-14775698D01*
X10793658Y-14775698D02*
X10755563Y-14775698D01*
X10755563Y-14775698D02*
X10736515Y-14785222D01*
X10736515Y-14785222D02*
X10726991Y-14794746D01*
X10726991Y-14794746D02*
X10717467Y-14813793D01*
X10717467Y-14813793D02*
X10717467Y-14851888D01*
X10717467Y-14851888D02*
X10726991Y-14870936D01*
X10726991Y-14870936D02*
X10736515Y-14880460D01*
X10736515Y-14880460D02*
X10755563Y-14889984D01*
X10755563Y-14889984D02*
X10793658Y-14889984D01*
X10793658Y-14889984D02*
X10812705Y-14880460D01*
X10812705Y-14880460D02*
X10822229Y-14870936D01*
X10822229Y-14870936D02*
X10831753Y-14851888D01*
X10831753Y-14851888D02*
X10831753Y-14813793D01*
X10831753Y-14813793D02*
X10822229Y-14794746D01*
X10822229Y-14794746D02*
X10812705Y-14785222D01*
X10812705Y-14785222D02*
X10793658Y-14775698D01*
X10955563Y-14689984D02*
X10974610Y-14689984D01*
X10974610Y-14689984D02*
X10993658Y-14699508D01*
X10993658Y-14699508D02*
X11003182Y-14709031D01*
X11003182Y-14709031D02*
X11012705Y-14728079D01*
X11012705Y-14728079D02*
X11022229Y-14766174D01*
X11022229Y-14766174D02*
X11022229Y-14813793D01*
X11022229Y-14813793D02*
X11012705Y-14851888D01*
X11012705Y-14851888D02*
X11003182Y-14870936D01*
X11003182Y-14870936D02*
X10993658Y-14880460D01*
X10993658Y-14880460D02*
X10974610Y-14889984D01*
X10974610Y-14889984D02*
X10955563Y-14889984D01*
X10955563Y-14889984D02*
X10936515Y-14880460D01*
X10936515Y-14880460D02*
X10926991Y-14870936D01*
X10926991Y-14870936D02*
X10917467Y-14851888D01*
X10917467Y-14851888D02*
X10907944Y-14813793D01*
X10907944Y-14813793D02*
X10907944Y-14766174D01*
X10907944Y-14766174D02*
X10917467Y-14728079D01*
X10917467Y-14728079D02*
X10926991Y-14709031D01*
X10926991Y-14709031D02*
X10936515Y-14699508D01*
X10936515Y-14699508D02*
X10955563Y-14689984D01*
X11146039Y-14689984D02*
X11165086Y-14689984D01*
X11165086Y-14689984D02*
X11184134Y-14699508D01*
X11184134Y-14699508D02*
X11193658Y-14709031D01*
X11193658Y-14709031D02*
X11203182Y-14728079D01*
X11203182Y-14728079D02*
X11212705Y-14766174D01*
X11212705Y-14766174D02*
X11212705Y-14813793D01*
X11212705Y-14813793D02*
X11203182Y-14851888D01*
X11203182Y-14851888D02*
X11193658Y-14870936D01*
X11193658Y-14870936D02*
X11184134Y-14880460D01*
X11184134Y-14880460D02*
X11165086Y-14889984D01*
X11165086Y-14889984D02*
X11146039Y-14889984D01*
X11146039Y-14889984D02*
X11126991Y-14880460D01*
X11126991Y-14880460D02*
X11117467Y-14870936D01*
X11117467Y-14870936D02*
X11107944Y-14851888D01*
X11107944Y-14851888D02*
X11098420Y-14813793D01*
X11098420Y-14813793D02*
X11098420Y-14766174D01*
X11098420Y-14766174D02*
X11107944Y-14728079D01*
X11107944Y-14728079D02*
X11117467Y-14709031D01*
X11117467Y-14709031D02*
X11126991Y-14699508D01*
X11126991Y-14699508D02*
X11146039Y-14689984D01*
X11298420Y-14889984D02*
X11298420Y-14756650D01*
X11298420Y-14775698D02*
X11307943Y-14766174D01*
X11307943Y-14766174D02*
X11326991Y-14756650D01*
X11326991Y-14756650D02*
X11355563Y-14756650D01*
X11355563Y-14756650D02*
X11374610Y-14766174D01*
X11374610Y-14766174D02*
X11384134Y-14785222D01*
X11384134Y-14785222D02*
X11384134Y-14889984D01*
X11384134Y-14785222D02*
X11393658Y-14766174D01*
X11393658Y-14766174D02*
X11412705Y-14756650D01*
X11412705Y-14756650D02*
X11441277Y-14756650D01*
X11441277Y-14756650D02*
X11460324Y-14766174D01*
X11460324Y-14766174D02*
X11469848Y-14785222D01*
X11469848Y-14785222D02*
X11469848Y-14889984D01*
X11565086Y-14889984D02*
X11565086Y-14756650D01*
X11565086Y-14775698D02*
X11574610Y-14766174D01*
X11574610Y-14766174D02*
X11593658Y-14756650D01*
X11593658Y-14756650D02*
X11622229Y-14756650D01*
X11622229Y-14756650D02*
X11641277Y-14766174D01*
X11641277Y-14766174D02*
X11650801Y-14785222D01*
X11650801Y-14785222D02*
X11650801Y-14889984D01*
X11650801Y-14785222D02*
X11660324Y-14766174D01*
X11660324Y-14766174D02*
X11679372Y-14756650D01*
X11679372Y-14756650D02*
X11707943Y-14756650D01*
X11707943Y-14756650D02*
X11726991Y-14766174D01*
X11726991Y-14766174D02*
X11736515Y-14785222D01*
X11736515Y-14785222D02*
X11736515Y-14889984D01*
X12126991Y-14680460D02*
X11955563Y-14937603D01*
X12384134Y-14689984D02*
X12403182Y-14689984D01*
X12403182Y-14689984D02*
X12422229Y-14699508D01*
X12422229Y-14699508D02*
X12431753Y-14709031D01*
X12431753Y-14709031D02*
X12441277Y-14728079D01*
X12441277Y-14728079D02*
X12450801Y-14766174D01*
X12450801Y-14766174D02*
X12450801Y-14813793D01*
X12450801Y-14813793D02*
X12441277Y-14851888D01*
X12441277Y-14851888D02*
X12431753Y-14870936D01*
X12431753Y-14870936D02*
X12422229Y-14880460D01*
X12422229Y-14880460D02*
X12403182Y-14889984D01*
X12403182Y-14889984D02*
X12384134Y-14889984D01*
X12384134Y-14889984D02*
X12365086Y-14880460D01*
X12365086Y-14880460D02*
X12355563Y-14870936D01*
X12355563Y-14870936D02*
X12346039Y-14851888D01*
X12346039Y-14851888D02*
X12336515Y-14813793D01*
X12336515Y-14813793D02*
X12336515Y-14766174D01*
X12336515Y-14766174D02*
X12346039Y-14728079D01*
X12346039Y-14728079D02*
X12355563Y-14709031D01*
X12355563Y-14709031D02*
X12365086Y-14699508D01*
X12365086Y-14699508D02*
X12384134Y-14689984D01*
X12536515Y-14870936D02*
X12546039Y-14880460D01*
X12546039Y-14880460D02*
X12536515Y-14889984D01*
X12536515Y-14889984D02*
X12526991Y-14880460D01*
X12526991Y-14880460D02*
X12536515Y-14870936D01*
X12536515Y-14870936D02*
X12536515Y-14889984D01*
X12669848Y-14689984D02*
X12688896Y-14689984D01*
X12688896Y-14689984D02*
X12707944Y-14699508D01*
X12707944Y-14699508D02*
X12717467Y-14709031D01*
X12717467Y-14709031D02*
X12726991Y-14728079D01*
X12726991Y-14728079D02*
X12736515Y-14766174D01*
X12736515Y-14766174D02*
X12736515Y-14813793D01*
X12736515Y-14813793D02*
X12726991Y-14851888D01*
X12726991Y-14851888D02*
X12717467Y-14870936D01*
X12717467Y-14870936D02*
X12707944Y-14880460D01*
X12707944Y-14880460D02*
X12688896Y-14889984D01*
X12688896Y-14889984D02*
X12669848Y-14889984D01*
X12669848Y-14889984D02*
X12650801Y-14880460D01*
X12650801Y-14880460D02*
X12641277Y-14870936D01*
X12641277Y-14870936D02*
X12631753Y-14851888D01*
X12631753Y-14851888D02*
X12622229Y-14813793D01*
X12622229Y-14813793D02*
X12622229Y-14766174D01*
X12622229Y-14766174D02*
X12631753Y-14728079D01*
X12631753Y-14728079D02*
X12641277Y-14709031D01*
X12641277Y-14709031D02*
X12650801Y-14699508D01*
X12650801Y-14699508D02*
X12669848Y-14689984D01*
X12803182Y-14689984D02*
X12936515Y-14689984D01*
X12936515Y-14689984D02*
X12850801Y-14889984D01*
X13050801Y-14689984D02*
X13069848Y-14689984D01*
X13069848Y-14689984D02*
X13088896Y-14699508D01*
X13088896Y-14699508D02*
X13098420Y-14709031D01*
X13098420Y-14709031D02*
X13107944Y-14728079D01*
X13107944Y-14728079D02*
X13117467Y-14766174D01*
X13117467Y-14766174D02*
X13117467Y-14813793D01*
X13117467Y-14813793D02*
X13107944Y-14851888D01*
X13107944Y-14851888D02*
X13098420Y-14870936D01*
X13098420Y-14870936D02*
X13088896Y-14880460D01*
X13088896Y-14880460D02*
X13069848Y-14889984D01*
X13069848Y-14889984D02*
X13050801Y-14889984D01*
X13050801Y-14889984D02*
X13031753Y-14880460D01*
X13031753Y-14880460D02*
X13022229Y-14870936D01*
X13022229Y-14870936D02*
X13012706Y-14851888D01*
X13012706Y-14851888D02*
X13003182Y-14813793D01*
X13003182Y-14813793D02*
X13003182Y-14766174D01*
X13003182Y-14766174D02*
X13012706Y-14728079D01*
X13012706Y-14728079D02*
X13022229Y-14709031D01*
X13022229Y-14709031D02*
X13031753Y-14699508D01*
X13031753Y-14699508D02*
X13050801Y-14689984D01*
X13212706Y-14889984D02*
X13250801Y-14889984D01*
X13250801Y-14889984D02*
X13269848Y-14880460D01*
X13269848Y-14880460D02*
X13279372Y-14870936D01*
X13279372Y-14870936D02*
X13298420Y-14842365D01*
X13298420Y-14842365D02*
X13307944Y-14804269D01*
X13307944Y-14804269D02*
X13307944Y-14728079D01*
X13307944Y-14728079D02*
X13298420Y-14709031D01*
X13298420Y-14709031D02*
X13288896Y-14699508D01*
X13288896Y-14699508D02*
X13269848Y-14689984D01*
X13269848Y-14689984D02*
X13231753Y-14689984D01*
X13231753Y-14689984D02*
X13212706Y-14699508D01*
X13212706Y-14699508D02*
X13203182Y-14709031D01*
X13203182Y-14709031D02*
X13193658Y-14728079D01*
X13193658Y-14728079D02*
X13193658Y-14775698D01*
X13193658Y-14775698D02*
X13203182Y-14794746D01*
X13203182Y-14794746D02*
X13212706Y-14804269D01*
X13212706Y-14804269D02*
X13231753Y-14813793D01*
X13231753Y-14813793D02*
X13269848Y-14813793D01*
X13269848Y-14813793D02*
X13288896Y-14804269D01*
X13288896Y-14804269D02*
X13298420Y-14794746D01*
X13298420Y-14794746D02*
X13307944Y-14775698D01*
X13384134Y-14689984D02*
X13384134Y-14728079D01*
X13460325Y-14689984D02*
X13460325Y-14728079D01*
X13755563Y-14966174D02*
X13746039Y-14956650D01*
X13746039Y-14956650D02*
X13726991Y-14928079D01*
X13726991Y-14928079D02*
X13717468Y-14909031D01*
X13717468Y-14909031D02*
X13707944Y-14880460D01*
X13707944Y-14880460D02*
X13698420Y-14832841D01*
X13698420Y-14832841D02*
X13698420Y-14794746D01*
X13698420Y-14794746D02*
X13707944Y-14747127D01*
X13707944Y-14747127D02*
X13717468Y-14718555D01*
X13717468Y-14718555D02*
X13726991Y-14699508D01*
X13726991Y-14699508D02*
X13746039Y-14670936D01*
X13746039Y-14670936D02*
X13755563Y-14661412D01*
X13822229Y-14709031D02*
X13831753Y-14699508D01*
X13831753Y-14699508D02*
X13850801Y-14689984D01*
X13850801Y-14689984D02*
X13898420Y-14689984D01*
X13898420Y-14689984D02*
X13917468Y-14699508D01*
X13917468Y-14699508D02*
X13926991Y-14709031D01*
X13926991Y-14709031D02*
X13936515Y-14728079D01*
X13936515Y-14728079D02*
X13936515Y-14747127D01*
X13936515Y-14747127D02*
X13926991Y-14775698D01*
X13926991Y-14775698D02*
X13812706Y-14889984D01*
X13812706Y-14889984D02*
X13936515Y-14889984D01*
X14174610Y-14889984D02*
X14174610Y-14689984D01*
X14260325Y-14889984D02*
X14260325Y-14785222D01*
X14260325Y-14785222D02*
X14250801Y-14766174D01*
X14250801Y-14766174D02*
X14231753Y-14756650D01*
X14231753Y-14756650D02*
X14203182Y-14756650D01*
X14203182Y-14756650D02*
X14184134Y-14766174D01*
X14184134Y-14766174D02*
X14174610Y-14775698D01*
X14384134Y-14889984D02*
X14365087Y-14880460D01*
X14365087Y-14880460D02*
X14355563Y-14870936D01*
X14355563Y-14870936D02*
X14346039Y-14851888D01*
X14346039Y-14851888D02*
X14346039Y-14794746D01*
X14346039Y-14794746D02*
X14355563Y-14775698D01*
X14355563Y-14775698D02*
X14365087Y-14766174D01*
X14365087Y-14766174D02*
X14384134Y-14756650D01*
X14384134Y-14756650D02*
X14412706Y-14756650D01*
X14412706Y-14756650D02*
X14431753Y-14766174D01*
X14431753Y-14766174D02*
X14441277Y-14775698D01*
X14441277Y-14775698D02*
X14450801Y-14794746D01*
X14450801Y-14794746D02*
X14450801Y-14851888D01*
X14450801Y-14851888D02*
X14441277Y-14870936D01*
X14441277Y-14870936D02*
X14431753Y-14880460D01*
X14431753Y-14880460D02*
X14412706Y-14889984D01*
X14412706Y-14889984D02*
X14384134Y-14889984D01*
X14565087Y-14889984D02*
X14546039Y-14880460D01*
X14546039Y-14880460D02*
X14536515Y-14861412D01*
X14536515Y-14861412D02*
X14536515Y-14689984D01*
X14717468Y-14880460D02*
X14698420Y-14889984D01*
X14698420Y-14889984D02*
X14660325Y-14889984D01*
X14660325Y-14889984D02*
X14641277Y-14880460D01*
X14641277Y-14880460D02*
X14631753Y-14861412D01*
X14631753Y-14861412D02*
X14631753Y-14785222D01*
X14631753Y-14785222D02*
X14641277Y-14766174D01*
X14641277Y-14766174D02*
X14660325Y-14756650D01*
X14660325Y-14756650D02*
X14698420Y-14756650D01*
X14698420Y-14756650D02*
X14717468Y-14766174D01*
X14717468Y-14766174D02*
X14726991Y-14785222D01*
X14726991Y-14785222D02*
X14726991Y-14804269D01*
X14726991Y-14804269D02*
X14631753Y-14823317D01*
X14803182Y-14880460D02*
X14822230Y-14889984D01*
X14822230Y-14889984D02*
X14860325Y-14889984D01*
X14860325Y-14889984D02*
X14879372Y-14880460D01*
X14879372Y-14880460D02*
X14888896Y-14861412D01*
X14888896Y-14861412D02*
X14888896Y-14851888D01*
X14888896Y-14851888D02*
X14879372Y-14832841D01*
X14879372Y-14832841D02*
X14860325Y-14823317D01*
X14860325Y-14823317D02*
X14831753Y-14823317D01*
X14831753Y-14823317D02*
X14812706Y-14813793D01*
X14812706Y-14813793D02*
X14803182Y-14794746D01*
X14803182Y-14794746D02*
X14803182Y-14785222D01*
X14803182Y-14785222D02*
X14812706Y-14766174D01*
X14812706Y-14766174D02*
X14831753Y-14756650D01*
X14831753Y-14756650D02*
X14860325Y-14756650D01*
X14860325Y-14756650D02*
X14879372Y-14766174D01*
X14955563Y-14966174D02*
X14965087Y-14956650D01*
X14965087Y-14956650D02*
X14984134Y-14928079D01*
X14984134Y-14928079D02*
X14993658Y-14909031D01*
X14993658Y-14909031D02*
X15003182Y-14880460D01*
X15003182Y-14880460D02*
X15012706Y-14832841D01*
X15012706Y-14832841D02*
X15012706Y-14794746D01*
X15012706Y-14794746D02*
X15003182Y-14747127D01*
X15003182Y-14747127D02*
X14993658Y-14718555D01*
X14993658Y-14718555D02*
X14984134Y-14699508D01*
X14984134Y-14699508D02*
X14965087Y-14670936D01*
X14965087Y-14670936D02*
X14955563Y-14661412D01*
X15317468Y-14966174D02*
X15307944Y-14956650D01*
X15307944Y-14956650D02*
X15288896Y-14928079D01*
X15288896Y-14928079D02*
X15279372Y-14909031D01*
X15279372Y-14909031D02*
X15269849Y-14880460D01*
X15269849Y-14880460D02*
X15260325Y-14832841D01*
X15260325Y-14832841D02*
X15260325Y-14794746D01*
X15260325Y-14794746D02*
X15269849Y-14747127D01*
X15269849Y-14747127D02*
X15279372Y-14718555D01*
X15279372Y-14718555D02*
X15288896Y-14699508D01*
X15288896Y-14699508D02*
X15307944Y-14670936D01*
X15307944Y-14670936D02*
X15317468Y-14661412D01*
X15393658Y-14756650D02*
X15393658Y-14889984D01*
X15393658Y-14775698D02*
X15403182Y-14766174D01*
X15403182Y-14766174D02*
X15422230Y-14756650D01*
X15422230Y-14756650D02*
X15450801Y-14756650D01*
X15450801Y-14756650D02*
X15469849Y-14766174D01*
X15469849Y-14766174D02*
X15479372Y-14785222D01*
X15479372Y-14785222D02*
X15479372Y-14889984D01*
X15603182Y-14889984D02*
X15584134Y-14880460D01*
X15584134Y-14880460D02*
X15574611Y-14870936D01*
X15574611Y-14870936D02*
X15565087Y-14851888D01*
X15565087Y-14851888D02*
X15565087Y-14794746D01*
X15565087Y-14794746D02*
X15574611Y-14775698D01*
X15574611Y-14775698D02*
X15584134Y-14766174D01*
X15584134Y-14766174D02*
X15603182Y-14756650D01*
X15603182Y-14756650D02*
X15631753Y-14756650D01*
X15631753Y-14756650D02*
X15650801Y-14766174D01*
X15650801Y-14766174D02*
X15660325Y-14775698D01*
X15660325Y-14775698D02*
X15669849Y-14794746D01*
X15669849Y-14794746D02*
X15669849Y-14851888D01*
X15669849Y-14851888D02*
X15660325Y-14870936D01*
X15660325Y-14870936D02*
X15650801Y-14880460D01*
X15650801Y-14880460D02*
X15631753Y-14889984D01*
X15631753Y-14889984D02*
X15603182Y-14889984D01*
X15726992Y-14756650D02*
X15803182Y-14756650D01*
X15755563Y-14689984D02*
X15755563Y-14861412D01*
X15755563Y-14861412D02*
X15765087Y-14880460D01*
X15765087Y-14880460D02*
X15784134Y-14889984D01*
X15784134Y-14889984D02*
X15803182Y-14889984D01*
X16022230Y-14756650D02*
X16022230Y-14956650D01*
X16022230Y-14766174D02*
X16041277Y-14756650D01*
X16041277Y-14756650D02*
X16079373Y-14756650D01*
X16079373Y-14756650D02*
X16098420Y-14766174D01*
X16098420Y-14766174D02*
X16107944Y-14775698D01*
X16107944Y-14775698D02*
X16117468Y-14794746D01*
X16117468Y-14794746D02*
X16117468Y-14851888D01*
X16117468Y-14851888D02*
X16107944Y-14870936D01*
X16107944Y-14870936D02*
X16098420Y-14880460D01*
X16098420Y-14880460D02*
X16079373Y-14889984D01*
X16079373Y-14889984D02*
X16041277Y-14889984D01*
X16041277Y-14889984D02*
X16022230Y-14880460D01*
X16231753Y-14889984D02*
X16212706Y-14880460D01*
X16212706Y-14880460D02*
X16203182Y-14861412D01*
X16203182Y-14861412D02*
X16203182Y-14689984D01*
X16393658Y-14889984D02*
X16393658Y-14785222D01*
X16393658Y-14785222D02*
X16384134Y-14766174D01*
X16384134Y-14766174D02*
X16365087Y-14756650D01*
X16365087Y-14756650D02*
X16326992Y-14756650D01*
X16326992Y-14756650D02*
X16307944Y-14766174D01*
X16393658Y-14880460D02*
X16374611Y-14889984D01*
X16374611Y-14889984D02*
X16326992Y-14889984D01*
X16326992Y-14889984D02*
X16307944Y-14880460D01*
X16307944Y-14880460D02*
X16298420Y-14861412D01*
X16298420Y-14861412D02*
X16298420Y-14842365D01*
X16298420Y-14842365D02*
X16307944Y-14823317D01*
X16307944Y-14823317D02*
X16326992Y-14813793D01*
X16326992Y-14813793D02*
X16374611Y-14813793D01*
X16374611Y-14813793D02*
X16393658Y-14804269D01*
X16460325Y-14756650D02*
X16536515Y-14756650D01*
X16488896Y-14689984D02*
X16488896Y-14861412D01*
X16488896Y-14861412D02*
X16498420Y-14880460D01*
X16498420Y-14880460D02*
X16517468Y-14889984D01*
X16517468Y-14889984D02*
X16536515Y-14889984D01*
X16679373Y-14880460D02*
X16660325Y-14889984D01*
X16660325Y-14889984D02*
X16622230Y-14889984D01*
X16622230Y-14889984D02*
X16603182Y-14880460D01*
X16603182Y-14880460D02*
X16593658Y-14861412D01*
X16593658Y-14861412D02*
X16593658Y-14785222D01*
X16593658Y-14785222D02*
X16603182Y-14766174D01*
X16603182Y-14766174D02*
X16622230Y-14756650D01*
X16622230Y-14756650D02*
X16660325Y-14756650D01*
X16660325Y-14756650D02*
X16679373Y-14766174D01*
X16679373Y-14766174D02*
X16688896Y-14785222D01*
X16688896Y-14785222D02*
X16688896Y-14804269D01*
X16688896Y-14804269D02*
X16593658Y-14823317D01*
X16860325Y-14889984D02*
X16860325Y-14689984D01*
X16860325Y-14880460D02*
X16841277Y-14889984D01*
X16841277Y-14889984D02*
X16803182Y-14889984D01*
X16803182Y-14889984D02*
X16784135Y-14880460D01*
X16784135Y-14880460D02*
X16774611Y-14870936D01*
X16774611Y-14870936D02*
X16765087Y-14851888D01*
X16765087Y-14851888D02*
X16765087Y-14794746D01*
X16765087Y-14794746D02*
X16774611Y-14775698D01*
X16774611Y-14775698D02*
X16784135Y-14766174D01*
X16784135Y-14766174D02*
X16803182Y-14756650D01*
X16803182Y-14756650D02*
X16841277Y-14756650D01*
X16841277Y-14756650D02*
X16860325Y-14766174D01*
X16936516Y-14966174D02*
X16946039Y-14956650D01*
X16946039Y-14956650D02*
X16965087Y-14928079D01*
X16965087Y-14928079D02*
X16974611Y-14909031D01*
X16974611Y-14909031D02*
X16984135Y-14880460D01*
X16984135Y-14880460D02*
X16993658Y-14832841D01*
X16993658Y-14832841D02*
X16993658Y-14794746D01*
X16993658Y-14794746D02*
X16984135Y-14747127D01*
X16984135Y-14747127D02*
X16974611Y-14718555D01*
X16974611Y-14718555D02*
X16965087Y-14699508D01*
X16965087Y-14699508D02*
X16946039Y-14670936D01*
X16946039Y-14670936D02*
X16936516Y-14661412D01*
X10080500Y-15198500D02*
X10180500Y-15098500D01*
X10080500Y-14998500D01*
X9980500Y-15098500D01*
X10080500Y-15198500D01*
X10422229Y-14989984D02*
X10546039Y-14989984D01*
X10546039Y-14989984D02*
X10479372Y-15066174D01*
X10479372Y-15066174D02*
X10507944Y-15066174D01*
X10507944Y-15066174D02*
X10526991Y-15075698D01*
X10526991Y-15075698D02*
X10536515Y-15085222D01*
X10536515Y-15085222D02*
X10546039Y-15104269D01*
X10546039Y-15104269D02*
X10546039Y-15151888D01*
X10546039Y-15151888D02*
X10536515Y-15170936D01*
X10536515Y-15170936D02*
X10526991Y-15180460D01*
X10526991Y-15180460D02*
X10507944Y-15189984D01*
X10507944Y-15189984D02*
X10450801Y-15189984D01*
X10450801Y-15189984D02*
X10431753Y-15180460D01*
X10431753Y-15180460D02*
X10422229Y-15170936D01*
X10631753Y-15170936D02*
X10641277Y-15180460D01*
X10641277Y-15180460D02*
X10631753Y-15189984D01*
X10631753Y-15189984D02*
X10622229Y-15180460D01*
X10622229Y-15180460D02*
X10631753Y-15170936D01*
X10631753Y-15170936D02*
X10631753Y-15189984D01*
X10765086Y-14989984D02*
X10784134Y-14989984D01*
X10784134Y-14989984D02*
X10803182Y-14999508D01*
X10803182Y-14999508D02*
X10812705Y-15009031D01*
X10812705Y-15009031D02*
X10822229Y-15028079D01*
X10822229Y-15028079D02*
X10831753Y-15066174D01*
X10831753Y-15066174D02*
X10831753Y-15113793D01*
X10831753Y-15113793D02*
X10822229Y-15151888D01*
X10822229Y-15151888D02*
X10812705Y-15170936D01*
X10812705Y-15170936D02*
X10803182Y-15180460D01*
X10803182Y-15180460D02*
X10784134Y-15189984D01*
X10784134Y-15189984D02*
X10765086Y-15189984D01*
X10765086Y-15189984D02*
X10746039Y-15180460D01*
X10746039Y-15180460D02*
X10736515Y-15170936D01*
X10736515Y-15170936D02*
X10726991Y-15151888D01*
X10726991Y-15151888D02*
X10717467Y-15113793D01*
X10717467Y-15113793D02*
X10717467Y-15066174D01*
X10717467Y-15066174D02*
X10726991Y-15028079D01*
X10726991Y-15028079D02*
X10736515Y-15009031D01*
X10736515Y-15009031D02*
X10746039Y-14999508D01*
X10746039Y-14999508D02*
X10765086Y-14989984D01*
X11012705Y-14989984D02*
X10917467Y-14989984D01*
X10917467Y-14989984D02*
X10907944Y-15085222D01*
X10907944Y-15085222D02*
X10917467Y-15075698D01*
X10917467Y-15075698D02*
X10936515Y-15066174D01*
X10936515Y-15066174D02*
X10984134Y-15066174D01*
X10984134Y-15066174D02*
X11003182Y-15075698D01*
X11003182Y-15075698D02*
X11012705Y-15085222D01*
X11012705Y-15085222D02*
X11022229Y-15104269D01*
X11022229Y-15104269D02*
X11022229Y-15151888D01*
X11022229Y-15151888D02*
X11012705Y-15170936D01*
X11012705Y-15170936D02*
X11003182Y-15180460D01*
X11003182Y-15180460D02*
X10984134Y-15189984D01*
X10984134Y-15189984D02*
X10936515Y-15189984D01*
X10936515Y-15189984D02*
X10917467Y-15180460D01*
X10917467Y-15180460D02*
X10907944Y-15170936D01*
X11146039Y-14989984D02*
X11165086Y-14989984D01*
X11165086Y-14989984D02*
X11184134Y-14999508D01*
X11184134Y-14999508D02*
X11193658Y-15009031D01*
X11193658Y-15009031D02*
X11203182Y-15028079D01*
X11203182Y-15028079D02*
X11212705Y-15066174D01*
X11212705Y-15066174D02*
X11212705Y-15113793D01*
X11212705Y-15113793D02*
X11203182Y-15151888D01*
X11203182Y-15151888D02*
X11193658Y-15170936D01*
X11193658Y-15170936D02*
X11184134Y-15180460D01*
X11184134Y-15180460D02*
X11165086Y-15189984D01*
X11165086Y-15189984D02*
X11146039Y-15189984D01*
X11146039Y-15189984D02*
X11126991Y-15180460D01*
X11126991Y-15180460D02*
X11117467Y-15170936D01*
X11117467Y-15170936D02*
X11107944Y-15151888D01*
X11107944Y-15151888D02*
X11098420Y-15113793D01*
X11098420Y-15113793D02*
X11098420Y-15066174D01*
X11098420Y-15066174D02*
X11107944Y-15028079D01*
X11107944Y-15028079D02*
X11117467Y-15009031D01*
X11117467Y-15009031D02*
X11126991Y-14999508D01*
X11126991Y-14999508D02*
X11146039Y-14989984D01*
X11298420Y-15189984D02*
X11298420Y-15056650D01*
X11298420Y-15075698D02*
X11307943Y-15066174D01*
X11307943Y-15066174D02*
X11326991Y-15056650D01*
X11326991Y-15056650D02*
X11355563Y-15056650D01*
X11355563Y-15056650D02*
X11374610Y-15066174D01*
X11374610Y-15066174D02*
X11384134Y-15085222D01*
X11384134Y-15085222D02*
X11384134Y-15189984D01*
X11384134Y-15085222D02*
X11393658Y-15066174D01*
X11393658Y-15066174D02*
X11412705Y-15056650D01*
X11412705Y-15056650D02*
X11441277Y-15056650D01*
X11441277Y-15056650D02*
X11460324Y-15066174D01*
X11460324Y-15066174D02*
X11469848Y-15085222D01*
X11469848Y-15085222D02*
X11469848Y-15189984D01*
X11565086Y-15189984D02*
X11565086Y-15056650D01*
X11565086Y-15075698D02*
X11574610Y-15066174D01*
X11574610Y-15066174D02*
X11593658Y-15056650D01*
X11593658Y-15056650D02*
X11622229Y-15056650D01*
X11622229Y-15056650D02*
X11641277Y-15066174D01*
X11641277Y-15066174D02*
X11650801Y-15085222D01*
X11650801Y-15085222D02*
X11650801Y-15189984D01*
X11650801Y-15085222D02*
X11660324Y-15066174D01*
X11660324Y-15066174D02*
X11679372Y-15056650D01*
X11679372Y-15056650D02*
X11707943Y-15056650D01*
X11707943Y-15056650D02*
X11726991Y-15066174D01*
X11726991Y-15066174D02*
X11736515Y-15085222D01*
X11736515Y-15085222D02*
X11736515Y-15189984D01*
X12126991Y-14980460D02*
X11955563Y-15237603D01*
X12384134Y-14989984D02*
X12403182Y-14989984D01*
X12403182Y-14989984D02*
X12422229Y-14999508D01*
X12422229Y-14999508D02*
X12431753Y-15009031D01*
X12431753Y-15009031D02*
X12441277Y-15028079D01*
X12441277Y-15028079D02*
X12450801Y-15066174D01*
X12450801Y-15066174D02*
X12450801Y-15113793D01*
X12450801Y-15113793D02*
X12441277Y-15151888D01*
X12441277Y-15151888D02*
X12431753Y-15170936D01*
X12431753Y-15170936D02*
X12422229Y-15180460D01*
X12422229Y-15180460D02*
X12403182Y-15189984D01*
X12403182Y-15189984D02*
X12384134Y-15189984D01*
X12384134Y-15189984D02*
X12365086Y-15180460D01*
X12365086Y-15180460D02*
X12355563Y-15170936D01*
X12355563Y-15170936D02*
X12346039Y-15151888D01*
X12346039Y-15151888D02*
X12336515Y-15113793D01*
X12336515Y-15113793D02*
X12336515Y-15066174D01*
X12336515Y-15066174D02*
X12346039Y-15028079D01*
X12346039Y-15028079D02*
X12355563Y-15009031D01*
X12355563Y-15009031D02*
X12365086Y-14999508D01*
X12365086Y-14999508D02*
X12384134Y-14989984D01*
X12536515Y-15170936D02*
X12546039Y-15180460D01*
X12546039Y-15180460D02*
X12536515Y-15189984D01*
X12536515Y-15189984D02*
X12526991Y-15180460D01*
X12526991Y-15180460D02*
X12536515Y-15170936D01*
X12536515Y-15170936D02*
X12536515Y-15189984D01*
X12736515Y-15189984D02*
X12622229Y-15189984D01*
X12679372Y-15189984D02*
X12679372Y-14989984D01*
X12679372Y-14989984D02*
X12660325Y-15018555D01*
X12660325Y-15018555D02*
X12641277Y-15037603D01*
X12641277Y-15037603D02*
X12622229Y-15047127D01*
X12812706Y-15009031D02*
X12822229Y-14999508D01*
X12822229Y-14999508D02*
X12841277Y-14989984D01*
X12841277Y-14989984D02*
X12888896Y-14989984D01*
X12888896Y-14989984D02*
X12907944Y-14999508D01*
X12907944Y-14999508D02*
X12917467Y-15009031D01*
X12917467Y-15009031D02*
X12926991Y-15028079D01*
X12926991Y-15028079D02*
X12926991Y-15047127D01*
X12926991Y-15047127D02*
X12917467Y-15075698D01*
X12917467Y-15075698D02*
X12803182Y-15189984D01*
X12803182Y-15189984D02*
X12926991Y-15189984D01*
X13050801Y-14989984D02*
X13069848Y-14989984D01*
X13069848Y-14989984D02*
X13088896Y-14999508D01*
X13088896Y-14999508D02*
X13098420Y-15009031D01*
X13098420Y-15009031D02*
X13107944Y-15028079D01*
X13107944Y-15028079D02*
X13117467Y-15066174D01*
X13117467Y-15066174D02*
X13117467Y-15113793D01*
X13117467Y-15113793D02*
X13107944Y-15151888D01*
X13107944Y-15151888D02*
X13098420Y-15170936D01*
X13098420Y-15170936D02*
X13088896Y-15180460D01*
X13088896Y-15180460D02*
X13069848Y-15189984D01*
X13069848Y-15189984D02*
X13050801Y-15189984D01*
X13050801Y-15189984D02*
X13031753Y-15180460D01*
X13031753Y-15180460D02*
X13022229Y-15170936D01*
X13022229Y-15170936D02*
X13012706Y-15151888D01*
X13012706Y-15151888D02*
X13003182Y-15113793D01*
X13003182Y-15113793D02*
X13003182Y-15066174D01*
X13003182Y-15066174D02*
X13012706Y-15028079D01*
X13012706Y-15028079D02*
X13022229Y-15009031D01*
X13022229Y-15009031D02*
X13031753Y-14999508D01*
X13031753Y-14999508D02*
X13050801Y-14989984D01*
X13307944Y-15189984D02*
X13193658Y-15189984D01*
X13250801Y-15189984D02*
X13250801Y-14989984D01*
X13250801Y-14989984D02*
X13231753Y-15018555D01*
X13231753Y-15018555D02*
X13212706Y-15037603D01*
X13212706Y-15037603D02*
X13193658Y-15047127D01*
X13384134Y-14989984D02*
X13384134Y-15028079D01*
X13460325Y-14989984D02*
X13460325Y-15028079D01*
X13755563Y-15266174D02*
X13746039Y-15256650D01*
X13746039Y-15256650D02*
X13726991Y-15228079D01*
X13726991Y-15228079D02*
X13717468Y-15209031D01*
X13717468Y-15209031D02*
X13707944Y-15180460D01*
X13707944Y-15180460D02*
X13698420Y-15132841D01*
X13698420Y-15132841D02*
X13698420Y-15094746D01*
X13698420Y-15094746D02*
X13707944Y-15047127D01*
X13707944Y-15047127D02*
X13717468Y-15018555D01*
X13717468Y-15018555D02*
X13726991Y-14999508D01*
X13726991Y-14999508D02*
X13746039Y-14970936D01*
X13746039Y-14970936D02*
X13755563Y-14961412D01*
X13812706Y-14989984D02*
X13936515Y-14989984D01*
X13936515Y-14989984D02*
X13869848Y-15066174D01*
X13869848Y-15066174D02*
X13898420Y-15066174D01*
X13898420Y-15066174D02*
X13917468Y-15075698D01*
X13917468Y-15075698D02*
X13926991Y-15085222D01*
X13926991Y-15085222D02*
X13936515Y-15104269D01*
X13936515Y-15104269D02*
X13936515Y-15151888D01*
X13936515Y-15151888D02*
X13926991Y-15170936D01*
X13926991Y-15170936D02*
X13917468Y-15180460D01*
X13917468Y-15180460D02*
X13898420Y-15189984D01*
X13898420Y-15189984D02*
X13841277Y-15189984D01*
X13841277Y-15189984D02*
X13822229Y-15180460D01*
X13822229Y-15180460D02*
X13812706Y-15170936D01*
X14107944Y-14989984D02*
X14069848Y-14989984D01*
X14069848Y-14989984D02*
X14050801Y-14999508D01*
X14050801Y-14999508D02*
X14041277Y-15009031D01*
X14041277Y-15009031D02*
X14022229Y-15037603D01*
X14022229Y-15037603D02*
X14012706Y-15075698D01*
X14012706Y-15075698D02*
X14012706Y-15151888D01*
X14012706Y-15151888D02*
X14022229Y-15170936D01*
X14022229Y-15170936D02*
X14031753Y-15180460D01*
X14031753Y-15180460D02*
X14050801Y-15189984D01*
X14050801Y-15189984D02*
X14088896Y-15189984D01*
X14088896Y-15189984D02*
X14107944Y-15180460D01*
X14107944Y-15180460D02*
X14117468Y-15170936D01*
X14117468Y-15170936D02*
X14126991Y-15151888D01*
X14126991Y-15151888D02*
X14126991Y-15104269D01*
X14126991Y-15104269D02*
X14117468Y-15085222D01*
X14117468Y-15085222D02*
X14107944Y-15075698D01*
X14107944Y-15075698D02*
X14088896Y-15066174D01*
X14088896Y-15066174D02*
X14050801Y-15066174D01*
X14050801Y-15066174D02*
X14031753Y-15075698D01*
X14031753Y-15075698D02*
X14022229Y-15085222D01*
X14022229Y-15085222D02*
X14012706Y-15104269D01*
X14365087Y-15189984D02*
X14365087Y-14989984D01*
X14450801Y-15189984D02*
X14450801Y-15085222D01*
X14450801Y-15085222D02*
X14441277Y-15066174D01*
X14441277Y-15066174D02*
X14422230Y-15056650D01*
X14422230Y-15056650D02*
X14393658Y-15056650D01*
X14393658Y-15056650D02*
X14374610Y-15066174D01*
X14374610Y-15066174D02*
X14365087Y-15075698D01*
X14574610Y-15189984D02*
X14555563Y-15180460D01*
X14555563Y-15180460D02*
X14546039Y-15170936D01*
X14546039Y-15170936D02*
X14536515Y-15151888D01*
X14536515Y-15151888D02*
X14536515Y-15094746D01*
X14536515Y-15094746D02*
X14546039Y-15075698D01*
X14546039Y-15075698D02*
X14555563Y-15066174D01*
X14555563Y-15066174D02*
X14574610Y-15056650D01*
X14574610Y-15056650D02*
X14603182Y-15056650D01*
X14603182Y-15056650D02*
X14622230Y-15066174D01*
X14622230Y-15066174D02*
X14631753Y-15075698D01*
X14631753Y-15075698D02*
X14641277Y-15094746D01*
X14641277Y-15094746D02*
X14641277Y-15151888D01*
X14641277Y-15151888D02*
X14631753Y-15170936D01*
X14631753Y-15170936D02*
X14622230Y-15180460D01*
X14622230Y-15180460D02*
X14603182Y-15189984D01*
X14603182Y-15189984D02*
X14574610Y-15189984D01*
X14755563Y-15189984D02*
X14736515Y-15180460D01*
X14736515Y-15180460D02*
X14726991Y-15161412D01*
X14726991Y-15161412D02*
X14726991Y-14989984D01*
X14907944Y-15180460D02*
X14888896Y-15189984D01*
X14888896Y-15189984D02*
X14850801Y-15189984D01*
X14850801Y-15189984D02*
X14831753Y-15180460D01*
X14831753Y-15180460D02*
X14822230Y-15161412D01*
X14822230Y-15161412D02*
X14822230Y-15085222D01*
X14822230Y-15085222D02*
X14831753Y-15066174D01*
X14831753Y-15066174D02*
X14850801Y-15056650D01*
X14850801Y-15056650D02*
X14888896Y-15056650D01*
X14888896Y-15056650D02*
X14907944Y-15066174D01*
X14907944Y-15066174D02*
X14917468Y-15085222D01*
X14917468Y-15085222D02*
X14917468Y-15104269D01*
X14917468Y-15104269D02*
X14822230Y-15123317D01*
X14993658Y-15180460D02*
X15012706Y-15189984D01*
X15012706Y-15189984D02*
X15050801Y-15189984D01*
X15050801Y-15189984D02*
X15069849Y-15180460D01*
X15069849Y-15180460D02*
X15079372Y-15161412D01*
X15079372Y-15161412D02*
X15079372Y-15151888D01*
X15079372Y-15151888D02*
X15069849Y-15132841D01*
X15069849Y-15132841D02*
X15050801Y-15123317D01*
X15050801Y-15123317D02*
X15022230Y-15123317D01*
X15022230Y-15123317D02*
X15003182Y-15113793D01*
X15003182Y-15113793D02*
X14993658Y-15094746D01*
X14993658Y-15094746D02*
X14993658Y-15085222D01*
X14993658Y-15085222D02*
X15003182Y-15066174D01*
X15003182Y-15066174D02*
X15022230Y-15056650D01*
X15022230Y-15056650D02*
X15050801Y-15056650D01*
X15050801Y-15056650D02*
X15069849Y-15066174D01*
X15146039Y-15266174D02*
X15155563Y-15256650D01*
X15155563Y-15256650D02*
X15174611Y-15228079D01*
X15174611Y-15228079D02*
X15184134Y-15209031D01*
X15184134Y-15209031D02*
X15193658Y-15180460D01*
X15193658Y-15180460D02*
X15203182Y-15132841D01*
X15203182Y-15132841D02*
X15203182Y-15094746D01*
X15203182Y-15094746D02*
X15193658Y-15047127D01*
X15193658Y-15047127D02*
X15184134Y-15018555D01*
X15184134Y-15018555D02*
X15174611Y-14999508D01*
X15174611Y-14999508D02*
X15155563Y-14970936D01*
X15155563Y-14970936D02*
X15146039Y-14961412D01*
X15507944Y-15266174D02*
X15498420Y-15256650D01*
X15498420Y-15256650D02*
X15479372Y-15228079D01*
X15479372Y-15228079D02*
X15469849Y-15209031D01*
X15469849Y-15209031D02*
X15460325Y-15180460D01*
X15460325Y-15180460D02*
X15450801Y-15132841D01*
X15450801Y-15132841D02*
X15450801Y-15094746D01*
X15450801Y-15094746D02*
X15460325Y-15047127D01*
X15460325Y-15047127D02*
X15469849Y-15018555D01*
X15469849Y-15018555D02*
X15479372Y-14999508D01*
X15479372Y-14999508D02*
X15498420Y-14970936D01*
X15498420Y-14970936D02*
X15507944Y-14961412D01*
X15584134Y-15056650D02*
X15584134Y-15189984D01*
X15584134Y-15075698D02*
X15593658Y-15066174D01*
X15593658Y-15066174D02*
X15612706Y-15056650D01*
X15612706Y-15056650D02*
X15641277Y-15056650D01*
X15641277Y-15056650D02*
X15660325Y-15066174D01*
X15660325Y-15066174D02*
X15669849Y-15085222D01*
X15669849Y-15085222D02*
X15669849Y-15189984D01*
X15793658Y-15189984D02*
X15774611Y-15180460D01*
X15774611Y-15180460D02*
X15765087Y-15170936D01*
X15765087Y-15170936D02*
X15755563Y-15151888D01*
X15755563Y-15151888D02*
X15755563Y-15094746D01*
X15755563Y-15094746D02*
X15765087Y-15075698D01*
X15765087Y-15075698D02*
X15774611Y-15066174D01*
X15774611Y-15066174D02*
X15793658Y-15056650D01*
X15793658Y-15056650D02*
X15822230Y-15056650D01*
X15822230Y-15056650D02*
X15841277Y-15066174D01*
X15841277Y-15066174D02*
X15850801Y-15075698D01*
X15850801Y-15075698D02*
X15860325Y-15094746D01*
X15860325Y-15094746D02*
X15860325Y-15151888D01*
X15860325Y-15151888D02*
X15850801Y-15170936D01*
X15850801Y-15170936D02*
X15841277Y-15180460D01*
X15841277Y-15180460D02*
X15822230Y-15189984D01*
X15822230Y-15189984D02*
X15793658Y-15189984D01*
X15917468Y-15056650D02*
X15993658Y-15056650D01*
X15946039Y-14989984D02*
X15946039Y-15161412D01*
X15946039Y-15161412D02*
X15955563Y-15180460D01*
X15955563Y-15180460D02*
X15974611Y-15189984D01*
X15974611Y-15189984D02*
X15993658Y-15189984D01*
X16212706Y-15056650D02*
X16212706Y-15256650D01*
X16212706Y-15066174D02*
X16231753Y-15056650D01*
X16231753Y-15056650D02*
X16269849Y-15056650D01*
X16269849Y-15056650D02*
X16288896Y-15066174D01*
X16288896Y-15066174D02*
X16298420Y-15075698D01*
X16298420Y-15075698D02*
X16307944Y-15094746D01*
X16307944Y-15094746D02*
X16307944Y-15151888D01*
X16307944Y-15151888D02*
X16298420Y-15170936D01*
X16298420Y-15170936D02*
X16288896Y-15180460D01*
X16288896Y-15180460D02*
X16269849Y-15189984D01*
X16269849Y-15189984D02*
X16231753Y-15189984D01*
X16231753Y-15189984D02*
X16212706Y-15180460D01*
X16422230Y-15189984D02*
X16403182Y-15180460D01*
X16403182Y-15180460D02*
X16393658Y-15161412D01*
X16393658Y-15161412D02*
X16393658Y-14989984D01*
X16584134Y-15189984D02*
X16584134Y-15085222D01*
X16584134Y-15085222D02*
X16574611Y-15066174D01*
X16574611Y-15066174D02*
X16555563Y-15056650D01*
X16555563Y-15056650D02*
X16517468Y-15056650D01*
X16517468Y-15056650D02*
X16498420Y-15066174D01*
X16584134Y-15180460D02*
X16565087Y-15189984D01*
X16565087Y-15189984D02*
X16517468Y-15189984D01*
X16517468Y-15189984D02*
X16498420Y-15180460D01*
X16498420Y-15180460D02*
X16488896Y-15161412D01*
X16488896Y-15161412D02*
X16488896Y-15142365D01*
X16488896Y-15142365D02*
X16498420Y-15123317D01*
X16498420Y-15123317D02*
X16517468Y-15113793D01*
X16517468Y-15113793D02*
X16565087Y-15113793D01*
X16565087Y-15113793D02*
X16584134Y-15104269D01*
X16650801Y-15056650D02*
X16726992Y-15056650D01*
X16679373Y-14989984D02*
X16679373Y-15161412D01*
X16679373Y-15161412D02*
X16688896Y-15180460D01*
X16688896Y-15180460D02*
X16707944Y-15189984D01*
X16707944Y-15189984D02*
X16726992Y-15189984D01*
X16869849Y-15180460D02*
X16850801Y-15189984D01*
X16850801Y-15189984D02*
X16812706Y-15189984D01*
X16812706Y-15189984D02*
X16793658Y-15180460D01*
X16793658Y-15180460D02*
X16784135Y-15161412D01*
X16784135Y-15161412D02*
X16784135Y-15085222D01*
X16784135Y-15085222D02*
X16793658Y-15066174D01*
X16793658Y-15066174D02*
X16812706Y-15056650D01*
X16812706Y-15056650D02*
X16850801Y-15056650D01*
X16850801Y-15056650D02*
X16869849Y-15066174D01*
X16869849Y-15066174D02*
X16879373Y-15085222D01*
X16879373Y-15085222D02*
X16879373Y-15104269D01*
X16879373Y-15104269D02*
X16784135Y-15123317D01*
X17050801Y-15189984D02*
X17050801Y-14989984D01*
X17050801Y-15180460D02*
X17031754Y-15189984D01*
X17031754Y-15189984D02*
X16993658Y-15189984D01*
X16993658Y-15189984D02*
X16974611Y-15180460D01*
X16974611Y-15180460D02*
X16965087Y-15170936D01*
X16965087Y-15170936D02*
X16955563Y-15151888D01*
X16955563Y-15151888D02*
X16955563Y-15094746D01*
X16955563Y-15094746D02*
X16965087Y-15075698D01*
X16965087Y-15075698D02*
X16974611Y-15066174D01*
X16974611Y-15066174D02*
X16993658Y-15056650D01*
X16993658Y-15056650D02*
X17031754Y-15056650D01*
X17031754Y-15056650D02*
X17050801Y-15066174D01*
X17126992Y-15266174D02*
X17136516Y-15256650D01*
X17136516Y-15256650D02*
X17155563Y-15228079D01*
X17155563Y-15228079D02*
X17165087Y-15209031D01*
X17165087Y-15209031D02*
X17174611Y-15180460D01*
X17174611Y-15180460D02*
X17184135Y-15132841D01*
X17184135Y-15132841D02*
X17184135Y-15094746D01*
X17184135Y-15094746D02*
X17174611Y-15047127D01*
X17174611Y-15047127D02*
X17165087Y-15018555D01*
X17165087Y-15018555D02*
X17155563Y-14999508D01*
X17155563Y-14999508D02*
X17136516Y-14970936D01*
X17136516Y-14970936D02*
X17126992Y-14961412D01*
X9980500Y-15318500D02*
X10180500Y-15518500D01*
X10180500Y-15318500D02*
X9980500Y-15518500D01*
X10180500Y-15418500D02*
G75*
G03*
X10180500Y-15418500I-100000J0D01*
G01*
X10422229Y-15309984D02*
X10546039Y-15309984D01*
X10546039Y-15309984D02*
X10479372Y-15386174D01*
X10479372Y-15386174D02*
X10507944Y-15386174D01*
X10507944Y-15386174D02*
X10526991Y-15395698D01*
X10526991Y-15395698D02*
X10536515Y-15405222D01*
X10536515Y-15405222D02*
X10546039Y-15424269D01*
X10546039Y-15424269D02*
X10546039Y-15471888D01*
X10546039Y-15471888D02*
X10536515Y-15490936D01*
X10536515Y-15490936D02*
X10526991Y-15500460D01*
X10526991Y-15500460D02*
X10507944Y-15509984D01*
X10507944Y-15509984D02*
X10450801Y-15509984D01*
X10450801Y-15509984D02*
X10431753Y-15500460D01*
X10431753Y-15500460D02*
X10422229Y-15490936D01*
X10631753Y-15490936D02*
X10641277Y-15500460D01*
X10641277Y-15500460D02*
X10631753Y-15509984D01*
X10631753Y-15509984D02*
X10622229Y-15500460D01*
X10622229Y-15500460D02*
X10631753Y-15490936D01*
X10631753Y-15490936D02*
X10631753Y-15509984D01*
X10717467Y-15329031D02*
X10726991Y-15319508D01*
X10726991Y-15319508D02*
X10746039Y-15309984D01*
X10746039Y-15309984D02*
X10793658Y-15309984D01*
X10793658Y-15309984D02*
X10812705Y-15319508D01*
X10812705Y-15319508D02*
X10822229Y-15329031D01*
X10822229Y-15329031D02*
X10831753Y-15348079D01*
X10831753Y-15348079D02*
X10831753Y-15367127D01*
X10831753Y-15367127D02*
X10822229Y-15395698D01*
X10822229Y-15395698D02*
X10707944Y-15509984D01*
X10707944Y-15509984D02*
X10831753Y-15509984D01*
X10955563Y-15309984D02*
X10974610Y-15309984D01*
X10974610Y-15309984D02*
X10993658Y-15319508D01*
X10993658Y-15319508D02*
X11003182Y-15329031D01*
X11003182Y-15329031D02*
X11012705Y-15348079D01*
X11012705Y-15348079D02*
X11022229Y-15386174D01*
X11022229Y-15386174D02*
X11022229Y-15433793D01*
X11022229Y-15433793D02*
X11012705Y-15471888D01*
X11012705Y-15471888D02*
X11003182Y-15490936D01*
X11003182Y-15490936D02*
X10993658Y-15500460D01*
X10993658Y-15500460D02*
X10974610Y-15509984D01*
X10974610Y-15509984D02*
X10955563Y-15509984D01*
X10955563Y-15509984D02*
X10936515Y-15500460D01*
X10936515Y-15500460D02*
X10926991Y-15490936D01*
X10926991Y-15490936D02*
X10917467Y-15471888D01*
X10917467Y-15471888D02*
X10907944Y-15433793D01*
X10907944Y-15433793D02*
X10907944Y-15386174D01*
X10907944Y-15386174D02*
X10917467Y-15348079D01*
X10917467Y-15348079D02*
X10926991Y-15329031D01*
X10926991Y-15329031D02*
X10936515Y-15319508D01*
X10936515Y-15319508D02*
X10955563Y-15309984D01*
X11146039Y-15309984D02*
X11165086Y-15309984D01*
X11165086Y-15309984D02*
X11184134Y-15319508D01*
X11184134Y-15319508D02*
X11193658Y-15329031D01*
X11193658Y-15329031D02*
X11203182Y-15348079D01*
X11203182Y-15348079D02*
X11212705Y-15386174D01*
X11212705Y-15386174D02*
X11212705Y-15433793D01*
X11212705Y-15433793D02*
X11203182Y-15471888D01*
X11203182Y-15471888D02*
X11193658Y-15490936D01*
X11193658Y-15490936D02*
X11184134Y-15500460D01*
X11184134Y-15500460D02*
X11165086Y-15509984D01*
X11165086Y-15509984D02*
X11146039Y-15509984D01*
X11146039Y-15509984D02*
X11126991Y-15500460D01*
X11126991Y-15500460D02*
X11117467Y-15490936D01*
X11117467Y-15490936D02*
X11107944Y-15471888D01*
X11107944Y-15471888D02*
X11098420Y-15433793D01*
X11098420Y-15433793D02*
X11098420Y-15386174D01*
X11098420Y-15386174D02*
X11107944Y-15348079D01*
X11107944Y-15348079D02*
X11117467Y-15329031D01*
X11117467Y-15329031D02*
X11126991Y-15319508D01*
X11126991Y-15319508D02*
X11146039Y-15309984D01*
X11298420Y-15509984D02*
X11298420Y-15376650D01*
X11298420Y-15395698D02*
X11307943Y-15386174D01*
X11307943Y-15386174D02*
X11326991Y-15376650D01*
X11326991Y-15376650D02*
X11355563Y-15376650D01*
X11355563Y-15376650D02*
X11374610Y-15386174D01*
X11374610Y-15386174D02*
X11384134Y-15405222D01*
X11384134Y-15405222D02*
X11384134Y-15509984D01*
X11384134Y-15405222D02*
X11393658Y-15386174D01*
X11393658Y-15386174D02*
X11412705Y-15376650D01*
X11412705Y-15376650D02*
X11441277Y-15376650D01*
X11441277Y-15376650D02*
X11460324Y-15386174D01*
X11460324Y-15386174D02*
X11469848Y-15405222D01*
X11469848Y-15405222D02*
X11469848Y-15509984D01*
X11565086Y-15509984D02*
X11565086Y-15376650D01*
X11565086Y-15395698D02*
X11574610Y-15386174D01*
X11574610Y-15386174D02*
X11593658Y-15376650D01*
X11593658Y-15376650D02*
X11622229Y-15376650D01*
X11622229Y-15376650D02*
X11641277Y-15386174D01*
X11641277Y-15386174D02*
X11650801Y-15405222D01*
X11650801Y-15405222D02*
X11650801Y-15509984D01*
X11650801Y-15405222D02*
X11660324Y-15386174D01*
X11660324Y-15386174D02*
X11679372Y-15376650D01*
X11679372Y-15376650D02*
X11707943Y-15376650D01*
X11707943Y-15376650D02*
X11726991Y-15386174D01*
X11726991Y-15386174D02*
X11736515Y-15405222D01*
X11736515Y-15405222D02*
X11736515Y-15509984D01*
X12126991Y-15300460D02*
X11955563Y-15557603D01*
X12384134Y-15309984D02*
X12403182Y-15309984D01*
X12403182Y-15309984D02*
X12422229Y-15319508D01*
X12422229Y-15319508D02*
X12431753Y-15329031D01*
X12431753Y-15329031D02*
X12441277Y-15348079D01*
X12441277Y-15348079D02*
X12450801Y-15386174D01*
X12450801Y-15386174D02*
X12450801Y-15433793D01*
X12450801Y-15433793D02*
X12441277Y-15471888D01*
X12441277Y-15471888D02*
X12431753Y-15490936D01*
X12431753Y-15490936D02*
X12422229Y-15500460D01*
X12422229Y-15500460D02*
X12403182Y-15509984D01*
X12403182Y-15509984D02*
X12384134Y-15509984D01*
X12384134Y-15509984D02*
X12365086Y-15500460D01*
X12365086Y-15500460D02*
X12355563Y-15490936D01*
X12355563Y-15490936D02*
X12346039Y-15471888D01*
X12346039Y-15471888D02*
X12336515Y-15433793D01*
X12336515Y-15433793D02*
X12336515Y-15386174D01*
X12336515Y-15386174D02*
X12346039Y-15348079D01*
X12346039Y-15348079D02*
X12355563Y-15329031D01*
X12355563Y-15329031D02*
X12365086Y-15319508D01*
X12365086Y-15319508D02*
X12384134Y-15309984D01*
X12536515Y-15490936D02*
X12546039Y-15500460D01*
X12546039Y-15500460D02*
X12536515Y-15509984D01*
X12536515Y-15509984D02*
X12526991Y-15500460D01*
X12526991Y-15500460D02*
X12536515Y-15490936D01*
X12536515Y-15490936D02*
X12536515Y-15509984D01*
X12736515Y-15509984D02*
X12622229Y-15509984D01*
X12679372Y-15509984D02*
X12679372Y-15309984D01*
X12679372Y-15309984D02*
X12660325Y-15338555D01*
X12660325Y-15338555D02*
X12641277Y-15357603D01*
X12641277Y-15357603D02*
X12622229Y-15367127D01*
X12812706Y-15329031D02*
X12822229Y-15319508D01*
X12822229Y-15319508D02*
X12841277Y-15309984D01*
X12841277Y-15309984D02*
X12888896Y-15309984D01*
X12888896Y-15309984D02*
X12907944Y-15319508D01*
X12907944Y-15319508D02*
X12917467Y-15329031D01*
X12917467Y-15329031D02*
X12926991Y-15348079D01*
X12926991Y-15348079D02*
X12926991Y-15367127D01*
X12926991Y-15367127D02*
X12917467Y-15395698D01*
X12917467Y-15395698D02*
X12803182Y-15509984D01*
X12803182Y-15509984D02*
X12926991Y-15509984D01*
X13098420Y-15309984D02*
X13060325Y-15309984D01*
X13060325Y-15309984D02*
X13041277Y-15319508D01*
X13041277Y-15319508D02*
X13031753Y-15329031D01*
X13031753Y-15329031D02*
X13012706Y-15357603D01*
X13012706Y-15357603D02*
X13003182Y-15395698D01*
X13003182Y-15395698D02*
X13003182Y-15471888D01*
X13003182Y-15471888D02*
X13012706Y-15490936D01*
X13012706Y-15490936D02*
X13022229Y-15500460D01*
X13022229Y-15500460D02*
X13041277Y-15509984D01*
X13041277Y-15509984D02*
X13079372Y-15509984D01*
X13079372Y-15509984D02*
X13098420Y-15500460D01*
X13098420Y-15500460D02*
X13107944Y-15490936D01*
X13107944Y-15490936D02*
X13117467Y-15471888D01*
X13117467Y-15471888D02*
X13117467Y-15424269D01*
X13117467Y-15424269D02*
X13107944Y-15405222D01*
X13107944Y-15405222D02*
X13098420Y-15395698D01*
X13098420Y-15395698D02*
X13079372Y-15386174D01*
X13079372Y-15386174D02*
X13041277Y-15386174D01*
X13041277Y-15386174D02*
X13022229Y-15395698D01*
X13022229Y-15395698D02*
X13012706Y-15405222D01*
X13012706Y-15405222D02*
X13003182Y-15424269D01*
X13241277Y-15309984D02*
X13260325Y-15309984D01*
X13260325Y-15309984D02*
X13279372Y-15319508D01*
X13279372Y-15319508D02*
X13288896Y-15329031D01*
X13288896Y-15329031D02*
X13298420Y-15348079D01*
X13298420Y-15348079D02*
X13307944Y-15386174D01*
X13307944Y-15386174D02*
X13307944Y-15433793D01*
X13307944Y-15433793D02*
X13298420Y-15471888D01*
X13298420Y-15471888D02*
X13288896Y-15490936D01*
X13288896Y-15490936D02*
X13279372Y-15500460D01*
X13279372Y-15500460D02*
X13260325Y-15509984D01*
X13260325Y-15509984D02*
X13241277Y-15509984D01*
X13241277Y-15509984D02*
X13222229Y-15500460D01*
X13222229Y-15500460D02*
X13212706Y-15490936D01*
X13212706Y-15490936D02*
X13203182Y-15471888D01*
X13203182Y-15471888D02*
X13193658Y-15433793D01*
X13193658Y-15433793D02*
X13193658Y-15386174D01*
X13193658Y-15386174D02*
X13203182Y-15348079D01*
X13203182Y-15348079D02*
X13212706Y-15329031D01*
X13212706Y-15329031D02*
X13222229Y-15319508D01*
X13222229Y-15319508D02*
X13241277Y-15309984D01*
X13384134Y-15309984D02*
X13384134Y-15348079D01*
X13460325Y-15309984D02*
X13460325Y-15348079D01*
X13755563Y-15586174D02*
X13746039Y-15576650D01*
X13746039Y-15576650D02*
X13726991Y-15548079D01*
X13726991Y-15548079D02*
X13717468Y-15529031D01*
X13717468Y-15529031D02*
X13707944Y-15500460D01*
X13707944Y-15500460D02*
X13698420Y-15452841D01*
X13698420Y-15452841D02*
X13698420Y-15414746D01*
X13698420Y-15414746D02*
X13707944Y-15367127D01*
X13707944Y-15367127D02*
X13717468Y-15338555D01*
X13717468Y-15338555D02*
X13726991Y-15319508D01*
X13726991Y-15319508D02*
X13746039Y-15290936D01*
X13746039Y-15290936D02*
X13755563Y-15281412D01*
X13860325Y-15395698D02*
X13841277Y-15386174D01*
X13841277Y-15386174D02*
X13831753Y-15376650D01*
X13831753Y-15376650D02*
X13822229Y-15357603D01*
X13822229Y-15357603D02*
X13822229Y-15348079D01*
X13822229Y-15348079D02*
X13831753Y-15329031D01*
X13831753Y-15329031D02*
X13841277Y-15319508D01*
X13841277Y-15319508D02*
X13860325Y-15309984D01*
X13860325Y-15309984D02*
X13898420Y-15309984D01*
X13898420Y-15309984D02*
X13917468Y-15319508D01*
X13917468Y-15319508D02*
X13926991Y-15329031D01*
X13926991Y-15329031D02*
X13936515Y-15348079D01*
X13936515Y-15348079D02*
X13936515Y-15357603D01*
X13936515Y-15357603D02*
X13926991Y-15376650D01*
X13926991Y-15376650D02*
X13917468Y-15386174D01*
X13917468Y-15386174D02*
X13898420Y-15395698D01*
X13898420Y-15395698D02*
X13860325Y-15395698D01*
X13860325Y-15395698D02*
X13841277Y-15405222D01*
X13841277Y-15405222D02*
X13831753Y-15414746D01*
X13831753Y-15414746D02*
X13822229Y-15433793D01*
X13822229Y-15433793D02*
X13822229Y-15471888D01*
X13822229Y-15471888D02*
X13831753Y-15490936D01*
X13831753Y-15490936D02*
X13841277Y-15500460D01*
X13841277Y-15500460D02*
X13860325Y-15509984D01*
X13860325Y-15509984D02*
X13898420Y-15509984D01*
X13898420Y-15509984D02*
X13917468Y-15500460D01*
X13917468Y-15500460D02*
X13926991Y-15490936D01*
X13926991Y-15490936D02*
X13936515Y-15471888D01*
X13936515Y-15471888D02*
X13936515Y-15433793D01*
X13936515Y-15433793D02*
X13926991Y-15414746D01*
X13926991Y-15414746D02*
X13917468Y-15405222D01*
X13917468Y-15405222D02*
X13898420Y-15395698D01*
X14174610Y-15509984D02*
X14174610Y-15309984D01*
X14260325Y-15509984D02*
X14260325Y-15405222D01*
X14260325Y-15405222D02*
X14250801Y-15386174D01*
X14250801Y-15386174D02*
X14231753Y-15376650D01*
X14231753Y-15376650D02*
X14203182Y-15376650D01*
X14203182Y-15376650D02*
X14184134Y-15386174D01*
X14184134Y-15386174D02*
X14174610Y-15395698D01*
X14384134Y-15509984D02*
X14365087Y-15500460D01*
X14365087Y-15500460D02*
X14355563Y-15490936D01*
X14355563Y-15490936D02*
X14346039Y-15471888D01*
X14346039Y-15471888D02*
X14346039Y-15414746D01*
X14346039Y-15414746D02*
X14355563Y-15395698D01*
X14355563Y-15395698D02*
X14365087Y-15386174D01*
X14365087Y-15386174D02*
X14384134Y-15376650D01*
X14384134Y-15376650D02*
X14412706Y-15376650D01*
X14412706Y-15376650D02*
X14431753Y-15386174D01*
X14431753Y-15386174D02*
X14441277Y-15395698D01*
X14441277Y-15395698D02*
X14450801Y-15414746D01*
X14450801Y-15414746D02*
X14450801Y-15471888D01*
X14450801Y-15471888D02*
X14441277Y-15490936D01*
X14441277Y-15490936D02*
X14431753Y-15500460D01*
X14431753Y-15500460D02*
X14412706Y-15509984D01*
X14412706Y-15509984D02*
X14384134Y-15509984D01*
X14565087Y-15509984D02*
X14546039Y-15500460D01*
X14546039Y-15500460D02*
X14536515Y-15481412D01*
X14536515Y-15481412D02*
X14536515Y-15309984D01*
X14717468Y-15500460D02*
X14698420Y-15509984D01*
X14698420Y-15509984D02*
X14660325Y-15509984D01*
X14660325Y-15509984D02*
X14641277Y-15500460D01*
X14641277Y-15500460D02*
X14631753Y-15481412D01*
X14631753Y-15481412D02*
X14631753Y-15405222D01*
X14631753Y-15405222D02*
X14641277Y-15386174D01*
X14641277Y-15386174D02*
X14660325Y-15376650D01*
X14660325Y-15376650D02*
X14698420Y-15376650D01*
X14698420Y-15376650D02*
X14717468Y-15386174D01*
X14717468Y-15386174D02*
X14726991Y-15405222D01*
X14726991Y-15405222D02*
X14726991Y-15424269D01*
X14726991Y-15424269D02*
X14631753Y-15443317D01*
X14803182Y-15500460D02*
X14822230Y-15509984D01*
X14822230Y-15509984D02*
X14860325Y-15509984D01*
X14860325Y-15509984D02*
X14879372Y-15500460D01*
X14879372Y-15500460D02*
X14888896Y-15481412D01*
X14888896Y-15481412D02*
X14888896Y-15471888D01*
X14888896Y-15471888D02*
X14879372Y-15452841D01*
X14879372Y-15452841D02*
X14860325Y-15443317D01*
X14860325Y-15443317D02*
X14831753Y-15443317D01*
X14831753Y-15443317D02*
X14812706Y-15433793D01*
X14812706Y-15433793D02*
X14803182Y-15414746D01*
X14803182Y-15414746D02*
X14803182Y-15405222D01*
X14803182Y-15405222D02*
X14812706Y-15386174D01*
X14812706Y-15386174D02*
X14831753Y-15376650D01*
X14831753Y-15376650D02*
X14860325Y-15376650D01*
X14860325Y-15376650D02*
X14879372Y-15386174D01*
X14955563Y-15586174D02*
X14965087Y-15576650D01*
X14965087Y-15576650D02*
X14984134Y-15548079D01*
X14984134Y-15548079D02*
X14993658Y-15529031D01*
X14993658Y-15529031D02*
X15003182Y-15500460D01*
X15003182Y-15500460D02*
X15012706Y-15452841D01*
X15012706Y-15452841D02*
X15012706Y-15414746D01*
X15012706Y-15414746D02*
X15003182Y-15367127D01*
X15003182Y-15367127D02*
X14993658Y-15338555D01*
X14993658Y-15338555D02*
X14984134Y-15319508D01*
X14984134Y-15319508D02*
X14965087Y-15290936D01*
X14965087Y-15290936D02*
X14955563Y-15281412D01*
X15317468Y-15586174D02*
X15307944Y-15576650D01*
X15307944Y-15576650D02*
X15288896Y-15548079D01*
X15288896Y-15548079D02*
X15279372Y-15529031D01*
X15279372Y-15529031D02*
X15269849Y-15500460D01*
X15269849Y-15500460D02*
X15260325Y-15452841D01*
X15260325Y-15452841D02*
X15260325Y-15414746D01*
X15260325Y-15414746D02*
X15269849Y-15367127D01*
X15269849Y-15367127D02*
X15279372Y-15338555D01*
X15279372Y-15338555D02*
X15288896Y-15319508D01*
X15288896Y-15319508D02*
X15307944Y-15290936D01*
X15307944Y-15290936D02*
X15317468Y-15281412D01*
X15393658Y-15376650D02*
X15393658Y-15509984D01*
X15393658Y-15395698D02*
X15403182Y-15386174D01*
X15403182Y-15386174D02*
X15422230Y-15376650D01*
X15422230Y-15376650D02*
X15450801Y-15376650D01*
X15450801Y-15376650D02*
X15469849Y-15386174D01*
X15469849Y-15386174D02*
X15479372Y-15405222D01*
X15479372Y-15405222D02*
X15479372Y-15509984D01*
X15603182Y-15509984D02*
X15584134Y-15500460D01*
X15584134Y-15500460D02*
X15574611Y-15490936D01*
X15574611Y-15490936D02*
X15565087Y-15471888D01*
X15565087Y-15471888D02*
X15565087Y-15414746D01*
X15565087Y-15414746D02*
X15574611Y-15395698D01*
X15574611Y-15395698D02*
X15584134Y-15386174D01*
X15584134Y-15386174D02*
X15603182Y-15376650D01*
X15603182Y-15376650D02*
X15631753Y-15376650D01*
X15631753Y-15376650D02*
X15650801Y-15386174D01*
X15650801Y-15386174D02*
X15660325Y-15395698D01*
X15660325Y-15395698D02*
X15669849Y-15414746D01*
X15669849Y-15414746D02*
X15669849Y-15471888D01*
X15669849Y-15471888D02*
X15660325Y-15490936D01*
X15660325Y-15490936D02*
X15650801Y-15500460D01*
X15650801Y-15500460D02*
X15631753Y-15509984D01*
X15631753Y-15509984D02*
X15603182Y-15509984D01*
X15726992Y-15376650D02*
X15803182Y-15376650D01*
X15755563Y-15309984D02*
X15755563Y-15481412D01*
X15755563Y-15481412D02*
X15765087Y-15500460D01*
X15765087Y-15500460D02*
X15784134Y-15509984D01*
X15784134Y-15509984D02*
X15803182Y-15509984D01*
X16022230Y-15376650D02*
X16022230Y-15576650D01*
X16022230Y-15386174D02*
X16041277Y-15376650D01*
X16041277Y-15376650D02*
X16079373Y-15376650D01*
X16079373Y-15376650D02*
X16098420Y-15386174D01*
X16098420Y-15386174D02*
X16107944Y-15395698D01*
X16107944Y-15395698D02*
X16117468Y-15414746D01*
X16117468Y-15414746D02*
X16117468Y-15471888D01*
X16117468Y-15471888D02*
X16107944Y-15490936D01*
X16107944Y-15490936D02*
X16098420Y-15500460D01*
X16098420Y-15500460D02*
X16079373Y-15509984D01*
X16079373Y-15509984D02*
X16041277Y-15509984D01*
X16041277Y-15509984D02*
X16022230Y-15500460D01*
X16231753Y-15509984D02*
X16212706Y-15500460D01*
X16212706Y-15500460D02*
X16203182Y-15481412D01*
X16203182Y-15481412D02*
X16203182Y-15309984D01*
X16393658Y-15509984D02*
X16393658Y-15405222D01*
X16393658Y-15405222D02*
X16384134Y-15386174D01*
X16384134Y-15386174D02*
X16365087Y-15376650D01*
X16365087Y-15376650D02*
X16326992Y-15376650D01*
X16326992Y-15376650D02*
X16307944Y-15386174D01*
X16393658Y-15500460D02*
X16374611Y-15509984D01*
X16374611Y-15509984D02*
X16326992Y-15509984D01*
X16326992Y-15509984D02*
X16307944Y-15500460D01*
X16307944Y-15500460D02*
X16298420Y-15481412D01*
X16298420Y-15481412D02*
X16298420Y-15462365D01*
X16298420Y-15462365D02*
X16307944Y-15443317D01*
X16307944Y-15443317D02*
X16326992Y-15433793D01*
X16326992Y-15433793D02*
X16374611Y-15433793D01*
X16374611Y-15433793D02*
X16393658Y-15424269D01*
X16460325Y-15376650D02*
X16536515Y-15376650D01*
X16488896Y-15309984D02*
X16488896Y-15481412D01*
X16488896Y-15481412D02*
X16498420Y-15500460D01*
X16498420Y-15500460D02*
X16517468Y-15509984D01*
X16517468Y-15509984D02*
X16536515Y-15509984D01*
X16679373Y-15500460D02*
X16660325Y-15509984D01*
X16660325Y-15509984D02*
X16622230Y-15509984D01*
X16622230Y-15509984D02*
X16603182Y-15500460D01*
X16603182Y-15500460D02*
X16593658Y-15481412D01*
X16593658Y-15481412D02*
X16593658Y-15405222D01*
X16593658Y-15405222D02*
X16603182Y-15386174D01*
X16603182Y-15386174D02*
X16622230Y-15376650D01*
X16622230Y-15376650D02*
X16660325Y-15376650D01*
X16660325Y-15376650D02*
X16679373Y-15386174D01*
X16679373Y-15386174D02*
X16688896Y-15405222D01*
X16688896Y-15405222D02*
X16688896Y-15424269D01*
X16688896Y-15424269D02*
X16593658Y-15443317D01*
X16860325Y-15509984D02*
X16860325Y-15309984D01*
X16860325Y-15500460D02*
X16841277Y-15509984D01*
X16841277Y-15509984D02*
X16803182Y-15509984D01*
X16803182Y-15509984D02*
X16784135Y-15500460D01*
X16784135Y-15500460D02*
X16774611Y-15490936D01*
X16774611Y-15490936D02*
X16765087Y-15471888D01*
X16765087Y-15471888D02*
X16765087Y-15414746D01*
X16765087Y-15414746D02*
X16774611Y-15395698D01*
X16774611Y-15395698D02*
X16784135Y-15386174D01*
X16784135Y-15386174D02*
X16803182Y-15376650D01*
X16803182Y-15376650D02*
X16841277Y-15376650D01*
X16841277Y-15376650D02*
X16860325Y-15386174D01*
X16936516Y-15586174D02*
X16946039Y-15576650D01*
X16946039Y-15576650D02*
X16965087Y-15548079D01*
X16965087Y-15548079D02*
X16974611Y-15529031D01*
X16974611Y-15529031D02*
X16984135Y-15500460D01*
X16984135Y-15500460D02*
X16993658Y-15452841D01*
X16993658Y-15452841D02*
X16993658Y-15414746D01*
X16993658Y-15414746D02*
X16984135Y-15367127D01*
X16984135Y-15367127D02*
X16974611Y-15338555D01*
X16974611Y-15338555D02*
X16965087Y-15319508D01*
X16965087Y-15319508D02*
X16946039Y-15290936D01*
X16946039Y-15290936D02*
X16936516Y-15281412D01*
X9980500Y-15638500D02*
X10180500Y-15838500D01*
X10180500Y-15638500D02*
X9980500Y-15838500D01*
X10080500Y-15638500D02*
X10080500Y-15838500D01*
X9980500Y-15738500D02*
X10180500Y-15738500D01*
X10526991Y-15696650D02*
X10526991Y-15829984D01*
X10479372Y-15620460D02*
X10431753Y-15763317D01*
X10431753Y-15763317D02*
X10555563Y-15763317D01*
X10631753Y-15810936D02*
X10641277Y-15820460D01*
X10641277Y-15820460D02*
X10631753Y-15829984D01*
X10631753Y-15829984D02*
X10622229Y-15820460D01*
X10622229Y-15820460D02*
X10631753Y-15810936D01*
X10631753Y-15810936D02*
X10631753Y-15829984D01*
X10765086Y-15629984D02*
X10784134Y-15629984D01*
X10784134Y-15629984D02*
X10803182Y-15639508D01*
X10803182Y-15639508D02*
X10812705Y-15649031D01*
X10812705Y-15649031D02*
X10822229Y-15668079D01*
X10822229Y-15668079D02*
X10831753Y-15706174D01*
X10831753Y-15706174D02*
X10831753Y-15753793D01*
X10831753Y-15753793D02*
X10822229Y-15791888D01*
X10822229Y-15791888D02*
X10812705Y-15810936D01*
X10812705Y-15810936D02*
X10803182Y-15820460D01*
X10803182Y-15820460D02*
X10784134Y-15829984D01*
X10784134Y-15829984D02*
X10765086Y-15829984D01*
X10765086Y-15829984D02*
X10746039Y-15820460D01*
X10746039Y-15820460D02*
X10736515Y-15810936D01*
X10736515Y-15810936D02*
X10726991Y-15791888D01*
X10726991Y-15791888D02*
X10717467Y-15753793D01*
X10717467Y-15753793D02*
X10717467Y-15706174D01*
X10717467Y-15706174D02*
X10726991Y-15668079D01*
X10726991Y-15668079D02*
X10736515Y-15649031D01*
X10736515Y-15649031D02*
X10746039Y-15639508D01*
X10746039Y-15639508D02*
X10765086Y-15629984D01*
X10955563Y-15629984D02*
X10974610Y-15629984D01*
X10974610Y-15629984D02*
X10993658Y-15639508D01*
X10993658Y-15639508D02*
X11003182Y-15649031D01*
X11003182Y-15649031D02*
X11012705Y-15668079D01*
X11012705Y-15668079D02*
X11022229Y-15706174D01*
X11022229Y-15706174D02*
X11022229Y-15753793D01*
X11022229Y-15753793D02*
X11012705Y-15791888D01*
X11012705Y-15791888D02*
X11003182Y-15810936D01*
X11003182Y-15810936D02*
X10993658Y-15820460D01*
X10993658Y-15820460D02*
X10974610Y-15829984D01*
X10974610Y-15829984D02*
X10955563Y-15829984D01*
X10955563Y-15829984D02*
X10936515Y-15820460D01*
X10936515Y-15820460D02*
X10926991Y-15810936D01*
X10926991Y-15810936D02*
X10917467Y-15791888D01*
X10917467Y-15791888D02*
X10907944Y-15753793D01*
X10907944Y-15753793D02*
X10907944Y-15706174D01*
X10907944Y-15706174D02*
X10917467Y-15668079D01*
X10917467Y-15668079D02*
X10926991Y-15649031D01*
X10926991Y-15649031D02*
X10936515Y-15639508D01*
X10936515Y-15639508D02*
X10955563Y-15629984D01*
X11146039Y-15629984D02*
X11165086Y-15629984D01*
X11165086Y-15629984D02*
X11184134Y-15639508D01*
X11184134Y-15639508D02*
X11193658Y-15649031D01*
X11193658Y-15649031D02*
X11203182Y-15668079D01*
X11203182Y-15668079D02*
X11212705Y-15706174D01*
X11212705Y-15706174D02*
X11212705Y-15753793D01*
X11212705Y-15753793D02*
X11203182Y-15791888D01*
X11203182Y-15791888D02*
X11193658Y-15810936D01*
X11193658Y-15810936D02*
X11184134Y-15820460D01*
X11184134Y-15820460D02*
X11165086Y-15829984D01*
X11165086Y-15829984D02*
X11146039Y-15829984D01*
X11146039Y-15829984D02*
X11126991Y-15820460D01*
X11126991Y-15820460D02*
X11117467Y-15810936D01*
X11117467Y-15810936D02*
X11107944Y-15791888D01*
X11107944Y-15791888D02*
X11098420Y-15753793D01*
X11098420Y-15753793D02*
X11098420Y-15706174D01*
X11098420Y-15706174D02*
X11107944Y-15668079D01*
X11107944Y-15668079D02*
X11117467Y-15649031D01*
X11117467Y-15649031D02*
X11126991Y-15639508D01*
X11126991Y-15639508D02*
X11146039Y-15629984D01*
X11298420Y-15829984D02*
X11298420Y-15696650D01*
X11298420Y-15715698D02*
X11307943Y-15706174D01*
X11307943Y-15706174D02*
X11326991Y-15696650D01*
X11326991Y-15696650D02*
X11355563Y-15696650D01*
X11355563Y-15696650D02*
X11374610Y-15706174D01*
X11374610Y-15706174D02*
X11384134Y-15725222D01*
X11384134Y-15725222D02*
X11384134Y-15829984D01*
X11384134Y-15725222D02*
X11393658Y-15706174D01*
X11393658Y-15706174D02*
X11412705Y-15696650D01*
X11412705Y-15696650D02*
X11441277Y-15696650D01*
X11441277Y-15696650D02*
X11460324Y-15706174D01*
X11460324Y-15706174D02*
X11469848Y-15725222D01*
X11469848Y-15725222D02*
X11469848Y-15829984D01*
X11565086Y-15829984D02*
X11565086Y-15696650D01*
X11565086Y-15715698D02*
X11574610Y-15706174D01*
X11574610Y-15706174D02*
X11593658Y-15696650D01*
X11593658Y-15696650D02*
X11622229Y-15696650D01*
X11622229Y-15696650D02*
X11641277Y-15706174D01*
X11641277Y-15706174D02*
X11650801Y-15725222D01*
X11650801Y-15725222D02*
X11650801Y-15829984D01*
X11650801Y-15725222D02*
X11660324Y-15706174D01*
X11660324Y-15706174D02*
X11679372Y-15696650D01*
X11679372Y-15696650D02*
X11707943Y-15696650D01*
X11707943Y-15696650D02*
X11726991Y-15706174D01*
X11726991Y-15706174D02*
X11736515Y-15725222D01*
X11736515Y-15725222D02*
X11736515Y-15829984D01*
X12126991Y-15620460D02*
X11955563Y-15877603D01*
X12384134Y-15629984D02*
X12403182Y-15629984D01*
X12403182Y-15629984D02*
X12422229Y-15639508D01*
X12422229Y-15639508D02*
X12431753Y-15649031D01*
X12431753Y-15649031D02*
X12441277Y-15668079D01*
X12441277Y-15668079D02*
X12450801Y-15706174D01*
X12450801Y-15706174D02*
X12450801Y-15753793D01*
X12450801Y-15753793D02*
X12441277Y-15791888D01*
X12441277Y-15791888D02*
X12431753Y-15810936D01*
X12431753Y-15810936D02*
X12422229Y-15820460D01*
X12422229Y-15820460D02*
X12403182Y-15829984D01*
X12403182Y-15829984D02*
X12384134Y-15829984D01*
X12384134Y-15829984D02*
X12365086Y-15820460D01*
X12365086Y-15820460D02*
X12355563Y-15810936D01*
X12355563Y-15810936D02*
X12346039Y-15791888D01*
X12346039Y-15791888D02*
X12336515Y-15753793D01*
X12336515Y-15753793D02*
X12336515Y-15706174D01*
X12336515Y-15706174D02*
X12346039Y-15668079D01*
X12346039Y-15668079D02*
X12355563Y-15649031D01*
X12355563Y-15649031D02*
X12365086Y-15639508D01*
X12365086Y-15639508D02*
X12384134Y-15629984D01*
X12536515Y-15810936D02*
X12546039Y-15820460D01*
X12546039Y-15820460D02*
X12536515Y-15829984D01*
X12536515Y-15829984D02*
X12526991Y-15820460D01*
X12526991Y-15820460D02*
X12536515Y-15810936D01*
X12536515Y-15810936D02*
X12536515Y-15829984D01*
X12736515Y-15829984D02*
X12622229Y-15829984D01*
X12679372Y-15829984D02*
X12679372Y-15629984D01*
X12679372Y-15629984D02*
X12660325Y-15658555D01*
X12660325Y-15658555D02*
X12641277Y-15677603D01*
X12641277Y-15677603D02*
X12622229Y-15687127D01*
X12917467Y-15629984D02*
X12822229Y-15629984D01*
X12822229Y-15629984D02*
X12812706Y-15725222D01*
X12812706Y-15725222D02*
X12822229Y-15715698D01*
X12822229Y-15715698D02*
X12841277Y-15706174D01*
X12841277Y-15706174D02*
X12888896Y-15706174D01*
X12888896Y-15706174D02*
X12907944Y-15715698D01*
X12907944Y-15715698D02*
X12917467Y-15725222D01*
X12917467Y-15725222D02*
X12926991Y-15744269D01*
X12926991Y-15744269D02*
X12926991Y-15791888D01*
X12926991Y-15791888D02*
X12917467Y-15810936D01*
X12917467Y-15810936D02*
X12907944Y-15820460D01*
X12907944Y-15820460D02*
X12888896Y-15829984D01*
X12888896Y-15829984D02*
X12841277Y-15829984D01*
X12841277Y-15829984D02*
X12822229Y-15820460D01*
X12822229Y-15820460D02*
X12812706Y-15810936D01*
X12993658Y-15629984D02*
X13126991Y-15629984D01*
X13126991Y-15629984D02*
X13041277Y-15829984D01*
X13298420Y-15629984D02*
X13203182Y-15629984D01*
X13203182Y-15629984D02*
X13193658Y-15725222D01*
X13193658Y-15725222D02*
X13203182Y-15715698D01*
X13203182Y-15715698D02*
X13222229Y-15706174D01*
X13222229Y-15706174D02*
X13269848Y-15706174D01*
X13269848Y-15706174D02*
X13288896Y-15715698D01*
X13288896Y-15715698D02*
X13298420Y-15725222D01*
X13298420Y-15725222D02*
X13307944Y-15744269D01*
X13307944Y-15744269D02*
X13307944Y-15791888D01*
X13307944Y-15791888D02*
X13298420Y-15810936D01*
X13298420Y-15810936D02*
X13288896Y-15820460D01*
X13288896Y-15820460D02*
X13269848Y-15829984D01*
X13269848Y-15829984D02*
X13222229Y-15829984D01*
X13222229Y-15829984D02*
X13203182Y-15820460D01*
X13203182Y-15820460D02*
X13193658Y-15810936D01*
X13384134Y-15629984D02*
X13384134Y-15668079D01*
X13460325Y-15629984D02*
X13460325Y-15668079D01*
X13755563Y-15906174D02*
X13746039Y-15896650D01*
X13746039Y-15896650D02*
X13726991Y-15868079D01*
X13726991Y-15868079D02*
X13717468Y-15849031D01*
X13717468Y-15849031D02*
X13707944Y-15820460D01*
X13707944Y-15820460D02*
X13698420Y-15772841D01*
X13698420Y-15772841D02*
X13698420Y-15734746D01*
X13698420Y-15734746D02*
X13707944Y-15687127D01*
X13707944Y-15687127D02*
X13717468Y-15658555D01*
X13717468Y-15658555D02*
X13726991Y-15639508D01*
X13726991Y-15639508D02*
X13746039Y-15610936D01*
X13746039Y-15610936D02*
X13755563Y-15601412D01*
X13936515Y-15829984D02*
X13822229Y-15829984D01*
X13879372Y-15829984D02*
X13879372Y-15629984D01*
X13879372Y-15629984D02*
X13860325Y-15658555D01*
X13860325Y-15658555D02*
X13841277Y-15677603D01*
X13841277Y-15677603D02*
X13822229Y-15687127D01*
X14050801Y-15715698D02*
X14031753Y-15706174D01*
X14031753Y-15706174D02*
X14022229Y-15696650D01*
X14022229Y-15696650D02*
X14012706Y-15677603D01*
X14012706Y-15677603D02*
X14012706Y-15668079D01*
X14012706Y-15668079D02*
X14022229Y-15649031D01*
X14022229Y-15649031D02*
X14031753Y-15639508D01*
X14031753Y-15639508D02*
X14050801Y-15629984D01*
X14050801Y-15629984D02*
X14088896Y-15629984D01*
X14088896Y-15629984D02*
X14107944Y-15639508D01*
X14107944Y-15639508D02*
X14117468Y-15649031D01*
X14117468Y-15649031D02*
X14126991Y-15668079D01*
X14126991Y-15668079D02*
X14126991Y-15677603D01*
X14126991Y-15677603D02*
X14117468Y-15696650D01*
X14117468Y-15696650D02*
X14107944Y-15706174D01*
X14107944Y-15706174D02*
X14088896Y-15715698D01*
X14088896Y-15715698D02*
X14050801Y-15715698D01*
X14050801Y-15715698D02*
X14031753Y-15725222D01*
X14031753Y-15725222D02*
X14022229Y-15734746D01*
X14022229Y-15734746D02*
X14012706Y-15753793D01*
X14012706Y-15753793D02*
X14012706Y-15791888D01*
X14012706Y-15791888D02*
X14022229Y-15810936D01*
X14022229Y-15810936D02*
X14031753Y-15820460D01*
X14031753Y-15820460D02*
X14050801Y-15829984D01*
X14050801Y-15829984D02*
X14088896Y-15829984D01*
X14088896Y-15829984D02*
X14107944Y-15820460D01*
X14107944Y-15820460D02*
X14117468Y-15810936D01*
X14117468Y-15810936D02*
X14126991Y-15791888D01*
X14126991Y-15791888D02*
X14126991Y-15753793D01*
X14126991Y-15753793D02*
X14117468Y-15734746D01*
X14117468Y-15734746D02*
X14107944Y-15725222D01*
X14107944Y-15725222D02*
X14088896Y-15715698D01*
X14365087Y-15829984D02*
X14365087Y-15629984D01*
X14450801Y-15829984D02*
X14450801Y-15725222D01*
X14450801Y-15725222D02*
X14441277Y-15706174D01*
X14441277Y-15706174D02*
X14422230Y-15696650D01*
X14422230Y-15696650D02*
X14393658Y-15696650D01*
X14393658Y-15696650D02*
X14374610Y-15706174D01*
X14374610Y-15706174D02*
X14365087Y-15715698D01*
X14574610Y-15829984D02*
X14555563Y-15820460D01*
X14555563Y-15820460D02*
X14546039Y-15810936D01*
X14546039Y-15810936D02*
X14536515Y-15791888D01*
X14536515Y-15791888D02*
X14536515Y-15734746D01*
X14536515Y-15734746D02*
X14546039Y-15715698D01*
X14546039Y-15715698D02*
X14555563Y-15706174D01*
X14555563Y-15706174D02*
X14574610Y-15696650D01*
X14574610Y-15696650D02*
X14603182Y-15696650D01*
X14603182Y-15696650D02*
X14622230Y-15706174D01*
X14622230Y-15706174D02*
X14631753Y-15715698D01*
X14631753Y-15715698D02*
X14641277Y-15734746D01*
X14641277Y-15734746D02*
X14641277Y-15791888D01*
X14641277Y-15791888D02*
X14631753Y-15810936D01*
X14631753Y-15810936D02*
X14622230Y-15820460D01*
X14622230Y-15820460D02*
X14603182Y-15829984D01*
X14603182Y-15829984D02*
X14574610Y-15829984D01*
X14755563Y-15829984D02*
X14736515Y-15820460D01*
X14736515Y-15820460D02*
X14726991Y-15801412D01*
X14726991Y-15801412D02*
X14726991Y-15629984D01*
X14907944Y-15820460D02*
X14888896Y-15829984D01*
X14888896Y-15829984D02*
X14850801Y-15829984D01*
X14850801Y-15829984D02*
X14831753Y-15820460D01*
X14831753Y-15820460D02*
X14822230Y-15801412D01*
X14822230Y-15801412D02*
X14822230Y-15725222D01*
X14822230Y-15725222D02*
X14831753Y-15706174D01*
X14831753Y-15706174D02*
X14850801Y-15696650D01*
X14850801Y-15696650D02*
X14888896Y-15696650D01*
X14888896Y-15696650D02*
X14907944Y-15706174D01*
X14907944Y-15706174D02*
X14917468Y-15725222D01*
X14917468Y-15725222D02*
X14917468Y-15744269D01*
X14917468Y-15744269D02*
X14822230Y-15763317D01*
X14993658Y-15820460D02*
X15012706Y-15829984D01*
X15012706Y-15829984D02*
X15050801Y-15829984D01*
X15050801Y-15829984D02*
X15069849Y-15820460D01*
X15069849Y-15820460D02*
X15079372Y-15801412D01*
X15079372Y-15801412D02*
X15079372Y-15791888D01*
X15079372Y-15791888D02*
X15069849Y-15772841D01*
X15069849Y-15772841D02*
X15050801Y-15763317D01*
X15050801Y-15763317D02*
X15022230Y-15763317D01*
X15022230Y-15763317D02*
X15003182Y-15753793D01*
X15003182Y-15753793D02*
X14993658Y-15734746D01*
X14993658Y-15734746D02*
X14993658Y-15725222D01*
X14993658Y-15725222D02*
X15003182Y-15706174D01*
X15003182Y-15706174D02*
X15022230Y-15696650D01*
X15022230Y-15696650D02*
X15050801Y-15696650D01*
X15050801Y-15696650D02*
X15069849Y-15706174D01*
X15146039Y-15906174D02*
X15155563Y-15896650D01*
X15155563Y-15896650D02*
X15174611Y-15868079D01*
X15174611Y-15868079D02*
X15184134Y-15849031D01*
X15184134Y-15849031D02*
X15193658Y-15820460D01*
X15193658Y-15820460D02*
X15203182Y-15772841D01*
X15203182Y-15772841D02*
X15203182Y-15734746D01*
X15203182Y-15734746D02*
X15193658Y-15687127D01*
X15193658Y-15687127D02*
X15184134Y-15658555D01*
X15184134Y-15658555D02*
X15174611Y-15639508D01*
X15174611Y-15639508D02*
X15155563Y-15610936D01*
X15155563Y-15610936D02*
X15146039Y-15601412D01*
X15507944Y-15906174D02*
X15498420Y-15896650D01*
X15498420Y-15896650D02*
X15479372Y-15868079D01*
X15479372Y-15868079D02*
X15469849Y-15849031D01*
X15469849Y-15849031D02*
X15460325Y-15820460D01*
X15460325Y-15820460D02*
X15450801Y-15772841D01*
X15450801Y-15772841D02*
X15450801Y-15734746D01*
X15450801Y-15734746D02*
X15460325Y-15687127D01*
X15460325Y-15687127D02*
X15469849Y-15658555D01*
X15469849Y-15658555D02*
X15479372Y-15639508D01*
X15479372Y-15639508D02*
X15498420Y-15610936D01*
X15498420Y-15610936D02*
X15507944Y-15601412D01*
X15584134Y-15696650D02*
X15584134Y-15829984D01*
X15584134Y-15715698D02*
X15593658Y-15706174D01*
X15593658Y-15706174D02*
X15612706Y-15696650D01*
X15612706Y-15696650D02*
X15641277Y-15696650D01*
X15641277Y-15696650D02*
X15660325Y-15706174D01*
X15660325Y-15706174D02*
X15669849Y-15725222D01*
X15669849Y-15725222D02*
X15669849Y-15829984D01*
X15793658Y-15829984D02*
X15774611Y-15820460D01*
X15774611Y-15820460D02*
X15765087Y-15810936D01*
X15765087Y-15810936D02*
X15755563Y-15791888D01*
X15755563Y-15791888D02*
X15755563Y-15734746D01*
X15755563Y-15734746D02*
X15765087Y-15715698D01*
X15765087Y-15715698D02*
X15774611Y-15706174D01*
X15774611Y-15706174D02*
X15793658Y-15696650D01*
X15793658Y-15696650D02*
X15822230Y-15696650D01*
X15822230Y-15696650D02*
X15841277Y-15706174D01*
X15841277Y-15706174D02*
X15850801Y-15715698D01*
X15850801Y-15715698D02*
X15860325Y-15734746D01*
X15860325Y-15734746D02*
X15860325Y-15791888D01*
X15860325Y-15791888D02*
X15850801Y-15810936D01*
X15850801Y-15810936D02*
X15841277Y-15820460D01*
X15841277Y-15820460D02*
X15822230Y-15829984D01*
X15822230Y-15829984D02*
X15793658Y-15829984D01*
X15917468Y-15696650D02*
X15993658Y-15696650D01*
X15946039Y-15629984D02*
X15946039Y-15801412D01*
X15946039Y-15801412D02*
X15955563Y-15820460D01*
X15955563Y-15820460D02*
X15974611Y-15829984D01*
X15974611Y-15829984D02*
X15993658Y-15829984D01*
X16212706Y-15696650D02*
X16212706Y-15896650D01*
X16212706Y-15706174D02*
X16231753Y-15696650D01*
X16231753Y-15696650D02*
X16269849Y-15696650D01*
X16269849Y-15696650D02*
X16288896Y-15706174D01*
X16288896Y-15706174D02*
X16298420Y-15715698D01*
X16298420Y-15715698D02*
X16307944Y-15734746D01*
X16307944Y-15734746D02*
X16307944Y-15791888D01*
X16307944Y-15791888D02*
X16298420Y-15810936D01*
X16298420Y-15810936D02*
X16288896Y-15820460D01*
X16288896Y-15820460D02*
X16269849Y-15829984D01*
X16269849Y-15829984D02*
X16231753Y-15829984D01*
X16231753Y-15829984D02*
X16212706Y-15820460D01*
X16422230Y-15829984D02*
X16403182Y-15820460D01*
X16403182Y-15820460D02*
X16393658Y-15801412D01*
X16393658Y-15801412D02*
X16393658Y-15629984D01*
X16584134Y-15829984D02*
X16584134Y-15725222D01*
X16584134Y-15725222D02*
X16574611Y-15706174D01*
X16574611Y-15706174D02*
X16555563Y-15696650D01*
X16555563Y-15696650D02*
X16517468Y-15696650D01*
X16517468Y-15696650D02*
X16498420Y-15706174D01*
X16584134Y-15820460D02*
X16565087Y-15829984D01*
X16565087Y-15829984D02*
X16517468Y-15829984D01*
X16517468Y-15829984D02*
X16498420Y-15820460D01*
X16498420Y-15820460D02*
X16488896Y-15801412D01*
X16488896Y-15801412D02*
X16488896Y-15782365D01*
X16488896Y-15782365D02*
X16498420Y-15763317D01*
X16498420Y-15763317D02*
X16517468Y-15753793D01*
X16517468Y-15753793D02*
X16565087Y-15753793D01*
X16565087Y-15753793D02*
X16584134Y-15744269D01*
X16650801Y-15696650D02*
X16726992Y-15696650D01*
X16679373Y-15629984D02*
X16679373Y-15801412D01*
X16679373Y-15801412D02*
X16688896Y-15820460D01*
X16688896Y-15820460D02*
X16707944Y-15829984D01*
X16707944Y-15829984D02*
X16726992Y-15829984D01*
X16869849Y-15820460D02*
X16850801Y-15829984D01*
X16850801Y-15829984D02*
X16812706Y-15829984D01*
X16812706Y-15829984D02*
X16793658Y-15820460D01*
X16793658Y-15820460D02*
X16784135Y-15801412D01*
X16784135Y-15801412D02*
X16784135Y-15725222D01*
X16784135Y-15725222D02*
X16793658Y-15706174D01*
X16793658Y-15706174D02*
X16812706Y-15696650D01*
X16812706Y-15696650D02*
X16850801Y-15696650D01*
X16850801Y-15696650D02*
X16869849Y-15706174D01*
X16869849Y-15706174D02*
X16879373Y-15725222D01*
X16879373Y-15725222D02*
X16879373Y-15744269D01*
X16879373Y-15744269D02*
X16784135Y-15763317D01*
X17050801Y-15829984D02*
X17050801Y-15629984D01*
X17050801Y-15820460D02*
X17031754Y-15829984D01*
X17031754Y-15829984D02*
X16993658Y-15829984D01*
X16993658Y-15829984D02*
X16974611Y-15820460D01*
X16974611Y-15820460D02*
X16965087Y-15810936D01*
X16965087Y-15810936D02*
X16955563Y-15791888D01*
X16955563Y-15791888D02*
X16955563Y-15734746D01*
X16955563Y-15734746D02*
X16965087Y-15715698D01*
X16965087Y-15715698D02*
X16974611Y-15706174D01*
X16974611Y-15706174D02*
X16993658Y-15696650D01*
X16993658Y-15696650D02*
X17031754Y-15696650D01*
X17031754Y-15696650D02*
X17050801Y-15706174D01*
X17126992Y-15906174D02*
X17136516Y-15896650D01*
X17136516Y-15896650D02*
X17155563Y-15868079D01*
X17155563Y-15868079D02*
X17165087Y-15849031D01*
X17165087Y-15849031D02*
X17174611Y-15820460D01*
X17174611Y-15820460D02*
X17184135Y-15772841D01*
X17184135Y-15772841D02*
X17184135Y-15734746D01*
X17184135Y-15734746D02*
X17174611Y-15687127D01*
X17174611Y-15687127D02*
X17165087Y-15658555D01*
X17165087Y-15658555D02*
X17155563Y-15639508D01*
X17155563Y-15639508D02*
X17136516Y-15610936D01*
X17136516Y-15610936D02*
X17126992Y-15601412D01*
M02*
