%TF.GenerationSoftware,KiCad,Pcbnew,7.0.9-7.0.9~ubuntu22.04.1*%
%TF.CreationDate,2023-11-28T14:58:53+03:00*%
%TF.ProjectId,Keeb,4b656562-2e6b-4696-9361-645f70636258,rev?*%
%TF.SameCoordinates,Original*%
%TF.FileFunction,Soldermask,Top*%
%TF.FilePolarity,Negative*%
%FSLAX46Y46*%
G04 Gerber Fmt 4.6, Leading zero omitted, Abs format (unit mm)*
G04 Created by KiCad (PCBNEW 7.0.9-7.0.9~ubuntu22.04.1) date 2023-11-28 14:58:53*
%MOMM*%
%LPD*%
G01*
G04 APERTURE LIST*
G04 Aperture macros list*
%AMRoundRect*
0 Rectangle with rounded corners*
0 $1 Rounding radius*
0 $2 $3 $4 $5 $6 $7 $8 $9 X,Y pos of 4 corners*
0 Add a 4 corners polygon primitive as box body*
4,1,4,$2,$3,$4,$5,$6,$7,$8,$9,$2,$3,0*
0 Add four circle primitives for the rounded corners*
1,1,$1+$1,$2,$3*
1,1,$1+$1,$4,$5*
1,1,$1+$1,$6,$7*
1,1,$1+$1,$8,$9*
0 Add four rect primitives between the rounded corners*
20,1,$1+$1,$2,$3,$4,$5,0*
20,1,$1+$1,$4,$5,$6,$7,0*
20,1,$1+$1,$6,$7,$8,$9,0*
20,1,$1+$1,$8,$9,$2,$3,0*%
%AMHorizOval*
0 Thick line with rounded ends*
0 $1 width*
0 $2 $3 position (X,Y) of the first rounded end (center of the circle)*
0 $4 $5 position (X,Y) of the second rounded end (center of the circle)*
0 Add line between two ends*
20,1,$1,$2,$3,$4,$5,0*
0 Add two circle primitives to create the rounded ends*
1,1,$1,$2,$3*
1,1,$1,$4,$5*%
%AMRotRect*
0 Rectangle, with rotation*
0 The origin of the aperture is its center*
0 $1 length*
0 $2 width*
0 $3 Rotation angle, in degrees counterclockwise*
0 Add horizontal line*
21,1,$1,$2,0,0,$3*%
G04 Aperture macros list end*
%ADD10C,0.010000*%
%ADD11C,3.200000*%
%ADD12HorizOval,1.800000X0.000000X0.000000X0.000000X0.000000X0*%
%ADD13HorizOval,1.500000X0.000000X0.000000X0.000000X0.000000X0*%
%ADD14RotRect,3.500000X1.700000X120.000000*%
%ADD15C,0.600000*%
%ADD16O,1.104000X2.204000*%
%ADD17O,1.104000X1.904000*%
%ADD18C,1.750000*%
%ADD19C,3.050000*%
%ADD20C,4.000000*%
%ADD21RoundRect,0.250000X1.025000X1.000000X-1.025000X1.000000X-1.025000X-1.000000X1.025000X-1.000000X0*%
%ADD22RoundRect,0.250000X0.387676X1.378525X-1.387676X0.353525X-0.387676X-1.378525X1.387676X-0.353525X0*%
%ADD23RoundRect,0.250000X0.835780X1.162797X-1.183076X0.806818X-0.835780X-1.162797X1.183076X-0.806818X0*%
G04 APERTURE END LIST*
%TO.C,J1*%
D10*
X170215000Y-41410000D02*
X169515000Y-41410000D01*
X169515000Y-40170000D01*
X170215000Y-40170000D01*
X170215000Y-41410000D01*
G36*
X170215000Y-41410000D02*
G01*
X169515000Y-41410000D01*
X169515000Y-40170000D01*
X170215000Y-40170000D01*
X170215000Y-41410000D01*
G37*
X169415000Y-41410000D02*
X168715000Y-41410000D01*
X168715000Y-40170000D01*
X169415000Y-40170000D01*
X169415000Y-41410000D01*
G36*
X169415000Y-41410000D02*
G01*
X168715000Y-41410000D01*
X168715000Y-40170000D01*
X169415000Y-40170000D01*
X169415000Y-41410000D01*
G37*
X168615000Y-41410000D02*
X168215000Y-41410000D01*
X168215000Y-40170000D01*
X168615000Y-40170000D01*
X168615000Y-41410000D01*
G36*
X168615000Y-41410000D02*
G01*
X168215000Y-41410000D01*
X168215000Y-40170000D01*
X168615000Y-40170000D01*
X168615000Y-41410000D01*
G37*
X168115000Y-41410000D02*
X167715000Y-41410000D01*
X167715000Y-40170000D01*
X168115000Y-40170000D01*
X168115000Y-41410000D01*
G36*
X168115000Y-41410000D02*
G01*
X167715000Y-41410000D01*
X167715000Y-40170000D01*
X168115000Y-40170000D01*
X168115000Y-41410000D01*
G37*
X167615000Y-41410000D02*
X167215000Y-41410000D01*
X167215000Y-40170000D01*
X167615000Y-40170000D01*
X167615000Y-41410000D01*
G36*
X167615000Y-41410000D02*
G01*
X167215000Y-41410000D01*
X167215000Y-40170000D01*
X167615000Y-40170000D01*
X167615000Y-41410000D01*
G37*
X167115000Y-41410000D02*
X166715000Y-41410000D01*
X166715000Y-40170000D01*
X167115000Y-40170000D01*
X167115000Y-41410000D01*
G36*
X167115000Y-41410000D02*
G01*
X166715000Y-41410000D01*
X166715000Y-40170000D01*
X167115000Y-40170000D01*
X167115000Y-41410000D01*
G37*
X166615000Y-41410000D02*
X166215000Y-41410000D01*
X166215000Y-40170000D01*
X166615000Y-40170000D01*
X166615000Y-41410000D01*
G36*
X166615000Y-41410000D02*
G01*
X166215000Y-41410000D01*
X166215000Y-40170000D01*
X166615000Y-40170000D01*
X166615000Y-41410000D01*
G37*
X166115000Y-41410000D02*
X165715000Y-41410000D01*
X165715000Y-40170000D01*
X166115000Y-40170000D01*
X166115000Y-41410000D01*
G36*
X166115000Y-41410000D02*
G01*
X165715000Y-41410000D01*
X165715000Y-40170000D01*
X166115000Y-40170000D01*
X166115000Y-41410000D01*
G37*
X165615000Y-41410000D02*
X165215000Y-41410000D01*
X165215000Y-40170000D01*
X165615000Y-40170000D01*
X165615000Y-41410000D01*
G36*
X165615000Y-41410000D02*
G01*
X165215000Y-41410000D01*
X165215000Y-40170000D01*
X165615000Y-40170000D01*
X165615000Y-41410000D01*
G37*
X165115000Y-41410000D02*
X164715000Y-41410000D01*
X164715000Y-40170000D01*
X165115000Y-40170000D01*
X165115000Y-41410000D01*
G36*
X165115000Y-41410000D02*
G01*
X164715000Y-41410000D01*
X164715000Y-40170000D01*
X165115000Y-40170000D01*
X165115000Y-41410000D01*
G37*
X164615000Y-41410000D02*
X163915000Y-41410000D01*
X163915000Y-40170000D01*
X164615000Y-40170000D01*
X164615000Y-41410000D01*
G36*
X164615000Y-41410000D02*
G01*
X163915000Y-41410000D01*
X163915000Y-40170000D01*
X164615000Y-40170000D01*
X164615000Y-41410000D01*
G37*
X163815000Y-41410000D02*
X163115000Y-41410000D01*
X163115000Y-40170000D01*
X163815000Y-40170000D01*
X163815000Y-41410000D01*
G36*
X163815000Y-41410000D02*
G01*
X163115000Y-41410000D01*
X163115000Y-40170000D01*
X163815000Y-40170000D01*
X163815000Y-41410000D01*
G37*
%TD*%
D11*
%TO.C,H5*%
X181701819Y-104371119D03*
%TD*%
%TO.C,H7*%
X178280000Y-84192944D03*
%TD*%
%TO.C,H2*%
X140180000Y-70092944D03*
%TD*%
%TO.C,H8*%
X121130000Y-96192944D03*
%TD*%
%TO.C,H4*%
X121130000Y-58092944D03*
%TD*%
%TO.C,H1*%
X178280000Y-46092944D03*
%TD*%
%TO.C,H3*%
X140180000Y-51042944D03*
%TD*%
%TO.C,H9*%
X148706251Y-123421119D03*
%TD*%
D12*
%TO.C,U1*%
X115585943Y-122894807D03*
D13*
X118060000Y-121120000D03*
X115635000Y-116919776D03*
D12*
X112860943Y-118174969D03*
D14*
X119005860Y-129078277D03*
X121205565Y-127808277D03*
X123405269Y-126538277D03*
X125604974Y-125268277D03*
X127804678Y-123998277D03*
X130004383Y-122728277D03*
X132204087Y-121458277D03*
X134403792Y-120188277D03*
X136603496Y-118918277D03*
X138803201Y-117648277D03*
X141002905Y-116378277D03*
X143202610Y-115108277D03*
X145402314Y-113838277D03*
X147602019Y-112568277D03*
X149801723Y-111298277D03*
X152001428Y-110028277D03*
X154201132Y-108758277D03*
X156400837Y-107488277D03*
X158600541Y-106218277D03*
X160800246Y-104948277D03*
X151010246Y-87991499D03*
X148810541Y-89261499D03*
X146610837Y-90531499D03*
X144411132Y-91801499D03*
X142211428Y-93071499D03*
X140011723Y-94341499D03*
X137812019Y-95611499D03*
X135612314Y-96881499D03*
X133412610Y-98151499D03*
X131212905Y-99421499D03*
X129013201Y-100691499D03*
X126813496Y-101961499D03*
X124613792Y-103231499D03*
X122414087Y-104501499D03*
X120214383Y-105771499D03*
X118014678Y-107041499D03*
X115814974Y-108311499D03*
X113615269Y-109581499D03*
X111415565Y-110851499D03*
X109215860Y-112121499D03*
%TD*%
D15*
%TO.C,J1*%
X169555000Y-39720000D03*
X163775000Y-39720000D03*
D16*
X170990000Y-40210000D03*
X162340000Y-40210000D03*
D17*
X170990000Y-36040000D03*
X162340000Y-36040000D03*
%TD*%
D18*
%TO.C,SW3*%
X116685000Y-55617944D03*
D19*
X115415000Y-53077944D03*
D20*
X111605000Y-55617944D03*
D19*
X109065000Y-50537944D03*
D18*
X106525000Y-55617944D03*
D21*
X118690000Y-53077944D03*
X105763000Y-50537944D03*
%TD*%
D18*
%TO.C,SW4*%
X116685000Y-74667944D03*
D19*
X115415000Y-72127944D03*
D20*
X111605000Y-74667944D03*
D19*
X109065000Y-69587944D03*
D18*
X106525000Y-74667944D03*
D21*
X118690000Y-72127944D03*
X105763000Y-69587944D03*
%TD*%
D18*
%TO.C,SW5*%
X116685000Y-93717944D03*
D19*
X115415000Y-91177944D03*
D20*
X111605000Y-93717944D03*
D19*
X109065000Y-88637944D03*
D18*
X106525000Y-93717944D03*
D21*
X118690000Y-91177944D03*
X105763000Y-88637944D03*
%TD*%
D18*
%TO.C,SW6*%
X135735000Y-48567944D03*
D19*
X134465000Y-46027944D03*
D20*
X130655000Y-48567944D03*
D19*
X128115000Y-43487944D03*
D18*
X125575000Y-48567944D03*
D21*
X137740000Y-46027944D03*
X124813000Y-43487944D03*
%TD*%
D18*
%TO.C,SW7*%
X135735000Y-67617944D03*
D19*
X134465000Y-65077944D03*
D20*
X130655000Y-67617944D03*
D19*
X128115000Y-62537944D03*
D18*
X125575000Y-67617944D03*
D21*
X137740000Y-65077944D03*
X124813000Y-62537944D03*
%TD*%
D18*
%TO.C,SW8*%
X135735000Y-86667944D03*
D19*
X134465000Y-84127944D03*
D20*
X130655000Y-86667944D03*
D19*
X128115000Y-81587944D03*
D18*
X125575000Y-86667944D03*
D21*
X137740000Y-84127944D03*
X124813000Y-81587944D03*
%TD*%
D18*
%TO.C,SW9*%
X154785000Y-41517944D03*
D19*
X153515000Y-38977944D03*
D20*
X149705000Y-41517944D03*
D19*
X147165000Y-36437944D03*
D18*
X144625000Y-41517944D03*
D21*
X156790000Y-38977944D03*
X143863000Y-36437944D03*
%TD*%
D18*
%TO.C,SW10*%
X154785000Y-60567944D03*
D19*
X153515000Y-58027944D03*
D20*
X149705000Y-60567944D03*
D19*
X147165000Y-55487944D03*
D18*
X144625000Y-60567944D03*
D21*
X156790000Y-58027944D03*
X143863000Y-55487944D03*
%TD*%
D18*
%TO.C,SW11*%
X154785000Y-79617944D03*
D19*
X153515000Y-77077944D03*
D20*
X149705000Y-79617944D03*
D19*
X147165000Y-74537944D03*
D18*
X144625000Y-79617944D03*
D21*
X156790000Y-77077944D03*
X143863000Y-74537944D03*
%TD*%
D18*
%TO.C,SW13*%
X173835000Y-55617944D03*
D19*
X172565000Y-53077944D03*
D20*
X168755000Y-55617944D03*
D19*
X166215000Y-50537944D03*
D18*
X163675000Y-55617944D03*
D21*
X175840000Y-53077944D03*
X162913000Y-50537944D03*
%TD*%
D18*
%TO.C,SW14*%
X173835000Y-74667944D03*
D19*
X172565000Y-72127944D03*
D20*
X168755000Y-74667944D03*
D19*
X166215000Y-69587944D03*
D18*
X163675000Y-74667944D03*
D21*
X175840000Y-72127944D03*
X162913000Y-69587944D03*
%TD*%
D18*
%TO.C,SW15*%
X173835000Y-93717944D03*
D19*
X172565000Y-91177944D03*
D20*
X168755000Y-93717944D03*
D19*
X166215000Y-88637944D03*
D18*
X163675000Y-93717944D03*
D21*
X175840000Y-91177944D03*
X162913000Y-88637944D03*
%TD*%
D18*
%TO.C,SW16*%
X166117052Y-124367511D03*
D19*
X163747200Y-122802806D03*
D20*
X161717643Y-126907511D03*
D19*
X156977938Y-123778102D03*
D18*
X157318234Y-129447511D03*
D22*
X166583433Y-121165306D03*
X154118323Y-125429102D03*
%TD*%
D18*
%TO.C,SW17*%
X192885000Y-55617944D03*
D19*
X191615000Y-53077944D03*
D20*
X187805000Y-55617944D03*
D19*
X185265000Y-50537944D03*
D18*
X182725000Y-55617944D03*
D21*
X194890000Y-53077944D03*
X181963000Y-50537944D03*
%TD*%
D18*
%TO.C,SW18*%
X192885000Y-74667944D03*
D19*
X191615000Y-72127944D03*
D20*
X187805000Y-74667944D03*
D19*
X185265000Y-69587944D03*
D18*
X182725000Y-74667944D03*
D21*
X194890000Y-72127944D03*
X181963000Y-69587944D03*
%TD*%
D18*
%TO.C,SW19*%
X192885000Y-93717944D03*
D19*
X191615000Y-91177944D03*
D20*
X187805000Y-93717944D03*
D19*
X185265000Y-88637944D03*
D18*
X182725000Y-93717944D03*
D21*
X194890000Y-91177944D03*
X181963000Y-88637944D03*
%TD*%
D18*
%TO.C,SW20*%
X182614836Y-114842511D03*
D19*
X180244984Y-113277806D03*
D20*
X178215427Y-117382511D03*
D19*
X173475722Y-114253102D03*
D18*
X173816018Y-119922511D03*
D22*
X183081217Y-111640306D03*
X170616107Y-115904102D03*
%TD*%
D18*
%TO.C,SW1*%
X143135646Y-129585734D03*
D19*
X141443874Y-127304856D03*
D20*
X138132823Y-130467867D03*
D19*
X134749279Y-125906110D03*
D18*
X133130000Y-131350000D03*
D23*
X144669120Y-126736158D03*
X131497443Y-126479496D03*
%TD*%
M02*
