M48
; DRILL file {KiCad 7.0.9-7.0.9~ubuntu22.04.1} date Вс 10 дек 2023 17:10:41
; FORMAT={-:-/ absolute / inch / decimal}
; #@! TF.CreationDate,2023-12-10T17:10:41+03:00
; #@! TF.GenerationSoftware,Kicad,Pcbnew,7.0.9-7.0.9~ubuntu22.04.1
; #@! TF.FileFunction,NonPlated,1,2,NPTH
FMAT,2
INCH
; #@! TA.AperFunction,NonPlated,NPTH,ComponentDrill
T1C0.0236
; #@! TA.AperFunction,NonPlated,NPTH,ComponentDrill
T2C0.0689
; #@! TA.AperFunction,NonPlated,NPTH,ComponentDrill
T3C0.1260
; #@! TA.AperFunction,NonPlated,NPTH,ComponentDrill
T4C0.1575
%
G90
G05
T1
X5.1329Y-1.5638
X5.3604Y-1.5638
T2
X4.2144Y-2.1897
X4.2144Y-2.9397
X4.2144Y-3.6897
X4.2144Y-4.4397
X4.6144Y-2.1897
X4.6144Y-2.9397
X4.6144Y-3.6897
X4.6144Y-4.4397
X4.9644Y-2.1897
X4.9644Y-2.9397
X4.9644Y-3.6897
X4.9644Y-4.4397
X5.3644Y-2.1897
X5.3644Y-2.9397
X5.3644Y-3.6897
X5.3644Y-4.4397
X5.7144Y-1.6346
X5.7144Y-2.3846
X5.7144Y-3.1346
X5.7173Y-4.9281
X6.1144Y-1.6346
X6.1144Y-2.3846
X6.1144Y-3.1346
X6.1173Y-4.9281
X6.4644Y-1.9121
X6.4644Y-2.6621
X6.4644Y-3.4121
X6.8644Y-1.9121
X6.8644Y-2.6621
X6.8644Y-3.4121
X7.2144Y-1.4397
X7.2144Y-2.1897
X7.2144Y-2.9397
X7.2144Y-3.6897
X7.6144Y-1.4397
X7.6144Y-2.1897
X7.6144Y-2.9397
X7.6144Y-3.6897
T3
X4.7894Y-1.8147
X4.7894Y-3.3147
X4.7894Y-4.0647
X6.2894Y-2.0096
X6.2894Y-2.7596
X6.6081Y-5.0209
X7.0394Y-2.2871
X7.0394Y-3.7871
T4
X4.4144Y-2.1897
X4.4144Y-2.9397
X4.4144Y-3.6897
X4.4144Y-4.4397
X5.1644Y-2.1897
X5.1644Y-2.9397
X5.1644Y-3.6897
X5.1644Y-4.4397
X5.9144Y-1.6346
X5.9144Y-2.3846
X5.9144Y-3.1346
X5.9173Y-4.9281
X6.6644Y-1.9121
X6.6644Y-2.6621
X6.6644Y-3.4121
X7.4144Y-1.4397
X7.4144Y-2.1897
X7.4144Y-2.9397
X7.4144Y-3.6897
T0
M30
