M48
; DRILL file {KiCad 7.0.9-7.0.9~ubuntu22.04.1} date Вт 28 ноя 2023 14:59:12
; FORMAT={-:-/ absolute / inch / decimal}
; #@! TF.CreationDate,2023-11-28T14:59:12+03:00
; #@! TF.GenerationSoftware,Kicad,Pcbnew,7.0.9-7.0.9~ubuntu22.04.1
; #@! TF.FileFunction,NonPlated,1,2,NPTH
FMAT,2
INCH
; #@! TA.AperFunction,NonPlated,NPTH,ComponentDrill
T1C0.0236
; #@! TA.AperFunction,NonPlated,NPTH,ComponentDrill
T2C0.0591
; #@! TA.AperFunction,NonPlated,NPTH,ComponentDrill
T3C0.0689
; #@! TA.AperFunction,NonPlated,NPTH,ComponentDrill
T4C0.0709
; #@! TA.AperFunction,NonPlated,NPTH,ComponentDrill
T5C0.1201
; #@! TA.AperFunction,NonPlated,NPTH,ComponentDrill
T6C0.1260
; #@! TA.AperFunction,NonPlated,NPTH,ComponentDrill
T7C0.1575
%
G90
G05
T1
X5.1329Y-1.5638
X5.3604Y-1.5638
T2
X7.1602Y-4.7685
X7.2557Y-4.6031
T3
X4.2144Y-2.1897
X4.2144Y-2.9397
X4.2144Y-3.6897
X4.6144Y-2.1897
X4.6144Y-2.9397
X4.6144Y-3.6897
X4.6187Y-4.5214
X4.9644Y-2.1897
X4.9644Y-2.9397
X4.9644Y-3.6897
X4.9651Y-4.7214
X5.2682Y-4.8964
X5.3644Y-2.1897
X5.3644Y-2.9397
X5.3644Y-3.6897
X5.6146Y-5.0964
X5.7144Y-1.6346
X5.7144Y-2.3846
X5.7144Y-3.1346
X6.1144Y-1.6346
X6.1144Y-2.3846
X6.1144Y-3.1346
X6.173Y-5.1018
X6.4644Y-1.9121
X6.4644Y-2.6621
X6.4644Y-3.4121
X6.5669Y-5.1713
X6.8644Y-1.9121
X6.8644Y-2.6621
X6.8644Y-3.4121
X7.2144Y-2.1897
X7.2144Y-2.9397
X7.2144Y-3.6897
X7.6144Y-2.1897
X7.6144Y-2.9397
X7.6144Y-3.6897
T4
X7.2576Y-4.8384
X7.3649Y-4.6526
T5
X4.3144Y-1.9897
X4.3144Y-2.7397
X4.3144Y-3.4897
X4.5644Y-2.0897
X4.5644Y-2.8397
X4.5644Y-3.5897
X4.8053Y-4.3982
X4.9718Y-4.6098
X5.0644Y-1.9897
X5.0644Y-2.7397
X5.0644Y-3.4897
X5.3144Y-2.0897
X5.3144Y-2.8397
X5.3144Y-3.5897
X5.4548Y-4.7732
X5.6213Y-4.9848
X5.8144Y-1.4346
X5.8144Y-2.1846
X5.8144Y-2.9346
X6.0644Y-1.5346
X6.0644Y-2.2846
X6.0644Y-3.0346
X6.3062Y-4.9222
X6.5351Y-5.0641
X6.5644Y-1.7121
X6.5644Y-2.4621
X6.5644Y-3.2121
X6.8144Y-1.8121
X6.8144Y-2.5621
X6.8144Y-3.3121
X7.3144Y-1.9897
X7.3144Y-2.7397
X7.3144Y-3.4897
X7.5644Y-2.0897
X7.5644Y-2.8397
X7.5644Y-3.5897
T6
X4.6547Y-4.1091
X4.7894Y-1.8147
X4.7894Y-3.3147
X5.9537Y-4.8591
X6.2894Y-2.0096
X6.2894Y-2.7596
X7.0394Y-2.2871
X7.0394Y-3.7871
T7
X4.4144Y-2.1897
X4.4144Y-2.9397
X4.4144Y-3.6897
X4.7919Y-4.6214
X5.1644Y-2.1897
X5.1644Y-2.9397
X5.1644Y-3.6897
X5.4414Y-4.9964
X5.9144Y-1.6346
X5.9144Y-2.3846
X5.9144Y-3.1346
X6.37Y-5.1365
X6.6644Y-1.9121
X6.6644Y-2.6621
X6.6644Y-3.4121
X7.4144Y-2.1897
X7.4144Y-2.9397
X7.4144Y-3.6897
T0
M30
