%TF.GenerationSoftware,KiCad,Pcbnew,7.0.9-7.0.9~ubuntu22.04.1*%
%TF.CreationDate,2023-11-28T14:59:13+03:00*%
%TF.ProjectId,Keeb,4b656562-2e6b-4696-9361-645f70636258,rev?*%
%TF.SameCoordinates,Original*%
%TF.FileFunction,Copper,L1,Top*%
%TF.FilePolarity,Positive*%
%FSLAX46Y46*%
G04 Gerber Fmt 4.6, Leading zero omitted, Abs format (unit mm)*
G04 Created by KiCad (PCBNEW 7.0.9-7.0.9~ubuntu22.04.1) date 2023-11-28 14:59:13*
%MOMM*%
%LPD*%
G01*
G04 APERTURE LIST*
G04 Aperture macros list*
%AMRoundRect*
0 Rectangle with rounded corners*
0 $1 Rounding radius*
0 $2 $3 $4 $5 $6 $7 $8 $9 X,Y pos of 4 corners*
0 Add a 4 corners polygon primitive as box body*
4,1,4,$2,$3,$4,$5,$6,$7,$8,$9,$2,$3,0*
0 Add four circle primitives for the rounded corners*
1,1,$1+$1,$2,$3*
1,1,$1+$1,$4,$5*
1,1,$1+$1,$6,$7*
1,1,$1+$1,$8,$9*
0 Add four rect primitives between the rounded corners*
20,1,$1+$1,$2,$3,$4,$5,0*
20,1,$1+$1,$4,$5,$6,$7,0*
20,1,$1+$1,$6,$7,$8,$9,0*
20,1,$1+$1,$8,$9,$2,$3,0*%
%AMRotRect*
0 Rectangle, with rotation*
0 The origin of the aperture is its center*
0 $1 length*
0 $2 width*
0 $3 Rotation angle, in degrees counterclockwise*
0 Add horizontal line*
21,1,$1,$2,0,0,$3*%
G04 Aperture macros list end*
%TA.AperFunction,SMDPad,CuDef*%
%ADD10RotRect,3.500000X1.700000X240.000000*%
%TD*%
%TA.AperFunction,SMDPad,CuDef*%
%ADD11R,0.600000X1.140000*%
%TD*%
%TA.AperFunction,SMDPad,CuDef*%
%ADD12R,0.300000X1.140000*%
%TD*%
%TA.AperFunction,ComponentPad*%
%ADD13O,0.900000X2.000000*%
%TD*%
%TA.AperFunction,ComponentPad*%
%ADD14O,0.900000X1.700000*%
%TD*%
%TA.AperFunction,SMDPad,CuDef*%
%ADD15RoundRect,0.250000X1.025000X1.000000X-1.025000X1.000000X-1.025000X-1.000000X1.025000X-1.000000X0*%
%TD*%
%TA.AperFunction,SMDPad,CuDef*%
%ADD16RoundRect,0.250000X1.387676X0.353525X-0.387676X1.378525X-1.387676X-0.353525X0.387676X-1.378525X0*%
%TD*%
%TA.AperFunction,SMDPad,CuDef*%
%ADD17RoundRect,0.250000X1.183076X0.806818X-0.835780X1.162797X-1.183076X-0.806818X0.835780X-1.162797X0*%
%TD*%
%TA.AperFunction,Conductor*%
%ADD18C,0.250000*%
%TD*%
G04 APERTURE END LIST*
D10*
%TO.P,U1,1,GPIO0*%
%TO.N,0*%
X190714140Y-112121499D03*
%TO.P,U1,2,GPIO1*%
%TO.N,1*%
X188514435Y-110851499D03*
%TO.P,U1,3,GND*%
%TO.N,GND*%
X186314731Y-109581499D03*
%TO.P,U1,4,GPIO2*%
%TO.N,2*%
X184115026Y-108311499D03*
%TO.P,U1,5,GPIO3*%
%TO.N,3*%
X181915322Y-107041499D03*
%TO.P,U1,6,GPIO4*%
%TO.N,4*%
X179715617Y-105771499D03*
%TO.P,U1,7,GPIO5*%
%TO.N,5*%
X177515913Y-104501499D03*
%TO.P,U1,8,GND*%
%TO.N,unconnected-(U1-GND-Pad8)*%
X175316208Y-103231499D03*
%TO.P,U1,9,GPIO6*%
%TO.N,6*%
X173116504Y-101961499D03*
%TO.P,U1,10,GPIO7*%
%TO.N,7*%
X170916799Y-100691499D03*
%TO.P,U1,11,GPIO8*%
%TO.N,8*%
X168717095Y-99421499D03*
%TO.P,U1,12,GPIO9*%
%TO.N,9*%
X166517390Y-98151499D03*
%TO.P,U1,13,GND*%
%TO.N,GND*%
X164317686Y-96881499D03*
%TO.P,U1,14,GPIO10*%
%TO.N,10*%
X162117981Y-95611499D03*
%TO.P,U1,15,GPIO11*%
%TO.N,11*%
X159918277Y-94341499D03*
%TO.P,U1,16,GPIO12*%
%TO.N,12*%
X157718572Y-93071499D03*
%TO.P,U1,17,GPIO13*%
%TO.N,13*%
X155518868Y-91801499D03*
%TO.P,U1,18,GND*%
%TO.N,GND*%
X153319163Y-90531499D03*
%TO.P,U1,19,GPIO14*%
%TO.N,14*%
X151119459Y-89261499D03*
%TO.P,U1,20,GPIO15*%
%TO.N,15*%
X148919754Y-87991499D03*
%TO.P,U1,21,GPIO16*%
%TO.N,16*%
X139129754Y-104948277D03*
%TO.P,U1,22,GPIO17*%
%TO.N,17*%
X141329459Y-106218277D03*
%TO.P,U1,23,GND*%
%TO.N,GND*%
X143529163Y-107488277D03*
%TO.P,U1,24,GPIO18*%
%TO.N,18*%
X145728868Y-108758277D03*
%TO.P,U1,25,GPIO19*%
%TO.N,19*%
X147928572Y-110028277D03*
%TO.P,U1,26,GPIO20*%
%TO.N,20*%
X150128277Y-111298277D03*
%TO.P,U1,27,GPIO21*%
%TO.N,21*%
X152327981Y-112568277D03*
%TO.P,U1,28,GND*%
%TO.N,GND*%
X154527686Y-113838277D03*
%TO.P,U1,29,GPIO22*%
%TO.N,22*%
X156727390Y-115108277D03*
%TO.P,U1,30,RUN*%
%TO.N,unconnected-(U1-RUN-Pad30)*%
X158927095Y-116378277D03*
%TO.P,U1,31,GPIO26_ADC0*%
%TO.N,26*%
X161126799Y-117648277D03*
%TO.P,U1,32,GPIO27_ADC1*%
%TO.N,27*%
X163326504Y-118918277D03*
%TO.P,U1,33,AGND*%
%TO.N,unconnected-(U1-AGND-Pad33)*%
X165526208Y-120188277D03*
%TO.P,U1,34,GPIO28_ADC2*%
%TO.N,28*%
X167725913Y-121458277D03*
%TO.P,U1,35,ADC_VREF*%
%TO.N,unconnected-(U1-ADC_VREF-Pad35)*%
X169925617Y-122728277D03*
%TO.P,U1,36,3V3*%
%TO.N,unconnected-(U1-3V3-Pad36)*%
X172125322Y-123998277D03*
%TO.P,U1,37,3V3_EN*%
%TO.N,unconnected-(U1-3V3_EN-Pad37)*%
X174325026Y-125268277D03*
%TO.P,U1,38,GND*%
%TO.N,GND*%
X176524731Y-126538277D03*
%TO.P,U1,39,VSYS*%
%TO.N,VSYS*%
X178724435Y-127808277D03*
%TO.P,U1,40,VBUS*%
%TO.N,3v3*%
X180924140Y-129078277D03*
%TD*%
D11*
%TO.P,J1,A1_B12,GND*%
%TO.N,GND*%
X136465000Y-40790000D03*
%TO.P,J1,A4_B9,VBUS*%
%TO.N,3v3*%
X135665000Y-40790000D03*
D12*
%TO.P,J1,A5,CC1*%
%TO.N,0*%
X134515000Y-40790000D03*
%TO.P,J1,A6,DP1*%
%TO.N,1*%
X133515000Y-40790000D03*
%TO.P,J1,A7,DN1*%
X133015000Y-40790000D03*
%TO.P,J1,A8,SBU1*%
%TO.N,0*%
X132015000Y-40790000D03*
D11*
%TO.P,J1,B1_A12,GND*%
%TO.N,GND*%
X130065000Y-40790000D03*
%TO.P,J1,B4_A9,VBUS*%
%TO.N,3v3*%
X130865000Y-40790000D03*
D12*
%TO.P,J1,B5,CC2*%
%TO.N,VSYS*%
X131515000Y-40790000D03*
%TO.P,J1,B6,DP2*%
%TO.N,2*%
X132515000Y-40790000D03*
%TO.P,J1,B7,DN2*%
X134015000Y-40790000D03*
%TO.P,J1,B8,SBU2*%
%TO.N,VSYS*%
X135015000Y-40790000D03*
D13*
%TO.P,J1,S1,SHIELD*%
%TO.N,Net-(J1-SHIELD-PadS1)*%
X137590000Y-40210000D03*
%TO.P,J1,S2,SHIELD*%
X128940000Y-40210000D03*
D14*
%TO.P,J1,S3,SHIELD*%
X137590000Y-36040000D03*
%TO.P,J1,S4,SHIELD*%
X128940000Y-36040000D03*
%TD*%
D15*
%TO.P,SW3,1*%
%TO.N,GND*%
X195410000Y-53077944D03*
%TO.P,SW3,2*%
%TO.N,7*%
X182483000Y-50537944D03*
%TD*%
%TO.P,SW4,1*%
%TO.N,GND*%
X195410000Y-72127944D03*
%TO.P,SW4,2*%
%TO.N,6*%
X182483000Y-69587944D03*
%TD*%
%TO.P,SW5,1*%
%TO.N,GND*%
X195410000Y-91177944D03*
%TO.P,SW5,2*%
%TO.N,5*%
X182483000Y-88637944D03*
%TD*%
%TO.P,SW6,1*%
%TO.N,GND*%
X176360000Y-46027944D03*
%TO.P,SW6,2*%
%TO.N,9*%
X163433000Y-43487944D03*
%TD*%
%TO.P,SW7,1*%
%TO.N,GND*%
X176360000Y-65077944D03*
%TO.P,SW7,2*%
%TO.N,8*%
X163433000Y-62537944D03*
%TD*%
%TO.P,SW8,1*%
%TO.N,GND*%
X176360000Y-84127944D03*
%TO.P,SW8,2*%
%TO.N,10*%
X163433000Y-81587944D03*
%TD*%
%TO.P,SW9,1*%
%TO.N,11*%
X157310000Y-38977944D03*
%TO.P,SW9,2*%
%TO.N,GND*%
X144383000Y-36437944D03*
%TD*%
%TO.P,SW10,1*%
%TO.N,12*%
X157310000Y-58027944D03*
%TO.P,SW10,2*%
%TO.N,GND*%
X144383000Y-55487944D03*
%TD*%
%TO.P,SW11,1*%
%TO.N,13*%
X157310000Y-77077944D03*
%TO.P,SW11,2*%
%TO.N,GND*%
X144383000Y-74537944D03*
%TD*%
%TO.P,SW13,1*%
%TO.N,GND*%
X138260000Y-53077944D03*
%TO.P,SW13,2*%
%TO.N,19*%
X125333000Y-50537944D03*
%TD*%
%TO.P,SW14,1*%
%TO.N,GND*%
X138260000Y-72127944D03*
%TO.P,SW14,2*%
%TO.N,18*%
X125333000Y-69587944D03*
%TD*%
%TO.P,SW15,1*%
%TO.N,GND*%
X138260000Y-91177944D03*
%TO.P,SW15,2*%
%TO.N,20*%
X125333000Y-88637944D03*
%TD*%
D16*
%TO.P,SW16,1*%
%TO.N,26*%
X145618147Y-128250306D03*
%TO.P,SW16,2*%
%TO.N,GND*%
X135693037Y-119587102D03*
%TD*%
D15*
%TO.P,SW17,1*%
%TO.N,16*%
X119210000Y-53077944D03*
%TO.P,SW17,2*%
%TO.N,GND*%
X106283000Y-50537944D03*
%TD*%
%TO.P,SW18,1*%
%TO.N,17*%
X119210000Y-72127944D03*
%TO.P,SW18,2*%
%TO.N,GND*%
X106283000Y-69587944D03*
%TD*%
%TO.P,SW19,1*%
%TO.N,21*%
X119210000Y-91177944D03*
%TO.P,SW19,2*%
%TO.N,GND*%
X106283000Y-88637944D03*
%TD*%
D16*
%TO.P,SW20,1*%
%TO.N,22*%
X129120363Y-118725306D03*
%TO.P,SW20,2*%
%TO.N,GND*%
X119195253Y-110062102D03*
%TD*%
D17*
%TO.P,SW1,1*%
%TO.N,27*%
X169215606Y-129196753D03*
%TO.P,SW1,2*%
%TO.N,GND*%
X156926063Y-124450591D03*
%TD*%
D18*
%TO.N,VSYS*%
X142545000Y-72258052D02*
X142545000Y-57767836D01*
X141883000Y-53870052D02*
X145064441Y-50688611D01*
X141883000Y-72920052D02*
X142545000Y-72258052D01*
X141883000Y-76155836D02*
X141883000Y-72920052D01*
X142740108Y-77012944D02*
X141883000Y-76155836D01*
X179174435Y-122680258D02*
X146083632Y-89589455D01*
X144307767Y-77012944D02*
X142740108Y-77012944D01*
X139931980Y-43860000D02*
X133715000Y-43860000D01*
X146395000Y-79100177D02*
X144307767Y-77012944D01*
X146395000Y-80135711D02*
X146395000Y-79100177D01*
X146365000Y-80165711D02*
X146395000Y-80135711D01*
X146083632Y-87293543D02*
X146365000Y-87012175D01*
X146083632Y-89589455D02*
X146083632Y-87293543D01*
X146365000Y-87012175D02*
X146365000Y-80165711D01*
X179174435Y-127028854D02*
X179174435Y-122680258D01*
X142545000Y-57767836D02*
X141883000Y-57105836D01*
X145064441Y-50688611D02*
X145064441Y-44477944D01*
X141883000Y-57105836D02*
X141883000Y-53870052D01*
X145064441Y-44477944D02*
X143621497Y-43035000D01*
X143621497Y-43035000D02*
X140756980Y-43035000D01*
X140756980Y-43035000D02*
X139931980Y-43860000D01*
X133715000Y-43860000D02*
X131515000Y-41660000D01*
X131515000Y-41660000D02*
X131515000Y-40790000D01*
%TO.N,11*%
X165485000Y-66503781D02*
X165895000Y-66913781D01*
X157310000Y-38977944D02*
X161833000Y-43500944D01*
X161833000Y-80342844D02*
X161833000Y-82833044D01*
X165485000Y-65862736D02*
X165485000Y-66503781D01*
X161383000Y-63969440D02*
X161976504Y-64562944D01*
X164185208Y-64562944D02*
X165485000Y-65862736D01*
X161976504Y-64562944D02*
X164185208Y-64562944D01*
X161383000Y-61106448D02*
X161383000Y-63969440D01*
X165910000Y-56579448D02*
X161383000Y-61106448D01*
X165910000Y-48515177D02*
X165910000Y-56579448D01*
X162495000Y-92094199D02*
X159468277Y-95120922D01*
X164712767Y-47317944D02*
X165910000Y-48515177D01*
X165895000Y-79480844D02*
X165362900Y-80012944D01*
X164417900Y-47317944D02*
X164712767Y-47317944D01*
X161833000Y-44733044D02*
X164417900Y-47317944D01*
X162162900Y-83162944D02*
X162495000Y-83162944D01*
X161833000Y-43500944D02*
X161833000Y-44733044D01*
X165895000Y-66913781D02*
X165895000Y-79480844D01*
X161833000Y-82833044D02*
X162162900Y-83162944D01*
X165362900Y-80012944D02*
X162162900Y-80012944D01*
X162162900Y-80012944D02*
X161833000Y-80342844D01*
X162495000Y-83162944D02*
X162495000Y-92094199D01*
%TO.N,9*%
X166450000Y-66447944D02*
X166450000Y-68788097D01*
X164371604Y-64112944D02*
X165935000Y-65676340D01*
X161833000Y-61292844D02*
X161833000Y-63783044D01*
X179624256Y-79547200D02*
X183221856Y-83144800D01*
X166946386Y-98930922D02*
X166067390Y-98930922D01*
X166450000Y-68788097D02*
X177209103Y-79547200D01*
X165935000Y-65676340D02*
X165935000Y-65932944D01*
X177209103Y-79547200D02*
X179624256Y-79547200D01*
X161833000Y-63783044D02*
X162162900Y-64112944D01*
X162250000Y-60962944D02*
X162162900Y-60962944D01*
X169210701Y-97155955D02*
X168721353Y-97155955D01*
X166490000Y-56722944D02*
X162250000Y-60962944D01*
X165935000Y-65932944D02*
X166450000Y-66447944D01*
X183221856Y-83144800D02*
X169210701Y-97155955D01*
X162162900Y-64112944D02*
X164371604Y-64112944D01*
X162162900Y-60962944D02*
X161833000Y-61292844D01*
X168721353Y-97155955D02*
X166946386Y-98930922D01*
X166490000Y-46544944D02*
X166490000Y-56722944D01*
X163433000Y-43487944D02*
X166490000Y-46544944D01*
%TO.N,GND*%
X106283000Y-88637944D02*
X109700000Y-92054944D01*
X109700000Y-92054944D02*
X109700000Y-104122938D01*
X109700000Y-104122938D02*
X115639164Y-110062102D01*
X115639164Y-110062102D02*
X119195253Y-110062102D01*
%TO.N,20*%
X148803310Y-112293821D02*
X150578277Y-110518854D01*
X136001396Y-111417944D02*
X146156953Y-111417944D01*
X146156953Y-111417944D02*
X147032830Y-112293821D01*
X125333000Y-88637944D02*
X122425472Y-91545472D01*
X122425472Y-91545472D02*
X122425472Y-97842020D01*
X147032830Y-112293821D02*
X148803310Y-112293821D01*
X122425472Y-97842020D02*
X136001396Y-111417944D01*
%TO.N,21*%
X152777981Y-111788854D02*
X151003014Y-113563821D01*
X151003014Y-113563821D02*
X147666434Y-113563821D01*
X147666434Y-113563821D02*
X145970557Y-111867944D01*
X145970557Y-111867944D02*
X135815000Y-111867944D01*
X135815000Y-111867944D02*
X119210000Y-95262944D01*
X119210000Y-95262944D02*
X119210000Y-91177944D01*
%TO.N,6*%
X182483000Y-69587944D02*
X184571856Y-71676800D01*
X184571856Y-71676800D02*
X184571856Y-83703988D01*
X184571856Y-83703988D02*
X180883000Y-87392844D01*
X184495000Y-97215439D02*
X180883000Y-100827439D01*
X180883000Y-87392844D02*
X180883000Y-89883044D01*
X180883000Y-89883044D02*
X181212900Y-90212944D01*
X181212900Y-90212944D02*
X183421604Y-90212944D01*
X174579987Y-100827439D02*
X172666504Y-102740922D01*
X183421604Y-90212944D02*
X184495000Y-91286340D01*
X184495000Y-91286340D02*
X184495000Y-97215439D01*
X180883000Y-100827439D02*
X174579987Y-100827439D01*
%TO.N,5*%
X182483000Y-88637944D02*
X185840000Y-91994944D01*
X185840000Y-91994944D02*
X185840000Y-96506835D01*
X185840000Y-96506835D02*
X177065913Y-105280922D01*
%TO.N,7*%
X182483000Y-50537944D02*
X180845000Y-52175944D01*
X180845000Y-52175944D02*
X180845000Y-79495152D01*
X180845000Y-79495152D02*
X184121856Y-82772008D01*
X184121856Y-82772008D02*
X184121856Y-83517592D01*
X184121856Y-83517592D02*
X171860000Y-95779448D01*
X171860000Y-95779448D02*
X171860000Y-98539880D01*
X171860000Y-98539880D02*
X170466799Y-99933081D01*
X170466799Y-99933081D02*
X170466799Y-101470922D01*
%TO.N,22*%
X154328300Y-117177944D02*
X157177390Y-114328854D01*
%TO.N,GND*%
X128163385Y-114410000D02*
X119195253Y-114410000D01*
%TO.N,22*%
X130667725Y-117177944D02*
X154328300Y-117177944D01*
X129120363Y-118725306D02*
X130667725Y-117177944D01*
%TO.N,GND*%
X154977686Y-113058854D02*
X151308596Y-116727944D01*
X151308596Y-116727944D02*
X130481329Y-116727944D01*
X130481329Y-116727944D02*
X128163385Y-114410000D01*
%TO.N,16*%
X119210000Y-53077944D02*
X119225000Y-53092944D01*
X133770000Y-106297208D02*
X133942792Y-106470000D01*
X119225000Y-53092944D02*
X119225000Y-69297844D01*
X139117208Y-88460000D02*
X140840000Y-90182792D01*
X140840000Y-93260000D02*
X133770000Y-100330000D01*
X119225000Y-69297844D02*
X120810000Y-70882844D01*
X120810000Y-70882844D02*
X120810000Y-71150711D01*
X120810000Y-71150711D02*
X138119289Y-88460000D01*
X138119289Y-88460000D02*
X139117208Y-88460000D01*
X140840000Y-90182792D02*
X140840000Y-93260000D01*
X133770000Y-100330000D02*
X133770000Y-106297208D01*
X133942792Y-106470000D02*
X137278608Y-106470000D01*
X137278608Y-106470000D02*
X139579754Y-104168854D01*
%TO.N,18*%
X125333000Y-70837944D02*
X125333000Y-69587944D01*
%TO.N,17*%
X140390000Y-90369188D02*
X140390000Y-92910000D01*
%TO.N,19*%
X125333000Y-50537944D02*
X124845000Y-51025944D01*
%TO.N,18*%
X127560000Y-76266396D02*
X127560000Y-73064944D01*
X127560000Y-73064944D02*
X125333000Y-70837944D01*
X146178868Y-107978854D02*
X147540000Y-106617722D01*
%TO.N,17*%
X120831548Y-72127944D02*
X137613604Y-88910000D01*
%TO.N,18*%
X147540000Y-106617722D02*
X147540000Y-96246396D01*
X147540000Y-96246396D02*
X127560000Y-76266396D01*
%TO.N,19*%
X148378572Y-96448572D02*
X148378572Y-109248854D01*
%TO.N,17*%
X135166396Y-108330000D02*
X138888313Y-108330000D01*
X133120000Y-100180000D02*
X133120000Y-106283604D01*
X140390000Y-92910000D02*
X133120000Y-100180000D01*
X119210000Y-72127944D02*
X120831548Y-72127944D01*
%TO.N,19*%
X124845000Y-64937944D02*
X127595000Y-67687944D01*
%TO.N,17*%
X138930812Y-88910000D02*
X140390000Y-90369188D01*
X137613604Y-88910000D02*
X138930812Y-88910000D01*
X133120000Y-106283604D02*
X135166396Y-108330000D01*
%TO.N,19*%
X124845000Y-51025944D02*
X124845000Y-64937944D01*
%TO.N,17*%
X138888313Y-108330000D02*
X141779459Y-105438854D01*
%TO.N,19*%
X127595000Y-67687944D02*
X129422006Y-67687944D01*
X129422006Y-67687944D02*
X130535000Y-68800938D01*
X130535000Y-68800938D02*
X130535000Y-71095000D01*
X130535000Y-71095000D02*
X128010000Y-73620000D01*
X128010000Y-73620000D02*
X128010000Y-76080000D01*
X128010000Y-76080000D02*
X148378572Y-96448572D01*
%TO.N,2*%
X139559188Y-42960000D02*
X135339848Y-42960000D01*
%TO.N,1*%
X169611495Y-112480922D02*
X146533632Y-89403059D01*
%TO.N,2*%
X167707891Y-109940922D02*
X146983632Y-89216663D01*
%TO.N,1*%
X142995000Y-72444448D02*
X142995000Y-57581440D01*
%TO.N,2*%
X143675000Y-53912944D02*
X146175000Y-51412944D01*
%TO.N,1*%
X142333000Y-54056448D02*
X142926504Y-53462944D01*
%TO.N,2*%
X143445000Y-57395044D02*
X142783000Y-56733044D01*
X144680559Y-76112944D02*
X143112900Y-76112944D01*
X140384188Y-42135000D02*
X139559188Y-42960000D01*
X147295000Y-87354967D02*
X147295000Y-78727385D01*
X182815026Y-109940922D02*
X167707891Y-109940922D01*
X142783000Y-73292844D02*
X143445000Y-72630844D01*
X146983632Y-89216663D02*
X146983632Y-87666335D01*
X143112900Y-76112944D02*
X142783000Y-75783044D01*
X142783000Y-75783044D02*
X142783000Y-73292844D01*
X143445000Y-72630844D02*
X143445000Y-57395044D01*
%TO.N,1*%
X133015000Y-41610000D02*
X133015000Y-40790000D01*
X188064435Y-111630922D02*
X187214435Y-112480922D01*
%TO.N,2*%
X142783000Y-54242844D02*
X143112900Y-53912944D01*
X146983632Y-87666335D02*
X147295000Y-87354967D01*
%TO.N,1*%
X144494163Y-76562944D02*
X142926504Y-76562944D01*
X142926504Y-76562944D02*
X142333000Y-75969440D01*
X146845000Y-78913781D02*
X144494163Y-76562944D01*
X143225000Y-53164448D02*
X145631396Y-50758052D01*
%TO.N,2*%
X146175000Y-44315711D02*
X143994289Y-42135000D01*
%TO.N,1*%
X142333000Y-73106448D02*
X142995000Y-72444448D01*
%TO.N,2*%
X143994289Y-42135000D02*
X140384188Y-42135000D01*
X146175000Y-51412944D02*
X146175000Y-44315711D01*
%TO.N,1*%
X142995000Y-57581440D02*
X142333000Y-56919440D01*
%TO.N,2*%
X134015000Y-41635152D02*
X134015000Y-40790000D01*
%TO.N,1*%
X142333000Y-56919440D02*
X142333000Y-54056448D01*
X187214435Y-112480922D02*
X169611495Y-112480922D01*
%TO.N,2*%
X142783000Y-56733044D02*
X142783000Y-54242844D01*
%TO.N,1*%
X145631396Y-44408503D02*
X143807893Y-42585000D01*
X145631396Y-50758052D02*
X145631396Y-44408503D01*
X142926504Y-53462944D02*
X143225000Y-53462944D01*
X143807893Y-42585000D02*
X140570584Y-42585000D01*
X142333000Y-75969440D02*
X142333000Y-73106448D01*
X146533632Y-89403059D02*
X146533632Y-87479939D01*
X140570584Y-42585000D02*
X139745584Y-43410000D01*
X139745584Y-43410000D02*
X134815000Y-43410000D01*
%TO.N,2*%
X183665026Y-109090922D02*
X182815026Y-109940922D01*
%TO.N,1*%
X134815000Y-43410000D02*
X133015000Y-41610000D01*
%TO.N,2*%
X147295000Y-78727385D02*
X144680559Y-76112944D01*
%TO.N,1*%
X146845000Y-87168571D02*
X146845000Y-78913781D01*
X146533632Y-87479939D02*
X146845000Y-87168571D01*
%TO.N,2*%
X135339848Y-42960000D02*
X134015000Y-41635152D01*
X143112900Y-53912944D02*
X143675000Y-53912944D01*
%TO.N,1*%
X143225000Y-53462944D02*
X143225000Y-53164448D01*
%TO.N,12*%
X157310000Y-58027944D02*
X157310000Y-64155836D01*
X165445000Y-67100177D02*
X165445000Y-68135711D01*
X157310000Y-64155836D02*
X160933000Y-64155836D01*
X165445000Y-68135711D02*
X164805000Y-68775711D01*
X160933000Y-64155836D02*
X161790108Y-65012944D01*
X161383000Y-89736494D02*
X157268572Y-93850922D01*
X161790108Y-65012944D02*
X163357767Y-65012944D01*
X164805000Y-79562944D02*
X161976504Y-79562944D01*
X163357767Y-65012944D02*
X165445000Y-67100177D01*
X161383000Y-80156448D02*
X161383000Y-89736494D01*
X164805000Y-68775711D02*
X164805000Y-79562944D01*
X161976504Y-79562944D02*
X161383000Y-80156448D01*
%TO.N,8*%
X170706396Y-69992944D02*
X183671856Y-82958404D01*
X163433000Y-62537944D02*
X166900000Y-66004944D01*
X168291243Y-69992944D02*
X170706396Y-69992944D01*
X166900000Y-66004944D02*
X166900000Y-68601701D01*
X168267095Y-98735957D02*
X168267095Y-100200922D01*
X183671856Y-82958404D02*
X183671856Y-83331196D01*
X183671856Y-83331196D02*
X168267095Y-98735957D01*
X166900000Y-68601701D02*
X168291243Y-69992944D01*
%TO.N,0*%
X196680100Y-73702944D02*
X195860000Y-73702944D01*
X195860000Y-70552944D02*
X196680100Y-70552944D01*
X136642208Y-42510000D02*
X139372792Y-42510000D01*
X191114140Y-112050922D02*
X190264140Y-112900922D01*
X153242056Y-37077944D02*
X168561548Y-37077944D01*
X195860000Y-54652944D02*
X195860000Y-70552944D01*
X191107303Y-45577944D02*
X194950000Y-49420641D01*
X179111548Y-45577944D02*
X191107303Y-45577944D01*
X197010000Y-51470000D02*
X197010000Y-54323044D01*
X197010000Y-89932844D02*
X197010000Y-92423044D01*
X142842792Y-39040000D02*
X151280000Y-39040000D01*
X197010000Y-92423044D02*
X196680100Y-92752944D01*
X169043604Y-37560000D02*
X171093604Y-37560000D01*
X194960641Y-49420641D02*
X197010000Y-51470000D01*
X196680100Y-89602944D02*
X197010000Y-89932844D01*
X171093604Y-37560000D02*
X179111548Y-45577944D01*
X195860000Y-89602944D02*
X196680100Y-89602944D01*
X168561548Y-37077944D02*
X169043604Y-37560000D01*
X151280000Y-39040000D02*
X153242056Y-37077944D01*
X136267208Y-42135000D02*
X136642208Y-42510000D01*
X135203604Y-41685000D02*
X135653604Y-42135000D01*
X195860000Y-73702944D02*
X195860000Y-89602944D01*
X194950000Y-49420641D02*
X194960641Y-49420641D01*
X196680100Y-54652944D02*
X195860000Y-54652944D01*
X135653604Y-42135000D02*
X136267208Y-42135000D01*
X196680100Y-70552944D02*
X197010000Y-70882844D01*
X134701244Y-41685000D02*
X135203604Y-41685000D01*
X134515000Y-41498756D02*
X134701244Y-41685000D01*
X195860000Y-93667107D02*
X191114140Y-98412967D01*
X197010000Y-70882844D02*
X197010000Y-73373044D01*
X191114140Y-98412967D02*
X191114140Y-112050922D01*
X139372792Y-42510000D02*
X142842792Y-39040000D01*
X134515000Y-40790000D02*
X134515000Y-41498756D01*
X195860000Y-92752944D02*
X195860000Y-93667107D01*
X197010000Y-54323044D02*
X196680100Y-54652944D01*
X196680100Y-92752944D02*
X195860000Y-92752944D01*
X197010000Y-73373044D02*
X196680100Y-73702944D01*
%TO.N,3v3*%
X135665000Y-41235000D02*
X135665000Y-40790000D01*
X192650262Y-106209738D02*
X197460000Y-101400000D01*
X197460000Y-101400000D02*
X197460000Y-51044710D01*
X197460000Y-51044710D02*
X189112944Y-42697654D01*
X177162071Y-42697654D02*
X171574417Y-37110000D01*
X142656396Y-38590000D02*
X139186396Y-42060000D01*
X139186396Y-42060000D02*
X136828604Y-42060000D01*
X169230000Y-37110000D02*
X168495000Y-36375000D01*
X135840000Y-41685000D02*
X135840000Y-41235000D01*
X192650262Y-112371248D02*
X192650262Y-106209738D01*
X148219950Y-38590000D02*
X142656396Y-38590000D01*
X168495000Y-36375000D02*
X150434950Y-36375000D01*
X135840000Y-41235000D02*
X135665000Y-41235000D01*
X181466689Y-114453311D02*
X191446689Y-114453311D01*
X180745000Y-126467633D02*
X180745000Y-115175000D01*
X181374140Y-127096773D02*
X180745000Y-126467633D01*
X136828604Y-42060000D02*
X136453604Y-41685000D01*
X181374140Y-128298854D02*
X181374140Y-127096773D01*
X189112944Y-42697654D02*
X177162071Y-42697654D01*
X180745000Y-115175000D02*
X181466689Y-114453311D01*
X191446689Y-114453311D02*
X192650262Y-112371248D01*
X171574417Y-37110000D02*
X169230000Y-37110000D01*
X136453604Y-41685000D02*
X135840000Y-41685000D01*
X150434950Y-36375000D02*
X148219950Y-38590000D01*
%TO.N,GND*%
X136465000Y-41060000D02*
X137015000Y-41610000D01*
X139000000Y-41610000D02*
X144172056Y-36437944D01*
X144172056Y-36437944D02*
X144383000Y-36437944D01*
X136465000Y-40790000D02*
X136465000Y-41060000D01*
X137015000Y-41610000D02*
X139000000Y-41610000D01*
X147295000Y-78090989D02*
X147745000Y-78540989D01*
X147295000Y-77449944D02*
X147295000Y-78090989D01*
X147745000Y-82585085D02*
X154670000Y-89510085D01*
X144383000Y-74537944D02*
X147295000Y-77449944D01*
X154670000Y-89510085D02*
X152869163Y-91310922D01*
X147745000Y-78540989D02*
X147745000Y-82585085D01*
X135693037Y-119587102D02*
X130522195Y-124757944D01*
X130522195Y-124757944D02*
X128125000Y-124757944D01*
X123124567Y-119757511D02*
X120730816Y-119757511D01*
X128125000Y-124757944D02*
X123124567Y-119757511D01*
X120730816Y-119757511D02*
X119195253Y-118221948D01*
X119195253Y-118221948D02*
X119195253Y-114410000D01*
X137765646Y-123138102D02*
X135693037Y-121065493D01*
X156926063Y-127686258D02*
X155544354Y-129067967D01*
X156926063Y-124450591D02*
X156926063Y-127686258D01*
X155544354Y-129067967D02*
X155544354Y-129454986D01*
%TO.N,26*%
X145618147Y-128250306D02*
X147715785Y-130347944D01*
%TO.N,GND*%
X155544354Y-129454986D02*
X154201396Y-130797944D01*
X138360000Y-123138102D02*
X137765646Y-123138102D01*
%TO.N,26*%
X147715785Y-130347944D02*
X154015000Y-130347944D01*
%TO.N,GND*%
X154201396Y-130797944D02*
X142194432Y-130797944D01*
X142194432Y-130797944D02*
X140881914Y-129485426D01*
X135693037Y-121065493D02*
X135693037Y-119587102D01*
X140881914Y-125660016D02*
X138360000Y-123138102D01*
%TO.N,26*%
X155094354Y-129268590D02*
X155094354Y-128881571D01*
%TO.N,GND*%
X140881914Y-129485426D02*
X140881914Y-125660016D01*
%TO.N,26*%
X154015000Y-130347944D02*
X155094354Y-129268590D01*
X155094354Y-128881571D02*
X155167509Y-128808416D01*
X155167509Y-128808416D02*
X155167509Y-123278144D01*
X155167509Y-123278144D02*
X161576799Y-116868854D01*
%TO.N,10*%
X162945000Y-95113903D02*
X161667981Y-96390922D01*
X163433000Y-81587944D02*
X162945000Y-82075944D01*
X162945000Y-82075944D02*
X162945000Y-95113903D01*
%TO.N,13*%
X157310000Y-77077944D02*
X157310000Y-90339790D01*
X157310000Y-90339790D02*
X155068868Y-92580922D01*
%TO.N,27*%
X162926504Y-120749859D02*
X162926504Y-118988854D01*
X169215606Y-127038961D02*
X162926504Y-120749859D01*
X169215606Y-129196753D02*
X169215606Y-127038961D01*
X162926504Y-118988854D02*
X163776504Y-118138854D01*
%TO.N,GND*%
X144383000Y-55487944D02*
X143895000Y-55975944D01*
X195410000Y-93480711D02*
X186486974Y-102403737D01*
X138260000Y-53077944D02*
X133820000Y-48637944D01*
X127930000Y-39930000D02*
X127930000Y-39310000D01*
X130065000Y-40790000D02*
X130065000Y-41365000D01*
X138260000Y-53077944D02*
X138260000Y-72127944D01*
X158839248Y-98283165D02*
X163245443Y-98283165D01*
X132410000Y-99650000D02*
X132410000Y-106210000D01*
X195410000Y-53077944D02*
X188360000Y-46027944D01*
X152869163Y-92313080D02*
X158839248Y-98283165D01*
X163245443Y-98283165D02*
X163867686Y-97660922D01*
X127930000Y-41370000D02*
X127930000Y-39930000D01*
X143250944Y-37570000D02*
X144383000Y-36437944D01*
X131730000Y-36870000D02*
X135320000Y-36870000D01*
X176360000Y-86430711D02*
X166904756Y-95885955D01*
X140508017Y-110180000D02*
X143979163Y-106708854D01*
X108183000Y-86737944D02*
X106283000Y-88637944D01*
X128320000Y-41760000D02*
X127930000Y-41370000D01*
X105795000Y-70075944D02*
X105795000Y-88149944D01*
X106283000Y-69587944D02*
X105795000Y-70075944D01*
X108183000Y-48637944D02*
X106283000Y-50537944D01*
X195410000Y-91177944D02*
X195410000Y-72127944D01*
X154977686Y-113058854D02*
X155599929Y-112436611D01*
X119195253Y-114410000D02*
X119195253Y-110062102D01*
X133820000Y-48637944D02*
X108183000Y-48637944D01*
X126230000Y-41630000D02*
X127930000Y-39930000D01*
X176360000Y-46027944D02*
X176360000Y-65077944D01*
X176974731Y-124104731D02*
X176974731Y-125758854D01*
X129670000Y-41760000D02*
X128320000Y-41760000D01*
X188360000Y-46027944D02*
X176360000Y-46027944D01*
X152869163Y-91310922D02*
X152869163Y-92313080D01*
X105795000Y-51025944D02*
X105795000Y-69099944D01*
X138260000Y-91177944D02*
X138260000Y-93800000D01*
X129535152Y-86737944D02*
X108183000Y-86737944D01*
X127930000Y-39310000D02*
X128470000Y-38770000D01*
X136262056Y-89180000D02*
X131977208Y-89180000D01*
X176360000Y-84127944D02*
X176360000Y-86430711D01*
X186486974Y-109738679D02*
X185864731Y-110360922D01*
X136020000Y-37570000D02*
X143250944Y-37570000D01*
X105795000Y-69099944D02*
X106283000Y-69587944D01*
X143895000Y-55975944D02*
X143895000Y-74049944D01*
X195410000Y-91177944D02*
X195410000Y-93480711D01*
X136380000Y-110180000D02*
X140508017Y-110180000D01*
X135320000Y-36870000D02*
X136020000Y-37570000D01*
X143895000Y-74049944D02*
X144383000Y-74537944D01*
X155599929Y-112436611D02*
X165306611Y-112436611D01*
X132410000Y-106210000D02*
X136380000Y-110180000D01*
X138260000Y-93800000D02*
X132410000Y-99650000D01*
X106283000Y-50537944D02*
X105795000Y-51025944D01*
X115190944Y-41630000D02*
X126230000Y-41630000D01*
X138260000Y-91177944D02*
X136262056Y-89180000D01*
X165306611Y-112436611D02*
X176974731Y-124104731D01*
X166904756Y-95885955D02*
X165642653Y-95885955D01*
X128470000Y-38770000D02*
X129830000Y-38770000D01*
X130065000Y-41365000D02*
X129670000Y-41760000D01*
X129830000Y-38770000D02*
X131730000Y-36870000D01*
X106283000Y-50537944D02*
X115190944Y-41630000D01*
X105795000Y-88149944D02*
X106283000Y-88637944D01*
X165642653Y-95885955D02*
X163867686Y-97660922D01*
X195410000Y-72127944D02*
X195410000Y-53077944D01*
X131977208Y-89180000D02*
X129535152Y-86737944D01*
X186486974Y-102403737D02*
X186486974Y-109738679D01*
%TO.N,3v3*%
X135465000Y-38419416D02*
X135465000Y-40028604D01*
X131040000Y-40615000D02*
X131040000Y-39913604D01*
X131090000Y-38684416D02*
X132424416Y-37350000D01*
X130865000Y-40790000D02*
X131040000Y-40615000D01*
X135665000Y-40228604D02*
X135665000Y-40790000D01*
X131040000Y-39913604D02*
X131090000Y-39863604D01*
X131090000Y-39863604D02*
X131090000Y-38684416D01*
X134395584Y-37350000D02*
X135465000Y-38419416D01*
X135465000Y-40028604D02*
X135665000Y-40228604D01*
X132424416Y-37350000D02*
X134395584Y-37350000D01*
%TO.N,0*%
X132015000Y-39032208D02*
X132797208Y-38250000D01*
X133682792Y-38250000D02*
X134515000Y-39082208D01*
X132797208Y-38250000D02*
X133682792Y-38250000D01*
X134515000Y-39082208D02*
X134515000Y-40790000D01*
X132015000Y-40790000D02*
X132015000Y-39032208D01*
%TO.N,1*%
X133515000Y-39355000D02*
X133515000Y-40790000D01*
X133310000Y-39150000D02*
X133515000Y-39355000D01*
X133015000Y-40790000D02*
X133015000Y-39305000D01*
X133170000Y-39150000D02*
X133310000Y-39150000D01*
X133015000Y-39305000D02*
X133170000Y-39150000D01*
%TO.N,2*%
X132515000Y-39168604D02*
X132983604Y-38700000D01*
X134015000Y-39218604D02*
X134015000Y-40790000D01*
X132515000Y-40790000D02*
X132515000Y-39168604D01*
X132983604Y-38700000D02*
X133496396Y-38700000D01*
X133496396Y-38700000D02*
X134015000Y-39218604D01*
%TO.N,VSYS*%
X135015000Y-38605812D02*
X135015000Y-40790000D01*
X131540000Y-38870812D02*
X132610812Y-37800000D01*
X131515000Y-40790000D02*
X131540000Y-40765000D01*
X132610812Y-37800000D02*
X134209188Y-37800000D01*
X134209188Y-37800000D02*
X135015000Y-38605812D01*
X131540000Y-40765000D02*
X131540000Y-38870812D01*
%TD*%
M02*
