%TF.GenerationSoftware,KiCad,Pcbnew,7.0.9-7.0.9~ubuntu22.04.1*%
%TF.CreationDate,2023-11-28T14:59:13+03:00*%
%TF.ProjectId,Keeb,4b656562-2e6b-4696-9361-645f70636258,rev?*%
%TF.SameCoordinates,Original*%
%TF.FileFunction,Soldermask,Bot*%
%TF.FilePolarity,Negative*%
%FSLAX46Y46*%
G04 Gerber Fmt 4.6, Leading zero omitted, Abs format (unit mm)*
G04 Created by KiCad (PCBNEW 7.0.9-7.0.9~ubuntu22.04.1) date 2023-11-28 14:59:13*
%MOMM*%
%LPD*%
G01*
G04 APERTURE LIST*
G04 Aperture macros list*
%AMHorizOval*
0 Thick line with rounded ends*
0 $1 width*
0 $2 $3 position (X,Y) of the first rounded end (center of the circle)*
0 $4 $5 position (X,Y) of the second rounded end (center of the circle)*
0 Add line between two ends*
20,1,$1,$2,$3,$4,$5,0*
0 Add two circle primitives to create the rounded ends*
1,1,$1,$2,$3*
1,1,$1,$4,$5*%
G04 Aperture macros list end*
%ADD10C,3.200000*%
%ADD11HorizOval,1.800000X0.000000X0.000000X0.000000X0.000000X0*%
%ADD12HorizOval,1.500000X0.000000X0.000000X0.000000X0.000000X0*%
%ADD13C,0.600000*%
%ADD14O,1.104000X2.204000*%
%ADD15O,1.104000X1.904000*%
%ADD16C,1.750000*%
%ADD17C,3.050000*%
%ADD18C,4.000000*%
G04 APERTURE END LIST*
D10*
%TO.C,H9*%
X151223749Y-123421119D03*
%TD*%
%TO.C,H8*%
X178800000Y-96192944D03*
%TD*%
%TO.C,H7*%
X121650000Y-84192944D03*
%TD*%
%TO.C,H5*%
X118228181Y-104371119D03*
%TD*%
%TO.C,H4*%
X178800000Y-58092944D03*
%TD*%
%TO.C,H3*%
X159750000Y-51042944D03*
%TD*%
%TO.C,H2*%
X159750000Y-70092944D03*
%TD*%
%TO.C,H1*%
X121650000Y-46092944D03*
%TD*%
D11*
%TO.C,U1*%
X187069057Y-118174969D03*
D12*
X184295000Y-116919776D03*
X181870000Y-121120000D03*
D11*
X184344057Y-122894807D03*
%TD*%
D13*
%TO.C,J1*%
X136155000Y-39720000D03*
X130375000Y-39720000D03*
D14*
X137590000Y-40210000D03*
X128940000Y-40210000D03*
D15*
X137590000Y-36040000D03*
X128940000Y-36040000D03*
%TD*%
D16*
%TO.C,SW3*%
X193405000Y-55617944D03*
D17*
X192135000Y-53077944D03*
D18*
X188325000Y-55617944D03*
D17*
X185785000Y-50537944D03*
D16*
X183245000Y-55617944D03*
%TD*%
%TO.C,SW4*%
X193405000Y-74667944D03*
D17*
X192135000Y-72127944D03*
D18*
X188325000Y-74667944D03*
D17*
X185785000Y-69587944D03*
D16*
X183245000Y-74667944D03*
%TD*%
%TO.C,SW5*%
X193405000Y-93717944D03*
D17*
X192135000Y-91177944D03*
D18*
X188325000Y-93717944D03*
D17*
X185785000Y-88637944D03*
D16*
X183245000Y-93717944D03*
%TD*%
%TO.C,SW6*%
X174355000Y-48567944D03*
D17*
X173085000Y-46027944D03*
D18*
X169275000Y-48567944D03*
D17*
X166735000Y-43487944D03*
D16*
X164195000Y-48567944D03*
%TD*%
%TO.C,SW7*%
X174355000Y-67617944D03*
D17*
X173085000Y-65077944D03*
D18*
X169275000Y-67617944D03*
D17*
X166735000Y-62537944D03*
D16*
X164195000Y-67617944D03*
%TD*%
%TO.C,SW8*%
X174355000Y-86667944D03*
D17*
X173085000Y-84127944D03*
D18*
X169275000Y-86667944D03*
D17*
X166735000Y-81587944D03*
D16*
X164195000Y-86667944D03*
%TD*%
%TO.C,SW9*%
X155305000Y-41517944D03*
D17*
X154035000Y-38977944D03*
D18*
X150225000Y-41517944D03*
D17*
X147685000Y-36437944D03*
D16*
X145145000Y-41517944D03*
%TD*%
%TO.C,SW10*%
X155305000Y-60567944D03*
D17*
X154035000Y-58027944D03*
D18*
X150225000Y-60567944D03*
D17*
X147685000Y-55487944D03*
D16*
X145145000Y-60567944D03*
%TD*%
%TO.C,SW11*%
X155305000Y-79617944D03*
D17*
X154035000Y-77077944D03*
D18*
X150225000Y-79617944D03*
D17*
X147685000Y-74537944D03*
D16*
X145145000Y-79617944D03*
%TD*%
%TO.C,SW13*%
X136255000Y-55617944D03*
D17*
X134985000Y-53077944D03*
D18*
X131175000Y-55617944D03*
D17*
X128635000Y-50537944D03*
D16*
X126095000Y-55617944D03*
%TD*%
%TO.C,SW14*%
X136255000Y-74667944D03*
D17*
X134985000Y-72127944D03*
D18*
X131175000Y-74667944D03*
D17*
X128635000Y-69587944D03*
D16*
X126095000Y-74667944D03*
%TD*%
%TO.C,SW15*%
X136255000Y-93717944D03*
D17*
X134985000Y-91177944D03*
D18*
X131175000Y-93717944D03*
D17*
X128635000Y-88637944D03*
D16*
X126095000Y-93717944D03*
%TD*%
%TO.C,SW16*%
X142611766Y-129447511D03*
D17*
X142781914Y-126612806D03*
D18*
X138212357Y-126907511D03*
D17*
X138552652Y-121238102D03*
D16*
X133812948Y-124367511D03*
%TD*%
%TO.C,SW17*%
X117205000Y-55617944D03*
D17*
X115935000Y-53077944D03*
D18*
X112125000Y-55617944D03*
D17*
X109585000Y-50537944D03*
D16*
X107045000Y-55617944D03*
%TD*%
%TO.C,SW18*%
X117205000Y-74667944D03*
D17*
X115935000Y-72127944D03*
D18*
X112125000Y-74667944D03*
D17*
X109585000Y-69587944D03*
D16*
X107045000Y-74667944D03*
%TD*%
%TO.C,SW19*%
X117205000Y-93717944D03*
D17*
X115935000Y-91177944D03*
D18*
X112125000Y-93717944D03*
D17*
X109585000Y-88637944D03*
D16*
X107045000Y-93717944D03*
%TD*%
%TO.C,SW20*%
X126113982Y-119922511D03*
D17*
X126284130Y-117087806D03*
D18*
X121714573Y-117382511D03*
D17*
X122054868Y-111713102D03*
D16*
X117315164Y-114842511D03*
%TD*%
%TO.C,SW1*%
X166800000Y-131350000D03*
D17*
X165990361Y-128628055D03*
D18*
X161797177Y-130467867D03*
D17*
X160177898Y-125023977D03*
D16*
X156794354Y-129585734D03*
%TD*%
M02*
