%TF.GenerationSoftware,KiCad,Pcbnew,7.0.9-7.0.9~ubuntu22.04.1*%
%TF.CreationDate,2023-12-10T17:09:49+03:00*%
%TF.ProjectId,Keeb,4b656562-2e6b-4696-9361-645f70636258,rev?*%
%TF.SameCoordinates,Original*%
%TF.FileFunction,Copper,L1,Top*%
%TF.FilePolarity,Positive*%
%FSLAX46Y46*%
G04 Gerber Fmt 4.6, Leading zero omitted, Abs format (unit mm)*
G04 Created by KiCad (PCBNEW 7.0.9-7.0.9~ubuntu22.04.1) date 2023-12-10 17:09:49*
%MOMM*%
%LPD*%
G01*
G04 APERTURE LIST*
G04 Aperture macros list*
%AMRoundRect*
0 Rectangle with rounded corners*
0 $1 Rounding radius*
0 $2 $3 $4 $5 $6 $7 $8 $9 X,Y pos of 4 corners*
0 Add a 4 corners polygon primitive as box body*
4,1,4,$2,$3,$4,$5,$6,$7,$8,$9,$2,$3,0*
0 Add four circle primitives for the rounded corners*
1,1,$1+$1,$2,$3*
1,1,$1+$1,$4,$5*
1,1,$1+$1,$6,$7*
1,1,$1+$1,$8,$9*
0 Add four rect primitives between the rounded corners*
20,1,$1+$1,$2,$3,$4,$5,0*
20,1,$1+$1,$4,$5,$6,$7,0*
20,1,$1+$1,$6,$7,$8,$9,0*
20,1,$1+$1,$8,$9,$2,$3,0*%
%AMHorizOval*
0 Thick line with rounded ends*
0 $1 width*
0 $2 $3 position (X,Y) of the first rounded end (center of the circle)*
0 $4 $5 position (X,Y) of the second rounded end (center of the circle)*
0 Add line between two ends*
20,1,$1,$2,$3,$4,$5,0*
0 Add two circle primitives to create the rounded ends*
1,1,$1,$2,$3*
1,1,$1,$4,$5*%
%AMRotRect*
0 Rectangle, with rotation*
0 The origin of the aperture is its center*
0 $1 length*
0 $2 width*
0 $3 Rotation angle, in degrees counterclockwise*
0 Add horizontal line*
21,1,$1,$2,0,0,$3*%
G04 Aperture macros list end*
%TA.AperFunction,ComponentPad*%
%ADD10HorizOval,1.700000X0.000000X0.000000X0.000000X0.000000X0*%
%TD*%
%TA.AperFunction,SMDPad,CuDef*%
%ADD11RotRect,3.500000X1.700000X240.000000*%
%TD*%
%TA.AperFunction,ComponentPad*%
%ADD12RotRect,1.700000X1.700000X240.000000*%
%TD*%
%TA.AperFunction,ComponentPad*%
%ADD13R,1.580000X1.580000*%
%TD*%
%TA.AperFunction,ComponentPad*%
%ADD14C,1.580000*%
%TD*%
%TA.AperFunction,ComponentPad*%
%ADD15C,1.930400*%
%TD*%
%TA.AperFunction,ComponentPad*%
%ADD16R,1.930400X1.930400*%
%TD*%
%TA.AperFunction,ComponentPad*%
%ADD17R,1.575000X1.575000*%
%TD*%
%TA.AperFunction,ComponentPad*%
%ADD18C,1.575000*%
%TD*%
%TA.AperFunction,SMDPad,CuDef*%
%ADD19R,0.600000X1.140000*%
%TD*%
%TA.AperFunction,SMDPad,CuDef*%
%ADD20R,0.300000X1.140000*%
%TD*%
%TA.AperFunction,ComponentPad*%
%ADD21O,0.900000X2.000000*%
%TD*%
%TA.AperFunction,ComponentPad*%
%ADD22O,0.900000X1.700000*%
%TD*%
%TA.AperFunction,SMDPad,CuDef*%
%ADD23RoundRect,0.250000X2.025000X1.000000X-2.025000X1.000000X-2.025000X-1.000000X2.025000X-1.000000X0*%
%TD*%
%TA.AperFunction,ComponentPad*%
%ADD24C,2.500000*%
%TD*%
%TA.AperFunction,SMDPad,CuDef*%
%ADD25RoundRect,0.250000X2.027500X1.000000X-2.027500X1.000000X-2.027500X-1.000000X2.027500X-1.000000X0*%
%TD*%
%TA.AperFunction,SMDPad,CuDef*%
%ADD26RoundRect,0.250000X-2.025000X-1.000000X2.025000X-1.000000X2.025000X1.000000X-2.025000X1.000000X0*%
%TD*%
%TA.AperFunction,SMDPad,CuDef*%
%ADD27RoundRect,0.250000X-2.027500X-1.000000X2.027500X-1.000000X2.027500X1.000000X-2.027500X1.000000X0*%
%TD*%
%TA.AperFunction,Conductor*%
%ADD28C,0.250000*%
%TD*%
G04 APERTURE END LIST*
D10*
%TO.P,U1,1,GPIO0*%
%TO.N,0*%
X190264140Y-112900922D03*
D11*
X190714140Y-112121499D03*
D10*
%TO.P,U1,2,GPIO1*%
%TO.N,1*%
X188064435Y-111630922D03*
D11*
X188514435Y-110851499D03*
D12*
%TO.P,U1,3,GND*%
%TO.N,GND*%
X185864731Y-110360922D03*
D11*
X186314731Y-109581499D03*
D10*
%TO.P,U1,4,GPIO2*%
%TO.N,2*%
X183665026Y-109090922D03*
D11*
X184115026Y-108311499D03*
D10*
%TO.P,U1,5,GPIO3*%
%TO.N,3*%
X181465322Y-107820922D03*
D11*
X181915322Y-107041499D03*
D10*
%TO.P,U1,6,GPIO4*%
%TO.N,4*%
X179265617Y-106550922D03*
D11*
X179715617Y-105771499D03*
D10*
%TO.P,U1,7,GPIO5*%
%TO.N,5*%
X177065913Y-105280922D03*
D11*
X177515913Y-104501499D03*
D12*
%TO.P,U1,8,GND*%
%TO.N,unconnected-(U1-GND-Pad8)*%
X174866208Y-104010922D03*
D11*
X175316208Y-103231499D03*
D10*
%TO.P,U1,9,GPIO6*%
%TO.N,6*%
X172666504Y-102740922D03*
D11*
X173116504Y-101961499D03*
D10*
%TO.P,U1,10,GPIO7*%
%TO.N,7*%
X170466799Y-101470922D03*
D11*
X170916799Y-100691499D03*
D10*
%TO.P,U1,11,GPIO8*%
%TO.N,8*%
X168267095Y-100200922D03*
D11*
X168717095Y-99421499D03*
D10*
%TO.P,U1,12,GPIO9*%
%TO.N,9*%
X166067390Y-98930922D03*
D11*
X166517390Y-98151499D03*
D12*
%TO.P,U1,13,GND*%
%TO.N,GND*%
X163867686Y-97660922D03*
D11*
X164317686Y-96881499D03*
D10*
%TO.P,U1,14,GPIO10*%
%TO.N,10*%
X161667981Y-96390922D03*
D11*
X162117981Y-95611499D03*
D10*
%TO.P,U1,15,GPIO11*%
%TO.N,11*%
X159468277Y-95120922D03*
D11*
X159918277Y-94341499D03*
D10*
%TO.P,U1,16,GPIO12*%
%TO.N,12*%
X157268572Y-93850922D03*
D11*
X157718572Y-93071499D03*
D10*
%TO.P,U1,17,GPIO13*%
%TO.N,13*%
X155068868Y-92580922D03*
D11*
X155518868Y-91801499D03*
D12*
%TO.P,U1,18,GND*%
%TO.N,GND*%
X152869163Y-91310922D03*
D11*
X153319163Y-90531499D03*
D10*
%TO.P,U1,19,GPIO14*%
%TO.N,14*%
X150669459Y-90040922D03*
D11*
X151119459Y-89261499D03*
D10*
%TO.P,U1,20,GPIO15*%
%TO.N,15*%
X148469754Y-88770922D03*
D11*
X148919754Y-87991499D03*
D10*
%TO.P,U1,21,GPIO16*%
%TO.N,16*%
X139579754Y-104168854D03*
D11*
X139129754Y-104948277D03*
D10*
%TO.P,U1,22,GPIO17*%
%TO.N,17*%
X141779459Y-105438854D03*
D11*
X141329459Y-106218277D03*
D12*
%TO.P,U1,23,GND*%
%TO.N,GND*%
X143979163Y-106708854D03*
D11*
X143529163Y-107488277D03*
D10*
%TO.P,U1,24,GPIO18*%
%TO.N,18*%
X146178868Y-107978854D03*
D11*
X145728868Y-108758277D03*
D10*
%TO.P,U1,25,GPIO19*%
%TO.N,19*%
X148378572Y-109248854D03*
D11*
X147928572Y-110028277D03*
D10*
%TO.P,U1,26,GPIO20*%
%TO.N,20*%
X150578277Y-110518854D03*
D11*
X150128277Y-111298277D03*
D10*
%TO.P,U1,27,GPIO21*%
%TO.N,21*%
X152777981Y-111788854D03*
D11*
X152327981Y-112568277D03*
D12*
%TO.P,U1,28,GND*%
%TO.N,GND*%
X154977686Y-113058854D03*
D11*
X154527686Y-113838277D03*
D10*
%TO.P,U1,29,GPIO22*%
%TO.N,22*%
X157177390Y-114328854D03*
D11*
X156727390Y-115108277D03*
D10*
%TO.P,U1,30,RUN*%
%TO.N,unconnected-(U1-RUN-Pad30)*%
X159377095Y-115598854D03*
D11*
X158927095Y-116378277D03*
D10*
%TO.P,U1,31,GPIO26_ADC0*%
%TO.N,26*%
X161576799Y-116868854D03*
D11*
X161126799Y-117648277D03*
D10*
%TO.P,U1,32,GPIO27_ADC1*%
%TO.N,27*%
X163776504Y-118138854D03*
D11*
X163326504Y-118918277D03*
D12*
%TO.P,U1,33,AGND*%
%TO.N,unconnected-(U1-AGND-Pad33)*%
X165976208Y-119408854D03*
D11*
X165526208Y-120188277D03*
D10*
%TO.P,U1,34,GPIO28_ADC2*%
%TO.N,28*%
X168175913Y-120678854D03*
D11*
X167725913Y-121458277D03*
D10*
%TO.P,U1,35,ADC_VREF*%
%TO.N,unconnected-(U1-ADC_VREF-Pad35)*%
X170375617Y-121948854D03*
D11*
X169925617Y-122728277D03*
D10*
%TO.P,U1,36,3V3*%
%TO.N,unconnected-(U1-3V3-Pad36)*%
X172575322Y-123218854D03*
D11*
X172125322Y-123998277D03*
D10*
%TO.P,U1,37,3V3_EN*%
%TO.N,unconnected-(U1-3V3_EN-Pad37)*%
X174775026Y-124488854D03*
D11*
X174325026Y-125268277D03*
D12*
%TO.P,U1,38,GND*%
%TO.N,GND*%
X176974731Y-125758854D03*
D11*
X176524731Y-126538277D03*
D10*
%TO.P,U1,39,VSYS*%
%TO.N,VSYS*%
X179174435Y-127028854D03*
D11*
X178724435Y-127808277D03*
D10*
%TO.P,U1,40,VBUS*%
%TO.N,3v3*%
X181374140Y-128298854D03*
D11*
X180924140Y-129078277D03*
%TD*%
D13*
%TO.P,S1,1A*%
%TO.N,GND*%
X162140000Y-122342944D03*
D14*
%TO.P,S1,1B*%
%TO.N,Net-(J2-Pad2)*%
X162140000Y-129962944D03*
%TD*%
D15*
%TO.P,U2,CLK,CLK*%
%TO.N,4*%
X117030000Y-38372944D03*
%TO.P,U2,DT,DT*%
%TO.N,3*%
X114490000Y-38372944D03*
D16*
%TO.P,U2,GND,GND*%
%TO.N,GND*%
X106870000Y-38372944D03*
D15*
%TO.P,U2,SW,SW*%
%TO.N,28*%
X111950000Y-38372944D03*
%TO.P,U2,VCC,VCC*%
%TO.N,3v3*%
X109410000Y-38372944D03*
%TD*%
D17*
%TO.P,J2,1,1*%
%TO.N,VSYS*%
X142130000Y-83882944D03*
D18*
%TO.P,J2,2,2*%
%TO.N,Net-(J2-Pad2)*%
X142130000Y-86382944D03*
%TD*%
D19*
%TO.P,J1,A1_B12,GND*%
%TO.N,GND*%
X136465000Y-40790000D03*
%TO.P,J1,A4_B9,VBUS*%
%TO.N,VSYS*%
X135665000Y-40790000D03*
D20*
%TO.P,J1,A5,CC1*%
%TO.N,2*%
X134515000Y-40790000D03*
%TO.P,J1,A6,DP1*%
%TO.N,14*%
X133515000Y-40790000D03*
%TO.P,J1,A7,DN1*%
X133015000Y-40790000D03*
%TO.P,J1,A8,SBU1*%
%TO.N,2*%
X132015000Y-40790000D03*
D19*
%TO.P,J1,B1_A12,GND*%
%TO.N,GND*%
X130065000Y-40790000D03*
%TO.P,J1,B4_A9,VBUS*%
%TO.N,VSYS*%
X130865000Y-40790000D03*
D20*
%TO.P,J1,B5,CC2*%
%TO.N,3v3*%
X131515000Y-40790000D03*
%TO.P,J1,B6,DP2*%
%TO.N,15*%
X132515000Y-40790000D03*
%TO.P,J1,B7,DN2*%
X134015000Y-40790000D03*
%TO.P,J1,B8,SBU2*%
%TO.N,3v3*%
X135015000Y-40790000D03*
D21*
%TO.P,J1,S1,SHIELD*%
%TO.N,Net-(J1-SHIELD-PadS1)*%
X137590000Y-40210000D03*
%TO.P,J1,S2,SHIELD*%
X128940000Y-40210000D03*
D22*
%TO.P,J1,S3,SHIELD*%
X137590000Y-36040000D03*
%TO.P,J1,S4,SHIELD*%
X128940000Y-36040000D03*
%TD*%
D23*
%TO.P,SW3,1*%
%TO.N,GND*%
X194410000Y-53077944D03*
D24*
X192135000Y-53077944D03*
%TO.P,SW3,2*%
%TO.N,7*%
X185785000Y-50537944D03*
D25*
X183507500Y-50537944D03*
%TD*%
D23*
%TO.P,SW4,1*%
%TO.N,GND*%
X194410000Y-72127944D03*
D24*
X192135000Y-72127944D03*
%TO.P,SW4,2*%
%TO.N,6*%
X185785000Y-69587944D03*
D25*
X183507500Y-69587944D03*
%TD*%
D23*
%TO.P,SW5,1*%
%TO.N,GND*%
X194410000Y-91177944D03*
D24*
X192135000Y-91177944D03*
%TO.P,SW5,2*%
%TO.N,5*%
X185785000Y-88637944D03*
D25*
X183507500Y-88637944D03*
%TD*%
D23*
%TO.P,SW6,1*%
%TO.N,GND*%
X175360000Y-46027944D03*
D24*
X173085000Y-46027944D03*
%TO.P,SW6,2*%
%TO.N,9*%
X166735000Y-43487944D03*
D25*
X164457500Y-43487944D03*
%TD*%
D23*
%TO.P,SW7,1*%
%TO.N,GND*%
X175360000Y-65077944D03*
D24*
X173085000Y-65077944D03*
%TO.P,SW7,2*%
%TO.N,8*%
X166735000Y-62537944D03*
D25*
X164457500Y-62537944D03*
%TD*%
D23*
%TO.P,SW8,1*%
%TO.N,GND*%
X175360000Y-84127944D03*
D24*
X173085000Y-84127944D03*
%TO.P,SW8,2*%
%TO.N,10*%
X166735000Y-81587944D03*
D25*
X164457500Y-81587944D03*
%TD*%
D23*
%TO.P,SW9,1*%
%TO.N,11*%
X156310000Y-38977944D03*
D24*
X154035000Y-38977944D03*
%TO.P,SW9,2*%
%TO.N,GND*%
X147685000Y-36437944D03*
D25*
X145407500Y-36437944D03*
%TD*%
D23*
%TO.P,SW10,1*%
%TO.N,12*%
X156310000Y-58027944D03*
D24*
X154035000Y-58027944D03*
%TO.P,SW10,2*%
%TO.N,GND*%
X147685000Y-55487944D03*
D25*
X145407500Y-55487944D03*
%TD*%
D23*
%TO.P,SW11,1*%
%TO.N,13*%
X156310000Y-77077944D03*
D24*
X154035000Y-77077944D03*
%TO.P,SW11,2*%
%TO.N,GND*%
X147685000Y-74537944D03*
D25*
X145407500Y-74537944D03*
%TD*%
D23*
%TO.P,SW13,1*%
%TO.N,GND*%
X137260000Y-53077944D03*
D24*
X134985000Y-53077944D03*
%TO.P,SW13,2*%
%TO.N,19*%
X128635000Y-50537944D03*
D25*
X126357500Y-50537944D03*
%TD*%
D23*
%TO.P,SW14,1*%
%TO.N,GND*%
X137260000Y-72127944D03*
D24*
X134985000Y-72127944D03*
%TO.P,SW14,2*%
%TO.N,18*%
X128635000Y-69587944D03*
D25*
X126357500Y-69587944D03*
%TD*%
D23*
%TO.P,SW15,1*%
%TO.N,GND*%
X137260000Y-91177944D03*
D24*
X134985000Y-91177944D03*
%TO.P,SW15,2*%
%TO.N,21*%
X128635000Y-88637944D03*
D25*
X126357500Y-88637944D03*
%TD*%
D23*
%TO.P,SW16,1*%
%TO.N,20*%
X137260000Y-110227944D03*
D24*
X134985000Y-110227944D03*
%TO.P,SW16,2*%
%TO.N,GND*%
X128635000Y-107687944D03*
D25*
X126357500Y-107687944D03*
%TD*%
D23*
%TO.P,SW17,1*%
%TO.N,16*%
X118210000Y-53077944D03*
D24*
X115935000Y-53077944D03*
%TO.P,SW17,2*%
%TO.N,GND*%
X109585000Y-50537944D03*
D25*
X107307500Y-50537944D03*
%TD*%
D23*
%TO.P,SW18,1*%
%TO.N,17*%
X118210000Y-72127944D03*
D24*
X115935000Y-72127944D03*
%TO.P,SW18,2*%
%TO.N,GND*%
X109585000Y-69587944D03*
D25*
X107307500Y-69587944D03*
%TD*%
D23*
%TO.P,SW19,1*%
%TO.N,22*%
X118210000Y-91177944D03*
D24*
X115935000Y-91177944D03*
%TO.P,SW19,2*%
%TO.N,GND*%
X109585000Y-88637944D03*
D25*
X107307500Y-88637944D03*
%TD*%
D23*
%TO.P,SW20,1*%
%TO.N,26*%
X118210000Y-110227944D03*
D24*
X115935000Y-110227944D03*
%TO.P,SW20,2*%
%TO.N,GND*%
X109585000Y-107687944D03*
D25*
X107307500Y-107687944D03*
%TD*%
D26*
%TO.P,SW2,1*%
%TO.N,GND*%
X182240000Y-39107944D03*
D24*
X184515000Y-39107944D03*
%TO.P,SW2,2*%
%TO.N,1*%
X190865000Y-41647944D03*
D27*
X193142500Y-41647944D03*
%TD*%
D23*
%TO.P,SW1,1*%
%TO.N,27*%
X156385000Y-122632944D03*
D24*
X154110000Y-122632944D03*
%TO.P,SW1,2*%
%TO.N,GND*%
X147760000Y-120092944D03*
D25*
X145482500Y-120092944D03*
%TD*%
D28*
%TO.N,9*%
X179150000Y-82759340D02*
X179150000Y-85848312D01*
X166490000Y-46544944D02*
X166490000Y-55982944D01*
X166450000Y-66449340D02*
X166450000Y-70059340D01*
X161310000Y-61162944D02*
X161310000Y-63872944D01*
X164473604Y-64472944D02*
X166450000Y-66449340D01*
X161310000Y-63872944D02*
X161910000Y-64472944D01*
X179150000Y-85848312D02*
X166067390Y-98930922D01*
X163433000Y-43487944D02*
X166490000Y-46544944D01*
X166450000Y-70059340D02*
X179150000Y-82759340D01*
X166490000Y-55982944D02*
X161310000Y-61162944D01*
X161910000Y-64472944D02*
X164473604Y-64472944D01*
%TO.N,10*%
X162945000Y-95113903D02*
X161667981Y-96390922D01*
X163433000Y-81587944D02*
X162945000Y-82075944D01*
X162945000Y-82075944D02*
X162945000Y-95113903D01*
%TO.N,11*%
X157310000Y-44322944D02*
X165910000Y-52922944D01*
X165910000Y-52922944D02*
X165910000Y-55926548D01*
X165910000Y-55926548D02*
X160860000Y-60976548D01*
X159468277Y-94134667D02*
X159468277Y-95120922D01*
X165990000Y-66625736D02*
X165990000Y-74722944D01*
X161723604Y-64922944D02*
X164287208Y-64922944D01*
X160850000Y-79862944D02*
X160850000Y-92752944D01*
X164287208Y-64922944D02*
X165990000Y-66625736D01*
X165990000Y-74722944D02*
X160850000Y-79862944D01*
X160850000Y-92752944D02*
X159468277Y-94134667D01*
X160860000Y-64059340D02*
X161723604Y-64922944D01*
X157310000Y-38977944D02*
X157310000Y-44322944D01*
X160860000Y-60976548D02*
X160860000Y-64059340D01*
%TO.N,13*%
X157310000Y-77077944D02*
X157310000Y-89272944D01*
X157310000Y-89272944D02*
X155068868Y-91514076D01*
X155068868Y-91514076D02*
X155068868Y-92580922D01*
%TO.N,16*%
X133840000Y-104975836D02*
X135907108Y-107042944D01*
X122270000Y-54862944D02*
X122270000Y-73142944D01*
X133840000Y-100305736D02*
X133840000Y-104975836D01*
X136705664Y-107042944D02*
X139579754Y-104168854D01*
X135516496Y-84952944D02*
X140310000Y-89746448D01*
X135907108Y-107042944D02*
X136705664Y-107042944D01*
X120485000Y-53077944D02*
X122270000Y-54862944D01*
X119210000Y-53077944D02*
X120485000Y-53077944D01*
X140310000Y-89746448D02*
X140310000Y-93835736D01*
X134080000Y-84952944D02*
X135516496Y-84952944D01*
X122270000Y-73142944D02*
X134080000Y-84952944D01*
X140310000Y-93835736D02*
X133840000Y-100305736D01*
%TO.N,17*%
X135330100Y-85402944D02*
X139860000Y-89932844D01*
X133390000Y-100119340D02*
X133390000Y-106553604D01*
X134329340Y-107492944D02*
X139725369Y-107492944D01*
X133390000Y-106553604D02*
X134329340Y-107492944D01*
X133893604Y-85402944D02*
X135330100Y-85402944D01*
X139860000Y-93649340D02*
X133390000Y-100119340D01*
X119210000Y-72127944D02*
X120618604Y-72127944D01*
X120618604Y-72127944D02*
X133893604Y-85402944D01*
X139860000Y-89932844D02*
X139860000Y-93649340D01*
X139725369Y-107492944D02*
X141779459Y-105438854D01*
%TO.N,18*%
X127700000Y-71954944D02*
X125333000Y-69587944D01*
X146178868Y-107978854D02*
X146178868Y-94978920D01*
X146178868Y-94978920D02*
X127700000Y-76500052D01*
X127700000Y-76500052D02*
X127700000Y-71954944D01*
%TO.N,19*%
X130760000Y-70813554D02*
X128150000Y-73423554D01*
X124845000Y-51025944D02*
X124845000Y-62792740D01*
X148378572Y-96542228D02*
X148378572Y-109248854D01*
X125333000Y-50537944D02*
X124845000Y-51025944D01*
X124845000Y-62792740D02*
X130760000Y-68707740D01*
X130760000Y-68707740D02*
X130760000Y-70813554D01*
X128150000Y-73423554D02*
X128150000Y-76313656D01*
X128150000Y-76313656D02*
X148378572Y-96542228D01*
%TO.N,20*%
X148803310Y-112293821D02*
X150578277Y-110518854D01*
X138260000Y-110227944D02*
X140325877Y-112293821D01*
X140325877Y-112293821D02*
X148803310Y-112293821D01*
%TO.N,27*%
X159282414Y-122632944D02*
X163776504Y-118138854D01*
X157385000Y-122632944D02*
X159282414Y-122632944D01*
%TO.N,28*%
X114170000Y-40592944D02*
X124440000Y-40592944D01*
X128600000Y-75932944D02*
X168175913Y-115508857D01*
X131740000Y-47892944D02*
X131740000Y-50832944D01*
X128600000Y-73609950D02*
X128600000Y-75932944D01*
X131210000Y-70999950D02*
X128600000Y-73609950D01*
X111950000Y-38372944D02*
X114170000Y-40592944D01*
X168175913Y-115508857D02*
X168175913Y-120678854D01*
X128800000Y-57042944D02*
X131210000Y-59452944D01*
X131210000Y-59452944D02*
X131210000Y-70999950D01*
X128800000Y-53772944D02*
X128800000Y-57042944D01*
X124440000Y-40592944D02*
X131740000Y-47892944D01*
X131740000Y-50832944D02*
X128800000Y-53772944D01*
%TO.N,21*%
X123733000Y-106442844D02*
X123733000Y-108933044D01*
X127345000Y-90649944D02*
X127345000Y-94235711D01*
X127220000Y-94360711D02*
X127220000Y-102955844D01*
X125059163Y-109327944D02*
X127795000Y-112063781D01*
X127220000Y-102955844D02*
X123733000Y-106442844D01*
X127795000Y-113555152D02*
X129382792Y-115142944D01*
X125333000Y-88637944D02*
X127345000Y-90649944D01*
X150846391Y-113720444D02*
X152777981Y-111788854D01*
X129382792Y-115142944D02*
X135647767Y-115142944D01*
X135647767Y-115142944D02*
X137070267Y-113720444D01*
X127795000Y-112063781D02*
X127795000Y-113555152D01*
X124127900Y-109327944D02*
X125059163Y-109327944D01*
X127345000Y-94235711D02*
X127220000Y-94360711D01*
X123733000Y-108933044D02*
X124127900Y-109327944D01*
X137070267Y-113720444D02*
X150846391Y-113720444D01*
%TO.N,22*%
X122831396Y-109777944D02*
X117820000Y-104766548D01*
X118455000Y-94235711D02*
X118455000Y-93200177D01*
X117821384Y-92566560D02*
X119210000Y-91177944D01*
X118455000Y-93200177D02*
X117821384Y-92566560D01*
X117820000Y-94870711D02*
X118455000Y-94235711D01*
X127345000Y-113741548D02*
X127345000Y-112250177D01*
X130436396Y-116832944D02*
X127345000Y-113741548D01*
X117820000Y-104766548D02*
X117820000Y-94870711D01*
X127345000Y-112250177D02*
X124872767Y-109777944D01*
X154673300Y-116832944D02*
X130436396Y-116832944D01*
X157177390Y-114328854D02*
X154673300Y-116832944D01*
X124872767Y-109777944D02*
X122831396Y-109777944D01*
%TO.N,26*%
X156950000Y-120042944D02*
X158900000Y-120042944D01*
X119210000Y-110227944D02*
X126825000Y-117842944D01*
X126825000Y-117842944D02*
X154750000Y-117842944D01*
X154750000Y-117842944D02*
X156950000Y-120042944D01*
X158900000Y-120042944D02*
X161576799Y-117366145D01*
X161576799Y-117366145D02*
X161576799Y-116868854D01*
%TO.N,GND*%
X144383000Y-55487944D02*
X143895000Y-55975944D01*
X163473750Y-128397944D02*
X164988750Y-129912944D01*
X163473750Y-128397944D02*
X150166243Y-128397944D01*
X172820641Y-129912944D02*
X176974731Y-125758854D01*
X144383000Y-74537944D02*
X147640000Y-77794944D01*
X143895000Y-36925944D02*
X144383000Y-36437944D01*
X150166243Y-128397944D02*
X147925000Y-126156701D01*
X139000000Y-41610000D02*
X144172056Y-36437944D01*
X147925000Y-126156701D02*
X147925000Y-123559944D01*
X140433717Y-108483821D02*
X142204196Y-108483821D01*
X130065000Y-40790000D02*
X130065000Y-41060000D01*
X127930000Y-39310000D02*
X128470000Y-38770000D01*
X132940000Y-99932944D02*
X138260000Y-94612944D01*
X176360000Y-46027944D02*
X176360000Y-44777944D01*
X197910000Y-51440152D02*
X197910000Y-98315653D01*
X106860000Y-49960944D02*
X106283000Y-50537944D01*
X138260000Y-53077944D02*
X138260000Y-72127944D01*
X136465000Y-40790000D02*
X136465000Y-41060000D01*
X173175000Y-41592944D02*
X167845204Y-41592944D01*
X107178000Y-86492944D02*
X106283000Y-87387944D01*
X105795000Y-107199944D02*
X105795000Y-89125944D01*
X163245443Y-98283165D02*
X163867686Y-97660922D01*
X147925000Y-123559944D02*
X143378000Y-119012944D01*
X135782944Y-37332944D02*
X143488000Y-37332944D01*
X139922840Y-107972944D02*
X140433717Y-108483821D01*
X192820000Y-48282944D02*
X178615000Y-48282944D01*
X185577792Y-39107944D02*
X197910000Y-51440152D01*
X176360000Y-87502944D02*
X169280000Y-94582944D01*
X143488000Y-37332944D02*
X144383000Y-36437944D01*
X167845204Y-41592944D02*
X162690204Y-36437944D01*
X138260000Y-94612944D02*
X138260000Y-89927944D01*
X135320000Y-36870000D02*
X135782944Y-37332944D01*
X164988750Y-129912944D02*
X172820641Y-129912944D01*
X105795000Y-70075944D02*
X105795000Y-88149944D01*
X134172944Y-107972944D02*
X139922840Y-107972944D01*
X106283000Y-69587944D02*
X105795000Y-70075944D01*
X147640000Y-80822944D02*
X154060000Y-87242944D01*
X197910000Y-98315653D02*
X185864731Y-110360922D01*
X129365000Y-41760000D02*
X128597056Y-41760000D01*
X176360000Y-46027944D02*
X176360000Y-65077944D01*
X128597056Y-41760000D02*
X127930000Y-41092944D01*
X178615000Y-48282944D02*
X176360000Y-46027944D01*
X134825000Y-86492944D02*
X107178000Y-86492944D01*
X132940000Y-99932944D02*
X132940000Y-106740000D01*
X142204196Y-108483821D02*
X143979163Y-106708854D01*
X105795000Y-51025944D02*
X105795000Y-69099944D01*
X130065000Y-42757944D02*
X130065000Y-40790000D01*
X152869163Y-91310922D02*
X152869163Y-92729315D01*
X131730000Y-36870000D02*
X135320000Y-36870000D01*
X144383000Y-55487944D02*
X143895000Y-54999944D01*
X143378000Y-119012944D02*
X115011243Y-119012944D01*
X136465000Y-41060000D02*
X137015000Y-41610000D01*
X195410000Y-91177944D02*
X195410000Y-50872944D01*
X105795000Y-69099944D02*
X106283000Y-69587944D01*
X125333000Y-107687944D02*
X125333000Y-107539944D01*
X106283000Y-87387944D02*
X106283000Y-88637944D01*
X154060000Y-90120085D02*
X152869163Y-91310922D01*
X143895000Y-55975944D02*
X143895000Y-74049944D01*
X144172056Y-36437944D02*
X144383000Y-36437944D01*
X169280000Y-94582944D02*
X166300000Y-94582944D01*
X195410000Y-50872944D02*
X192820000Y-48282944D01*
X108295000Y-112296701D02*
X108295000Y-109699944D01*
X125333000Y-107539944D02*
X132940000Y-99932944D01*
X127930000Y-41092944D02*
X127930000Y-39310000D01*
X181240000Y-39107944D02*
X185577792Y-39107944D01*
X158423013Y-98283165D02*
X163245443Y-98283165D01*
X176360000Y-84127944D02*
X176360000Y-87502944D01*
X147640000Y-77794944D02*
X147640000Y-80822944D01*
X138260000Y-89927944D02*
X134825000Y-86492944D01*
X143895000Y-74049944D02*
X144383000Y-74537944D01*
X105795000Y-89125944D02*
X106283000Y-88637944D01*
X128470000Y-38770000D02*
X129830000Y-38770000D01*
X166300000Y-94582944D02*
X163867686Y-97015258D01*
X152869163Y-92729315D02*
X158423013Y-98283165D01*
X106283000Y-50537944D02*
X105795000Y-51025944D01*
X162140000Y-122342944D02*
X162140000Y-127064194D01*
X115011243Y-119012944D02*
X108295000Y-112296701D01*
X137015000Y-41610000D02*
X139000000Y-41610000D01*
X138260000Y-53077944D02*
X138260000Y-50952944D01*
X132940000Y-106740000D02*
X134172944Y-107972944D01*
X106870000Y-38372944D02*
X106860000Y-38382944D01*
X154060000Y-87242944D02*
X154060000Y-90120085D01*
X163867686Y-97015258D02*
X163867686Y-97660922D01*
X143895000Y-54999944D02*
X143895000Y-36925944D01*
X176360000Y-44777944D02*
X173175000Y-41592944D01*
X108295000Y-109699944D02*
X105795000Y-107199944D01*
X130065000Y-41060000D02*
X129365000Y-41760000D01*
X105795000Y-88149944D02*
X106283000Y-88637944D01*
X129830000Y-38770000D02*
X131730000Y-36870000D01*
X162690204Y-36437944D02*
X144383000Y-36437944D01*
X106860000Y-38382944D02*
X106860000Y-49960944D01*
X162140000Y-127064194D02*
X163473750Y-128397944D01*
X138260000Y-50952944D02*
X130065000Y-42757944D01*
%TO.N,3v3*%
X163287354Y-128847944D02*
X164802354Y-130362944D01*
X174860827Y-120693771D02*
X174860827Y-120687084D01*
X179310050Y-130362944D02*
X181374140Y-128298854D01*
X143990000Y-126132944D02*
X146705000Y-128847944D01*
X140270000Y-86096257D02*
X140270000Y-85202944D01*
X143242500Y-84995444D02*
X143900000Y-84337944D01*
X164802354Y-130362944D02*
X179310050Y-130362944D01*
X107605000Y-36567944D02*
X105755000Y-36567944D01*
X133720000Y-120762944D02*
X139090000Y-126132944D01*
X140310000Y-79342944D02*
X140310000Y-51472944D01*
X135015000Y-38605812D02*
X135015000Y-40790000D01*
X105755000Y-36567944D02*
X104620000Y-37702944D01*
X131540000Y-38870812D02*
X132610812Y-37800000D01*
X140310000Y-51472944D02*
X131515000Y-42677944D01*
X181374140Y-127207084D02*
X174860827Y-120693771D01*
X174860827Y-120687084D02*
X140270000Y-86096257D01*
X131515000Y-40790000D02*
X131540000Y-40765000D01*
X131515000Y-42677944D02*
X131515000Y-40790000D01*
X140270000Y-85202944D02*
X140477500Y-84995444D01*
X146705000Y-128847944D02*
X163287354Y-128847944D01*
X109410000Y-38372944D02*
X107605000Y-36567944D01*
X112970000Y-120762944D02*
X133720000Y-120762944D01*
X143900000Y-82932944D02*
X140310000Y-79342944D01*
X139090000Y-126132944D02*
X143990000Y-126132944D01*
X140477500Y-84995444D02*
X143242500Y-84995444D01*
X104620000Y-112412944D02*
X112970000Y-120762944D01*
X132610812Y-37800000D02*
X134209188Y-37800000D01*
X134209188Y-37800000D02*
X135015000Y-38605812D01*
X131540000Y-40765000D02*
X131540000Y-38870812D01*
X181374140Y-128298854D02*
X181374140Y-127207084D01*
X143900000Y-84337944D02*
X143900000Y-82932944D01*
X104620000Y-37702944D02*
X104620000Y-112412944D01*
%TO.N,1*%
X198360000Y-101335357D02*
X198360000Y-49677944D01*
X198360000Y-49677944D02*
X194167000Y-45484944D01*
X188064435Y-111630922D02*
X198360000Y-101335357D01*
X194167000Y-45484944D02*
X194167000Y-41647944D01*
%TO.N,3*%
X192926496Y-97142944D02*
X192143300Y-97142944D01*
X163114042Y-34372944D02*
X169429042Y-40687944D01*
X193216396Y-47382944D02*
X197460000Y-51626548D01*
X181220000Y-47382944D02*
X193216396Y-47382944D01*
X174525000Y-40687944D02*
X181220000Y-47382944D01*
X118490000Y-34372944D02*
X163114042Y-34372944D01*
X197460000Y-51626548D02*
X197460000Y-92609440D01*
X169429042Y-40687944D02*
X174525000Y-40687944D01*
X197460000Y-92609440D02*
X192926496Y-97142944D01*
X114490000Y-38372944D02*
X118490000Y-34372944D01*
X192143300Y-97142944D02*
X181465322Y-107820922D01*
%TO.N,4*%
X174343604Y-41142944D02*
X169892062Y-41142944D01*
X162927646Y-34822944D02*
X120580000Y-34822944D01*
X179265617Y-106550922D02*
X189505926Y-96310613D01*
X181033604Y-47832944D02*
X174343604Y-41142944D01*
X193030000Y-47832944D02*
X181033604Y-47832944D01*
X193122431Y-96310613D02*
X197010000Y-92423044D01*
X120580000Y-34822944D02*
X117030000Y-38372944D01*
X197010000Y-92423044D02*
X197010000Y-51812944D01*
X169887062Y-41137944D02*
X169242646Y-41137944D01*
X169242646Y-41137944D02*
X162927646Y-34822944D01*
X197010000Y-51812944D02*
X193030000Y-47832944D01*
X169892062Y-41142944D02*
X169887062Y-41137944D01*
X189505926Y-96310613D02*
X193122431Y-96310613D01*
%TO.N,6*%
X181407495Y-100302944D02*
X174400000Y-100302944D01*
X172666504Y-102036440D02*
X172666504Y-102740922D01*
X182483000Y-70209944D02*
X180500000Y-72192944D01*
X180500000Y-90062944D02*
X180970000Y-90532944D01*
X184760000Y-96950439D02*
X181407495Y-100302944D01*
X180970000Y-90532944D02*
X183741604Y-90532944D01*
X180500000Y-72192944D02*
X180500000Y-90062944D01*
X184760000Y-91551340D02*
X184760000Y-96950439D01*
X183741604Y-90532944D02*
X184760000Y-91551340D01*
X182483000Y-69587944D02*
X182483000Y-70209944D01*
X174400000Y-100302944D02*
X172666504Y-102036440D01*
%TO.N,7*%
X170466799Y-99933081D02*
X170466799Y-101470922D01*
X180050000Y-61352944D02*
X180050000Y-86221104D01*
X171860000Y-98539880D02*
X170466799Y-99933081D01*
X181740000Y-59662944D02*
X180050000Y-61352944D01*
X181740000Y-51280944D02*
X181740000Y-59662944D01*
X180050000Y-86221104D02*
X171860000Y-94411104D01*
X171860000Y-94411104D02*
X171860000Y-98539880D01*
X182483000Y-50537944D02*
X181740000Y-51280944D01*
%TO.N,8*%
X166900000Y-69872944D02*
X179600000Y-82572944D01*
X163433000Y-62537944D02*
X163433000Y-62795944D01*
X163433000Y-62795944D02*
X166900000Y-66262944D01*
X179600000Y-86034708D02*
X171200000Y-94434708D01*
X171200000Y-94434708D02*
X171200000Y-96252944D01*
X179600000Y-82572944D02*
X179600000Y-86034708D01*
X171200000Y-96252944D02*
X168267095Y-99185849D01*
X168267095Y-99185849D02*
X168267095Y-100200922D01*
X166900000Y-66262944D02*
X166900000Y-69872944D01*
%TO.N,2*%
X132015000Y-39032208D02*
X132797208Y-38250000D01*
X146210000Y-89499340D02*
X146210000Y-84428756D01*
X166651582Y-109940922D02*
X146210000Y-89499340D01*
X146210000Y-84428756D02*
X140760000Y-78978756D01*
X182815026Y-109940922D02*
X166651582Y-109940922D01*
X140760000Y-51286548D02*
X132015000Y-42541548D01*
X133682792Y-38250000D02*
X134515000Y-39082208D01*
X132797208Y-38250000D02*
X133682792Y-38250000D01*
X134515000Y-39082208D02*
X134515000Y-40790000D01*
X183665026Y-109090922D02*
X182815026Y-109940922D01*
X132015000Y-42541548D02*
X132015000Y-40790000D01*
X140760000Y-78978756D02*
X140760000Y-51286548D01*
X132015000Y-40790000D02*
X132015000Y-39032208D01*
%TO.N,15*%
X132515000Y-39168604D02*
X132983604Y-38700000D01*
X134015000Y-39218604D02*
X134015000Y-40790000D01*
X141690000Y-50943756D02*
X141690000Y-78432944D01*
X134015000Y-40790000D02*
X134015000Y-43268756D01*
X134015000Y-43268756D02*
X141690000Y-50943756D01*
X132515000Y-40790000D02*
X132515000Y-39168604D01*
X148469754Y-85212698D02*
X148469754Y-88770922D01*
X132983604Y-38700000D02*
X133496396Y-38700000D01*
X133496396Y-38700000D02*
X134015000Y-39218604D01*
X141690000Y-78432944D02*
X148469754Y-85212698D01*
%TO.N,14*%
X133015000Y-40790000D02*
X133015000Y-42905152D01*
X133015000Y-42905152D02*
X141210000Y-51100152D01*
X133515000Y-39355000D02*
X133515000Y-40790000D01*
X141210000Y-51100152D02*
X141210000Y-78792360D01*
X146660000Y-84242360D02*
X146660000Y-89312944D01*
X149450000Y-91632944D02*
X150669459Y-90413485D01*
X133310000Y-39150000D02*
X133515000Y-39355000D01*
X148980000Y-91632944D02*
X149450000Y-91632944D01*
X146660000Y-89312944D02*
X148980000Y-91632944D01*
X150669459Y-90413485D02*
X150669459Y-90040922D01*
X141210000Y-78792360D02*
X146660000Y-84242360D01*
X133015000Y-40790000D02*
X133015000Y-39305000D01*
X133170000Y-39150000D02*
X133310000Y-39150000D01*
X133015000Y-39305000D02*
X133170000Y-39150000D01*
%TO.N,12*%
X157310000Y-58027944D02*
X157310000Y-61145736D01*
X164100812Y-65372944D02*
X165540000Y-66812132D01*
X157268572Y-92994372D02*
X157268572Y-93850922D01*
X160400000Y-79676548D02*
X160400000Y-89862944D01*
X165540000Y-66812132D02*
X165540000Y-74536548D01*
X161537208Y-65372944D02*
X164100812Y-65372944D01*
X165540000Y-74536548D02*
X160400000Y-79676548D01*
X160400000Y-89862944D02*
X157268572Y-92994372D01*
X157310000Y-61145736D02*
X161537208Y-65372944D01*
%TO.N,VSYS*%
X142130000Y-83882944D02*
X140800000Y-83882944D01*
X139860000Y-84822944D02*
X139860000Y-51832844D01*
X179174435Y-125643775D02*
X139820000Y-86289340D01*
X135465000Y-38419416D02*
X135465000Y-40028604D01*
X140800000Y-83882944D02*
X139860000Y-84822944D01*
X139860000Y-51832844D02*
X130865000Y-42837844D01*
X131040000Y-40615000D02*
X131040000Y-39913604D01*
X131090000Y-38684416D02*
X132424416Y-37350000D01*
X130865000Y-40790000D02*
X131040000Y-40615000D01*
X135665000Y-40228604D02*
X135665000Y-40790000D01*
X130865000Y-42837844D02*
X130865000Y-40790000D01*
X139820000Y-86289340D02*
X139820000Y-85016548D01*
X131040000Y-39913604D02*
X131090000Y-39863604D01*
X131090000Y-39863604D02*
X131090000Y-38684416D01*
X134395584Y-37350000D02*
X135465000Y-38419416D01*
X135465000Y-40028604D02*
X135665000Y-40228604D01*
X139860000Y-84976548D02*
X139860000Y-84822944D01*
X139820000Y-85016548D02*
X139860000Y-84976548D01*
X179174435Y-127028854D02*
X179174435Y-125643775D01*
X132424416Y-37350000D02*
X134395584Y-37350000D01*
%TO.N,5*%
X185210000Y-97136835D02*
X177065913Y-105280922D01*
X185210000Y-91364944D02*
X185210000Y-97136835D01*
X182483000Y-88637944D02*
X185210000Y-91364944D01*
%TO.N,Net-(J2-Pad2)*%
X182860262Y-127749602D02*
X141811802Y-86701142D01*
X180028398Y-131343821D02*
X180919882Y-131343821D01*
X162140000Y-129962944D02*
X163042500Y-130865444D01*
X179550021Y-130865444D02*
X180028398Y-131343821D01*
X180919882Y-131343821D02*
X182860262Y-129403441D01*
X182860262Y-129403441D02*
X182860262Y-127749602D01*
X163042500Y-130865444D02*
X179550021Y-130865444D01*
%TD*%
M02*
