%TF.GenerationSoftware,KiCad,Pcbnew,7.0.9-7.0.9~ubuntu22.04.1*%
%TF.CreationDate,2023-11-28T14:59:11+03:00*%
%TF.ProjectId,Keeb,4b656562-2e6b-4696-9361-645f70636258,rev?*%
%TF.SameCoordinates,Original*%
%TF.FileFunction,Drillmap*%
%TF.FilePolarity,Positive*%
%FSLAX45Y45*%
G04 Gerber Fmt 4.5, Leading zero omitted, Abs format (unit mm)*
G04 Created by KiCad (PCBNEW 7.0.9-7.0.9~ubuntu22.04.1) date 2023-11-28 14:59:11*
%MOMM*%
%LPD*%
G01*
G04 APERTURE LIST*
%ADD10C,0.050000*%
%ADD11C,0.200000*%
%ADD12C,0.100000*%
G04 APERTURE END LIST*
D10*
X17893000Y-3886000D02*
X17900000Y-3886000D01*
X19800000Y-4582000D01*
X19810000Y-8436000D01*
X19805000Y-10328000D01*
X18076000Y-13319000D01*
X14544000Y-13327000D01*
X12922000Y-12678000D01*
X11043000Y-11612000D01*
X10190000Y-10309294D01*
X10183000Y-4587294D01*
X12789000Y-3399000D01*
X14076000Y-3396294D01*
X15976000Y-3396294D01*
X17893000Y-3886000D01*
D11*
D12*
X12864000Y-3574000D02*
X12924000Y-3634000D01*
X12924000Y-3574000D02*
X12864000Y-3634000D01*
X12924000Y-3644000D02*
X12924000Y-3564000D01*
X12924000Y-3564000D02*
G75*
G03*
X12864000Y-3564000I-30000J0D01*
G01*
X12864000Y-3564000D02*
X12864000Y-3644000D01*
X12864000Y-3644000D02*
G75*
G03*
X12924000Y-3644000I30000J0D01*
G01*
X12864000Y-3991000D02*
X12924000Y-4051000D01*
X12924000Y-3991000D02*
X12864000Y-4051000D01*
X12924000Y-4076000D02*
X12924000Y-3966000D01*
X12924000Y-3966000D02*
G75*
G03*
X12864000Y-3966000I-30000J0D01*
G01*
X12864000Y-3966000D02*
X12864000Y-4076000D01*
X12864000Y-4076000D02*
G75*
G03*
X12924000Y-4076000I30000J0D01*
G01*
X13729000Y-3574000D02*
X13789000Y-3634000D01*
X13789000Y-3574000D02*
X13729000Y-3634000D01*
X13789000Y-3644000D02*
X13789000Y-3564000D01*
X13789000Y-3564000D02*
G75*
G03*
X13729000Y-3564000I-30000J0D01*
G01*
X13729000Y-3564000D02*
X13729000Y-3644000D01*
X13729000Y-3644000D02*
G75*
G03*
X13789000Y-3644000I30000J0D01*
G01*
X13729000Y-3991000D02*
X13789000Y-4051000D01*
X13789000Y-3991000D02*
X13729000Y-4051000D01*
X13789000Y-4076000D02*
X13789000Y-3966000D01*
X13789000Y-3966000D02*
G75*
G03*
X13729000Y-3966000I-30000J0D01*
G01*
X13729000Y-3966000D02*
X13729000Y-4076000D01*
X13729000Y-4076000D02*
G75*
G03*
X13789000Y-4076000I30000J0D01*
G01*
D11*
X10441277Y-13640984D02*
X10441277Y-13440984D01*
X10441277Y-13440984D02*
X10488896Y-13440984D01*
X10488896Y-13440984D02*
X10517467Y-13450508D01*
X10517467Y-13450508D02*
X10536515Y-13469555D01*
X10536515Y-13469555D02*
X10546039Y-13488603D01*
X10546039Y-13488603D02*
X10555563Y-13526698D01*
X10555563Y-13526698D02*
X10555563Y-13555269D01*
X10555563Y-13555269D02*
X10546039Y-13593365D01*
X10546039Y-13593365D02*
X10536515Y-13612412D01*
X10536515Y-13612412D02*
X10517467Y-13631460D01*
X10517467Y-13631460D02*
X10488896Y-13640984D01*
X10488896Y-13640984D02*
X10441277Y-13640984D01*
X10641277Y-13640984D02*
X10641277Y-13507650D01*
X10641277Y-13545746D02*
X10650801Y-13526698D01*
X10650801Y-13526698D02*
X10660324Y-13517174D01*
X10660324Y-13517174D02*
X10679372Y-13507650D01*
X10679372Y-13507650D02*
X10698420Y-13507650D01*
X10765086Y-13640984D02*
X10765086Y-13507650D01*
X10765086Y-13440984D02*
X10755563Y-13450508D01*
X10755563Y-13450508D02*
X10765086Y-13460031D01*
X10765086Y-13460031D02*
X10774610Y-13450508D01*
X10774610Y-13450508D02*
X10765086Y-13440984D01*
X10765086Y-13440984D02*
X10765086Y-13460031D01*
X10888896Y-13640984D02*
X10869848Y-13631460D01*
X10869848Y-13631460D02*
X10860324Y-13612412D01*
X10860324Y-13612412D02*
X10860324Y-13440984D01*
X10993658Y-13640984D02*
X10974610Y-13631460D01*
X10974610Y-13631460D02*
X10965086Y-13612412D01*
X10965086Y-13612412D02*
X10965086Y-13440984D01*
X11222229Y-13640984D02*
X11222229Y-13440984D01*
X11222229Y-13440984D02*
X11288896Y-13583841D01*
X11288896Y-13583841D02*
X11355562Y-13440984D01*
X11355562Y-13440984D02*
X11355562Y-13640984D01*
X11536515Y-13640984D02*
X11536515Y-13536222D01*
X11536515Y-13536222D02*
X11526991Y-13517174D01*
X11526991Y-13517174D02*
X11507943Y-13507650D01*
X11507943Y-13507650D02*
X11469848Y-13507650D01*
X11469848Y-13507650D02*
X11450801Y-13517174D01*
X11536515Y-13631460D02*
X11517467Y-13640984D01*
X11517467Y-13640984D02*
X11469848Y-13640984D01*
X11469848Y-13640984D02*
X11450801Y-13631460D01*
X11450801Y-13631460D02*
X11441277Y-13612412D01*
X11441277Y-13612412D02*
X11441277Y-13593365D01*
X11441277Y-13593365D02*
X11450801Y-13574317D01*
X11450801Y-13574317D02*
X11469848Y-13564793D01*
X11469848Y-13564793D02*
X11517467Y-13564793D01*
X11517467Y-13564793D02*
X11536515Y-13555269D01*
X11631753Y-13507650D02*
X11631753Y-13707650D01*
X11631753Y-13517174D02*
X11650801Y-13507650D01*
X11650801Y-13507650D02*
X11688896Y-13507650D01*
X11688896Y-13507650D02*
X11707943Y-13517174D01*
X11707943Y-13517174D02*
X11717467Y-13526698D01*
X11717467Y-13526698D02*
X11726991Y-13545746D01*
X11726991Y-13545746D02*
X11726991Y-13602888D01*
X11726991Y-13602888D02*
X11717467Y-13621936D01*
X11717467Y-13621936D02*
X11707943Y-13631460D01*
X11707943Y-13631460D02*
X11688896Y-13640984D01*
X11688896Y-13640984D02*
X11650801Y-13640984D01*
X11650801Y-13640984D02*
X11631753Y-13631460D01*
X11812705Y-13621936D02*
X11822229Y-13631460D01*
X11822229Y-13631460D02*
X11812705Y-13640984D01*
X11812705Y-13640984D02*
X11803182Y-13631460D01*
X11803182Y-13631460D02*
X11812705Y-13621936D01*
X11812705Y-13621936D02*
X11812705Y-13640984D01*
X11812705Y-13517174D02*
X11822229Y-13526698D01*
X11822229Y-13526698D02*
X11812705Y-13536222D01*
X11812705Y-13536222D02*
X11803182Y-13526698D01*
X11803182Y-13526698D02*
X11812705Y-13517174D01*
X11812705Y-13517174D02*
X11812705Y-13536222D01*
D12*
X10120500Y-13939500D02*
X10180500Y-13999500D01*
X10180500Y-13939500D02*
X10120500Y-13999500D01*
D11*
X10479372Y-13860984D02*
X10498420Y-13860984D01*
X10498420Y-13860984D02*
X10517467Y-13870508D01*
X10517467Y-13870508D02*
X10526991Y-13880031D01*
X10526991Y-13880031D02*
X10536515Y-13899079D01*
X10536515Y-13899079D02*
X10546039Y-13937174D01*
X10546039Y-13937174D02*
X10546039Y-13984793D01*
X10546039Y-13984793D02*
X10536515Y-14022888D01*
X10536515Y-14022888D02*
X10526991Y-14041936D01*
X10526991Y-14041936D02*
X10517467Y-14051460D01*
X10517467Y-14051460D02*
X10498420Y-14060984D01*
X10498420Y-14060984D02*
X10479372Y-14060984D01*
X10479372Y-14060984D02*
X10460324Y-14051460D01*
X10460324Y-14051460D02*
X10450801Y-14041936D01*
X10450801Y-14041936D02*
X10441277Y-14022888D01*
X10441277Y-14022888D02*
X10431753Y-13984793D01*
X10431753Y-13984793D02*
X10431753Y-13937174D01*
X10431753Y-13937174D02*
X10441277Y-13899079D01*
X10441277Y-13899079D02*
X10450801Y-13880031D01*
X10450801Y-13880031D02*
X10460324Y-13870508D01*
X10460324Y-13870508D02*
X10479372Y-13860984D01*
X10631753Y-14041936D02*
X10641277Y-14051460D01*
X10641277Y-14051460D02*
X10631753Y-14060984D01*
X10631753Y-14060984D02*
X10622229Y-14051460D01*
X10622229Y-14051460D02*
X10631753Y-14041936D01*
X10631753Y-14041936D02*
X10631753Y-14060984D01*
X10812705Y-13860984D02*
X10774610Y-13860984D01*
X10774610Y-13860984D02*
X10755563Y-13870508D01*
X10755563Y-13870508D02*
X10746039Y-13880031D01*
X10746039Y-13880031D02*
X10726991Y-13908603D01*
X10726991Y-13908603D02*
X10717467Y-13946698D01*
X10717467Y-13946698D02*
X10717467Y-14022888D01*
X10717467Y-14022888D02*
X10726991Y-14041936D01*
X10726991Y-14041936D02*
X10736515Y-14051460D01*
X10736515Y-14051460D02*
X10755563Y-14060984D01*
X10755563Y-14060984D02*
X10793658Y-14060984D01*
X10793658Y-14060984D02*
X10812705Y-14051460D01*
X10812705Y-14051460D02*
X10822229Y-14041936D01*
X10822229Y-14041936D02*
X10831753Y-14022888D01*
X10831753Y-14022888D02*
X10831753Y-13975269D01*
X10831753Y-13975269D02*
X10822229Y-13956222D01*
X10822229Y-13956222D02*
X10812705Y-13946698D01*
X10812705Y-13946698D02*
X10793658Y-13937174D01*
X10793658Y-13937174D02*
X10755563Y-13937174D01*
X10755563Y-13937174D02*
X10736515Y-13946698D01*
X10736515Y-13946698D02*
X10726991Y-13956222D01*
X10726991Y-13956222D02*
X10717467Y-13975269D01*
X10955563Y-13860984D02*
X10974610Y-13860984D01*
X10974610Y-13860984D02*
X10993658Y-13870508D01*
X10993658Y-13870508D02*
X11003182Y-13880031D01*
X11003182Y-13880031D02*
X11012705Y-13899079D01*
X11012705Y-13899079D02*
X11022229Y-13937174D01*
X11022229Y-13937174D02*
X11022229Y-13984793D01*
X11022229Y-13984793D02*
X11012705Y-14022888D01*
X11012705Y-14022888D02*
X11003182Y-14041936D01*
X11003182Y-14041936D02*
X10993658Y-14051460D01*
X10993658Y-14051460D02*
X10974610Y-14060984D01*
X10974610Y-14060984D02*
X10955563Y-14060984D01*
X10955563Y-14060984D02*
X10936515Y-14051460D01*
X10936515Y-14051460D02*
X10926991Y-14041936D01*
X10926991Y-14041936D02*
X10917467Y-14022888D01*
X10917467Y-14022888D02*
X10907944Y-13984793D01*
X10907944Y-13984793D02*
X10907944Y-13937174D01*
X10907944Y-13937174D02*
X10917467Y-13899079D01*
X10917467Y-13899079D02*
X10926991Y-13880031D01*
X10926991Y-13880031D02*
X10936515Y-13870508D01*
X10936515Y-13870508D02*
X10955563Y-13860984D01*
X11146039Y-13860984D02*
X11165086Y-13860984D01*
X11165086Y-13860984D02*
X11184134Y-13870508D01*
X11184134Y-13870508D02*
X11193658Y-13880031D01*
X11193658Y-13880031D02*
X11203182Y-13899079D01*
X11203182Y-13899079D02*
X11212705Y-13937174D01*
X11212705Y-13937174D02*
X11212705Y-13984793D01*
X11212705Y-13984793D02*
X11203182Y-14022888D01*
X11203182Y-14022888D02*
X11193658Y-14041936D01*
X11193658Y-14041936D02*
X11184134Y-14051460D01*
X11184134Y-14051460D02*
X11165086Y-14060984D01*
X11165086Y-14060984D02*
X11146039Y-14060984D01*
X11146039Y-14060984D02*
X11126991Y-14051460D01*
X11126991Y-14051460D02*
X11117467Y-14041936D01*
X11117467Y-14041936D02*
X11107944Y-14022888D01*
X11107944Y-14022888D02*
X11098420Y-13984793D01*
X11098420Y-13984793D02*
X11098420Y-13937174D01*
X11098420Y-13937174D02*
X11107944Y-13899079D01*
X11107944Y-13899079D02*
X11117467Y-13880031D01*
X11117467Y-13880031D02*
X11126991Y-13870508D01*
X11126991Y-13870508D02*
X11146039Y-13860984D01*
X11298420Y-14060984D02*
X11298420Y-13927650D01*
X11298420Y-13946698D02*
X11307943Y-13937174D01*
X11307943Y-13937174D02*
X11326991Y-13927650D01*
X11326991Y-13927650D02*
X11355563Y-13927650D01*
X11355563Y-13927650D02*
X11374610Y-13937174D01*
X11374610Y-13937174D02*
X11384134Y-13956222D01*
X11384134Y-13956222D02*
X11384134Y-14060984D01*
X11384134Y-13956222D02*
X11393658Y-13937174D01*
X11393658Y-13937174D02*
X11412705Y-13927650D01*
X11412705Y-13927650D02*
X11441277Y-13927650D01*
X11441277Y-13927650D02*
X11460324Y-13937174D01*
X11460324Y-13937174D02*
X11469848Y-13956222D01*
X11469848Y-13956222D02*
X11469848Y-14060984D01*
X11565086Y-14060984D02*
X11565086Y-13927650D01*
X11565086Y-13946698D02*
X11574610Y-13937174D01*
X11574610Y-13937174D02*
X11593658Y-13927650D01*
X11593658Y-13927650D02*
X11622229Y-13927650D01*
X11622229Y-13927650D02*
X11641277Y-13937174D01*
X11641277Y-13937174D02*
X11650801Y-13956222D01*
X11650801Y-13956222D02*
X11650801Y-14060984D01*
X11650801Y-13956222D02*
X11660324Y-13937174D01*
X11660324Y-13937174D02*
X11679372Y-13927650D01*
X11679372Y-13927650D02*
X11707943Y-13927650D01*
X11707943Y-13927650D02*
X11726991Y-13937174D01*
X11726991Y-13937174D02*
X11736515Y-13956222D01*
X11736515Y-13956222D02*
X11736515Y-14060984D01*
X12126991Y-13851460D02*
X11955563Y-14108603D01*
X12384134Y-13860984D02*
X12403182Y-13860984D01*
X12403182Y-13860984D02*
X12422229Y-13870508D01*
X12422229Y-13870508D02*
X12431753Y-13880031D01*
X12431753Y-13880031D02*
X12441277Y-13899079D01*
X12441277Y-13899079D02*
X12450801Y-13937174D01*
X12450801Y-13937174D02*
X12450801Y-13984793D01*
X12450801Y-13984793D02*
X12441277Y-14022888D01*
X12441277Y-14022888D02*
X12431753Y-14041936D01*
X12431753Y-14041936D02*
X12422229Y-14051460D01*
X12422229Y-14051460D02*
X12403182Y-14060984D01*
X12403182Y-14060984D02*
X12384134Y-14060984D01*
X12384134Y-14060984D02*
X12365086Y-14051460D01*
X12365086Y-14051460D02*
X12355563Y-14041936D01*
X12355563Y-14041936D02*
X12346039Y-14022888D01*
X12346039Y-14022888D02*
X12336515Y-13984793D01*
X12336515Y-13984793D02*
X12336515Y-13937174D01*
X12336515Y-13937174D02*
X12346039Y-13899079D01*
X12346039Y-13899079D02*
X12355563Y-13880031D01*
X12355563Y-13880031D02*
X12365086Y-13870508D01*
X12365086Y-13870508D02*
X12384134Y-13860984D01*
X12536515Y-14041936D02*
X12546039Y-14051460D01*
X12546039Y-14051460D02*
X12536515Y-14060984D01*
X12536515Y-14060984D02*
X12526991Y-14051460D01*
X12526991Y-14051460D02*
X12536515Y-14041936D01*
X12536515Y-14041936D02*
X12536515Y-14060984D01*
X12669848Y-13860984D02*
X12688896Y-13860984D01*
X12688896Y-13860984D02*
X12707944Y-13870508D01*
X12707944Y-13870508D02*
X12717467Y-13880031D01*
X12717467Y-13880031D02*
X12726991Y-13899079D01*
X12726991Y-13899079D02*
X12736515Y-13937174D01*
X12736515Y-13937174D02*
X12736515Y-13984793D01*
X12736515Y-13984793D02*
X12726991Y-14022888D01*
X12726991Y-14022888D02*
X12717467Y-14041936D01*
X12717467Y-14041936D02*
X12707944Y-14051460D01*
X12707944Y-14051460D02*
X12688896Y-14060984D01*
X12688896Y-14060984D02*
X12669848Y-14060984D01*
X12669848Y-14060984D02*
X12650801Y-14051460D01*
X12650801Y-14051460D02*
X12641277Y-14041936D01*
X12641277Y-14041936D02*
X12631753Y-14022888D01*
X12631753Y-14022888D02*
X12622229Y-13984793D01*
X12622229Y-13984793D02*
X12622229Y-13937174D01*
X12622229Y-13937174D02*
X12631753Y-13899079D01*
X12631753Y-13899079D02*
X12641277Y-13880031D01*
X12641277Y-13880031D02*
X12650801Y-13870508D01*
X12650801Y-13870508D02*
X12669848Y-13860984D01*
X12812706Y-13880031D02*
X12822229Y-13870508D01*
X12822229Y-13870508D02*
X12841277Y-13860984D01*
X12841277Y-13860984D02*
X12888896Y-13860984D01*
X12888896Y-13860984D02*
X12907944Y-13870508D01*
X12907944Y-13870508D02*
X12917467Y-13880031D01*
X12917467Y-13880031D02*
X12926991Y-13899079D01*
X12926991Y-13899079D02*
X12926991Y-13918127D01*
X12926991Y-13918127D02*
X12917467Y-13946698D01*
X12917467Y-13946698D02*
X12803182Y-14060984D01*
X12803182Y-14060984D02*
X12926991Y-14060984D01*
X12993658Y-13860984D02*
X13117467Y-13860984D01*
X13117467Y-13860984D02*
X13050801Y-13937174D01*
X13050801Y-13937174D02*
X13079372Y-13937174D01*
X13079372Y-13937174D02*
X13098420Y-13946698D01*
X13098420Y-13946698D02*
X13107944Y-13956222D01*
X13107944Y-13956222D02*
X13117467Y-13975269D01*
X13117467Y-13975269D02*
X13117467Y-14022888D01*
X13117467Y-14022888D02*
X13107944Y-14041936D01*
X13107944Y-14041936D02*
X13098420Y-14051460D01*
X13098420Y-14051460D02*
X13079372Y-14060984D01*
X13079372Y-14060984D02*
X13022229Y-14060984D01*
X13022229Y-14060984D02*
X13003182Y-14051460D01*
X13003182Y-14051460D02*
X12993658Y-14041936D01*
X13288896Y-13860984D02*
X13250801Y-13860984D01*
X13250801Y-13860984D02*
X13231753Y-13870508D01*
X13231753Y-13870508D02*
X13222229Y-13880031D01*
X13222229Y-13880031D02*
X13203182Y-13908603D01*
X13203182Y-13908603D02*
X13193658Y-13946698D01*
X13193658Y-13946698D02*
X13193658Y-14022888D01*
X13193658Y-14022888D02*
X13203182Y-14041936D01*
X13203182Y-14041936D02*
X13212706Y-14051460D01*
X13212706Y-14051460D02*
X13231753Y-14060984D01*
X13231753Y-14060984D02*
X13269848Y-14060984D01*
X13269848Y-14060984D02*
X13288896Y-14051460D01*
X13288896Y-14051460D02*
X13298420Y-14041936D01*
X13298420Y-14041936D02*
X13307944Y-14022888D01*
X13307944Y-14022888D02*
X13307944Y-13975269D01*
X13307944Y-13975269D02*
X13298420Y-13956222D01*
X13298420Y-13956222D02*
X13288896Y-13946698D01*
X13288896Y-13946698D02*
X13269848Y-13937174D01*
X13269848Y-13937174D02*
X13231753Y-13937174D01*
X13231753Y-13937174D02*
X13212706Y-13946698D01*
X13212706Y-13946698D02*
X13203182Y-13956222D01*
X13203182Y-13956222D02*
X13193658Y-13975269D01*
X13384134Y-13860984D02*
X13384134Y-13899079D01*
X13460325Y-13860984D02*
X13460325Y-13899079D01*
X13755563Y-14137174D02*
X13746039Y-14127650D01*
X13746039Y-14127650D02*
X13726991Y-14099079D01*
X13726991Y-14099079D02*
X13717468Y-14080031D01*
X13717468Y-14080031D02*
X13707944Y-14051460D01*
X13707944Y-14051460D02*
X13698420Y-14003841D01*
X13698420Y-14003841D02*
X13698420Y-13965746D01*
X13698420Y-13965746D02*
X13707944Y-13918127D01*
X13707944Y-13918127D02*
X13717468Y-13889555D01*
X13717468Y-13889555D02*
X13726991Y-13870508D01*
X13726991Y-13870508D02*
X13746039Y-13841936D01*
X13746039Y-13841936D02*
X13755563Y-13832412D01*
X13869848Y-13860984D02*
X13888896Y-13860984D01*
X13888896Y-13860984D02*
X13907944Y-13870508D01*
X13907944Y-13870508D02*
X13917468Y-13880031D01*
X13917468Y-13880031D02*
X13926991Y-13899079D01*
X13926991Y-13899079D02*
X13936515Y-13937174D01*
X13936515Y-13937174D02*
X13936515Y-13984793D01*
X13936515Y-13984793D02*
X13926991Y-14022888D01*
X13926991Y-14022888D02*
X13917468Y-14041936D01*
X13917468Y-14041936D02*
X13907944Y-14051460D01*
X13907944Y-14051460D02*
X13888896Y-14060984D01*
X13888896Y-14060984D02*
X13869848Y-14060984D01*
X13869848Y-14060984D02*
X13850801Y-14051460D01*
X13850801Y-14051460D02*
X13841277Y-14041936D01*
X13841277Y-14041936D02*
X13831753Y-14022888D01*
X13831753Y-14022888D02*
X13822229Y-13984793D01*
X13822229Y-13984793D02*
X13822229Y-13937174D01*
X13822229Y-13937174D02*
X13831753Y-13899079D01*
X13831753Y-13899079D02*
X13841277Y-13880031D01*
X13841277Y-13880031D02*
X13850801Y-13870508D01*
X13850801Y-13870508D02*
X13869848Y-13860984D01*
X14174610Y-14060984D02*
X14174610Y-13860984D01*
X14260325Y-14060984D02*
X14260325Y-13956222D01*
X14260325Y-13956222D02*
X14250801Y-13937174D01*
X14250801Y-13937174D02*
X14231753Y-13927650D01*
X14231753Y-13927650D02*
X14203182Y-13927650D01*
X14203182Y-13927650D02*
X14184134Y-13937174D01*
X14184134Y-13937174D02*
X14174610Y-13946698D01*
X14384134Y-14060984D02*
X14365087Y-14051460D01*
X14365087Y-14051460D02*
X14355563Y-14041936D01*
X14355563Y-14041936D02*
X14346039Y-14022888D01*
X14346039Y-14022888D02*
X14346039Y-13965746D01*
X14346039Y-13965746D02*
X14355563Y-13946698D01*
X14355563Y-13946698D02*
X14365087Y-13937174D01*
X14365087Y-13937174D02*
X14384134Y-13927650D01*
X14384134Y-13927650D02*
X14412706Y-13927650D01*
X14412706Y-13927650D02*
X14431753Y-13937174D01*
X14431753Y-13937174D02*
X14441277Y-13946698D01*
X14441277Y-13946698D02*
X14450801Y-13965746D01*
X14450801Y-13965746D02*
X14450801Y-14022888D01*
X14450801Y-14022888D02*
X14441277Y-14041936D01*
X14441277Y-14041936D02*
X14431753Y-14051460D01*
X14431753Y-14051460D02*
X14412706Y-14060984D01*
X14412706Y-14060984D02*
X14384134Y-14060984D01*
X14565087Y-14060984D02*
X14546039Y-14051460D01*
X14546039Y-14051460D02*
X14536515Y-14032412D01*
X14536515Y-14032412D02*
X14536515Y-13860984D01*
X14717468Y-14051460D02*
X14698420Y-14060984D01*
X14698420Y-14060984D02*
X14660325Y-14060984D01*
X14660325Y-14060984D02*
X14641277Y-14051460D01*
X14641277Y-14051460D02*
X14631753Y-14032412D01*
X14631753Y-14032412D02*
X14631753Y-13956222D01*
X14631753Y-13956222D02*
X14641277Y-13937174D01*
X14641277Y-13937174D02*
X14660325Y-13927650D01*
X14660325Y-13927650D02*
X14698420Y-13927650D01*
X14698420Y-13927650D02*
X14717468Y-13937174D01*
X14717468Y-13937174D02*
X14726991Y-13956222D01*
X14726991Y-13956222D02*
X14726991Y-13975269D01*
X14726991Y-13975269D02*
X14631753Y-13994317D01*
X14803182Y-14051460D02*
X14822230Y-14060984D01*
X14822230Y-14060984D02*
X14860325Y-14060984D01*
X14860325Y-14060984D02*
X14879372Y-14051460D01*
X14879372Y-14051460D02*
X14888896Y-14032412D01*
X14888896Y-14032412D02*
X14888896Y-14022888D01*
X14888896Y-14022888D02*
X14879372Y-14003841D01*
X14879372Y-14003841D02*
X14860325Y-13994317D01*
X14860325Y-13994317D02*
X14831753Y-13994317D01*
X14831753Y-13994317D02*
X14812706Y-13984793D01*
X14812706Y-13984793D02*
X14803182Y-13965746D01*
X14803182Y-13965746D02*
X14803182Y-13956222D01*
X14803182Y-13956222D02*
X14812706Y-13937174D01*
X14812706Y-13937174D02*
X14831753Y-13927650D01*
X14831753Y-13927650D02*
X14860325Y-13927650D01*
X14860325Y-13927650D02*
X14879372Y-13937174D01*
X15126992Y-13984793D02*
X15279373Y-13984793D01*
X15203182Y-14060984D02*
X15203182Y-13908603D01*
X15612706Y-13927650D02*
X15612706Y-14060984D01*
X15565087Y-13851460D02*
X15517468Y-13994317D01*
X15517468Y-13994317D02*
X15641277Y-13994317D01*
X15860325Y-14051460D02*
X15879373Y-14060984D01*
X15879373Y-14060984D02*
X15917468Y-14060984D01*
X15917468Y-14060984D02*
X15936515Y-14051460D01*
X15936515Y-14051460D02*
X15946039Y-14032412D01*
X15946039Y-14032412D02*
X15946039Y-14022888D01*
X15946039Y-14022888D02*
X15936515Y-14003841D01*
X15936515Y-14003841D02*
X15917468Y-13994317D01*
X15917468Y-13994317D02*
X15888896Y-13994317D01*
X15888896Y-13994317D02*
X15869849Y-13984793D01*
X15869849Y-13984793D02*
X15860325Y-13965746D01*
X15860325Y-13965746D02*
X15860325Y-13956222D01*
X15860325Y-13956222D02*
X15869849Y-13937174D01*
X15869849Y-13937174D02*
X15888896Y-13927650D01*
X15888896Y-13927650D02*
X15917468Y-13927650D01*
X15917468Y-13927650D02*
X15936515Y-13937174D01*
X16060325Y-14060984D02*
X16041277Y-14051460D01*
X16041277Y-14051460D02*
X16031754Y-14032412D01*
X16031754Y-14032412D02*
X16031754Y-13860984D01*
X16165087Y-14060984D02*
X16146039Y-14051460D01*
X16146039Y-14051460D02*
X16136515Y-14041936D01*
X16136515Y-14041936D02*
X16126992Y-14022888D01*
X16126992Y-14022888D02*
X16126992Y-13965746D01*
X16126992Y-13965746D02*
X16136515Y-13946698D01*
X16136515Y-13946698D02*
X16146039Y-13937174D01*
X16146039Y-13937174D02*
X16165087Y-13927650D01*
X16165087Y-13927650D02*
X16193658Y-13927650D01*
X16193658Y-13927650D02*
X16212706Y-13937174D01*
X16212706Y-13937174D02*
X16222230Y-13946698D01*
X16222230Y-13946698D02*
X16231754Y-13965746D01*
X16231754Y-13965746D02*
X16231754Y-14022888D01*
X16231754Y-14022888D02*
X16222230Y-14041936D01*
X16222230Y-14041936D02*
X16212706Y-14051460D01*
X16212706Y-14051460D02*
X16193658Y-14060984D01*
X16193658Y-14060984D02*
X16165087Y-14060984D01*
X16288896Y-13927650D02*
X16365087Y-13927650D01*
X16317468Y-13860984D02*
X16317468Y-14032412D01*
X16317468Y-14032412D02*
X16326992Y-14051460D01*
X16326992Y-14051460D02*
X16346039Y-14060984D01*
X16346039Y-14060984D02*
X16365087Y-14060984D01*
X16422230Y-14051460D02*
X16441277Y-14060984D01*
X16441277Y-14060984D02*
X16479373Y-14060984D01*
X16479373Y-14060984D02*
X16498420Y-14051460D01*
X16498420Y-14051460D02*
X16507944Y-14032412D01*
X16507944Y-14032412D02*
X16507944Y-14022888D01*
X16507944Y-14022888D02*
X16498420Y-14003841D01*
X16498420Y-14003841D02*
X16479373Y-13994317D01*
X16479373Y-13994317D02*
X16450801Y-13994317D01*
X16450801Y-13994317D02*
X16431754Y-13984793D01*
X16431754Y-13984793D02*
X16422230Y-13965746D01*
X16422230Y-13965746D02*
X16422230Y-13956222D01*
X16422230Y-13956222D02*
X16431754Y-13937174D01*
X16431754Y-13937174D02*
X16450801Y-13927650D01*
X16450801Y-13927650D02*
X16479373Y-13927650D01*
X16479373Y-13927650D02*
X16498420Y-13937174D01*
X16574611Y-14137174D02*
X16584135Y-14127650D01*
X16584135Y-14127650D02*
X16603182Y-14099079D01*
X16603182Y-14099079D02*
X16612706Y-14080031D01*
X16612706Y-14080031D02*
X16622230Y-14051460D01*
X16622230Y-14051460D02*
X16631754Y-14003841D01*
X16631754Y-14003841D02*
X16631754Y-13965746D01*
X16631754Y-13965746D02*
X16622230Y-13918127D01*
X16622230Y-13918127D02*
X16612706Y-13889555D01*
X16612706Y-13889555D02*
X16603182Y-13870508D01*
X16603182Y-13870508D02*
X16584135Y-13841936D01*
X16584135Y-13841936D02*
X16574611Y-13832412D01*
M02*
