M48
; DRILL file {KiCad 7.0.9-7.0.9~ubuntu22.04.1} date Пт 08 дек 2023 17:36:03
; FORMAT={-:-/ absolute / inch / decimal}
; #@! TF.CreationDate,2023-12-08T17:36:03+03:00
; #@! TF.GenerationSoftware,Kicad,Pcbnew,7.0.9-7.0.9~ubuntu22.04.1
; #@! TF.FileFunction,NonPlated,1,2,NPTH
FMAT,2
INCH
; #@! TA.AperFunction,NonPlated,NPTH,ComponentDrill
T1C0.0236
; #@! TA.AperFunction,NonPlated,NPTH,ComponentDrill
T2C0.0591
; #@! TA.AperFunction,NonPlated,NPTH,ComponentDrill
T3C0.0689
; #@! TA.AperFunction,NonPlated,NPTH,ComponentDrill
T4C0.0709
; #@! TA.AperFunction,NonPlated,NPTH,ComponentDrill
T5C0.1201
; #@! TA.AperFunction,NonPlated,NPTH,ComponentDrill
T6C0.1260
; #@! TA.AperFunction,NonPlated,NPTH,ComponentDrill
T7C0.1575
%
G90
G05
T1
X5.1329Y-1.5638
X5.3604Y-1.5638
T2
X7.1602Y-4.7685
X7.2557Y-4.6031
T3
X4.2144Y-2.1897
X4.2144Y-2.9397
X4.2144Y-3.6897
X4.2144Y-4.4397
X4.6144Y-2.1897
X4.6144Y-2.9397
X4.6144Y-3.6897
X4.6144Y-4.4397
X4.9644Y-2.1897
X4.9644Y-2.9397
X4.9644Y-3.6897
X4.9644Y-4.4397
X5.3644Y-2.1897
X5.3644Y-2.9397
X5.3644Y-3.6897
X5.3644Y-4.4397
X5.7144Y-1.6346
X5.7144Y-2.3846
X5.7144Y-3.1346
X5.7173Y-4.9281
X6.1144Y-1.6346
X6.1144Y-2.3846
X6.1144Y-3.1346
X6.1173Y-4.9281
X6.4644Y-1.9121
X6.4644Y-2.6621
X6.4644Y-3.4121
X6.8644Y-1.9121
X6.8644Y-2.6621
X6.8644Y-3.4121
X7.2144Y-1.4397
X7.2144Y-2.1897
X7.2144Y-2.9397
X7.2144Y-3.6897
X7.6144Y-1.4397
X7.6144Y-2.1897
X7.6144Y-2.9397
X7.6144Y-3.6897
T4
X7.2576Y-4.8384
X7.3649Y-4.6526
T5
X4.3144Y-1.9897
X4.3144Y-2.7397
X4.3144Y-3.4897
X4.3144Y-4.2397
X4.5644Y-2.0897
X4.5644Y-2.8397
X4.5644Y-3.5897
X4.5644Y-4.3397
X5.0644Y-1.9897
X5.0644Y-2.7397
X5.0644Y-3.4897
X5.0644Y-4.2397
X5.3144Y-2.0897
X5.3144Y-2.8397
X5.3144Y-3.5897
X5.3144Y-4.3397
X5.8144Y-1.4346
X5.8144Y-2.1846
X5.8144Y-2.9346
X5.8173Y-4.7281
X6.0644Y-1.5346
X6.0644Y-2.2846
X6.0644Y-3.0346
X6.0673Y-4.8281
X6.5644Y-1.7121
X6.5644Y-2.4621
X6.5644Y-3.2121
X6.8144Y-1.8121
X6.8144Y-2.5621
X6.8144Y-3.3121
X7.2644Y-1.5397
X7.3144Y-1.9897
X7.3144Y-2.7397
X7.3144Y-3.4897
X7.5144Y-1.6397
X7.5644Y-2.0897
X7.5644Y-2.8397
X7.5644Y-3.5897
T6
X4.7894Y-1.8147
X4.7894Y-3.3147
X4.7894Y-4.0647
X5.5394Y-4.8147
X6.2894Y-2.0096
X6.2894Y-2.7596
X7.0394Y-2.2871
X7.0394Y-3.7871
T7
X4.4144Y-2.1897
X4.4144Y-2.9397
X4.4144Y-3.6897
X4.4144Y-4.4397
X5.1644Y-2.1897
X5.1644Y-2.9397
X5.1644Y-3.6897
X5.1644Y-4.4397
X5.9144Y-1.6346
X5.9144Y-2.3846
X5.9144Y-3.1346
X5.9173Y-4.9281
X6.6644Y-1.9121
X6.6644Y-2.6621
X6.6644Y-3.4121
X7.4144Y-1.4397
X7.4144Y-2.1897
X7.4144Y-2.9397
X7.4144Y-3.6897
T0
M30
