%TF.GenerationSoftware,KiCad,Pcbnew,7.0.9-7.0.9~ubuntu22.04.1*%
%TF.CreationDate,2023-11-28T14:59:13+03:00*%
%TF.ProjectId,Keeb,4b656562-2e6b-4696-9361-645f70636258,rev?*%
%TF.SameCoordinates,Original*%
%TF.FileFunction,Soldermask,Top*%
%TF.FilePolarity,Negative*%
%FSLAX46Y46*%
G04 Gerber Fmt 4.6, Leading zero omitted, Abs format (unit mm)*
G04 Created by KiCad (PCBNEW 7.0.9-7.0.9~ubuntu22.04.1) date 2023-11-28 14:59:13*
%MOMM*%
%LPD*%
G01*
G04 APERTURE LIST*
G04 Aperture macros list*
%AMRoundRect*
0 Rectangle with rounded corners*
0 $1 Rounding radius*
0 $2 $3 $4 $5 $6 $7 $8 $9 X,Y pos of 4 corners*
0 Add a 4 corners polygon primitive as box body*
4,1,4,$2,$3,$4,$5,$6,$7,$8,$9,$2,$3,0*
0 Add four circle primitives for the rounded corners*
1,1,$1+$1,$2,$3*
1,1,$1+$1,$4,$5*
1,1,$1+$1,$6,$7*
1,1,$1+$1,$8,$9*
0 Add four rect primitives between the rounded corners*
20,1,$1+$1,$2,$3,$4,$5,0*
20,1,$1+$1,$4,$5,$6,$7,0*
20,1,$1+$1,$6,$7,$8,$9,0*
20,1,$1+$1,$8,$9,$2,$3,0*%
%AMHorizOval*
0 Thick line with rounded ends*
0 $1 width*
0 $2 $3 position (X,Y) of the first rounded end (center of the circle)*
0 $4 $5 position (X,Y) of the second rounded end (center of the circle)*
0 Add line between two ends*
20,1,$1,$2,$3,$4,$5,0*
0 Add two circle primitives to create the rounded ends*
1,1,$1,$2,$3*
1,1,$1,$4,$5*%
%AMRotRect*
0 Rectangle, with rotation*
0 The origin of the aperture is its center*
0 $1 length*
0 $2 width*
0 $3 Rotation angle, in degrees counterclockwise*
0 Add horizontal line*
21,1,$1,$2,0,0,$3*%
G04 Aperture macros list end*
%ADD10C,0.010000*%
%ADD11C,3.200000*%
%ADD12HorizOval,1.800000X0.000000X0.000000X0.000000X0.000000X0*%
%ADD13HorizOval,1.500000X0.000000X0.000000X0.000000X0.000000X0*%
%ADD14RotRect,3.500000X1.700000X240.000000*%
%ADD15C,0.600000*%
%ADD16O,1.104000X2.204000*%
%ADD17O,1.104000X1.904000*%
%ADD18C,1.750000*%
%ADD19C,3.050000*%
%ADD20C,4.000000*%
%ADD21RoundRect,0.250000X1.025000X1.000000X-1.025000X1.000000X-1.025000X-1.000000X1.025000X-1.000000X0*%
%ADD22RoundRect,0.250000X1.387676X0.353525X-0.387676X1.378525X-1.387676X-0.353525X0.387676X-1.378525X0*%
%ADD23RoundRect,0.250000X1.183076X0.806818X-0.835780X1.162797X-1.183076X-0.806818X0.835780X-1.162797X0*%
G04 APERTURE END LIST*
%TO.C,J1*%
D10*
X136815000Y-41410000D02*
X136115000Y-41410000D01*
X136115000Y-40170000D01*
X136815000Y-40170000D01*
X136815000Y-41410000D01*
G36*
X136815000Y-41410000D02*
G01*
X136115000Y-41410000D01*
X136115000Y-40170000D01*
X136815000Y-40170000D01*
X136815000Y-41410000D01*
G37*
X136015000Y-41410000D02*
X135315000Y-41410000D01*
X135315000Y-40170000D01*
X136015000Y-40170000D01*
X136015000Y-41410000D01*
G36*
X136015000Y-41410000D02*
G01*
X135315000Y-41410000D01*
X135315000Y-40170000D01*
X136015000Y-40170000D01*
X136015000Y-41410000D01*
G37*
X135215000Y-41410000D02*
X134815000Y-41410000D01*
X134815000Y-40170000D01*
X135215000Y-40170000D01*
X135215000Y-41410000D01*
G36*
X135215000Y-41410000D02*
G01*
X134815000Y-41410000D01*
X134815000Y-40170000D01*
X135215000Y-40170000D01*
X135215000Y-41410000D01*
G37*
X134715000Y-41410000D02*
X134315000Y-41410000D01*
X134315000Y-40170000D01*
X134715000Y-40170000D01*
X134715000Y-41410000D01*
G36*
X134715000Y-41410000D02*
G01*
X134315000Y-41410000D01*
X134315000Y-40170000D01*
X134715000Y-40170000D01*
X134715000Y-41410000D01*
G37*
X134215000Y-41410000D02*
X133815000Y-41410000D01*
X133815000Y-40170000D01*
X134215000Y-40170000D01*
X134215000Y-41410000D01*
G36*
X134215000Y-41410000D02*
G01*
X133815000Y-41410000D01*
X133815000Y-40170000D01*
X134215000Y-40170000D01*
X134215000Y-41410000D01*
G37*
X133715000Y-41410000D02*
X133315000Y-41410000D01*
X133315000Y-40170000D01*
X133715000Y-40170000D01*
X133715000Y-41410000D01*
G36*
X133715000Y-41410000D02*
G01*
X133315000Y-41410000D01*
X133315000Y-40170000D01*
X133715000Y-40170000D01*
X133715000Y-41410000D01*
G37*
X133215000Y-41410000D02*
X132815000Y-41410000D01*
X132815000Y-40170000D01*
X133215000Y-40170000D01*
X133215000Y-41410000D01*
G36*
X133215000Y-41410000D02*
G01*
X132815000Y-41410000D01*
X132815000Y-40170000D01*
X133215000Y-40170000D01*
X133215000Y-41410000D01*
G37*
X132715000Y-41410000D02*
X132315000Y-41410000D01*
X132315000Y-40170000D01*
X132715000Y-40170000D01*
X132715000Y-41410000D01*
G36*
X132715000Y-41410000D02*
G01*
X132315000Y-41410000D01*
X132315000Y-40170000D01*
X132715000Y-40170000D01*
X132715000Y-41410000D01*
G37*
X132215000Y-41410000D02*
X131815000Y-41410000D01*
X131815000Y-40170000D01*
X132215000Y-40170000D01*
X132215000Y-41410000D01*
G36*
X132215000Y-41410000D02*
G01*
X131815000Y-41410000D01*
X131815000Y-40170000D01*
X132215000Y-40170000D01*
X132215000Y-41410000D01*
G37*
X131715000Y-41410000D02*
X131315000Y-41410000D01*
X131315000Y-40170000D01*
X131715000Y-40170000D01*
X131715000Y-41410000D01*
G36*
X131715000Y-41410000D02*
G01*
X131315000Y-41410000D01*
X131315000Y-40170000D01*
X131715000Y-40170000D01*
X131715000Y-41410000D01*
G37*
X131215000Y-41410000D02*
X130515000Y-41410000D01*
X130515000Y-40170000D01*
X131215000Y-40170000D01*
X131215000Y-41410000D01*
G36*
X131215000Y-41410000D02*
G01*
X130515000Y-41410000D01*
X130515000Y-40170000D01*
X131215000Y-40170000D01*
X131215000Y-41410000D01*
G37*
X130415000Y-41410000D02*
X129715000Y-41410000D01*
X129715000Y-40170000D01*
X130415000Y-40170000D01*
X130415000Y-41410000D01*
G36*
X130415000Y-41410000D02*
G01*
X129715000Y-41410000D01*
X129715000Y-40170000D01*
X130415000Y-40170000D01*
X130415000Y-41410000D01*
G37*
%TD*%
D11*
%TO.C,H9*%
X151223749Y-123421119D03*
%TD*%
%TO.C,H8*%
X178800000Y-96192944D03*
%TD*%
%TO.C,H7*%
X121650000Y-84192944D03*
%TD*%
%TO.C,H5*%
X118228181Y-104371119D03*
%TD*%
%TO.C,H4*%
X178800000Y-58092944D03*
%TD*%
%TO.C,H3*%
X159750000Y-51042944D03*
%TD*%
%TO.C,H2*%
X159750000Y-70092944D03*
%TD*%
%TO.C,H1*%
X121650000Y-46092944D03*
%TD*%
D12*
%TO.C,U1*%
X187069057Y-118174969D03*
D13*
X184295000Y-116919776D03*
X181870000Y-121120000D03*
D12*
X184344057Y-122894807D03*
D14*
X190714140Y-112121499D03*
X188514435Y-110851499D03*
X186314731Y-109581499D03*
X184115026Y-108311499D03*
X181915322Y-107041499D03*
X179715617Y-105771499D03*
X177515913Y-104501499D03*
X175316208Y-103231499D03*
X173116504Y-101961499D03*
X170916799Y-100691499D03*
X168717095Y-99421499D03*
X166517390Y-98151499D03*
X164317686Y-96881499D03*
X162117981Y-95611499D03*
X159918277Y-94341499D03*
X157718572Y-93071499D03*
X155518868Y-91801499D03*
X153319163Y-90531499D03*
X151119459Y-89261499D03*
X148919754Y-87991499D03*
X139129754Y-104948277D03*
X141329459Y-106218277D03*
X143529163Y-107488277D03*
X145728868Y-108758277D03*
X147928572Y-110028277D03*
X150128277Y-111298277D03*
X152327981Y-112568277D03*
X154527686Y-113838277D03*
X156727390Y-115108277D03*
X158927095Y-116378277D03*
X161126799Y-117648277D03*
X163326504Y-118918277D03*
X165526208Y-120188277D03*
X167725913Y-121458277D03*
X169925617Y-122728277D03*
X172125322Y-123998277D03*
X174325026Y-125268277D03*
X176524731Y-126538277D03*
X178724435Y-127808277D03*
X180924140Y-129078277D03*
%TD*%
D15*
%TO.C,J1*%
X136155000Y-39720000D03*
X130375000Y-39720000D03*
D16*
X137590000Y-40210000D03*
X128940000Y-40210000D03*
D17*
X137590000Y-36040000D03*
X128940000Y-36040000D03*
%TD*%
D18*
%TO.C,SW3*%
X193405000Y-55617944D03*
D19*
X192135000Y-53077944D03*
D20*
X188325000Y-55617944D03*
D19*
X185785000Y-50537944D03*
D18*
X183245000Y-55617944D03*
D21*
X195410000Y-53077944D03*
X182483000Y-50537944D03*
%TD*%
D18*
%TO.C,SW4*%
X193405000Y-74667944D03*
D19*
X192135000Y-72127944D03*
D20*
X188325000Y-74667944D03*
D19*
X185785000Y-69587944D03*
D18*
X183245000Y-74667944D03*
D21*
X195410000Y-72127944D03*
X182483000Y-69587944D03*
%TD*%
D18*
%TO.C,SW5*%
X193405000Y-93717944D03*
D19*
X192135000Y-91177944D03*
D20*
X188325000Y-93717944D03*
D19*
X185785000Y-88637944D03*
D18*
X183245000Y-93717944D03*
D21*
X195410000Y-91177944D03*
X182483000Y-88637944D03*
%TD*%
D18*
%TO.C,SW6*%
X174355000Y-48567944D03*
D19*
X173085000Y-46027944D03*
D20*
X169275000Y-48567944D03*
D19*
X166735000Y-43487944D03*
D18*
X164195000Y-48567944D03*
D21*
X176360000Y-46027944D03*
X163433000Y-43487944D03*
%TD*%
D18*
%TO.C,SW7*%
X174355000Y-67617944D03*
D19*
X173085000Y-65077944D03*
D20*
X169275000Y-67617944D03*
D19*
X166735000Y-62537944D03*
D18*
X164195000Y-67617944D03*
D21*
X176360000Y-65077944D03*
X163433000Y-62537944D03*
%TD*%
D18*
%TO.C,SW8*%
X174355000Y-86667944D03*
D19*
X173085000Y-84127944D03*
D20*
X169275000Y-86667944D03*
D19*
X166735000Y-81587944D03*
D18*
X164195000Y-86667944D03*
D21*
X176360000Y-84127944D03*
X163433000Y-81587944D03*
%TD*%
D18*
%TO.C,SW9*%
X155305000Y-41517944D03*
D19*
X154035000Y-38977944D03*
D20*
X150225000Y-41517944D03*
D19*
X147685000Y-36437944D03*
D18*
X145145000Y-41517944D03*
D21*
X157310000Y-38977944D03*
X144383000Y-36437944D03*
%TD*%
D18*
%TO.C,SW10*%
X155305000Y-60567944D03*
D19*
X154035000Y-58027944D03*
D20*
X150225000Y-60567944D03*
D19*
X147685000Y-55487944D03*
D18*
X145145000Y-60567944D03*
D21*
X157310000Y-58027944D03*
X144383000Y-55487944D03*
%TD*%
D18*
%TO.C,SW11*%
X155305000Y-79617944D03*
D19*
X154035000Y-77077944D03*
D20*
X150225000Y-79617944D03*
D19*
X147685000Y-74537944D03*
D18*
X145145000Y-79617944D03*
D21*
X157310000Y-77077944D03*
X144383000Y-74537944D03*
%TD*%
D18*
%TO.C,SW13*%
X136255000Y-55617944D03*
D19*
X134985000Y-53077944D03*
D20*
X131175000Y-55617944D03*
D19*
X128635000Y-50537944D03*
D18*
X126095000Y-55617944D03*
D21*
X138260000Y-53077944D03*
X125333000Y-50537944D03*
%TD*%
D18*
%TO.C,SW14*%
X136255000Y-74667944D03*
D19*
X134985000Y-72127944D03*
D20*
X131175000Y-74667944D03*
D19*
X128635000Y-69587944D03*
D18*
X126095000Y-74667944D03*
D21*
X138260000Y-72127944D03*
X125333000Y-69587944D03*
%TD*%
D18*
%TO.C,SW15*%
X136255000Y-93717944D03*
D19*
X134985000Y-91177944D03*
D20*
X131175000Y-93717944D03*
D19*
X128635000Y-88637944D03*
D18*
X126095000Y-93717944D03*
D21*
X138260000Y-91177944D03*
X125333000Y-88637944D03*
%TD*%
D18*
%TO.C,SW16*%
X142611766Y-129447511D03*
D19*
X142781914Y-126612806D03*
D20*
X138212357Y-126907511D03*
D19*
X138552652Y-121238102D03*
D18*
X133812948Y-124367511D03*
D22*
X145618147Y-128250306D03*
X135693037Y-119587102D03*
%TD*%
D18*
%TO.C,SW17*%
X117205000Y-55617944D03*
D19*
X115935000Y-53077944D03*
D20*
X112125000Y-55617944D03*
D19*
X109585000Y-50537944D03*
D18*
X107045000Y-55617944D03*
D21*
X119210000Y-53077944D03*
X106283000Y-50537944D03*
%TD*%
D18*
%TO.C,SW18*%
X117205000Y-74667944D03*
D19*
X115935000Y-72127944D03*
D20*
X112125000Y-74667944D03*
D19*
X109585000Y-69587944D03*
D18*
X107045000Y-74667944D03*
D21*
X119210000Y-72127944D03*
X106283000Y-69587944D03*
%TD*%
D18*
%TO.C,SW19*%
X117205000Y-93717944D03*
D19*
X115935000Y-91177944D03*
D20*
X112125000Y-93717944D03*
D19*
X109585000Y-88637944D03*
D18*
X107045000Y-93717944D03*
D21*
X119210000Y-91177944D03*
X106283000Y-88637944D03*
%TD*%
D18*
%TO.C,SW20*%
X126113982Y-119922511D03*
D19*
X126284130Y-117087806D03*
D20*
X121714573Y-117382511D03*
D19*
X122054868Y-111713102D03*
D18*
X117315164Y-114842511D03*
D22*
X129120363Y-118725306D03*
X119195253Y-110062102D03*
%TD*%
D18*
%TO.C,SW1*%
X166800000Y-131350000D03*
D19*
X165990361Y-128628055D03*
D20*
X161797177Y-130467867D03*
D19*
X160177898Y-125023977D03*
D18*
X156794354Y-129585734D03*
D23*
X169215606Y-129196753D03*
X156926063Y-124450591D03*
%TD*%
M02*
